G04 #@! TF.GenerationSoftware,KiCad,Pcbnew,(5.0.0)*
G04 #@! TF.CreationDate,2018-11-07T00:59:44+09:00*
G04 #@! TF.ProjectId,gb_cart_flash,67625F636172745F666C6173682E6B69,rev?*
G04 #@! TF.SameCoordinates,Original*
G04 #@! TF.FileFunction,Paste,Top*
G04 #@! TF.FilePolarity,Positive*
%FSLAX46Y46*%
G04 Gerber Fmt 4.6, Leading zero omitted, Abs format (unit mm)*
G04 Created by KiCad (PCBNEW (5.0.0)) date 11/07/18 00:59:44*
%MOMM*%
%LPD*%
G01*
G04 APERTURE LIST*
%ADD10R,0.400000X1.350000*%
%ADD11R,2.100000X2.000000*%
%ADD12R,1.600000X1.900000*%
%ADD13R,2.000000X4.500000*%
%ADD14C,0.100000*%
%ADD15C,1.150000*%
%ADD16R,2.600000X1.600000*%
%ADD17C,0.950000*%
%ADD18R,1.350000X0.400000*%
%ADD19R,2.000000X2.100000*%
%ADD20R,1.900000X1.600000*%
%ADD21R,4.500000X2.000000*%
%ADD22R,1.600000X2.600000*%
G04 APERTURE END LIST*
D10*
G04 #@! TO.C,J1*
X238300000Y-112175000D03*
X237650000Y-112175000D03*
X237000000Y-112175000D03*
X236350000Y-112175000D03*
X235700000Y-112175000D03*
D11*
X233700000Y-112500000D03*
X240300000Y-112500000D03*
D12*
X232900000Y-114850000D03*
X241100000Y-114850000D03*
G04 #@! TD*
D13*
G04 #@! TO.C,Y1*
X244000000Y-76250000D03*
X244000000Y-67750000D03*
G04 #@! TD*
D14*
G04 #@! TO.C,R5*
G36*
X249474505Y-96426204D02*
X249498773Y-96429804D01*
X249522572Y-96435765D01*
X249545671Y-96444030D01*
X249567850Y-96454520D01*
X249588893Y-96467132D01*
X249608599Y-96481747D01*
X249626777Y-96498223D01*
X249643253Y-96516401D01*
X249657868Y-96536107D01*
X249670480Y-96557150D01*
X249680970Y-96579329D01*
X249689235Y-96602428D01*
X249695196Y-96626227D01*
X249698796Y-96650495D01*
X249700000Y-96674999D01*
X249700000Y-97325001D01*
X249698796Y-97349505D01*
X249695196Y-97373773D01*
X249689235Y-97397572D01*
X249680970Y-97420671D01*
X249670480Y-97442850D01*
X249657868Y-97463893D01*
X249643253Y-97483599D01*
X249626777Y-97501777D01*
X249608599Y-97518253D01*
X249588893Y-97532868D01*
X249567850Y-97545480D01*
X249545671Y-97555970D01*
X249522572Y-97564235D01*
X249498773Y-97570196D01*
X249474505Y-97573796D01*
X249450001Y-97575000D01*
X248549999Y-97575000D01*
X248525495Y-97573796D01*
X248501227Y-97570196D01*
X248477428Y-97564235D01*
X248454329Y-97555970D01*
X248432150Y-97545480D01*
X248411107Y-97532868D01*
X248391401Y-97518253D01*
X248373223Y-97501777D01*
X248356747Y-97483599D01*
X248342132Y-97463893D01*
X248329520Y-97442850D01*
X248319030Y-97420671D01*
X248310765Y-97397572D01*
X248304804Y-97373773D01*
X248301204Y-97349505D01*
X248300000Y-97325001D01*
X248300000Y-96674999D01*
X248301204Y-96650495D01*
X248304804Y-96626227D01*
X248310765Y-96602428D01*
X248319030Y-96579329D01*
X248329520Y-96557150D01*
X248342132Y-96536107D01*
X248356747Y-96516401D01*
X248373223Y-96498223D01*
X248391401Y-96481747D01*
X248411107Y-96467132D01*
X248432150Y-96454520D01*
X248454329Y-96444030D01*
X248477428Y-96435765D01*
X248501227Y-96429804D01*
X248525495Y-96426204D01*
X248549999Y-96425000D01*
X249450001Y-96425000D01*
X249474505Y-96426204D01*
X249474505Y-96426204D01*
G37*
D15*
X249000000Y-97000000D03*
D14*
G36*
X249474505Y-94376204D02*
X249498773Y-94379804D01*
X249522572Y-94385765D01*
X249545671Y-94394030D01*
X249567850Y-94404520D01*
X249588893Y-94417132D01*
X249608599Y-94431747D01*
X249626777Y-94448223D01*
X249643253Y-94466401D01*
X249657868Y-94486107D01*
X249670480Y-94507150D01*
X249680970Y-94529329D01*
X249689235Y-94552428D01*
X249695196Y-94576227D01*
X249698796Y-94600495D01*
X249700000Y-94624999D01*
X249700000Y-95275001D01*
X249698796Y-95299505D01*
X249695196Y-95323773D01*
X249689235Y-95347572D01*
X249680970Y-95370671D01*
X249670480Y-95392850D01*
X249657868Y-95413893D01*
X249643253Y-95433599D01*
X249626777Y-95451777D01*
X249608599Y-95468253D01*
X249588893Y-95482868D01*
X249567850Y-95495480D01*
X249545671Y-95505970D01*
X249522572Y-95514235D01*
X249498773Y-95520196D01*
X249474505Y-95523796D01*
X249450001Y-95525000D01*
X248549999Y-95525000D01*
X248525495Y-95523796D01*
X248501227Y-95520196D01*
X248477428Y-95514235D01*
X248454329Y-95505970D01*
X248432150Y-95495480D01*
X248411107Y-95482868D01*
X248391401Y-95468253D01*
X248373223Y-95451777D01*
X248356747Y-95433599D01*
X248342132Y-95413893D01*
X248329520Y-95392850D01*
X248319030Y-95370671D01*
X248310765Y-95347572D01*
X248304804Y-95323773D01*
X248301204Y-95299505D01*
X248300000Y-95275001D01*
X248300000Y-94624999D01*
X248301204Y-94600495D01*
X248304804Y-94576227D01*
X248310765Y-94552428D01*
X248319030Y-94529329D01*
X248329520Y-94507150D01*
X248342132Y-94486107D01*
X248356747Y-94466401D01*
X248373223Y-94448223D01*
X248391401Y-94431747D01*
X248411107Y-94417132D01*
X248432150Y-94404520D01*
X248454329Y-94394030D01*
X248477428Y-94385765D01*
X248501227Y-94379804D01*
X248525495Y-94376204D01*
X248549999Y-94375000D01*
X249450001Y-94375000D01*
X249474505Y-94376204D01*
X249474505Y-94376204D01*
G37*
D15*
X249000000Y-94950000D03*
G04 #@! TD*
D14*
G04 #@! TO.C,R4*
G36*
X249474505Y-100401204D02*
X249498773Y-100404804D01*
X249522572Y-100410765D01*
X249545671Y-100419030D01*
X249567850Y-100429520D01*
X249588893Y-100442132D01*
X249608599Y-100456747D01*
X249626777Y-100473223D01*
X249643253Y-100491401D01*
X249657868Y-100511107D01*
X249670480Y-100532150D01*
X249680970Y-100554329D01*
X249689235Y-100577428D01*
X249695196Y-100601227D01*
X249698796Y-100625495D01*
X249700000Y-100649999D01*
X249700000Y-101300001D01*
X249698796Y-101324505D01*
X249695196Y-101348773D01*
X249689235Y-101372572D01*
X249680970Y-101395671D01*
X249670480Y-101417850D01*
X249657868Y-101438893D01*
X249643253Y-101458599D01*
X249626777Y-101476777D01*
X249608599Y-101493253D01*
X249588893Y-101507868D01*
X249567850Y-101520480D01*
X249545671Y-101530970D01*
X249522572Y-101539235D01*
X249498773Y-101545196D01*
X249474505Y-101548796D01*
X249450001Y-101550000D01*
X248549999Y-101550000D01*
X248525495Y-101548796D01*
X248501227Y-101545196D01*
X248477428Y-101539235D01*
X248454329Y-101530970D01*
X248432150Y-101520480D01*
X248411107Y-101507868D01*
X248391401Y-101493253D01*
X248373223Y-101476777D01*
X248356747Y-101458599D01*
X248342132Y-101438893D01*
X248329520Y-101417850D01*
X248319030Y-101395671D01*
X248310765Y-101372572D01*
X248304804Y-101348773D01*
X248301204Y-101324505D01*
X248300000Y-101300001D01*
X248300000Y-100649999D01*
X248301204Y-100625495D01*
X248304804Y-100601227D01*
X248310765Y-100577428D01*
X248319030Y-100554329D01*
X248329520Y-100532150D01*
X248342132Y-100511107D01*
X248356747Y-100491401D01*
X248373223Y-100473223D01*
X248391401Y-100456747D01*
X248411107Y-100442132D01*
X248432150Y-100429520D01*
X248454329Y-100419030D01*
X248477428Y-100410765D01*
X248501227Y-100404804D01*
X248525495Y-100401204D01*
X248549999Y-100400000D01*
X249450001Y-100400000D01*
X249474505Y-100401204D01*
X249474505Y-100401204D01*
G37*
D15*
X249000000Y-100975000D03*
D14*
G36*
X249474505Y-102451204D02*
X249498773Y-102454804D01*
X249522572Y-102460765D01*
X249545671Y-102469030D01*
X249567850Y-102479520D01*
X249588893Y-102492132D01*
X249608599Y-102506747D01*
X249626777Y-102523223D01*
X249643253Y-102541401D01*
X249657868Y-102561107D01*
X249670480Y-102582150D01*
X249680970Y-102604329D01*
X249689235Y-102627428D01*
X249695196Y-102651227D01*
X249698796Y-102675495D01*
X249700000Y-102699999D01*
X249700000Y-103350001D01*
X249698796Y-103374505D01*
X249695196Y-103398773D01*
X249689235Y-103422572D01*
X249680970Y-103445671D01*
X249670480Y-103467850D01*
X249657868Y-103488893D01*
X249643253Y-103508599D01*
X249626777Y-103526777D01*
X249608599Y-103543253D01*
X249588893Y-103557868D01*
X249567850Y-103570480D01*
X249545671Y-103580970D01*
X249522572Y-103589235D01*
X249498773Y-103595196D01*
X249474505Y-103598796D01*
X249450001Y-103600000D01*
X248549999Y-103600000D01*
X248525495Y-103598796D01*
X248501227Y-103595196D01*
X248477428Y-103589235D01*
X248454329Y-103580970D01*
X248432150Y-103570480D01*
X248411107Y-103557868D01*
X248391401Y-103543253D01*
X248373223Y-103526777D01*
X248356747Y-103508599D01*
X248342132Y-103488893D01*
X248329520Y-103467850D01*
X248319030Y-103445671D01*
X248310765Y-103422572D01*
X248304804Y-103398773D01*
X248301204Y-103374505D01*
X248300000Y-103350001D01*
X248300000Y-102699999D01*
X248301204Y-102675495D01*
X248304804Y-102651227D01*
X248310765Y-102627428D01*
X248319030Y-102604329D01*
X248329520Y-102582150D01*
X248342132Y-102561107D01*
X248356747Y-102541401D01*
X248373223Y-102523223D01*
X248391401Y-102506747D01*
X248411107Y-102492132D01*
X248432150Y-102479520D01*
X248454329Y-102469030D01*
X248477428Y-102460765D01*
X248501227Y-102454804D01*
X248525495Y-102451204D01*
X248549999Y-102450000D01*
X249450001Y-102450000D01*
X249474505Y-102451204D01*
X249474505Y-102451204D01*
G37*
D15*
X249000000Y-103025000D03*
G04 #@! TD*
D14*
G04 #@! TO.C,R3*
G36*
X249474505Y-106376204D02*
X249498773Y-106379804D01*
X249522572Y-106385765D01*
X249545671Y-106394030D01*
X249567850Y-106404520D01*
X249588893Y-106417132D01*
X249608599Y-106431747D01*
X249626777Y-106448223D01*
X249643253Y-106466401D01*
X249657868Y-106486107D01*
X249670480Y-106507150D01*
X249680970Y-106529329D01*
X249689235Y-106552428D01*
X249695196Y-106576227D01*
X249698796Y-106600495D01*
X249700000Y-106624999D01*
X249700000Y-107275001D01*
X249698796Y-107299505D01*
X249695196Y-107323773D01*
X249689235Y-107347572D01*
X249680970Y-107370671D01*
X249670480Y-107392850D01*
X249657868Y-107413893D01*
X249643253Y-107433599D01*
X249626777Y-107451777D01*
X249608599Y-107468253D01*
X249588893Y-107482868D01*
X249567850Y-107495480D01*
X249545671Y-107505970D01*
X249522572Y-107514235D01*
X249498773Y-107520196D01*
X249474505Y-107523796D01*
X249450001Y-107525000D01*
X248549999Y-107525000D01*
X248525495Y-107523796D01*
X248501227Y-107520196D01*
X248477428Y-107514235D01*
X248454329Y-107505970D01*
X248432150Y-107495480D01*
X248411107Y-107482868D01*
X248391401Y-107468253D01*
X248373223Y-107451777D01*
X248356747Y-107433599D01*
X248342132Y-107413893D01*
X248329520Y-107392850D01*
X248319030Y-107370671D01*
X248310765Y-107347572D01*
X248304804Y-107323773D01*
X248301204Y-107299505D01*
X248300000Y-107275001D01*
X248300000Y-106624999D01*
X248301204Y-106600495D01*
X248304804Y-106576227D01*
X248310765Y-106552428D01*
X248319030Y-106529329D01*
X248329520Y-106507150D01*
X248342132Y-106486107D01*
X248356747Y-106466401D01*
X248373223Y-106448223D01*
X248391401Y-106431747D01*
X248411107Y-106417132D01*
X248432150Y-106404520D01*
X248454329Y-106394030D01*
X248477428Y-106385765D01*
X248501227Y-106379804D01*
X248525495Y-106376204D01*
X248549999Y-106375000D01*
X249450001Y-106375000D01*
X249474505Y-106376204D01*
X249474505Y-106376204D01*
G37*
D15*
X249000000Y-106950000D03*
D14*
G36*
X249474505Y-108426204D02*
X249498773Y-108429804D01*
X249522572Y-108435765D01*
X249545671Y-108444030D01*
X249567850Y-108454520D01*
X249588893Y-108467132D01*
X249608599Y-108481747D01*
X249626777Y-108498223D01*
X249643253Y-108516401D01*
X249657868Y-108536107D01*
X249670480Y-108557150D01*
X249680970Y-108579329D01*
X249689235Y-108602428D01*
X249695196Y-108626227D01*
X249698796Y-108650495D01*
X249700000Y-108674999D01*
X249700000Y-109325001D01*
X249698796Y-109349505D01*
X249695196Y-109373773D01*
X249689235Y-109397572D01*
X249680970Y-109420671D01*
X249670480Y-109442850D01*
X249657868Y-109463893D01*
X249643253Y-109483599D01*
X249626777Y-109501777D01*
X249608599Y-109518253D01*
X249588893Y-109532868D01*
X249567850Y-109545480D01*
X249545671Y-109555970D01*
X249522572Y-109564235D01*
X249498773Y-109570196D01*
X249474505Y-109573796D01*
X249450001Y-109575000D01*
X248549999Y-109575000D01*
X248525495Y-109573796D01*
X248501227Y-109570196D01*
X248477428Y-109564235D01*
X248454329Y-109555970D01*
X248432150Y-109545480D01*
X248411107Y-109532868D01*
X248391401Y-109518253D01*
X248373223Y-109501777D01*
X248356747Y-109483599D01*
X248342132Y-109463893D01*
X248329520Y-109442850D01*
X248319030Y-109420671D01*
X248310765Y-109397572D01*
X248304804Y-109373773D01*
X248301204Y-109349505D01*
X248300000Y-109325001D01*
X248300000Y-108674999D01*
X248301204Y-108650495D01*
X248304804Y-108626227D01*
X248310765Y-108602428D01*
X248319030Y-108579329D01*
X248329520Y-108557150D01*
X248342132Y-108536107D01*
X248356747Y-108516401D01*
X248373223Y-108498223D01*
X248391401Y-108481747D01*
X248411107Y-108467132D01*
X248432150Y-108454520D01*
X248454329Y-108444030D01*
X248477428Y-108435765D01*
X248501227Y-108429804D01*
X248525495Y-108426204D01*
X248549999Y-108425000D01*
X249450001Y-108425000D01*
X249474505Y-108426204D01*
X249474505Y-108426204D01*
G37*
D15*
X249000000Y-109000000D03*
G04 #@! TD*
D16*
G04 #@! TO.C,C6*
X228800000Y-114000000D03*
X225200000Y-114000000D03*
G04 #@! TD*
D14*
G04 #@! TO.C,R2*
G36*
X249474505Y-114476204D02*
X249498773Y-114479804D01*
X249522572Y-114485765D01*
X249545671Y-114494030D01*
X249567850Y-114504520D01*
X249588893Y-114517132D01*
X249608599Y-114531747D01*
X249626777Y-114548223D01*
X249643253Y-114566401D01*
X249657868Y-114586107D01*
X249670480Y-114607150D01*
X249680970Y-114629329D01*
X249689235Y-114652428D01*
X249695196Y-114676227D01*
X249698796Y-114700495D01*
X249700000Y-114724999D01*
X249700000Y-115375001D01*
X249698796Y-115399505D01*
X249695196Y-115423773D01*
X249689235Y-115447572D01*
X249680970Y-115470671D01*
X249670480Y-115492850D01*
X249657868Y-115513893D01*
X249643253Y-115533599D01*
X249626777Y-115551777D01*
X249608599Y-115568253D01*
X249588893Y-115582868D01*
X249567850Y-115595480D01*
X249545671Y-115605970D01*
X249522572Y-115614235D01*
X249498773Y-115620196D01*
X249474505Y-115623796D01*
X249450001Y-115625000D01*
X248549999Y-115625000D01*
X248525495Y-115623796D01*
X248501227Y-115620196D01*
X248477428Y-115614235D01*
X248454329Y-115605970D01*
X248432150Y-115595480D01*
X248411107Y-115582868D01*
X248391401Y-115568253D01*
X248373223Y-115551777D01*
X248356747Y-115533599D01*
X248342132Y-115513893D01*
X248329520Y-115492850D01*
X248319030Y-115470671D01*
X248310765Y-115447572D01*
X248304804Y-115423773D01*
X248301204Y-115399505D01*
X248300000Y-115375001D01*
X248300000Y-114724999D01*
X248301204Y-114700495D01*
X248304804Y-114676227D01*
X248310765Y-114652428D01*
X248319030Y-114629329D01*
X248329520Y-114607150D01*
X248342132Y-114586107D01*
X248356747Y-114566401D01*
X248373223Y-114548223D01*
X248391401Y-114531747D01*
X248411107Y-114517132D01*
X248432150Y-114504520D01*
X248454329Y-114494030D01*
X248477428Y-114485765D01*
X248501227Y-114479804D01*
X248525495Y-114476204D01*
X248549999Y-114475000D01*
X249450001Y-114475000D01*
X249474505Y-114476204D01*
X249474505Y-114476204D01*
G37*
D15*
X249000000Y-115050000D03*
D14*
G36*
X249474505Y-112426204D02*
X249498773Y-112429804D01*
X249522572Y-112435765D01*
X249545671Y-112444030D01*
X249567850Y-112454520D01*
X249588893Y-112467132D01*
X249608599Y-112481747D01*
X249626777Y-112498223D01*
X249643253Y-112516401D01*
X249657868Y-112536107D01*
X249670480Y-112557150D01*
X249680970Y-112579329D01*
X249689235Y-112602428D01*
X249695196Y-112626227D01*
X249698796Y-112650495D01*
X249700000Y-112674999D01*
X249700000Y-113325001D01*
X249698796Y-113349505D01*
X249695196Y-113373773D01*
X249689235Y-113397572D01*
X249680970Y-113420671D01*
X249670480Y-113442850D01*
X249657868Y-113463893D01*
X249643253Y-113483599D01*
X249626777Y-113501777D01*
X249608599Y-113518253D01*
X249588893Y-113532868D01*
X249567850Y-113545480D01*
X249545671Y-113555970D01*
X249522572Y-113564235D01*
X249498773Y-113570196D01*
X249474505Y-113573796D01*
X249450001Y-113575000D01*
X248549999Y-113575000D01*
X248525495Y-113573796D01*
X248501227Y-113570196D01*
X248477428Y-113564235D01*
X248454329Y-113555970D01*
X248432150Y-113545480D01*
X248411107Y-113532868D01*
X248391401Y-113518253D01*
X248373223Y-113501777D01*
X248356747Y-113483599D01*
X248342132Y-113463893D01*
X248329520Y-113442850D01*
X248319030Y-113420671D01*
X248310765Y-113397572D01*
X248304804Y-113373773D01*
X248301204Y-113349505D01*
X248300000Y-113325001D01*
X248300000Y-112674999D01*
X248301204Y-112650495D01*
X248304804Y-112626227D01*
X248310765Y-112602428D01*
X248319030Y-112579329D01*
X248329520Y-112557150D01*
X248342132Y-112536107D01*
X248356747Y-112516401D01*
X248373223Y-112498223D01*
X248391401Y-112481747D01*
X248411107Y-112467132D01*
X248432150Y-112454520D01*
X248454329Y-112444030D01*
X248477428Y-112435765D01*
X248501227Y-112429804D01*
X248525495Y-112426204D01*
X248549999Y-112425000D01*
X249450001Y-112425000D01*
X249474505Y-112426204D01*
X249474505Y-112426204D01*
G37*
D15*
X249000000Y-113000000D03*
G04 #@! TD*
D14*
G04 #@! TO.C,C3*
G36*
X242874505Y-83526204D02*
X242898773Y-83529804D01*
X242922572Y-83535765D01*
X242945671Y-83544030D01*
X242967850Y-83554520D01*
X242988893Y-83567132D01*
X243008599Y-83581747D01*
X243026777Y-83598223D01*
X243043253Y-83616401D01*
X243057868Y-83636107D01*
X243070480Y-83657150D01*
X243080970Y-83679329D01*
X243089235Y-83702428D01*
X243095196Y-83726227D01*
X243098796Y-83750495D01*
X243100000Y-83774999D01*
X243100000Y-84425001D01*
X243098796Y-84449505D01*
X243095196Y-84473773D01*
X243089235Y-84497572D01*
X243080970Y-84520671D01*
X243070480Y-84542850D01*
X243057868Y-84563893D01*
X243043253Y-84583599D01*
X243026777Y-84601777D01*
X243008599Y-84618253D01*
X242988893Y-84632868D01*
X242967850Y-84645480D01*
X242945671Y-84655970D01*
X242922572Y-84664235D01*
X242898773Y-84670196D01*
X242874505Y-84673796D01*
X242850001Y-84675000D01*
X241949999Y-84675000D01*
X241925495Y-84673796D01*
X241901227Y-84670196D01*
X241877428Y-84664235D01*
X241854329Y-84655970D01*
X241832150Y-84645480D01*
X241811107Y-84632868D01*
X241791401Y-84618253D01*
X241773223Y-84601777D01*
X241756747Y-84583599D01*
X241742132Y-84563893D01*
X241729520Y-84542850D01*
X241719030Y-84520671D01*
X241710765Y-84497572D01*
X241704804Y-84473773D01*
X241701204Y-84449505D01*
X241700000Y-84425001D01*
X241700000Y-83774999D01*
X241701204Y-83750495D01*
X241704804Y-83726227D01*
X241710765Y-83702428D01*
X241719030Y-83679329D01*
X241729520Y-83657150D01*
X241742132Y-83636107D01*
X241756747Y-83616401D01*
X241773223Y-83598223D01*
X241791401Y-83581747D01*
X241811107Y-83567132D01*
X241832150Y-83554520D01*
X241854329Y-83544030D01*
X241877428Y-83535765D01*
X241901227Y-83529804D01*
X241925495Y-83526204D01*
X241949999Y-83525000D01*
X242850001Y-83525000D01*
X242874505Y-83526204D01*
X242874505Y-83526204D01*
G37*
D15*
X242400000Y-84100000D03*
D14*
G36*
X242874505Y-81476204D02*
X242898773Y-81479804D01*
X242922572Y-81485765D01*
X242945671Y-81494030D01*
X242967850Y-81504520D01*
X242988893Y-81517132D01*
X243008599Y-81531747D01*
X243026777Y-81548223D01*
X243043253Y-81566401D01*
X243057868Y-81586107D01*
X243070480Y-81607150D01*
X243080970Y-81629329D01*
X243089235Y-81652428D01*
X243095196Y-81676227D01*
X243098796Y-81700495D01*
X243100000Y-81724999D01*
X243100000Y-82375001D01*
X243098796Y-82399505D01*
X243095196Y-82423773D01*
X243089235Y-82447572D01*
X243080970Y-82470671D01*
X243070480Y-82492850D01*
X243057868Y-82513893D01*
X243043253Y-82533599D01*
X243026777Y-82551777D01*
X243008599Y-82568253D01*
X242988893Y-82582868D01*
X242967850Y-82595480D01*
X242945671Y-82605970D01*
X242922572Y-82614235D01*
X242898773Y-82620196D01*
X242874505Y-82623796D01*
X242850001Y-82625000D01*
X241949999Y-82625000D01*
X241925495Y-82623796D01*
X241901227Y-82620196D01*
X241877428Y-82614235D01*
X241854329Y-82605970D01*
X241832150Y-82595480D01*
X241811107Y-82582868D01*
X241791401Y-82568253D01*
X241773223Y-82551777D01*
X241756747Y-82533599D01*
X241742132Y-82513893D01*
X241729520Y-82492850D01*
X241719030Y-82470671D01*
X241710765Y-82447572D01*
X241704804Y-82423773D01*
X241701204Y-82399505D01*
X241700000Y-82375001D01*
X241700000Y-81724999D01*
X241701204Y-81700495D01*
X241704804Y-81676227D01*
X241710765Y-81652428D01*
X241719030Y-81629329D01*
X241729520Y-81607150D01*
X241742132Y-81586107D01*
X241756747Y-81566401D01*
X241773223Y-81548223D01*
X241791401Y-81531747D01*
X241811107Y-81517132D01*
X241832150Y-81504520D01*
X241854329Y-81494030D01*
X241877428Y-81485765D01*
X241901227Y-81479804D01*
X241925495Y-81476204D01*
X241949999Y-81475000D01*
X242850001Y-81475000D01*
X242874505Y-81476204D01*
X242874505Y-81476204D01*
G37*
D15*
X242400000Y-82050000D03*
G04 #@! TD*
D14*
G04 #@! TO.C,C2*
G36*
X248560779Y-76526144D02*
X248583834Y-76529563D01*
X248606443Y-76535227D01*
X248628387Y-76543079D01*
X248649457Y-76553044D01*
X248669448Y-76565026D01*
X248688168Y-76578910D01*
X248705438Y-76594562D01*
X248721090Y-76611832D01*
X248734974Y-76630552D01*
X248746956Y-76650543D01*
X248756921Y-76671613D01*
X248764773Y-76693557D01*
X248770437Y-76716166D01*
X248773856Y-76739221D01*
X248775000Y-76762500D01*
X248775000Y-77237500D01*
X248773856Y-77260779D01*
X248770437Y-77283834D01*
X248764773Y-77306443D01*
X248756921Y-77328387D01*
X248746956Y-77349457D01*
X248734974Y-77369448D01*
X248721090Y-77388168D01*
X248705438Y-77405438D01*
X248688168Y-77421090D01*
X248669448Y-77434974D01*
X248649457Y-77446956D01*
X248628387Y-77456921D01*
X248606443Y-77464773D01*
X248583834Y-77470437D01*
X248560779Y-77473856D01*
X248537500Y-77475000D01*
X247962500Y-77475000D01*
X247939221Y-77473856D01*
X247916166Y-77470437D01*
X247893557Y-77464773D01*
X247871613Y-77456921D01*
X247850543Y-77446956D01*
X247830552Y-77434974D01*
X247811832Y-77421090D01*
X247794562Y-77405438D01*
X247778910Y-77388168D01*
X247765026Y-77369448D01*
X247753044Y-77349457D01*
X247743079Y-77328387D01*
X247735227Y-77306443D01*
X247729563Y-77283834D01*
X247726144Y-77260779D01*
X247725000Y-77237500D01*
X247725000Y-76762500D01*
X247726144Y-76739221D01*
X247729563Y-76716166D01*
X247735227Y-76693557D01*
X247743079Y-76671613D01*
X247753044Y-76650543D01*
X247765026Y-76630552D01*
X247778910Y-76611832D01*
X247794562Y-76594562D01*
X247811832Y-76578910D01*
X247830552Y-76565026D01*
X247850543Y-76553044D01*
X247871613Y-76543079D01*
X247893557Y-76535227D01*
X247916166Y-76529563D01*
X247939221Y-76526144D01*
X247962500Y-76525000D01*
X248537500Y-76525000D01*
X248560779Y-76526144D01*
X248560779Y-76526144D01*
G37*
D17*
X248250000Y-77000000D03*
D14*
G36*
X250310779Y-76526144D02*
X250333834Y-76529563D01*
X250356443Y-76535227D01*
X250378387Y-76543079D01*
X250399457Y-76553044D01*
X250419448Y-76565026D01*
X250438168Y-76578910D01*
X250455438Y-76594562D01*
X250471090Y-76611832D01*
X250484974Y-76630552D01*
X250496956Y-76650543D01*
X250506921Y-76671613D01*
X250514773Y-76693557D01*
X250520437Y-76716166D01*
X250523856Y-76739221D01*
X250525000Y-76762500D01*
X250525000Y-77237500D01*
X250523856Y-77260779D01*
X250520437Y-77283834D01*
X250514773Y-77306443D01*
X250506921Y-77328387D01*
X250496956Y-77349457D01*
X250484974Y-77369448D01*
X250471090Y-77388168D01*
X250455438Y-77405438D01*
X250438168Y-77421090D01*
X250419448Y-77434974D01*
X250399457Y-77446956D01*
X250378387Y-77456921D01*
X250356443Y-77464773D01*
X250333834Y-77470437D01*
X250310779Y-77473856D01*
X250287500Y-77475000D01*
X249712500Y-77475000D01*
X249689221Y-77473856D01*
X249666166Y-77470437D01*
X249643557Y-77464773D01*
X249621613Y-77456921D01*
X249600543Y-77446956D01*
X249580552Y-77434974D01*
X249561832Y-77421090D01*
X249544562Y-77405438D01*
X249528910Y-77388168D01*
X249515026Y-77369448D01*
X249503044Y-77349457D01*
X249493079Y-77328387D01*
X249485227Y-77306443D01*
X249479563Y-77283834D01*
X249476144Y-77260779D01*
X249475000Y-77237500D01*
X249475000Y-76762500D01*
X249476144Y-76739221D01*
X249479563Y-76716166D01*
X249485227Y-76693557D01*
X249493079Y-76671613D01*
X249503044Y-76650543D01*
X249515026Y-76630552D01*
X249528910Y-76611832D01*
X249544562Y-76594562D01*
X249561832Y-76578910D01*
X249580552Y-76565026D01*
X249600543Y-76553044D01*
X249621613Y-76543079D01*
X249643557Y-76535227D01*
X249666166Y-76529563D01*
X249689221Y-76526144D01*
X249712500Y-76525000D01*
X250287500Y-76525000D01*
X250310779Y-76526144D01*
X250310779Y-76526144D01*
G37*
D17*
X250000000Y-77000000D03*
G04 #@! TD*
D14*
G04 #@! TO.C,C1*
G36*
X250310779Y-66526144D02*
X250333834Y-66529563D01*
X250356443Y-66535227D01*
X250378387Y-66543079D01*
X250399457Y-66553044D01*
X250419448Y-66565026D01*
X250438168Y-66578910D01*
X250455438Y-66594562D01*
X250471090Y-66611832D01*
X250484974Y-66630552D01*
X250496956Y-66650543D01*
X250506921Y-66671613D01*
X250514773Y-66693557D01*
X250520437Y-66716166D01*
X250523856Y-66739221D01*
X250525000Y-66762500D01*
X250525000Y-67237500D01*
X250523856Y-67260779D01*
X250520437Y-67283834D01*
X250514773Y-67306443D01*
X250506921Y-67328387D01*
X250496956Y-67349457D01*
X250484974Y-67369448D01*
X250471090Y-67388168D01*
X250455438Y-67405438D01*
X250438168Y-67421090D01*
X250419448Y-67434974D01*
X250399457Y-67446956D01*
X250378387Y-67456921D01*
X250356443Y-67464773D01*
X250333834Y-67470437D01*
X250310779Y-67473856D01*
X250287500Y-67475000D01*
X249712500Y-67475000D01*
X249689221Y-67473856D01*
X249666166Y-67470437D01*
X249643557Y-67464773D01*
X249621613Y-67456921D01*
X249600543Y-67446956D01*
X249580552Y-67434974D01*
X249561832Y-67421090D01*
X249544562Y-67405438D01*
X249528910Y-67388168D01*
X249515026Y-67369448D01*
X249503044Y-67349457D01*
X249493079Y-67328387D01*
X249485227Y-67306443D01*
X249479563Y-67283834D01*
X249476144Y-67260779D01*
X249475000Y-67237500D01*
X249475000Y-66762500D01*
X249476144Y-66739221D01*
X249479563Y-66716166D01*
X249485227Y-66693557D01*
X249493079Y-66671613D01*
X249503044Y-66650543D01*
X249515026Y-66630552D01*
X249528910Y-66611832D01*
X249544562Y-66594562D01*
X249561832Y-66578910D01*
X249580552Y-66565026D01*
X249600543Y-66553044D01*
X249621613Y-66543079D01*
X249643557Y-66535227D01*
X249666166Y-66529563D01*
X249689221Y-66526144D01*
X249712500Y-66525000D01*
X250287500Y-66525000D01*
X250310779Y-66526144D01*
X250310779Y-66526144D01*
G37*
D17*
X250000000Y-67000000D03*
D14*
G36*
X248560779Y-66526144D02*
X248583834Y-66529563D01*
X248606443Y-66535227D01*
X248628387Y-66543079D01*
X248649457Y-66553044D01*
X248669448Y-66565026D01*
X248688168Y-66578910D01*
X248705438Y-66594562D01*
X248721090Y-66611832D01*
X248734974Y-66630552D01*
X248746956Y-66650543D01*
X248756921Y-66671613D01*
X248764773Y-66693557D01*
X248770437Y-66716166D01*
X248773856Y-66739221D01*
X248775000Y-66762500D01*
X248775000Y-67237500D01*
X248773856Y-67260779D01*
X248770437Y-67283834D01*
X248764773Y-67306443D01*
X248756921Y-67328387D01*
X248746956Y-67349457D01*
X248734974Y-67369448D01*
X248721090Y-67388168D01*
X248705438Y-67405438D01*
X248688168Y-67421090D01*
X248669448Y-67434974D01*
X248649457Y-67446956D01*
X248628387Y-67456921D01*
X248606443Y-67464773D01*
X248583834Y-67470437D01*
X248560779Y-67473856D01*
X248537500Y-67475000D01*
X247962500Y-67475000D01*
X247939221Y-67473856D01*
X247916166Y-67470437D01*
X247893557Y-67464773D01*
X247871613Y-67456921D01*
X247850543Y-67446956D01*
X247830552Y-67434974D01*
X247811832Y-67421090D01*
X247794562Y-67405438D01*
X247778910Y-67388168D01*
X247765026Y-67369448D01*
X247753044Y-67349457D01*
X247743079Y-67328387D01*
X247735227Y-67306443D01*
X247729563Y-67283834D01*
X247726144Y-67260779D01*
X247725000Y-67237500D01*
X247725000Y-66762500D01*
X247726144Y-66739221D01*
X247729563Y-66716166D01*
X247735227Y-66693557D01*
X247743079Y-66671613D01*
X247753044Y-66650543D01*
X247765026Y-66630552D01*
X247778910Y-66611832D01*
X247794562Y-66594562D01*
X247811832Y-66578910D01*
X247830552Y-66565026D01*
X247850543Y-66553044D01*
X247871613Y-66543079D01*
X247893557Y-66535227D01*
X247916166Y-66529563D01*
X247939221Y-66526144D01*
X247962500Y-66525000D01*
X248537500Y-66525000D01*
X248560779Y-66526144D01*
X248560779Y-66526144D01*
G37*
D17*
X248250000Y-67000000D03*
G04 #@! TD*
D18*
G04 #@! TO.C,J1*
X161825000Y-33300000D03*
X161825000Y-32650000D03*
X161825000Y-32000000D03*
X161825000Y-31350000D03*
X161825000Y-30700000D03*
D19*
X161500000Y-28700000D03*
X161500000Y-35300000D03*
D20*
X159150000Y-27900000D03*
X159150000Y-36100000D03*
G04 #@! TD*
D21*
G04 #@! TO.C,Y1*
X197750000Y-39000000D03*
X206250000Y-39000000D03*
G04 #@! TD*
D14*
G04 #@! TO.C,R5*
G36*
X177349505Y-43301204D02*
X177373773Y-43304804D01*
X177397572Y-43310765D01*
X177420671Y-43319030D01*
X177442850Y-43329520D01*
X177463893Y-43342132D01*
X177483599Y-43356747D01*
X177501777Y-43373223D01*
X177518253Y-43391401D01*
X177532868Y-43411107D01*
X177545480Y-43432150D01*
X177555970Y-43454329D01*
X177564235Y-43477428D01*
X177570196Y-43501227D01*
X177573796Y-43525495D01*
X177575000Y-43549999D01*
X177575000Y-44450001D01*
X177573796Y-44474505D01*
X177570196Y-44498773D01*
X177564235Y-44522572D01*
X177555970Y-44545671D01*
X177545480Y-44567850D01*
X177532868Y-44588893D01*
X177518253Y-44608599D01*
X177501777Y-44626777D01*
X177483599Y-44643253D01*
X177463893Y-44657868D01*
X177442850Y-44670480D01*
X177420671Y-44680970D01*
X177397572Y-44689235D01*
X177373773Y-44695196D01*
X177349505Y-44698796D01*
X177325001Y-44700000D01*
X176674999Y-44700000D01*
X176650495Y-44698796D01*
X176626227Y-44695196D01*
X176602428Y-44689235D01*
X176579329Y-44680970D01*
X176557150Y-44670480D01*
X176536107Y-44657868D01*
X176516401Y-44643253D01*
X176498223Y-44626777D01*
X176481747Y-44608599D01*
X176467132Y-44588893D01*
X176454520Y-44567850D01*
X176444030Y-44545671D01*
X176435765Y-44522572D01*
X176429804Y-44498773D01*
X176426204Y-44474505D01*
X176425000Y-44450001D01*
X176425000Y-43549999D01*
X176426204Y-43525495D01*
X176429804Y-43501227D01*
X176435765Y-43477428D01*
X176444030Y-43454329D01*
X176454520Y-43432150D01*
X176467132Y-43411107D01*
X176481747Y-43391401D01*
X176498223Y-43373223D01*
X176516401Y-43356747D01*
X176536107Y-43342132D01*
X176557150Y-43329520D01*
X176579329Y-43319030D01*
X176602428Y-43310765D01*
X176626227Y-43304804D01*
X176650495Y-43301204D01*
X176674999Y-43300000D01*
X177325001Y-43300000D01*
X177349505Y-43301204D01*
X177349505Y-43301204D01*
G37*
D15*
X177000000Y-44000000D03*
D14*
G36*
X179399505Y-43301204D02*
X179423773Y-43304804D01*
X179447572Y-43310765D01*
X179470671Y-43319030D01*
X179492850Y-43329520D01*
X179513893Y-43342132D01*
X179533599Y-43356747D01*
X179551777Y-43373223D01*
X179568253Y-43391401D01*
X179582868Y-43411107D01*
X179595480Y-43432150D01*
X179605970Y-43454329D01*
X179614235Y-43477428D01*
X179620196Y-43501227D01*
X179623796Y-43525495D01*
X179625000Y-43549999D01*
X179625000Y-44450001D01*
X179623796Y-44474505D01*
X179620196Y-44498773D01*
X179614235Y-44522572D01*
X179605970Y-44545671D01*
X179595480Y-44567850D01*
X179582868Y-44588893D01*
X179568253Y-44608599D01*
X179551777Y-44626777D01*
X179533599Y-44643253D01*
X179513893Y-44657868D01*
X179492850Y-44670480D01*
X179470671Y-44680970D01*
X179447572Y-44689235D01*
X179423773Y-44695196D01*
X179399505Y-44698796D01*
X179375001Y-44700000D01*
X178724999Y-44700000D01*
X178700495Y-44698796D01*
X178676227Y-44695196D01*
X178652428Y-44689235D01*
X178629329Y-44680970D01*
X178607150Y-44670480D01*
X178586107Y-44657868D01*
X178566401Y-44643253D01*
X178548223Y-44626777D01*
X178531747Y-44608599D01*
X178517132Y-44588893D01*
X178504520Y-44567850D01*
X178494030Y-44545671D01*
X178485765Y-44522572D01*
X178479804Y-44498773D01*
X178476204Y-44474505D01*
X178475000Y-44450001D01*
X178475000Y-43549999D01*
X178476204Y-43525495D01*
X178479804Y-43501227D01*
X178485765Y-43477428D01*
X178494030Y-43454329D01*
X178504520Y-43432150D01*
X178517132Y-43411107D01*
X178531747Y-43391401D01*
X178548223Y-43373223D01*
X178566401Y-43356747D01*
X178586107Y-43342132D01*
X178607150Y-43329520D01*
X178629329Y-43319030D01*
X178652428Y-43310765D01*
X178676227Y-43304804D01*
X178700495Y-43301204D01*
X178724999Y-43300000D01*
X179375001Y-43300000D01*
X179399505Y-43301204D01*
X179399505Y-43301204D01*
G37*
D15*
X179050000Y-44000000D03*
G04 #@! TD*
D14*
G04 #@! TO.C,R4*
G36*
X173374505Y-43301204D02*
X173398773Y-43304804D01*
X173422572Y-43310765D01*
X173445671Y-43319030D01*
X173467850Y-43329520D01*
X173488893Y-43342132D01*
X173508599Y-43356747D01*
X173526777Y-43373223D01*
X173543253Y-43391401D01*
X173557868Y-43411107D01*
X173570480Y-43432150D01*
X173580970Y-43454329D01*
X173589235Y-43477428D01*
X173595196Y-43501227D01*
X173598796Y-43525495D01*
X173600000Y-43549999D01*
X173600000Y-44450001D01*
X173598796Y-44474505D01*
X173595196Y-44498773D01*
X173589235Y-44522572D01*
X173580970Y-44545671D01*
X173570480Y-44567850D01*
X173557868Y-44588893D01*
X173543253Y-44608599D01*
X173526777Y-44626777D01*
X173508599Y-44643253D01*
X173488893Y-44657868D01*
X173467850Y-44670480D01*
X173445671Y-44680970D01*
X173422572Y-44689235D01*
X173398773Y-44695196D01*
X173374505Y-44698796D01*
X173350001Y-44700000D01*
X172699999Y-44700000D01*
X172675495Y-44698796D01*
X172651227Y-44695196D01*
X172627428Y-44689235D01*
X172604329Y-44680970D01*
X172582150Y-44670480D01*
X172561107Y-44657868D01*
X172541401Y-44643253D01*
X172523223Y-44626777D01*
X172506747Y-44608599D01*
X172492132Y-44588893D01*
X172479520Y-44567850D01*
X172469030Y-44545671D01*
X172460765Y-44522572D01*
X172454804Y-44498773D01*
X172451204Y-44474505D01*
X172450000Y-44450001D01*
X172450000Y-43549999D01*
X172451204Y-43525495D01*
X172454804Y-43501227D01*
X172460765Y-43477428D01*
X172469030Y-43454329D01*
X172479520Y-43432150D01*
X172492132Y-43411107D01*
X172506747Y-43391401D01*
X172523223Y-43373223D01*
X172541401Y-43356747D01*
X172561107Y-43342132D01*
X172582150Y-43329520D01*
X172604329Y-43319030D01*
X172627428Y-43310765D01*
X172651227Y-43304804D01*
X172675495Y-43301204D01*
X172699999Y-43300000D01*
X173350001Y-43300000D01*
X173374505Y-43301204D01*
X173374505Y-43301204D01*
G37*
D15*
X173025000Y-44000000D03*
D14*
G36*
X171324505Y-43301204D02*
X171348773Y-43304804D01*
X171372572Y-43310765D01*
X171395671Y-43319030D01*
X171417850Y-43329520D01*
X171438893Y-43342132D01*
X171458599Y-43356747D01*
X171476777Y-43373223D01*
X171493253Y-43391401D01*
X171507868Y-43411107D01*
X171520480Y-43432150D01*
X171530970Y-43454329D01*
X171539235Y-43477428D01*
X171545196Y-43501227D01*
X171548796Y-43525495D01*
X171550000Y-43549999D01*
X171550000Y-44450001D01*
X171548796Y-44474505D01*
X171545196Y-44498773D01*
X171539235Y-44522572D01*
X171530970Y-44545671D01*
X171520480Y-44567850D01*
X171507868Y-44588893D01*
X171493253Y-44608599D01*
X171476777Y-44626777D01*
X171458599Y-44643253D01*
X171438893Y-44657868D01*
X171417850Y-44670480D01*
X171395671Y-44680970D01*
X171372572Y-44689235D01*
X171348773Y-44695196D01*
X171324505Y-44698796D01*
X171300001Y-44700000D01*
X170649999Y-44700000D01*
X170625495Y-44698796D01*
X170601227Y-44695196D01*
X170577428Y-44689235D01*
X170554329Y-44680970D01*
X170532150Y-44670480D01*
X170511107Y-44657868D01*
X170491401Y-44643253D01*
X170473223Y-44626777D01*
X170456747Y-44608599D01*
X170442132Y-44588893D01*
X170429520Y-44567850D01*
X170419030Y-44545671D01*
X170410765Y-44522572D01*
X170404804Y-44498773D01*
X170401204Y-44474505D01*
X170400000Y-44450001D01*
X170400000Y-43549999D01*
X170401204Y-43525495D01*
X170404804Y-43501227D01*
X170410765Y-43477428D01*
X170419030Y-43454329D01*
X170429520Y-43432150D01*
X170442132Y-43411107D01*
X170456747Y-43391401D01*
X170473223Y-43373223D01*
X170491401Y-43356747D01*
X170511107Y-43342132D01*
X170532150Y-43329520D01*
X170554329Y-43319030D01*
X170577428Y-43310765D01*
X170601227Y-43304804D01*
X170625495Y-43301204D01*
X170649999Y-43300000D01*
X171300001Y-43300000D01*
X171324505Y-43301204D01*
X171324505Y-43301204D01*
G37*
D15*
X170975000Y-44000000D03*
G04 #@! TD*
D14*
G04 #@! TO.C,R3*
G36*
X167399505Y-43301204D02*
X167423773Y-43304804D01*
X167447572Y-43310765D01*
X167470671Y-43319030D01*
X167492850Y-43329520D01*
X167513893Y-43342132D01*
X167533599Y-43356747D01*
X167551777Y-43373223D01*
X167568253Y-43391401D01*
X167582868Y-43411107D01*
X167595480Y-43432150D01*
X167605970Y-43454329D01*
X167614235Y-43477428D01*
X167620196Y-43501227D01*
X167623796Y-43525495D01*
X167625000Y-43549999D01*
X167625000Y-44450001D01*
X167623796Y-44474505D01*
X167620196Y-44498773D01*
X167614235Y-44522572D01*
X167605970Y-44545671D01*
X167595480Y-44567850D01*
X167582868Y-44588893D01*
X167568253Y-44608599D01*
X167551777Y-44626777D01*
X167533599Y-44643253D01*
X167513893Y-44657868D01*
X167492850Y-44670480D01*
X167470671Y-44680970D01*
X167447572Y-44689235D01*
X167423773Y-44695196D01*
X167399505Y-44698796D01*
X167375001Y-44700000D01*
X166724999Y-44700000D01*
X166700495Y-44698796D01*
X166676227Y-44695196D01*
X166652428Y-44689235D01*
X166629329Y-44680970D01*
X166607150Y-44670480D01*
X166586107Y-44657868D01*
X166566401Y-44643253D01*
X166548223Y-44626777D01*
X166531747Y-44608599D01*
X166517132Y-44588893D01*
X166504520Y-44567850D01*
X166494030Y-44545671D01*
X166485765Y-44522572D01*
X166479804Y-44498773D01*
X166476204Y-44474505D01*
X166475000Y-44450001D01*
X166475000Y-43549999D01*
X166476204Y-43525495D01*
X166479804Y-43501227D01*
X166485765Y-43477428D01*
X166494030Y-43454329D01*
X166504520Y-43432150D01*
X166517132Y-43411107D01*
X166531747Y-43391401D01*
X166548223Y-43373223D01*
X166566401Y-43356747D01*
X166586107Y-43342132D01*
X166607150Y-43329520D01*
X166629329Y-43319030D01*
X166652428Y-43310765D01*
X166676227Y-43304804D01*
X166700495Y-43301204D01*
X166724999Y-43300000D01*
X167375001Y-43300000D01*
X167399505Y-43301204D01*
X167399505Y-43301204D01*
G37*
D15*
X167050000Y-44000000D03*
D14*
G36*
X165349505Y-43301204D02*
X165373773Y-43304804D01*
X165397572Y-43310765D01*
X165420671Y-43319030D01*
X165442850Y-43329520D01*
X165463893Y-43342132D01*
X165483599Y-43356747D01*
X165501777Y-43373223D01*
X165518253Y-43391401D01*
X165532868Y-43411107D01*
X165545480Y-43432150D01*
X165555970Y-43454329D01*
X165564235Y-43477428D01*
X165570196Y-43501227D01*
X165573796Y-43525495D01*
X165575000Y-43549999D01*
X165575000Y-44450001D01*
X165573796Y-44474505D01*
X165570196Y-44498773D01*
X165564235Y-44522572D01*
X165555970Y-44545671D01*
X165545480Y-44567850D01*
X165532868Y-44588893D01*
X165518253Y-44608599D01*
X165501777Y-44626777D01*
X165483599Y-44643253D01*
X165463893Y-44657868D01*
X165442850Y-44670480D01*
X165420671Y-44680970D01*
X165397572Y-44689235D01*
X165373773Y-44695196D01*
X165349505Y-44698796D01*
X165325001Y-44700000D01*
X164674999Y-44700000D01*
X164650495Y-44698796D01*
X164626227Y-44695196D01*
X164602428Y-44689235D01*
X164579329Y-44680970D01*
X164557150Y-44670480D01*
X164536107Y-44657868D01*
X164516401Y-44643253D01*
X164498223Y-44626777D01*
X164481747Y-44608599D01*
X164467132Y-44588893D01*
X164454520Y-44567850D01*
X164444030Y-44545671D01*
X164435765Y-44522572D01*
X164429804Y-44498773D01*
X164426204Y-44474505D01*
X164425000Y-44450001D01*
X164425000Y-43549999D01*
X164426204Y-43525495D01*
X164429804Y-43501227D01*
X164435765Y-43477428D01*
X164444030Y-43454329D01*
X164454520Y-43432150D01*
X164467132Y-43411107D01*
X164481747Y-43391401D01*
X164498223Y-43373223D01*
X164516401Y-43356747D01*
X164536107Y-43342132D01*
X164557150Y-43329520D01*
X164579329Y-43319030D01*
X164602428Y-43310765D01*
X164626227Y-43304804D01*
X164650495Y-43301204D01*
X164674999Y-43300000D01*
X165325001Y-43300000D01*
X165349505Y-43301204D01*
X165349505Y-43301204D01*
G37*
D15*
X165000000Y-44000000D03*
G04 #@! TD*
D22*
G04 #@! TO.C,C6*
X160000000Y-23800000D03*
X160000000Y-20200000D03*
G04 #@! TD*
D14*
G04 #@! TO.C,R2*
G36*
X159299505Y-43301204D02*
X159323773Y-43304804D01*
X159347572Y-43310765D01*
X159370671Y-43319030D01*
X159392850Y-43329520D01*
X159413893Y-43342132D01*
X159433599Y-43356747D01*
X159451777Y-43373223D01*
X159468253Y-43391401D01*
X159482868Y-43411107D01*
X159495480Y-43432150D01*
X159505970Y-43454329D01*
X159514235Y-43477428D01*
X159520196Y-43501227D01*
X159523796Y-43525495D01*
X159525000Y-43549999D01*
X159525000Y-44450001D01*
X159523796Y-44474505D01*
X159520196Y-44498773D01*
X159514235Y-44522572D01*
X159505970Y-44545671D01*
X159495480Y-44567850D01*
X159482868Y-44588893D01*
X159468253Y-44608599D01*
X159451777Y-44626777D01*
X159433599Y-44643253D01*
X159413893Y-44657868D01*
X159392850Y-44670480D01*
X159370671Y-44680970D01*
X159347572Y-44689235D01*
X159323773Y-44695196D01*
X159299505Y-44698796D01*
X159275001Y-44700000D01*
X158624999Y-44700000D01*
X158600495Y-44698796D01*
X158576227Y-44695196D01*
X158552428Y-44689235D01*
X158529329Y-44680970D01*
X158507150Y-44670480D01*
X158486107Y-44657868D01*
X158466401Y-44643253D01*
X158448223Y-44626777D01*
X158431747Y-44608599D01*
X158417132Y-44588893D01*
X158404520Y-44567850D01*
X158394030Y-44545671D01*
X158385765Y-44522572D01*
X158379804Y-44498773D01*
X158376204Y-44474505D01*
X158375000Y-44450001D01*
X158375000Y-43549999D01*
X158376204Y-43525495D01*
X158379804Y-43501227D01*
X158385765Y-43477428D01*
X158394030Y-43454329D01*
X158404520Y-43432150D01*
X158417132Y-43411107D01*
X158431747Y-43391401D01*
X158448223Y-43373223D01*
X158466401Y-43356747D01*
X158486107Y-43342132D01*
X158507150Y-43329520D01*
X158529329Y-43319030D01*
X158552428Y-43310765D01*
X158576227Y-43304804D01*
X158600495Y-43301204D01*
X158624999Y-43300000D01*
X159275001Y-43300000D01*
X159299505Y-43301204D01*
X159299505Y-43301204D01*
G37*
D15*
X158950000Y-44000000D03*
D14*
G36*
X161349505Y-43301204D02*
X161373773Y-43304804D01*
X161397572Y-43310765D01*
X161420671Y-43319030D01*
X161442850Y-43329520D01*
X161463893Y-43342132D01*
X161483599Y-43356747D01*
X161501777Y-43373223D01*
X161518253Y-43391401D01*
X161532868Y-43411107D01*
X161545480Y-43432150D01*
X161555970Y-43454329D01*
X161564235Y-43477428D01*
X161570196Y-43501227D01*
X161573796Y-43525495D01*
X161575000Y-43549999D01*
X161575000Y-44450001D01*
X161573796Y-44474505D01*
X161570196Y-44498773D01*
X161564235Y-44522572D01*
X161555970Y-44545671D01*
X161545480Y-44567850D01*
X161532868Y-44588893D01*
X161518253Y-44608599D01*
X161501777Y-44626777D01*
X161483599Y-44643253D01*
X161463893Y-44657868D01*
X161442850Y-44670480D01*
X161420671Y-44680970D01*
X161397572Y-44689235D01*
X161373773Y-44695196D01*
X161349505Y-44698796D01*
X161325001Y-44700000D01*
X160674999Y-44700000D01*
X160650495Y-44698796D01*
X160626227Y-44695196D01*
X160602428Y-44689235D01*
X160579329Y-44680970D01*
X160557150Y-44670480D01*
X160536107Y-44657868D01*
X160516401Y-44643253D01*
X160498223Y-44626777D01*
X160481747Y-44608599D01*
X160467132Y-44588893D01*
X160454520Y-44567850D01*
X160444030Y-44545671D01*
X160435765Y-44522572D01*
X160429804Y-44498773D01*
X160426204Y-44474505D01*
X160425000Y-44450001D01*
X160425000Y-43549999D01*
X160426204Y-43525495D01*
X160429804Y-43501227D01*
X160435765Y-43477428D01*
X160444030Y-43454329D01*
X160454520Y-43432150D01*
X160467132Y-43411107D01*
X160481747Y-43391401D01*
X160498223Y-43373223D01*
X160516401Y-43356747D01*
X160536107Y-43342132D01*
X160557150Y-43329520D01*
X160579329Y-43319030D01*
X160602428Y-43310765D01*
X160626227Y-43304804D01*
X160650495Y-43301204D01*
X160674999Y-43300000D01*
X161325001Y-43300000D01*
X161349505Y-43301204D01*
X161349505Y-43301204D01*
G37*
D15*
X161000000Y-44000000D03*
G04 #@! TD*
D14*
G04 #@! TO.C,C3*
G36*
X190249505Y-36701204D02*
X190273773Y-36704804D01*
X190297572Y-36710765D01*
X190320671Y-36719030D01*
X190342850Y-36729520D01*
X190363893Y-36742132D01*
X190383599Y-36756747D01*
X190401777Y-36773223D01*
X190418253Y-36791401D01*
X190432868Y-36811107D01*
X190445480Y-36832150D01*
X190455970Y-36854329D01*
X190464235Y-36877428D01*
X190470196Y-36901227D01*
X190473796Y-36925495D01*
X190475000Y-36949999D01*
X190475000Y-37850001D01*
X190473796Y-37874505D01*
X190470196Y-37898773D01*
X190464235Y-37922572D01*
X190455970Y-37945671D01*
X190445480Y-37967850D01*
X190432868Y-37988893D01*
X190418253Y-38008599D01*
X190401777Y-38026777D01*
X190383599Y-38043253D01*
X190363893Y-38057868D01*
X190342850Y-38070480D01*
X190320671Y-38080970D01*
X190297572Y-38089235D01*
X190273773Y-38095196D01*
X190249505Y-38098796D01*
X190225001Y-38100000D01*
X189574999Y-38100000D01*
X189550495Y-38098796D01*
X189526227Y-38095196D01*
X189502428Y-38089235D01*
X189479329Y-38080970D01*
X189457150Y-38070480D01*
X189436107Y-38057868D01*
X189416401Y-38043253D01*
X189398223Y-38026777D01*
X189381747Y-38008599D01*
X189367132Y-37988893D01*
X189354520Y-37967850D01*
X189344030Y-37945671D01*
X189335765Y-37922572D01*
X189329804Y-37898773D01*
X189326204Y-37874505D01*
X189325000Y-37850001D01*
X189325000Y-36949999D01*
X189326204Y-36925495D01*
X189329804Y-36901227D01*
X189335765Y-36877428D01*
X189344030Y-36854329D01*
X189354520Y-36832150D01*
X189367132Y-36811107D01*
X189381747Y-36791401D01*
X189398223Y-36773223D01*
X189416401Y-36756747D01*
X189436107Y-36742132D01*
X189457150Y-36729520D01*
X189479329Y-36719030D01*
X189502428Y-36710765D01*
X189526227Y-36704804D01*
X189550495Y-36701204D01*
X189574999Y-36700000D01*
X190225001Y-36700000D01*
X190249505Y-36701204D01*
X190249505Y-36701204D01*
G37*
D15*
X189900000Y-37400000D03*
D14*
G36*
X192299505Y-36701204D02*
X192323773Y-36704804D01*
X192347572Y-36710765D01*
X192370671Y-36719030D01*
X192392850Y-36729520D01*
X192413893Y-36742132D01*
X192433599Y-36756747D01*
X192451777Y-36773223D01*
X192468253Y-36791401D01*
X192482868Y-36811107D01*
X192495480Y-36832150D01*
X192505970Y-36854329D01*
X192514235Y-36877428D01*
X192520196Y-36901227D01*
X192523796Y-36925495D01*
X192525000Y-36949999D01*
X192525000Y-37850001D01*
X192523796Y-37874505D01*
X192520196Y-37898773D01*
X192514235Y-37922572D01*
X192505970Y-37945671D01*
X192495480Y-37967850D01*
X192482868Y-37988893D01*
X192468253Y-38008599D01*
X192451777Y-38026777D01*
X192433599Y-38043253D01*
X192413893Y-38057868D01*
X192392850Y-38070480D01*
X192370671Y-38080970D01*
X192347572Y-38089235D01*
X192323773Y-38095196D01*
X192299505Y-38098796D01*
X192275001Y-38100000D01*
X191624999Y-38100000D01*
X191600495Y-38098796D01*
X191576227Y-38095196D01*
X191552428Y-38089235D01*
X191529329Y-38080970D01*
X191507150Y-38070480D01*
X191486107Y-38057868D01*
X191466401Y-38043253D01*
X191448223Y-38026777D01*
X191431747Y-38008599D01*
X191417132Y-37988893D01*
X191404520Y-37967850D01*
X191394030Y-37945671D01*
X191385765Y-37922572D01*
X191379804Y-37898773D01*
X191376204Y-37874505D01*
X191375000Y-37850001D01*
X191375000Y-36949999D01*
X191376204Y-36925495D01*
X191379804Y-36901227D01*
X191385765Y-36877428D01*
X191394030Y-36854329D01*
X191404520Y-36832150D01*
X191417132Y-36811107D01*
X191431747Y-36791401D01*
X191448223Y-36773223D01*
X191466401Y-36756747D01*
X191486107Y-36742132D01*
X191507150Y-36729520D01*
X191529329Y-36719030D01*
X191552428Y-36710765D01*
X191576227Y-36704804D01*
X191600495Y-36701204D01*
X191624999Y-36700000D01*
X192275001Y-36700000D01*
X192299505Y-36701204D01*
X192299505Y-36701204D01*
G37*
D15*
X191950000Y-37400000D03*
G04 #@! TD*
D14*
G04 #@! TO.C,C2*
G36*
X197260779Y-42726144D02*
X197283834Y-42729563D01*
X197306443Y-42735227D01*
X197328387Y-42743079D01*
X197349457Y-42753044D01*
X197369448Y-42765026D01*
X197388168Y-42778910D01*
X197405438Y-42794562D01*
X197421090Y-42811832D01*
X197434974Y-42830552D01*
X197446956Y-42850543D01*
X197456921Y-42871613D01*
X197464773Y-42893557D01*
X197470437Y-42916166D01*
X197473856Y-42939221D01*
X197475000Y-42962500D01*
X197475000Y-43537500D01*
X197473856Y-43560779D01*
X197470437Y-43583834D01*
X197464773Y-43606443D01*
X197456921Y-43628387D01*
X197446956Y-43649457D01*
X197434974Y-43669448D01*
X197421090Y-43688168D01*
X197405438Y-43705438D01*
X197388168Y-43721090D01*
X197369448Y-43734974D01*
X197349457Y-43746956D01*
X197328387Y-43756921D01*
X197306443Y-43764773D01*
X197283834Y-43770437D01*
X197260779Y-43773856D01*
X197237500Y-43775000D01*
X196762500Y-43775000D01*
X196739221Y-43773856D01*
X196716166Y-43770437D01*
X196693557Y-43764773D01*
X196671613Y-43756921D01*
X196650543Y-43746956D01*
X196630552Y-43734974D01*
X196611832Y-43721090D01*
X196594562Y-43705438D01*
X196578910Y-43688168D01*
X196565026Y-43669448D01*
X196553044Y-43649457D01*
X196543079Y-43628387D01*
X196535227Y-43606443D01*
X196529563Y-43583834D01*
X196526144Y-43560779D01*
X196525000Y-43537500D01*
X196525000Y-42962500D01*
X196526144Y-42939221D01*
X196529563Y-42916166D01*
X196535227Y-42893557D01*
X196543079Y-42871613D01*
X196553044Y-42850543D01*
X196565026Y-42830552D01*
X196578910Y-42811832D01*
X196594562Y-42794562D01*
X196611832Y-42778910D01*
X196630552Y-42765026D01*
X196650543Y-42753044D01*
X196671613Y-42743079D01*
X196693557Y-42735227D01*
X196716166Y-42729563D01*
X196739221Y-42726144D01*
X196762500Y-42725000D01*
X197237500Y-42725000D01*
X197260779Y-42726144D01*
X197260779Y-42726144D01*
G37*
D17*
X197000000Y-43250000D03*
D14*
G36*
X197260779Y-44476144D02*
X197283834Y-44479563D01*
X197306443Y-44485227D01*
X197328387Y-44493079D01*
X197349457Y-44503044D01*
X197369448Y-44515026D01*
X197388168Y-44528910D01*
X197405438Y-44544562D01*
X197421090Y-44561832D01*
X197434974Y-44580552D01*
X197446956Y-44600543D01*
X197456921Y-44621613D01*
X197464773Y-44643557D01*
X197470437Y-44666166D01*
X197473856Y-44689221D01*
X197475000Y-44712500D01*
X197475000Y-45287500D01*
X197473856Y-45310779D01*
X197470437Y-45333834D01*
X197464773Y-45356443D01*
X197456921Y-45378387D01*
X197446956Y-45399457D01*
X197434974Y-45419448D01*
X197421090Y-45438168D01*
X197405438Y-45455438D01*
X197388168Y-45471090D01*
X197369448Y-45484974D01*
X197349457Y-45496956D01*
X197328387Y-45506921D01*
X197306443Y-45514773D01*
X197283834Y-45520437D01*
X197260779Y-45523856D01*
X197237500Y-45525000D01*
X196762500Y-45525000D01*
X196739221Y-45523856D01*
X196716166Y-45520437D01*
X196693557Y-45514773D01*
X196671613Y-45506921D01*
X196650543Y-45496956D01*
X196630552Y-45484974D01*
X196611832Y-45471090D01*
X196594562Y-45455438D01*
X196578910Y-45438168D01*
X196565026Y-45419448D01*
X196553044Y-45399457D01*
X196543079Y-45378387D01*
X196535227Y-45356443D01*
X196529563Y-45333834D01*
X196526144Y-45310779D01*
X196525000Y-45287500D01*
X196525000Y-44712500D01*
X196526144Y-44689221D01*
X196529563Y-44666166D01*
X196535227Y-44643557D01*
X196543079Y-44621613D01*
X196553044Y-44600543D01*
X196565026Y-44580552D01*
X196578910Y-44561832D01*
X196594562Y-44544562D01*
X196611832Y-44528910D01*
X196630552Y-44515026D01*
X196650543Y-44503044D01*
X196671613Y-44493079D01*
X196693557Y-44485227D01*
X196716166Y-44479563D01*
X196739221Y-44476144D01*
X196762500Y-44475000D01*
X197237500Y-44475000D01*
X197260779Y-44476144D01*
X197260779Y-44476144D01*
G37*
D17*
X197000000Y-45000000D03*
G04 #@! TD*
D14*
G04 #@! TO.C,C1*
G36*
X207260779Y-44476144D02*
X207283834Y-44479563D01*
X207306443Y-44485227D01*
X207328387Y-44493079D01*
X207349457Y-44503044D01*
X207369448Y-44515026D01*
X207388168Y-44528910D01*
X207405438Y-44544562D01*
X207421090Y-44561832D01*
X207434974Y-44580552D01*
X207446956Y-44600543D01*
X207456921Y-44621613D01*
X207464773Y-44643557D01*
X207470437Y-44666166D01*
X207473856Y-44689221D01*
X207475000Y-44712500D01*
X207475000Y-45287500D01*
X207473856Y-45310779D01*
X207470437Y-45333834D01*
X207464773Y-45356443D01*
X207456921Y-45378387D01*
X207446956Y-45399457D01*
X207434974Y-45419448D01*
X207421090Y-45438168D01*
X207405438Y-45455438D01*
X207388168Y-45471090D01*
X207369448Y-45484974D01*
X207349457Y-45496956D01*
X207328387Y-45506921D01*
X207306443Y-45514773D01*
X207283834Y-45520437D01*
X207260779Y-45523856D01*
X207237500Y-45525000D01*
X206762500Y-45525000D01*
X206739221Y-45523856D01*
X206716166Y-45520437D01*
X206693557Y-45514773D01*
X206671613Y-45506921D01*
X206650543Y-45496956D01*
X206630552Y-45484974D01*
X206611832Y-45471090D01*
X206594562Y-45455438D01*
X206578910Y-45438168D01*
X206565026Y-45419448D01*
X206553044Y-45399457D01*
X206543079Y-45378387D01*
X206535227Y-45356443D01*
X206529563Y-45333834D01*
X206526144Y-45310779D01*
X206525000Y-45287500D01*
X206525000Y-44712500D01*
X206526144Y-44689221D01*
X206529563Y-44666166D01*
X206535227Y-44643557D01*
X206543079Y-44621613D01*
X206553044Y-44600543D01*
X206565026Y-44580552D01*
X206578910Y-44561832D01*
X206594562Y-44544562D01*
X206611832Y-44528910D01*
X206630552Y-44515026D01*
X206650543Y-44503044D01*
X206671613Y-44493079D01*
X206693557Y-44485227D01*
X206716166Y-44479563D01*
X206739221Y-44476144D01*
X206762500Y-44475000D01*
X207237500Y-44475000D01*
X207260779Y-44476144D01*
X207260779Y-44476144D01*
G37*
D17*
X207000000Y-45000000D03*
D14*
G36*
X207260779Y-42726144D02*
X207283834Y-42729563D01*
X207306443Y-42735227D01*
X207328387Y-42743079D01*
X207349457Y-42753044D01*
X207369448Y-42765026D01*
X207388168Y-42778910D01*
X207405438Y-42794562D01*
X207421090Y-42811832D01*
X207434974Y-42830552D01*
X207446956Y-42850543D01*
X207456921Y-42871613D01*
X207464773Y-42893557D01*
X207470437Y-42916166D01*
X207473856Y-42939221D01*
X207475000Y-42962500D01*
X207475000Y-43537500D01*
X207473856Y-43560779D01*
X207470437Y-43583834D01*
X207464773Y-43606443D01*
X207456921Y-43628387D01*
X207446956Y-43649457D01*
X207434974Y-43669448D01*
X207421090Y-43688168D01*
X207405438Y-43705438D01*
X207388168Y-43721090D01*
X207369448Y-43734974D01*
X207349457Y-43746956D01*
X207328387Y-43756921D01*
X207306443Y-43764773D01*
X207283834Y-43770437D01*
X207260779Y-43773856D01*
X207237500Y-43775000D01*
X206762500Y-43775000D01*
X206739221Y-43773856D01*
X206716166Y-43770437D01*
X206693557Y-43764773D01*
X206671613Y-43756921D01*
X206650543Y-43746956D01*
X206630552Y-43734974D01*
X206611832Y-43721090D01*
X206594562Y-43705438D01*
X206578910Y-43688168D01*
X206565026Y-43669448D01*
X206553044Y-43649457D01*
X206543079Y-43628387D01*
X206535227Y-43606443D01*
X206529563Y-43583834D01*
X206526144Y-43560779D01*
X206525000Y-43537500D01*
X206525000Y-42962500D01*
X206526144Y-42939221D01*
X206529563Y-42916166D01*
X206535227Y-42893557D01*
X206543079Y-42871613D01*
X206553044Y-42850543D01*
X206565026Y-42830552D01*
X206578910Y-42811832D01*
X206594562Y-42794562D01*
X206611832Y-42778910D01*
X206630552Y-42765026D01*
X206650543Y-42753044D01*
X206671613Y-42743079D01*
X206693557Y-42735227D01*
X206716166Y-42729563D01*
X206739221Y-42726144D01*
X206762500Y-42725000D01*
X207237500Y-42725000D01*
X207260779Y-42726144D01*
X207260779Y-42726144D01*
G37*
D17*
X207000000Y-43250000D03*
G04 #@! TD*
D18*
G04 #@! TO.C,J1*
X161825000Y-68300000D03*
X161825000Y-67650000D03*
X161825000Y-67000000D03*
X161825000Y-66350000D03*
X161825000Y-65700000D03*
D19*
X161500000Y-63700000D03*
X161500000Y-70300000D03*
D20*
X159150000Y-62900000D03*
X159150000Y-71100000D03*
G04 #@! TD*
D21*
G04 #@! TO.C,Y1*
X197750000Y-74000000D03*
X206250000Y-74000000D03*
G04 #@! TD*
D14*
G04 #@! TO.C,R5*
G36*
X177349505Y-78301204D02*
X177373773Y-78304804D01*
X177397572Y-78310765D01*
X177420671Y-78319030D01*
X177442850Y-78329520D01*
X177463893Y-78342132D01*
X177483599Y-78356747D01*
X177501777Y-78373223D01*
X177518253Y-78391401D01*
X177532868Y-78411107D01*
X177545480Y-78432150D01*
X177555970Y-78454329D01*
X177564235Y-78477428D01*
X177570196Y-78501227D01*
X177573796Y-78525495D01*
X177575000Y-78549999D01*
X177575000Y-79450001D01*
X177573796Y-79474505D01*
X177570196Y-79498773D01*
X177564235Y-79522572D01*
X177555970Y-79545671D01*
X177545480Y-79567850D01*
X177532868Y-79588893D01*
X177518253Y-79608599D01*
X177501777Y-79626777D01*
X177483599Y-79643253D01*
X177463893Y-79657868D01*
X177442850Y-79670480D01*
X177420671Y-79680970D01*
X177397572Y-79689235D01*
X177373773Y-79695196D01*
X177349505Y-79698796D01*
X177325001Y-79700000D01*
X176674999Y-79700000D01*
X176650495Y-79698796D01*
X176626227Y-79695196D01*
X176602428Y-79689235D01*
X176579329Y-79680970D01*
X176557150Y-79670480D01*
X176536107Y-79657868D01*
X176516401Y-79643253D01*
X176498223Y-79626777D01*
X176481747Y-79608599D01*
X176467132Y-79588893D01*
X176454520Y-79567850D01*
X176444030Y-79545671D01*
X176435765Y-79522572D01*
X176429804Y-79498773D01*
X176426204Y-79474505D01*
X176425000Y-79450001D01*
X176425000Y-78549999D01*
X176426204Y-78525495D01*
X176429804Y-78501227D01*
X176435765Y-78477428D01*
X176444030Y-78454329D01*
X176454520Y-78432150D01*
X176467132Y-78411107D01*
X176481747Y-78391401D01*
X176498223Y-78373223D01*
X176516401Y-78356747D01*
X176536107Y-78342132D01*
X176557150Y-78329520D01*
X176579329Y-78319030D01*
X176602428Y-78310765D01*
X176626227Y-78304804D01*
X176650495Y-78301204D01*
X176674999Y-78300000D01*
X177325001Y-78300000D01*
X177349505Y-78301204D01*
X177349505Y-78301204D01*
G37*
D15*
X177000000Y-79000000D03*
D14*
G36*
X179399505Y-78301204D02*
X179423773Y-78304804D01*
X179447572Y-78310765D01*
X179470671Y-78319030D01*
X179492850Y-78329520D01*
X179513893Y-78342132D01*
X179533599Y-78356747D01*
X179551777Y-78373223D01*
X179568253Y-78391401D01*
X179582868Y-78411107D01*
X179595480Y-78432150D01*
X179605970Y-78454329D01*
X179614235Y-78477428D01*
X179620196Y-78501227D01*
X179623796Y-78525495D01*
X179625000Y-78549999D01*
X179625000Y-79450001D01*
X179623796Y-79474505D01*
X179620196Y-79498773D01*
X179614235Y-79522572D01*
X179605970Y-79545671D01*
X179595480Y-79567850D01*
X179582868Y-79588893D01*
X179568253Y-79608599D01*
X179551777Y-79626777D01*
X179533599Y-79643253D01*
X179513893Y-79657868D01*
X179492850Y-79670480D01*
X179470671Y-79680970D01*
X179447572Y-79689235D01*
X179423773Y-79695196D01*
X179399505Y-79698796D01*
X179375001Y-79700000D01*
X178724999Y-79700000D01*
X178700495Y-79698796D01*
X178676227Y-79695196D01*
X178652428Y-79689235D01*
X178629329Y-79680970D01*
X178607150Y-79670480D01*
X178586107Y-79657868D01*
X178566401Y-79643253D01*
X178548223Y-79626777D01*
X178531747Y-79608599D01*
X178517132Y-79588893D01*
X178504520Y-79567850D01*
X178494030Y-79545671D01*
X178485765Y-79522572D01*
X178479804Y-79498773D01*
X178476204Y-79474505D01*
X178475000Y-79450001D01*
X178475000Y-78549999D01*
X178476204Y-78525495D01*
X178479804Y-78501227D01*
X178485765Y-78477428D01*
X178494030Y-78454329D01*
X178504520Y-78432150D01*
X178517132Y-78411107D01*
X178531747Y-78391401D01*
X178548223Y-78373223D01*
X178566401Y-78356747D01*
X178586107Y-78342132D01*
X178607150Y-78329520D01*
X178629329Y-78319030D01*
X178652428Y-78310765D01*
X178676227Y-78304804D01*
X178700495Y-78301204D01*
X178724999Y-78300000D01*
X179375001Y-78300000D01*
X179399505Y-78301204D01*
X179399505Y-78301204D01*
G37*
D15*
X179050000Y-79000000D03*
G04 #@! TD*
D14*
G04 #@! TO.C,R4*
G36*
X173374505Y-78301204D02*
X173398773Y-78304804D01*
X173422572Y-78310765D01*
X173445671Y-78319030D01*
X173467850Y-78329520D01*
X173488893Y-78342132D01*
X173508599Y-78356747D01*
X173526777Y-78373223D01*
X173543253Y-78391401D01*
X173557868Y-78411107D01*
X173570480Y-78432150D01*
X173580970Y-78454329D01*
X173589235Y-78477428D01*
X173595196Y-78501227D01*
X173598796Y-78525495D01*
X173600000Y-78549999D01*
X173600000Y-79450001D01*
X173598796Y-79474505D01*
X173595196Y-79498773D01*
X173589235Y-79522572D01*
X173580970Y-79545671D01*
X173570480Y-79567850D01*
X173557868Y-79588893D01*
X173543253Y-79608599D01*
X173526777Y-79626777D01*
X173508599Y-79643253D01*
X173488893Y-79657868D01*
X173467850Y-79670480D01*
X173445671Y-79680970D01*
X173422572Y-79689235D01*
X173398773Y-79695196D01*
X173374505Y-79698796D01*
X173350001Y-79700000D01*
X172699999Y-79700000D01*
X172675495Y-79698796D01*
X172651227Y-79695196D01*
X172627428Y-79689235D01*
X172604329Y-79680970D01*
X172582150Y-79670480D01*
X172561107Y-79657868D01*
X172541401Y-79643253D01*
X172523223Y-79626777D01*
X172506747Y-79608599D01*
X172492132Y-79588893D01*
X172479520Y-79567850D01*
X172469030Y-79545671D01*
X172460765Y-79522572D01*
X172454804Y-79498773D01*
X172451204Y-79474505D01*
X172450000Y-79450001D01*
X172450000Y-78549999D01*
X172451204Y-78525495D01*
X172454804Y-78501227D01*
X172460765Y-78477428D01*
X172469030Y-78454329D01*
X172479520Y-78432150D01*
X172492132Y-78411107D01*
X172506747Y-78391401D01*
X172523223Y-78373223D01*
X172541401Y-78356747D01*
X172561107Y-78342132D01*
X172582150Y-78329520D01*
X172604329Y-78319030D01*
X172627428Y-78310765D01*
X172651227Y-78304804D01*
X172675495Y-78301204D01*
X172699999Y-78300000D01*
X173350001Y-78300000D01*
X173374505Y-78301204D01*
X173374505Y-78301204D01*
G37*
D15*
X173025000Y-79000000D03*
D14*
G36*
X171324505Y-78301204D02*
X171348773Y-78304804D01*
X171372572Y-78310765D01*
X171395671Y-78319030D01*
X171417850Y-78329520D01*
X171438893Y-78342132D01*
X171458599Y-78356747D01*
X171476777Y-78373223D01*
X171493253Y-78391401D01*
X171507868Y-78411107D01*
X171520480Y-78432150D01*
X171530970Y-78454329D01*
X171539235Y-78477428D01*
X171545196Y-78501227D01*
X171548796Y-78525495D01*
X171550000Y-78549999D01*
X171550000Y-79450001D01*
X171548796Y-79474505D01*
X171545196Y-79498773D01*
X171539235Y-79522572D01*
X171530970Y-79545671D01*
X171520480Y-79567850D01*
X171507868Y-79588893D01*
X171493253Y-79608599D01*
X171476777Y-79626777D01*
X171458599Y-79643253D01*
X171438893Y-79657868D01*
X171417850Y-79670480D01*
X171395671Y-79680970D01*
X171372572Y-79689235D01*
X171348773Y-79695196D01*
X171324505Y-79698796D01*
X171300001Y-79700000D01*
X170649999Y-79700000D01*
X170625495Y-79698796D01*
X170601227Y-79695196D01*
X170577428Y-79689235D01*
X170554329Y-79680970D01*
X170532150Y-79670480D01*
X170511107Y-79657868D01*
X170491401Y-79643253D01*
X170473223Y-79626777D01*
X170456747Y-79608599D01*
X170442132Y-79588893D01*
X170429520Y-79567850D01*
X170419030Y-79545671D01*
X170410765Y-79522572D01*
X170404804Y-79498773D01*
X170401204Y-79474505D01*
X170400000Y-79450001D01*
X170400000Y-78549999D01*
X170401204Y-78525495D01*
X170404804Y-78501227D01*
X170410765Y-78477428D01*
X170419030Y-78454329D01*
X170429520Y-78432150D01*
X170442132Y-78411107D01*
X170456747Y-78391401D01*
X170473223Y-78373223D01*
X170491401Y-78356747D01*
X170511107Y-78342132D01*
X170532150Y-78329520D01*
X170554329Y-78319030D01*
X170577428Y-78310765D01*
X170601227Y-78304804D01*
X170625495Y-78301204D01*
X170649999Y-78300000D01*
X171300001Y-78300000D01*
X171324505Y-78301204D01*
X171324505Y-78301204D01*
G37*
D15*
X170975000Y-79000000D03*
G04 #@! TD*
D14*
G04 #@! TO.C,R3*
G36*
X167399505Y-78301204D02*
X167423773Y-78304804D01*
X167447572Y-78310765D01*
X167470671Y-78319030D01*
X167492850Y-78329520D01*
X167513893Y-78342132D01*
X167533599Y-78356747D01*
X167551777Y-78373223D01*
X167568253Y-78391401D01*
X167582868Y-78411107D01*
X167595480Y-78432150D01*
X167605970Y-78454329D01*
X167614235Y-78477428D01*
X167620196Y-78501227D01*
X167623796Y-78525495D01*
X167625000Y-78549999D01*
X167625000Y-79450001D01*
X167623796Y-79474505D01*
X167620196Y-79498773D01*
X167614235Y-79522572D01*
X167605970Y-79545671D01*
X167595480Y-79567850D01*
X167582868Y-79588893D01*
X167568253Y-79608599D01*
X167551777Y-79626777D01*
X167533599Y-79643253D01*
X167513893Y-79657868D01*
X167492850Y-79670480D01*
X167470671Y-79680970D01*
X167447572Y-79689235D01*
X167423773Y-79695196D01*
X167399505Y-79698796D01*
X167375001Y-79700000D01*
X166724999Y-79700000D01*
X166700495Y-79698796D01*
X166676227Y-79695196D01*
X166652428Y-79689235D01*
X166629329Y-79680970D01*
X166607150Y-79670480D01*
X166586107Y-79657868D01*
X166566401Y-79643253D01*
X166548223Y-79626777D01*
X166531747Y-79608599D01*
X166517132Y-79588893D01*
X166504520Y-79567850D01*
X166494030Y-79545671D01*
X166485765Y-79522572D01*
X166479804Y-79498773D01*
X166476204Y-79474505D01*
X166475000Y-79450001D01*
X166475000Y-78549999D01*
X166476204Y-78525495D01*
X166479804Y-78501227D01*
X166485765Y-78477428D01*
X166494030Y-78454329D01*
X166504520Y-78432150D01*
X166517132Y-78411107D01*
X166531747Y-78391401D01*
X166548223Y-78373223D01*
X166566401Y-78356747D01*
X166586107Y-78342132D01*
X166607150Y-78329520D01*
X166629329Y-78319030D01*
X166652428Y-78310765D01*
X166676227Y-78304804D01*
X166700495Y-78301204D01*
X166724999Y-78300000D01*
X167375001Y-78300000D01*
X167399505Y-78301204D01*
X167399505Y-78301204D01*
G37*
D15*
X167050000Y-79000000D03*
D14*
G36*
X165349505Y-78301204D02*
X165373773Y-78304804D01*
X165397572Y-78310765D01*
X165420671Y-78319030D01*
X165442850Y-78329520D01*
X165463893Y-78342132D01*
X165483599Y-78356747D01*
X165501777Y-78373223D01*
X165518253Y-78391401D01*
X165532868Y-78411107D01*
X165545480Y-78432150D01*
X165555970Y-78454329D01*
X165564235Y-78477428D01*
X165570196Y-78501227D01*
X165573796Y-78525495D01*
X165575000Y-78549999D01*
X165575000Y-79450001D01*
X165573796Y-79474505D01*
X165570196Y-79498773D01*
X165564235Y-79522572D01*
X165555970Y-79545671D01*
X165545480Y-79567850D01*
X165532868Y-79588893D01*
X165518253Y-79608599D01*
X165501777Y-79626777D01*
X165483599Y-79643253D01*
X165463893Y-79657868D01*
X165442850Y-79670480D01*
X165420671Y-79680970D01*
X165397572Y-79689235D01*
X165373773Y-79695196D01*
X165349505Y-79698796D01*
X165325001Y-79700000D01*
X164674999Y-79700000D01*
X164650495Y-79698796D01*
X164626227Y-79695196D01*
X164602428Y-79689235D01*
X164579329Y-79680970D01*
X164557150Y-79670480D01*
X164536107Y-79657868D01*
X164516401Y-79643253D01*
X164498223Y-79626777D01*
X164481747Y-79608599D01*
X164467132Y-79588893D01*
X164454520Y-79567850D01*
X164444030Y-79545671D01*
X164435765Y-79522572D01*
X164429804Y-79498773D01*
X164426204Y-79474505D01*
X164425000Y-79450001D01*
X164425000Y-78549999D01*
X164426204Y-78525495D01*
X164429804Y-78501227D01*
X164435765Y-78477428D01*
X164444030Y-78454329D01*
X164454520Y-78432150D01*
X164467132Y-78411107D01*
X164481747Y-78391401D01*
X164498223Y-78373223D01*
X164516401Y-78356747D01*
X164536107Y-78342132D01*
X164557150Y-78329520D01*
X164579329Y-78319030D01*
X164602428Y-78310765D01*
X164626227Y-78304804D01*
X164650495Y-78301204D01*
X164674999Y-78300000D01*
X165325001Y-78300000D01*
X165349505Y-78301204D01*
X165349505Y-78301204D01*
G37*
D15*
X165000000Y-79000000D03*
G04 #@! TD*
D22*
G04 #@! TO.C,C6*
X160000000Y-58800000D03*
X160000000Y-55200000D03*
G04 #@! TD*
D14*
G04 #@! TO.C,R2*
G36*
X159299505Y-78301204D02*
X159323773Y-78304804D01*
X159347572Y-78310765D01*
X159370671Y-78319030D01*
X159392850Y-78329520D01*
X159413893Y-78342132D01*
X159433599Y-78356747D01*
X159451777Y-78373223D01*
X159468253Y-78391401D01*
X159482868Y-78411107D01*
X159495480Y-78432150D01*
X159505970Y-78454329D01*
X159514235Y-78477428D01*
X159520196Y-78501227D01*
X159523796Y-78525495D01*
X159525000Y-78549999D01*
X159525000Y-79450001D01*
X159523796Y-79474505D01*
X159520196Y-79498773D01*
X159514235Y-79522572D01*
X159505970Y-79545671D01*
X159495480Y-79567850D01*
X159482868Y-79588893D01*
X159468253Y-79608599D01*
X159451777Y-79626777D01*
X159433599Y-79643253D01*
X159413893Y-79657868D01*
X159392850Y-79670480D01*
X159370671Y-79680970D01*
X159347572Y-79689235D01*
X159323773Y-79695196D01*
X159299505Y-79698796D01*
X159275001Y-79700000D01*
X158624999Y-79700000D01*
X158600495Y-79698796D01*
X158576227Y-79695196D01*
X158552428Y-79689235D01*
X158529329Y-79680970D01*
X158507150Y-79670480D01*
X158486107Y-79657868D01*
X158466401Y-79643253D01*
X158448223Y-79626777D01*
X158431747Y-79608599D01*
X158417132Y-79588893D01*
X158404520Y-79567850D01*
X158394030Y-79545671D01*
X158385765Y-79522572D01*
X158379804Y-79498773D01*
X158376204Y-79474505D01*
X158375000Y-79450001D01*
X158375000Y-78549999D01*
X158376204Y-78525495D01*
X158379804Y-78501227D01*
X158385765Y-78477428D01*
X158394030Y-78454329D01*
X158404520Y-78432150D01*
X158417132Y-78411107D01*
X158431747Y-78391401D01*
X158448223Y-78373223D01*
X158466401Y-78356747D01*
X158486107Y-78342132D01*
X158507150Y-78329520D01*
X158529329Y-78319030D01*
X158552428Y-78310765D01*
X158576227Y-78304804D01*
X158600495Y-78301204D01*
X158624999Y-78300000D01*
X159275001Y-78300000D01*
X159299505Y-78301204D01*
X159299505Y-78301204D01*
G37*
D15*
X158950000Y-79000000D03*
D14*
G36*
X161349505Y-78301204D02*
X161373773Y-78304804D01*
X161397572Y-78310765D01*
X161420671Y-78319030D01*
X161442850Y-78329520D01*
X161463893Y-78342132D01*
X161483599Y-78356747D01*
X161501777Y-78373223D01*
X161518253Y-78391401D01*
X161532868Y-78411107D01*
X161545480Y-78432150D01*
X161555970Y-78454329D01*
X161564235Y-78477428D01*
X161570196Y-78501227D01*
X161573796Y-78525495D01*
X161575000Y-78549999D01*
X161575000Y-79450001D01*
X161573796Y-79474505D01*
X161570196Y-79498773D01*
X161564235Y-79522572D01*
X161555970Y-79545671D01*
X161545480Y-79567850D01*
X161532868Y-79588893D01*
X161518253Y-79608599D01*
X161501777Y-79626777D01*
X161483599Y-79643253D01*
X161463893Y-79657868D01*
X161442850Y-79670480D01*
X161420671Y-79680970D01*
X161397572Y-79689235D01*
X161373773Y-79695196D01*
X161349505Y-79698796D01*
X161325001Y-79700000D01*
X160674999Y-79700000D01*
X160650495Y-79698796D01*
X160626227Y-79695196D01*
X160602428Y-79689235D01*
X160579329Y-79680970D01*
X160557150Y-79670480D01*
X160536107Y-79657868D01*
X160516401Y-79643253D01*
X160498223Y-79626777D01*
X160481747Y-79608599D01*
X160467132Y-79588893D01*
X160454520Y-79567850D01*
X160444030Y-79545671D01*
X160435765Y-79522572D01*
X160429804Y-79498773D01*
X160426204Y-79474505D01*
X160425000Y-79450001D01*
X160425000Y-78549999D01*
X160426204Y-78525495D01*
X160429804Y-78501227D01*
X160435765Y-78477428D01*
X160444030Y-78454329D01*
X160454520Y-78432150D01*
X160467132Y-78411107D01*
X160481747Y-78391401D01*
X160498223Y-78373223D01*
X160516401Y-78356747D01*
X160536107Y-78342132D01*
X160557150Y-78329520D01*
X160579329Y-78319030D01*
X160602428Y-78310765D01*
X160626227Y-78304804D01*
X160650495Y-78301204D01*
X160674999Y-78300000D01*
X161325001Y-78300000D01*
X161349505Y-78301204D01*
X161349505Y-78301204D01*
G37*
D15*
X161000000Y-79000000D03*
G04 #@! TD*
D14*
G04 #@! TO.C,C3*
G36*
X190249505Y-71701204D02*
X190273773Y-71704804D01*
X190297572Y-71710765D01*
X190320671Y-71719030D01*
X190342850Y-71729520D01*
X190363893Y-71742132D01*
X190383599Y-71756747D01*
X190401777Y-71773223D01*
X190418253Y-71791401D01*
X190432868Y-71811107D01*
X190445480Y-71832150D01*
X190455970Y-71854329D01*
X190464235Y-71877428D01*
X190470196Y-71901227D01*
X190473796Y-71925495D01*
X190475000Y-71949999D01*
X190475000Y-72850001D01*
X190473796Y-72874505D01*
X190470196Y-72898773D01*
X190464235Y-72922572D01*
X190455970Y-72945671D01*
X190445480Y-72967850D01*
X190432868Y-72988893D01*
X190418253Y-73008599D01*
X190401777Y-73026777D01*
X190383599Y-73043253D01*
X190363893Y-73057868D01*
X190342850Y-73070480D01*
X190320671Y-73080970D01*
X190297572Y-73089235D01*
X190273773Y-73095196D01*
X190249505Y-73098796D01*
X190225001Y-73100000D01*
X189574999Y-73100000D01*
X189550495Y-73098796D01*
X189526227Y-73095196D01*
X189502428Y-73089235D01*
X189479329Y-73080970D01*
X189457150Y-73070480D01*
X189436107Y-73057868D01*
X189416401Y-73043253D01*
X189398223Y-73026777D01*
X189381747Y-73008599D01*
X189367132Y-72988893D01*
X189354520Y-72967850D01*
X189344030Y-72945671D01*
X189335765Y-72922572D01*
X189329804Y-72898773D01*
X189326204Y-72874505D01*
X189325000Y-72850001D01*
X189325000Y-71949999D01*
X189326204Y-71925495D01*
X189329804Y-71901227D01*
X189335765Y-71877428D01*
X189344030Y-71854329D01*
X189354520Y-71832150D01*
X189367132Y-71811107D01*
X189381747Y-71791401D01*
X189398223Y-71773223D01*
X189416401Y-71756747D01*
X189436107Y-71742132D01*
X189457150Y-71729520D01*
X189479329Y-71719030D01*
X189502428Y-71710765D01*
X189526227Y-71704804D01*
X189550495Y-71701204D01*
X189574999Y-71700000D01*
X190225001Y-71700000D01*
X190249505Y-71701204D01*
X190249505Y-71701204D01*
G37*
D15*
X189900000Y-72400000D03*
D14*
G36*
X192299505Y-71701204D02*
X192323773Y-71704804D01*
X192347572Y-71710765D01*
X192370671Y-71719030D01*
X192392850Y-71729520D01*
X192413893Y-71742132D01*
X192433599Y-71756747D01*
X192451777Y-71773223D01*
X192468253Y-71791401D01*
X192482868Y-71811107D01*
X192495480Y-71832150D01*
X192505970Y-71854329D01*
X192514235Y-71877428D01*
X192520196Y-71901227D01*
X192523796Y-71925495D01*
X192525000Y-71949999D01*
X192525000Y-72850001D01*
X192523796Y-72874505D01*
X192520196Y-72898773D01*
X192514235Y-72922572D01*
X192505970Y-72945671D01*
X192495480Y-72967850D01*
X192482868Y-72988893D01*
X192468253Y-73008599D01*
X192451777Y-73026777D01*
X192433599Y-73043253D01*
X192413893Y-73057868D01*
X192392850Y-73070480D01*
X192370671Y-73080970D01*
X192347572Y-73089235D01*
X192323773Y-73095196D01*
X192299505Y-73098796D01*
X192275001Y-73100000D01*
X191624999Y-73100000D01*
X191600495Y-73098796D01*
X191576227Y-73095196D01*
X191552428Y-73089235D01*
X191529329Y-73080970D01*
X191507150Y-73070480D01*
X191486107Y-73057868D01*
X191466401Y-73043253D01*
X191448223Y-73026777D01*
X191431747Y-73008599D01*
X191417132Y-72988893D01*
X191404520Y-72967850D01*
X191394030Y-72945671D01*
X191385765Y-72922572D01*
X191379804Y-72898773D01*
X191376204Y-72874505D01*
X191375000Y-72850001D01*
X191375000Y-71949999D01*
X191376204Y-71925495D01*
X191379804Y-71901227D01*
X191385765Y-71877428D01*
X191394030Y-71854329D01*
X191404520Y-71832150D01*
X191417132Y-71811107D01*
X191431747Y-71791401D01*
X191448223Y-71773223D01*
X191466401Y-71756747D01*
X191486107Y-71742132D01*
X191507150Y-71729520D01*
X191529329Y-71719030D01*
X191552428Y-71710765D01*
X191576227Y-71704804D01*
X191600495Y-71701204D01*
X191624999Y-71700000D01*
X192275001Y-71700000D01*
X192299505Y-71701204D01*
X192299505Y-71701204D01*
G37*
D15*
X191950000Y-72400000D03*
G04 #@! TD*
D14*
G04 #@! TO.C,C2*
G36*
X197260779Y-77726144D02*
X197283834Y-77729563D01*
X197306443Y-77735227D01*
X197328387Y-77743079D01*
X197349457Y-77753044D01*
X197369448Y-77765026D01*
X197388168Y-77778910D01*
X197405438Y-77794562D01*
X197421090Y-77811832D01*
X197434974Y-77830552D01*
X197446956Y-77850543D01*
X197456921Y-77871613D01*
X197464773Y-77893557D01*
X197470437Y-77916166D01*
X197473856Y-77939221D01*
X197475000Y-77962500D01*
X197475000Y-78537500D01*
X197473856Y-78560779D01*
X197470437Y-78583834D01*
X197464773Y-78606443D01*
X197456921Y-78628387D01*
X197446956Y-78649457D01*
X197434974Y-78669448D01*
X197421090Y-78688168D01*
X197405438Y-78705438D01*
X197388168Y-78721090D01*
X197369448Y-78734974D01*
X197349457Y-78746956D01*
X197328387Y-78756921D01*
X197306443Y-78764773D01*
X197283834Y-78770437D01*
X197260779Y-78773856D01*
X197237500Y-78775000D01*
X196762500Y-78775000D01*
X196739221Y-78773856D01*
X196716166Y-78770437D01*
X196693557Y-78764773D01*
X196671613Y-78756921D01*
X196650543Y-78746956D01*
X196630552Y-78734974D01*
X196611832Y-78721090D01*
X196594562Y-78705438D01*
X196578910Y-78688168D01*
X196565026Y-78669448D01*
X196553044Y-78649457D01*
X196543079Y-78628387D01*
X196535227Y-78606443D01*
X196529563Y-78583834D01*
X196526144Y-78560779D01*
X196525000Y-78537500D01*
X196525000Y-77962500D01*
X196526144Y-77939221D01*
X196529563Y-77916166D01*
X196535227Y-77893557D01*
X196543079Y-77871613D01*
X196553044Y-77850543D01*
X196565026Y-77830552D01*
X196578910Y-77811832D01*
X196594562Y-77794562D01*
X196611832Y-77778910D01*
X196630552Y-77765026D01*
X196650543Y-77753044D01*
X196671613Y-77743079D01*
X196693557Y-77735227D01*
X196716166Y-77729563D01*
X196739221Y-77726144D01*
X196762500Y-77725000D01*
X197237500Y-77725000D01*
X197260779Y-77726144D01*
X197260779Y-77726144D01*
G37*
D17*
X197000000Y-78250000D03*
D14*
G36*
X197260779Y-79476144D02*
X197283834Y-79479563D01*
X197306443Y-79485227D01*
X197328387Y-79493079D01*
X197349457Y-79503044D01*
X197369448Y-79515026D01*
X197388168Y-79528910D01*
X197405438Y-79544562D01*
X197421090Y-79561832D01*
X197434974Y-79580552D01*
X197446956Y-79600543D01*
X197456921Y-79621613D01*
X197464773Y-79643557D01*
X197470437Y-79666166D01*
X197473856Y-79689221D01*
X197475000Y-79712500D01*
X197475000Y-80287500D01*
X197473856Y-80310779D01*
X197470437Y-80333834D01*
X197464773Y-80356443D01*
X197456921Y-80378387D01*
X197446956Y-80399457D01*
X197434974Y-80419448D01*
X197421090Y-80438168D01*
X197405438Y-80455438D01*
X197388168Y-80471090D01*
X197369448Y-80484974D01*
X197349457Y-80496956D01*
X197328387Y-80506921D01*
X197306443Y-80514773D01*
X197283834Y-80520437D01*
X197260779Y-80523856D01*
X197237500Y-80525000D01*
X196762500Y-80525000D01*
X196739221Y-80523856D01*
X196716166Y-80520437D01*
X196693557Y-80514773D01*
X196671613Y-80506921D01*
X196650543Y-80496956D01*
X196630552Y-80484974D01*
X196611832Y-80471090D01*
X196594562Y-80455438D01*
X196578910Y-80438168D01*
X196565026Y-80419448D01*
X196553044Y-80399457D01*
X196543079Y-80378387D01*
X196535227Y-80356443D01*
X196529563Y-80333834D01*
X196526144Y-80310779D01*
X196525000Y-80287500D01*
X196525000Y-79712500D01*
X196526144Y-79689221D01*
X196529563Y-79666166D01*
X196535227Y-79643557D01*
X196543079Y-79621613D01*
X196553044Y-79600543D01*
X196565026Y-79580552D01*
X196578910Y-79561832D01*
X196594562Y-79544562D01*
X196611832Y-79528910D01*
X196630552Y-79515026D01*
X196650543Y-79503044D01*
X196671613Y-79493079D01*
X196693557Y-79485227D01*
X196716166Y-79479563D01*
X196739221Y-79476144D01*
X196762500Y-79475000D01*
X197237500Y-79475000D01*
X197260779Y-79476144D01*
X197260779Y-79476144D01*
G37*
D17*
X197000000Y-80000000D03*
G04 #@! TD*
D14*
G04 #@! TO.C,C1*
G36*
X207260779Y-79476144D02*
X207283834Y-79479563D01*
X207306443Y-79485227D01*
X207328387Y-79493079D01*
X207349457Y-79503044D01*
X207369448Y-79515026D01*
X207388168Y-79528910D01*
X207405438Y-79544562D01*
X207421090Y-79561832D01*
X207434974Y-79580552D01*
X207446956Y-79600543D01*
X207456921Y-79621613D01*
X207464773Y-79643557D01*
X207470437Y-79666166D01*
X207473856Y-79689221D01*
X207475000Y-79712500D01*
X207475000Y-80287500D01*
X207473856Y-80310779D01*
X207470437Y-80333834D01*
X207464773Y-80356443D01*
X207456921Y-80378387D01*
X207446956Y-80399457D01*
X207434974Y-80419448D01*
X207421090Y-80438168D01*
X207405438Y-80455438D01*
X207388168Y-80471090D01*
X207369448Y-80484974D01*
X207349457Y-80496956D01*
X207328387Y-80506921D01*
X207306443Y-80514773D01*
X207283834Y-80520437D01*
X207260779Y-80523856D01*
X207237500Y-80525000D01*
X206762500Y-80525000D01*
X206739221Y-80523856D01*
X206716166Y-80520437D01*
X206693557Y-80514773D01*
X206671613Y-80506921D01*
X206650543Y-80496956D01*
X206630552Y-80484974D01*
X206611832Y-80471090D01*
X206594562Y-80455438D01*
X206578910Y-80438168D01*
X206565026Y-80419448D01*
X206553044Y-80399457D01*
X206543079Y-80378387D01*
X206535227Y-80356443D01*
X206529563Y-80333834D01*
X206526144Y-80310779D01*
X206525000Y-80287500D01*
X206525000Y-79712500D01*
X206526144Y-79689221D01*
X206529563Y-79666166D01*
X206535227Y-79643557D01*
X206543079Y-79621613D01*
X206553044Y-79600543D01*
X206565026Y-79580552D01*
X206578910Y-79561832D01*
X206594562Y-79544562D01*
X206611832Y-79528910D01*
X206630552Y-79515026D01*
X206650543Y-79503044D01*
X206671613Y-79493079D01*
X206693557Y-79485227D01*
X206716166Y-79479563D01*
X206739221Y-79476144D01*
X206762500Y-79475000D01*
X207237500Y-79475000D01*
X207260779Y-79476144D01*
X207260779Y-79476144D01*
G37*
D17*
X207000000Y-80000000D03*
D14*
G36*
X207260779Y-77726144D02*
X207283834Y-77729563D01*
X207306443Y-77735227D01*
X207328387Y-77743079D01*
X207349457Y-77753044D01*
X207369448Y-77765026D01*
X207388168Y-77778910D01*
X207405438Y-77794562D01*
X207421090Y-77811832D01*
X207434974Y-77830552D01*
X207446956Y-77850543D01*
X207456921Y-77871613D01*
X207464773Y-77893557D01*
X207470437Y-77916166D01*
X207473856Y-77939221D01*
X207475000Y-77962500D01*
X207475000Y-78537500D01*
X207473856Y-78560779D01*
X207470437Y-78583834D01*
X207464773Y-78606443D01*
X207456921Y-78628387D01*
X207446956Y-78649457D01*
X207434974Y-78669448D01*
X207421090Y-78688168D01*
X207405438Y-78705438D01*
X207388168Y-78721090D01*
X207369448Y-78734974D01*
X207349457Y-78746956D01*
X207328387Y-78756921D01*
X207306443Y-78764773D01*
X207283834Y-78770437D01*
X207260779Y-78773856D01*
X207237500Y-78775000D01*
X206762500Y-78775000D01*
X206739221Y-78773856D01*
X206716166Y-78770437D01*
X206693557Y-78764773D01*
X206671613Y-78756921D01*
X206650543Y-78746956D01*
X206630552Y-78734974D01*
X206611832Y-78721090D01*
X206594562Y-78705438D01*
X206578910Y-78688168D01*
X206565026Y-78669448D01*
X206553044Y-78649457D01*
X206543079Y-78628387D01*
X206535227Y-78606443D01*
X206529563Y-78583834D01*
X206526144Y-78560779D01*
X206525000Y-78537500D01*
X206525000Y-77962500D01*
X206526144Y-77939221D01*
X206529563Y-77916166D01*
X206535227Y-77893557D01*
X206543079Y-77871613D01*
X206553044Y-77850543D01*
X206565026Y-77830552D01*
X206578910Y-77811832D01*
X206594562Y-77794562D01*
X206611832Y-77778910D01*
X206630552Y-77765026D01*
X206650543Y-77753044D01*
X206671613Y-77743079D01*
X206693557Y-77735227D01*
X206716166Y-77729563D01*
X206739221Y-77726144D01*
X206762500Y-77725000D01*
X207237500Y-77725000D01*
X207260779Y-77726144D01*
X207260779Y-77726144D01*
G37*
D17*
X207000000Y-78250000D03*
G04 #@! TD*
D20*
G04 #@! TO.C,J1*
X159150000Y-106100000D03*
X159150000Y-97900000D03*
D19*
X161500000Y-105300000D03*
X161500000Y-98700000D03*
D18*
X161825000Y-100700000D03*
X161825000Y-101350000D03*
X161825000Y-102000000D03*
X161825000Y-102650000D03*
X161825000Y-103300000D03*
G04 #@! TD*
D14*
G04 #@! TO.C,C1*
G36*
X207260779Y-112726144D02*
X207283834Y-112729563D01*
X207306443Y-112735227D01*
X207328387Y-112743079D01*
X207349457Y-112753044D01*
X207369448Y-112765026D01*
X207388168Y-112778910D01*
X207405438Y-112794562D01*
X207421090Y-112811832D01*
X207434974Y-112830552D01*
X207446956Y-112850543D01*
X207456921Y-112871613D01*
X207464773Y-112893557D01*
X207470437Y-112916166D01*
X207473856Y-112939221D01*
X207475000Y-112962500D01*
X207475000Y-113537500D01*
X207473856Y-113560779D01*
X207470437Y-113583834D01*
X207464773Y-113606443D01*
X207456921Y-113628387D01*
X207446956Y-113649457D01*
X207434974Y-113669448D01*
X207421090Y-113688168D01*
X207405438Y-113705438D01*
X207388168Y-113721090D01*
X207369448Y-113734974D01*
X207349457Y-113746956D01*
X207328387Y-113756921D01*
X207306443Y-113764773D01*
X207283834Y-113770437D01*
X207260779Y-113773856D01*
X207237500Y-113775000D01*
X206762500Y-113775000D01*
X206739221Y-113773856D01*
X206716166Y-113770437D01*
X206693557Y-113764773D01*
X206671613Y-113756921D01*
X206650543Y-113746956D01*
X206630552Y-113734974D01*
X206611832Y-113721090D01*
X206594562Y-113705438D01*
X206578910Y-113688168D01*
X206565026Y-113669448D01*
X206553044Y-113649457D01*
X206543079Y-113628387D01*
X206535227Y-113606443D01*
X206529563Y-113583834D01*
X206526144Y-113560779D01*
X206525000Y-113537500D01*
X206525000Y-112962500D01*
X206526144Y-112939221D01*
X206529563Y-112916166D01*
X206535227Y-112893557D01*
X206543079Y-112871613D01*
X206553044Y-112850543D01*
X206565026Y-112830552D01*
X206578910Y-112811832D01*
X206594562Y-112794562D01*
X206611832Y-112778910D01*
X206630552Y-112765026D01*
X206650543Y-112753044D01*
X206671613Y-112743079D01*
X206693557Y-112735227D01*
X206716166Y-112729563D01*
X206739221Y-112726144D01*
X206762500Y-112725000D01*
X207237500Y-112725000D01*
X207260779Y-112726144D01*
X207260779Y-112726144D01*
G37*
D17*
X207000000Y-113250000D03*
D14*
G36*
X207260779Y-114476144D02*
X207283834Y-114479563D01*
X207306443Y-114485227D01*
X207328387Y-114493079D01*
X207349457Y-114503044D01*
X207369448Y-114515026D01*
X207388168Y-114528910D01*
X207405438Y-114544562D01*
X207421090Y-114561832D01*
X207434974Y-114580552D01*
X207446956Y-114600543D01*
X207456921Y-114621613D01*
X207464773Y-114643557D01*
X207470437Y-114666166D01*
X207473856Y-114689221D01*
X207475000Y-114712500D01*
X207475000Y-115287500D01*
X207473856Y-115310779D01*
X207470437Y-115333834D01*
X207464773Y-115356443D01*
X207456921Y-115378387D01*
X207446956Y-115399457D01*
X207434974Y-115419448D01*
X207421090Y-115438168D01*
X207405438Y-115455438D01*
X207388168Y-115471090D01*
X207369448Y-115484974D01*
X207349457Y-115496956D01*
X207328387Y-115506921D01*
X207306443Y-115514773D01*
X207283834Y-115520437D01*
X207260779Y-115523856D01*
X207237500Y-115525000D01*
X206762500Y-115525000D01*
X206739221Y-115523856D01*
X206716166Y-115520437D01*
X206693557Y-115514773D01*
X206671613Y-115506921D01*
X206650543Y-115496956D01*
X206630552Y-115484974D01*
X206611832Y-115471090D01*
X206594562Y-115455438D01*
X206578910Y-115438168D01*
X206565026Y-115419448D01*
X206553044Y-115399457D01*
X206543079Y-115378387D01*
X206535227Y-115356443D01*
X206529563Y-115333834D01*
X206526144Y-115310779D01*
X206525000Y-115287500D01*
X206525000Y-114712500D01*
X206526144Y-114689221D01*
X206529563Y-114666166D01*
X206535227Y-114643557D01*
X206543079Y-114621613D01*
X206553044Y-114600543D01*
X206565026Y-114580552D01*
X206578910Y-114561832D01*
X206594562Y-114544562D01*
X206611832Y-114528910D01*
X206630552Y-114515026D01*
X206650543Y-114503044D01*
X206671613Y-114493079D01*
X206693557Y-114485227D01*
X206716166Y-114479563D01*
X206739221Y-114476144D01*
X206762500Y-114475000D01*
X207237500Y-114475000D01*
X207260779Y-114476144D01*
X207260779Y-114476144D01*
G37*
D17*
X207000000Y-115000000D03*
G04 #@! TD*
D14*
G04 #@! TO.C,C2*
G36*
X197260779Y-114476144D02*
X197283834Y-114479563D01*
X197306443Y-114485227D01*
X197328387Y-114493079D01*
X197349457Y-114503044D01*
X197369448Y-114515026D01*
X197388168Y-114528910D01*
X197405438Y-114544562D01*
X197421090Y-114561832D01*
X197434974Y-114580552D01*
X197446956Y-114600543D01*
X197456921Y-114621613D01*
X197464773Y-114643557D01*
X197470437Y-114666166D01*
X197473856Y-114689221D01*
X197475000Y-114712500D01*
X197475000Y-115287500D01*
X197473856Y-115310779D01*
X197470437Y-115333834D01*
X197464773Y-115356443D01*
X197456921Y-115378387D01*
X197446956Y-115399457D01*
X197434974Y-115419448D01*
X197421090Y-115438168D01*
X197405438Y-115455438D01*
X197388168Y-115471090D01*
X197369448Y-115484974D01*
X197349457Y-115496956D01*
X197328387Y-115506921D01*
X197306443Y-115514773D01*
X197283834Y-115520437D01*
X197260779Y-115523856D01*
X197237500Y-115525000D01*
X196762500Y-115525000D01*
X196739221Y-115523856D01*
X196716166Y-115520437D01*
X196693557Y-115514773D01*
X196671613Y-115506921D01*
X196650543Y-115496956D01*
X196630552Y-115484974D01*
X196611832Y-115471090D01*
X196594562Y-115455438D01*
X196578910Y-115438168D01*
X196565026Y-115419448D01*
X196553044Y-115399457D01*
X196543079Y-115378387D01*
X196535227Y-115356443D01*
X196529563Y-115333834D01*
X196526144Y-115310779D01*
X196525000Y-115287500D01*
X196525000Y-114712500D01*
X196526144Y-114689221D01*
X196529563Y-114666166D01*
X196535227Y-114643557D01*
X196543079Y-114621613D01*
X196553044Y-114600543D01*
X196565026Y-114580552D01*
X196578910Y-114561832D01*
X196594562Y-114544562D01*
X196611832Y-114528910D01*
X196630552Y-114515026D01*
X196650543Y-114503044D01*
X196671613Y-114493079D01*
X196693557Y-114485227D01*
X196716166Y-114479563D01*
X196739221Y-114476144D01*
X196762500Y-114475000D01*
X197237500Y-114475000D01*
X197260779Y-114476144D01*
X197260779Y-114476144D01*
G37*
D17*
X197000000Y-115000000D03*
D14*
G36*
X197260779Y-112726144D02*
X197283834Y-112729563D01*
X197306443Y-112735227D01*
X197328387Y-112743079D01*
X197349457Y-112753044D01*
X197369448Y-112765026D01*
X197388168Y-112778910D01*
X197405438Y-112794562D01*
X197421090Y-112811832D01*
X197434974Y-112830552D01*
X197446956Y-112850543D01*
X197456921Y-112871613D01*
X197464773Y-112893557D01*
X197470437Y-112916166D01*
X197473856Y-112939221D01*
X197475000Y-112962500D01*
X197475000Y-113537500D01*
X197473856Y-113560779D01*
X197470437Y-113583834D01*
X197464773Y-113606443D01*
X197456921Y-113628387D01*
X197446956Y-113649457D01*
X197434974Y-113669448D01*
X197421090Y-113688168D01*
X197405438Y-113705438D01*
X197388168Y-113721090D01*
X197369448Y-113734974D01*
X197349457Y-113746956D01*
X197328387Y-113756921D01*
X197306443Y-113764773D01*
X197283834Y-113770437D01*
X197260779Y-113773856D01*
X197237500Y-113775000D01*
X196762500Y-113775000D01*
X196739221Y-113773856D01*
X196716166Y-113770437D01*
X196693557Y-113764773D01*
X196671613Y-113756921D01*
X196650543Y-113746956D01*
X196630552Y-113734974D01*
X196611832Y-113721090D01*
X196594562Y-113705438D01*
X196578910Y-113688168D01*
X196565026Y-113669448D01*
X196553044Y-113649457D01*
X196543079Y-113628387D01*
X196535227Y-113606443D01*
X196529563Y-113583834D01*
X196526144Y-113560779D01*
X196525000Y-113537500D01*
X196525000Y-112962500D01*
X196526144Y-112939221D01*
X196529563Y-112916166D01*
X196535227Y-112893557D01*
X196543079Y-112871613D01*
X196553044Y-112850543D01*
X196565026Y-112830552D01*
X196578910Y-112811832D01*
X196594562Y-112794562D01*
X196611832Y-112778910D01*
X196630552Y-112765026D01*
X196650543Y-112753044D01*
X196671613Y-112743079D01*
X196693557Y-112735227D01*
X196716166Y-112729563D01*
X196739221Y-112726144D01*
X196762500Y-112725000D01*
X197237500Y-112725000D01*
X197260779Y-112726144D01*
X197260779Y-112726144D01*
G37*
D17*
X197000000Y-113250000D03*
G04 #@! TD*
D14*
G04 #@! TO.C,C3*
G36*
X192299505Y-106701204D02*
X192323773Y-106704804D01*
X192347572Y-106710765D01*
X192370671Y-106719030D01*
X192392850Y-106729520D01*
X192413893Y-106742132D01*
X192433599Y-106756747D01*
X192451777Y-106773223D01*
X192468253Y-106791401D01*
X192482868Y-106811107D01*
X192495480Y-106832150D01*
X192505970Y-106854329D01*
X192514235Y-106877428D01*
X192520196Y-106901227D01*
X192523796Y-106925495D01*
X192525000Y-106949999D01*
X192525000Y-107850001D01*
X192523796Y-107874505D01*
X192520196Y-107898773D01*
X192514235Y-107922572D01*
X192505970Y-107945671D01*
X192495480Y-107967850D01*
X192482868Y-107988893D01*
X192468253Y-108008599D01*
X192451777Y-108026777D01*
X192433599Y-108043253D01*
X192413893Y-108057868D01*
X192392850Y-108070480D01*
X192370671Y-108080970D01*
X192347572Y-108089235D01*
X192323773Y-108095196D01*
X192299505Y-108098796D01*
X192275001Y-108100000D01*
X191624999Y-108100000D01*
X191600495Y-108098796D01*
X191576227Y-108095196D01*
X191552428Y-108089235D01*
X191529329Y-108080970D01*
X191507150Y-108070480D01*
X191486107Y-108057868D01*
X191466401Y-108043253D01*
X191448223Y-108026777D01*
X191431747Y-108008599D01*
X191417132Y-107988893D01*
X191404520Y-107967850D01*
X191394030Y-107945671D01*
X191385765Y-107922572D01*
X191379804Y-107898773D01*
X191376204Y-107874505D01*
X191375000Y-107850001D01*
X191375000Y-106949999D01*
X191376204Y-106925495D01*
X191379804Y-106901227D01*
X191385765Y-106877428D01*
X191394030Y-106854329D01*
X191404520Y-106832150D01*
X191417132Y-106811107D01*
X191431747Y-106791401D01*
X191448223Y-106773223D01*
X191466401Y-106756747D01*
X191486107Y-106742132D01*
X191507150Y-106729520D01*
X191529329Y-106719030D01*
X191552428Y-106710765D01*
X191576227Y-106704804D01*
X191600495Y-106701204D01*
X191624999Y-106700000D01*
X192275001Y-106700000D01*
X192299505Y-106701204D01*
X192299505Y-106701204D01*
G37*
D15*
X191950000Y-107400000D03*
D14*
G36*
X190249505Y-106701204D02*
X190273773Y-106704804D01*
X190297572Y-106710765D01*
X190320671Y-106719030D01*
X190342850Y-106729520D01*
X190363893Y-106742132D01*
X190383599Y-106756747D01*
X190401777Y-106773223D01*
X190418253Y-106791401D01*
X190432868Y-106811107D01*
X190445480Y-106832150D01*
X190455970Y-106854329D01*
X190464235Y-106877428D01*
X190470196Y-106901227D01*
X190473796Y-106925495D01*
X190475000Y-106949999D01*
X190475000Y-107850001D01*
X190473796Y-107874505D01*
X190470196Y-107898773D01*
X190464235Y-107922572D01*
X190455970Y-107945671D01*
X190445480Y-107967850D01*
X190432868Y-107988893D01*
X190418253Y-108008599D01*
X190401777Y-108026777D01*
X190383599Y-108043253D01*
X190363893Y-108057868D01*
X190342850Y-108070480D01*
X190320671Y-108080970D01*
X190297572Y-108089235D01*
X190273773Y-108095196D01*
X190249505Y-108098796D01*
X190225001Y-108100000D01*
X189574999Y-108100000D01*
X189550495Y-108098796D01*
X189526227Y-108095196D01*
X189502428Y-108089235D01*
X189479329Y-108080970D01*
X189457150Y-108070480D01*
X189436107Y-108057868D01*
X189416401Y-108043253D01*
X189398223Y-108026777D01*
X189381747Y-108008599D01*
X189367132Y-107988893D01*
X189354520Y-107967850D01*
X189344030Y-107945671D01*
X189335765Y-107922572D01*
X189329804Y-107898773D01*
X189326204Y-107874505D01*
X189325000Y-107850001D01*
X189325000Y-106949999D01*
X189326204Y-106925495D01*
X189329804Y-106901227D01*
X189335765Y-106877428D01*
X189344030Y-106854329D01*
X189354520Y-106832150D01*
X189367132Y-106811107D01*
X189381747Y-106791401D01*
X189398223Y-106773223D01*
X189416401Y-106756747D01*
X189436107Y-106742132D01*
X189457150Y-106729520D01*
X189479329Y-106719030D01*
X189502428Y-106710765D01*
X189526227Y-106704804D01*
X189550495Y-106701204D01*
X189574999Y-106700000D01*
X190225001Y-106700000D01*
X190249505Y-106701204D01*
X190249505Y-106701204D01*
G37*
D15*
X189900000Y-107400000D03*
G04 #@! TD*
D22*
G04 #@! TO.C,C6*
X160000000Y-90200000D03*
X160000000Y-93800000D03*
G04 #@! TD*
D14*
G04 #@! TO.C,R2*
G36*
X161349505Y-113301204D02*
X161373773Y-113304804D01*
X161397572Y-113310765D01*
X161420671Y-113319030D01*
X161442850Y-113329520D01*
X161463893Y-113342132D01*
X161483599Y-113356747D01*
X161501777Y-113373223D01*
X161518253Y-113391401D01*
X161532868Y-113411107D01*
X161545480Y-113432150D01*
X161555970Y-113454329D01*
X161564235Y-113477428D01*
X161570196Y-113501227D01*
X161573796Y-113525495D01*
X161575000Y-113549999D01*
X161575000Y-114450001D01*
X161573796Y-114474505D01*
X161570196Y-114498773D01*
X161564235Y-114522572D01*
X161555970Y-114545671D01*
X161545480Y-114567850D01*
X161532868Y-114588893D01*
X161518253Y-114608599D01*
X161501777Y-114626777D01*
X161483599Y-114643253D01*
X161463893Y-114657868D01*
X161442850Y-114670480D01*
X161420671Y-114680970D01*
X161397572Y-114689235D01*
X161373773Y-114695196D01*
X161349505Y-114698796D01*
X161325001Y-114700000D01*
X160674999Y-114700000D01*
X160650495Y-114698796D01*
X160626227Y-114695196D01*
X160602428Y-114689235D01*
X160579329Y-114680970D01*
X160557150Y-114670480D01*
X160536107Y-114657868D01*
X160516401Y-114643253D01*
X160498223Y-114626777D01*
X160481747Y-114608599D01*
X160467132Y-114588893D01*
X160454520Y-114567850D01*
X160444030Y-114545671D01*
X160435765Y-114522572D01*
X160429804Y-114498773D01*
X160426204Y-114474505D01*
X160425000Y-114450001D01*
X160425000Y-113549999D01*
X160426204Y-113525495D01*
X160429804Y-113501227D01*
X160435765Y-113477428D01*
X160444030Y-113454329D01*
X160454520Y-113432150D01*
X160467132Y-113411107D01*
X160481747Y-113391401D01*
X160498223Y-113373223D01*
X160516401Y-113356747D01*
X160536107Y-113342132D01*
X160557150Y-113329520D01*
X160579329Y-113319030D01*
X160602428Y-113310765D01*
X160626227Y-113304804D01*
X160650495Y-113301204D01*
X160674999Y-113300000D01*
X161325001Y-113300000D01*
X161349505Y-113301204D01*
X161349505Y-113301204D01*
G37*
D15*
X161000000Y-114000000D03*
D14*
G36*
X159299505Y-113301204D02*
X159323773Y-113304804D01*
X159347572Y-113310765D01*
X159370671Y-113319030D01*
X159392850Y-113329520D01*
X159413893Y-113342132D01*
X159433599Y-113356747D01*
X159451777Y-113373223D01*
X159468253Y-113391401D01*
X159482868Y-113411107D01*
X159495480Y-113432150D01*
X159505970Y-113454329D01*
X159514235Y-113477428D01*
X159520196Y-113501227D01*
X159523796Y-113525495D01*
X159525000Y-113549999D01*
X159525000Y-114450001D01*
X159523796Y-114474505D01*
X159520196Y-114498773D01*
X159514235Y-114522572D01*
X159505970Y-114545671D01*
X159495480Y-114567850D01*
X159482868Y-114588893D01*
X159468253Y-114608599D01*
X159451777Y-114626777D01*
X159433599Y-114643253D01*
X159413893Y-114657868D01*
X159392850Y-114670480D01*
X159370671Y-114680970D01*
X159347572Y-114689235D01*
X159323773Y-114695196D01*
X159299505Y-114698796D01*
X159275001Y-114700000D01*
X158624999Y-114700000D01*
X158600495Y-114698796D01*
X158576227Y-114695196D01*
X158552428Y-114689235D01*
X158529329Y-114680970D01*
X158507150Y-114670480D01*
X158486107Y-114657868D01*
X158466401Y-114643253D01*
X158448223Y-114626777D01*
X158431747Y-114608599D01*
X158417132Y-114588893D01*
X158404520Y-114567850D01*
X158394030Y-114545671D01*
X158385765Y-114522572D01*
X158379804Y-114498773D01*
X158376204Y-114474505D01*
X158375000Y-114450001D01*
X158375000Y-113549999D01*
X158376204Y-113525495D01*
X158379804Y-113501227D01*
X158385765Y-113477428D01*
X158394030Y-113454329D01*
X158404520Y-113432150D01*
X158417132Y-113411107D01*
X158431747Y-113391401D01*
X158448223Y-113373223D01*
X158466401Y-113356747D01*
X158486107Y-113342132D01*
X158507150Y-113329520D01*
X158529329Y-113319030D01*
X158552428Y-113310765D01*
X158576227Y-113304804D01*
X158600495Y-113301204D01*
X158624999Y-113300000D01*
X159275001Y-113300000D01*
X159299505Y-113301204D01*
X159299505Y-113301204D01*
G37*
D15*
X158950000Y-114000000D03*
G04 #@! TD*
D14*
G04 #@! TO.C,R3*
G36*
X165349505Y-113301204D02*
X165373773Y-113304804D01*
X165397572Y-113310765D01*
X165420671Y-113319030D01*
X165442850Y-113329520D01*
X165463893Y-113342132D01*
X165483599Y-113356747D01*
X165501777Y-113373223D01*
X165518253Y-113391401D01*
X165532868Y-113411107D01*
X165545480Y-113432150D01*
X165555970Y-113454329D01*
X165564235Y-113477428D01*
X165570196Y-113501227D01*
X165573796Y-113525495D01*
X165575000Y-113549999D01*
X165575000Y-114450001D01*
X165573796Y-114474505D01*
X165570196Y-114498773D01*
X165564235Y-114522572D01*
X165555970Y-114545671D01*
X165545480Y-114567850D01*
X165532868Y-114588893D01*
X165518253Y-114608599D01*
X165501777Y-114626777D01*
X165483599Y-114643253D01*
X165463893Y-114657868D01*
X165442850Y-114670480D01*
X165420671Y-114680970D01*
X165397572Y-114689235D01*
X165373773Y-114695196D01*
X165349505Y-114698796D01*
X165325001Y-114700000D01*
X164674999Y-114700000D01*
X164650495Y-114698796D01*
X164626227Y-114695196D01*
X164602428Y-114689235D01*
X164579329Y-114680970D01*
X164557150Y-114670480D01*
X164536107Y-114657868D01*
X164516401Y-114643253D01*
X164498223Y-114626777D01*
X164481747Y-114608599D01*
X164467132Y-114588893D01*
X164454520Y-114567850D01*
X164444030Y-114545671D01*
X164435765Y-114522572D01*
X164429804Y-114498773D01*
X164426204Y-114474505D01*
X164425000Y-114450001D01*
X164425000Y-113549999D01*
X164426204Y-113525495D01*
X164429804Y-113501227D01*
X164435765Y-113477428D01*
X164444030Y-113454329D01*
X164454520Y-113432150D01*
X164467132Y-113411107D01*
X164481747Y-113391401D01*
X164498223Y-113373223D01*
X164516401Y-113356747D01*
X164536107Y-113342132D01*
X164557150Y-113329520D01*
X164579329Y-113319030D01*
X164602428Y-113310765D01*
X164626227Y-113304804D01*
X164650495Y-113301204D01*
X164674999Y-113300000D01*
X165325001Y-113300000D01*
X165349505Y-113301204D01*
X165349505Y-113301204D01*
G37*
D15*
X165000000Y-114000000D03*
D14*
G36*
X167399505Y-113301204D02*
X167423773Y-113304804D01*
X167447572Y-113310765D01*
X167470671Y-113319030D01*
X167492850Y-113329520D01*
X167513893Y-113342132D01*
X167533599Y-113356747D01*
X167551777Y-113373223D01*
X167568253Y-113391401D01*
X167582868Y-113411107D01*
X167595480Y-113432150D01*
X167605970Y-113454329D01*
X167614235Y-113477428D01*
X167620196Y-113501227D01*
X167623796Y-113525495D01*
X167625000Y-113549999D01*
X167625000Y-114450001D01*
X167623796Y-114474505D01*
X167620196Y-114498773D01*
X167614235Y-114522572D01*
X167605970Y-114545671D01*
X167595480Y-114567850D01*
X167582868Y-114588893D01*
X167568253Y-114608599D01*
X167551777Y-114626777D01*
X167533599Y-114643253D01*
X167513893Y-114657868D01*
X167492850Y-114670480D01*
X167470671Y-114680970D01*
X167447572Y-114689235D01*
X167423773Y-114695196D01*
X167399505Y-114698796D01*
X167375001Y-114700000D01*
X166724999Y-114700000D01*
X166700495Y-114698796D01*
X166676227Y-114695196D01*
X166652428Y-114689235D01*
X166629329Y-114680970D01*
X166607150Y-114670480D01*
X166586107Y-114657868D01*
X166566401Y-114643253D01*
X166548223Y-114626777D01*
X166531747Y-114608599D01*
X166517132Y-114588893D01*
X166504520Y-114567850D01*
X166494030Y-114545671D01*
X166485765Y-114522572D01*
X166479804Y-114498773D01*
X166476204Y-114474505D01*
X166475000Y-114450001D01*
X166475000Y-113549999D01*
X166476204Y-113525495D01*
X166479804Y-113501227D01*
X166485765Y-113477428D01*
X166494030Y-113454329D01*
X166504520Y-113432150D01*
X166517132Y-113411107D01*
X166531747Y-113391401D01*
X166548223Y-113373223D01*
X166566401Y-113356747D01*
X166586107Y-113342132D01*
X166607150Y-113329520D01*
X166629329Y-113319030D01*
X166652428Y-113310765D01*
X166676227Y-113304804D01*
X166700495Y-113301204D01*
X166724999Y-113300000D01*
X167375001Y-113300000D01*
X167399505Y-113301204D01*
X167399505Y-113301204D01*
G37*
D15*
X167050000Y-114000000D03*
G04 #@! TD*
D14*
G04 #@! TO.C,R4*
G36*
X171324505Y-113301204D02*
X171348773Y-113304804D01*
X171372572Y-113310765D01*
X171395671Y-113319030D01*
X171417850Y-113329520D01*
X171438893Y-113342132D01*
X171458599Y-113356747D01*
X171476777Y-113373223D01*
X171493253Y-113391401D01*
X171507868Y-113411107D01*
X171520480Y-113432150D01*
X171530970Y-113454329D01*
X171539235Y-113477428D01*
X171545196Y-113501227D01*
X171548796Y-113525495D01*
X171550000Y-113549999D01*
X171550000Y-114450001D01*
X171548796Y-114474505D01*
X171545196Y-114498773D01*
X171539235Y-114522572D01*
X171530970Y-114545671D01*
X171520480Y-114567850D01*
X171507868Y-114588893D01*
X171493253Y-114608599D01*
X171476777Y-114626777D01*
X171458599Y-114643253D01*
X171438893Y-114657868D01*
X171417850Y-114670480D01*
X171395671Y-114680970D01*
X171372572Y-114689235D01*
X171348773Y-114695196D01*
X171324505Y-114698796D01*
X171300001Y-114700000D01*
X170649999Y-114700000D01*
X170625495Y-114698796D01*
X170601227Y-114695196D01*
X170577428Y-114689235D01*
X170554329Y-114680970D01*
X170532150Y-114670480D01*
X170511107Y-114657868D01*
X170491401Y-114643253D01*
X170473223Y-114626777D01*
X170456747Y-114608599D01*
X170442132Y-114588893D01*
X170429520Y-114567850D01*
X170419030Y-114545671D01*
X170410765Y-114522572D01*
X170404804Y-114498773D01*
X170401204Y-114474505D01*
X170400000Y-114450001D01*
X170400000Y-113549999D01*
X170401204Y-113525495D01*
X170404804Y-113501227D01*
X170410765Y-113477428D01*
X170419030Y-113454329D01*
X170429520Y-113432150D01*
X170442132Y-113411107D01*
X170456747Y-113391401D01*
X170473223Y-113373223D01*
X170491401Y-113356747D01*
X170511107Y-113342132D01*
X170532150Y-113329520D01*
X170554329Y-113319030D01*
X170577428Y-113310765D01*
X170601227Y-113304804D01*
X170625495Y-113301204D01*
X170649999Y-113300000D01*
X171300001Y-113300000D01*
X171324505Y-113301204D01*
X171324505Y-113301204D01*
G37*
D15*
X170975000Y-114000000D03*
D14*
G36*
X173374505Y-113301204D02*
X173398773Y-113304804D01*
X173422572Y-113310765D01*
X173445671Y-113319030D01*
X173467850Y-113329520D01*
X173488893Y-113342132D01*
X173508599Y-113356747D01*
X173526777Y-113373223D01*
X173543253Y-113391401D01*
X173557868Y-113411107D01*
X173570480Y-113432150D01*
X173580970Y-113454329D01*
X173589235Y-113477428D01*
X173595196Y-113501227D01*
X173598796Y-113525495D01*
X173600000Y-113549999D01*
X173600000Y-114450001D01*
X173598796Y-114474505D01*
X173595196Y-114498773D01*
X173589235Y-114522572D01*
X173580970Y-114545671D01*
X173570480Y-114567850D01*
X173557868Y-114588893D01*
X173543253Y-114608599D01*
X173526777Y-114626777D01*
X173508599Y-114643253D01*
X173488893Y-114657868D01*
X173467850Y-114670480D01*
X173445671Y-114680970D01*
X173422572Y-114689235D01*
X173398773Y-114695196D01*
X173374505Y-114698796D01*
X173350001Y-114700000D01*
X172699999Y-114700000D01*
X172675495Y-114698796D01*
X172651227Y-114695196D01*
X172627428Y-114689235D01*
X172604329Y-114680970D01*
X172582150Y-114670480D01*
X172561107Y-114657868D01*
X172541401Y-114643253D01*
X172523223Y-114626777D01*
X172506747Y-114608599D01*
X172492132Y-114588893D01*
X172479520Y-114567850D01*
X172469030Y-114545671D01*
X172460765Y-114522572D01*
X172454804Y-114498773D01*
X172451204Y-114474505D01*
X172450000Y-114450001D01*
X172450000Y-113549999D01*
X172451204Y-113525495D01*
X172454804Y-113501227D01*
X172460765Y-113477428D01*
X172469030Y-113454329D01*
X172479520Y-113432150D01*
X172492132Y-113411107D01*
X172506747Y-113391401D01*
X172523223Y-113373223D01*
X172541401Y-113356747D01*
X172561107Y-113342132D01*
X172582150Y-113329520D01*
X172604329Y-113319030D01*
X172627428Y-113310765D01*
X172651227Y-113304804D01*
X172675495Y-113301204D01*
X172699999Y-113300000D01*
X173350001Y-113300000D01*
X173374505Y-113301204D01*
X173374505Y-113301204D01*
G37*
D15*
X173025000Y-114000000D03*
G04 #@! TD*
D14*
G04 #@! TO.C,R5*
G36*
X179399505Y-113301204D02*
X179423773Y-113304804D01*
X179447572Y-113310765D01*
X179470671Y-113319030D01*
X179492850Y-113329520D01*
X179513893Y-113342132D01*
X179533599Y-113356747D01*
X179551777Y-113373223D01*
X179568253Y-113391401D01*
X179582868Y-113411107D01*
X179595480Y-113432150D01*
X179605970Y-113454329D01*
X179614235Y-113477428D01*
X179620196Y-113501227D01*
X179623796Y-113525495D01*
X179625000Y-113549999D01*
X179625000Y-114450001D01*
X179623796Y-114474505D01*
X179620196Y-114498773D01*
X179614235Y-114522572D01*
X179605970Y-114545671D01*
X179595480Y-114567850D01*
X179582868Y-114588893D01*
X179568253Y-114608599D01*
X179551777Y-114626777D01*
X179533599Y-114643253D01*
X179513893Y-114657868D01*
X179492850Y-114670480D01*
X179470671Y-114680970D01*
X179447572Y-114689235D01*
X179423773Y-114695196D01*
X179399505Y-114698796D01*
X179375001Y-114700000D01*
X178724999Y-114700000D01*
X178700495Y-114698796D01*
X178676227Y-114695196D01*
X178652428Y-114689235D01*
X178629329Y-114680970D01*
X178607150Y-114670480D01*
X178586107Y-114657868D01*
X178566401Y-114643253D01*
X178548223Y-114626777D01*
X178531747Y-114608599D01*
X178517132Y-114588893D01*
X178504520Y-114567850D01*
X178494030Y-114545671D01*
X178485765Y-114522572D01*
X178479804Y-114498773D01*
X178476204Y-114474505D01*
X178475000Y-114450001D01*
X178475000Y-113549999D01*
X178476204Y-113525495D01*
X178479804Y-113501227D01*
X178485765Y-113477428D01*
X178494030Y-113454329D01*
X178504520Y-113432150D01*
X178517132Y-113411107D01*
X178531747Y-113391401D01*
X178548223Y-113373223D01*
X178566401Y-113356747D01*
X178586107Y-113342132D01*
X178607150Y-113329520D01*
X178629329Y-113319030D01*
X178652428Y-113310765D01*
X178676227Y-113304804D01*
X178700495Y-113301204D01*
X178724999Y-113300000D01*
X179375001Y-113300000D01*
X179399505Y-113301204D01*
X179399505Y-113301204D01*
G37*
D15*
X179050000Y-114000000D03*
D14*
G36*
X177349505Y-113301204D02*
X177373773Y-113304804D01*
X177397572Y-113310765D01*
X177420671Y-113319030D01*
X177442850Y-113329520D01*
X177463893Y-113342132D01*
X177483599Y-113356747D01*
X177501777Y-113373223D01*
X177518253Y-113391401D01*
X177532868Y-113411107D01*
X177545480Y-113432150D01*
X177555970Y-113454329D01*
X177564235Y-113477428D01*
X177570196Y-113501227D01*
X177573796Y-113525495D01*
X177575000Y-113549999D01*
X177575000Y-114450001D01*
X177573796Y-114474505D01*
X177570196Y-114498773D01*
X177564235Y-114522572D01*
X177555970Y-114545671D01*
X177545480Y-114567850D01*
X177532868Y-114588893D01*
X177518253Y-114608599D01*
X177501777Y-114626777D01*
X177483599Y-114643253D01*
X177463893Y-114657868D01*
X177442850Y-114670480D01*
X177420671Y-114680970D01*
X177397572Y-114689235D01*
X177373773Y-114695196D01*
X177349505Y-114698796D01*
X177325001Y-114700000D01*
X176674999Y-114700000D01*
X176650495Y-114698796D01*
X176626227Y-114695196D01*
X176602428Y-114689235D01*
X176579329Y-114680970D01*
X176557150Y-114670480D01*
X176536107Y-114657868D01*
X176516401Y-114643253D01*
X176498223Y-114626777D01*
X176481747Y-114608599D01*
X176467132Y-114588893D01*
X176454520Y-114567850D01*
X176444030Y-114545671D01*
X176435765Y-114522572D01*
X176429804Y-114498773D01*
X176426204Y-114474505D01*
X176425000Y-114450001D01*
X176425000Y-113549999D01*
X176426204Y-113525495D01*
X176429804Y-113501227D01*
X176435765Y-113477428D01*
X176444030Y-113454329D01*
X176454520Y-113432150D01*
X176467132Y-113411107D01*
X176481747Y-113391401D01*
X176498223Y-113373223D01*
X176516401Y-113356747D01*
X176536107Y-113342132D01*
X176557150Y-113329520D01*
X176579329Y-113319030D01*
X176602428Y-113310765D01*
X176626227Y-113304804D01*
X176650495Y-113301204D01*
X176674999Y-113300000D01*
X177325001Y-113300000D01*
X177349505Y-113301204D01*
X177349505Y-113301204D01*
G37*
D15*
X177000000Y-114000000D03*
G04 #@! TD*
D21*
G04 #@! TO.C,Y1*
X206250000Y-109000000D03*
X197750000Y-109000000D03*
G04 #@! TD*
M02*
