G04 #@! TF.GenerationSoftware,KiCad,Pcbnew,(5.0.0)*
G04 #@! TF.CreationDate,2018-11-06T18:12:07+09:00*
G04 #@! TF.ProjectId,gb_cart_flash,67625F636172745F666C6173682E6B69,rev?*
G04 #@! TF.SameCoordinates,Original*
G04 #@! TF.FileFunction,Legend,Top*
G04 #@! TF.FilePolarity,Positive*
%FSLAX46Y46*%
G04 Gerber Fmt 4.6, Leading zero omitted, Abs format (unit mm)*
G04 Created by KiCad (PCBNEW (5.0.0)) date 11/06/18 18:12:07*
%MOMM*%
%LPD*%
G01*
G04 APERTURE LIST*
%ADD10C,0.100000*%
%ADD11C,0.010000*%
%ADD12C,0.200000*%
%ADD13C,0.254000*%
%ADD14C,0.120000*%
G04 APERTURE END LIST*
D10*
X236452380Y-86285714D02*
X235452380Y-86285714D01*
X236166666Y-85952380D01*
X235452380Y-85619047D01*
X236452380Y-85619047D01*
X236452380Y-85142857D02*
X235452380Y-85142857D01*
X236357142Y-84095238D02*
X236404761Y-84142857D01*
X236452380Y-84285714D01*
X236452380Y-84380952D01*
X236404761Y-84523809D01*
X236309523Y-84619047D01*
X236214285Y-84666666D01*
X236023809Y-84714285D01*
X235880952Y-84714285D01*
X235690476Y-84666666D01*
X235595238Y-84619047D01*
X235500000Y-84523809D01*
X235452380Y-84380952D01*
X235452380Y-84285714D01*
X235500000Y-84142857D01*
X235547619Y-84095238D01*
X236452380Y-83095238D02*
X235976190Y-83428571D01*
X236452380Y-83666666D02*
X235452380Y-83666666D01*
X235452380Y-83285714D01*
X235500000Y-83190476D01*
X235547619Y-83142857D01*
X235642857Y-83095238D01*
X235785714Y-83095238D01*
X235880952Y-83142857D01*
X235928571Y-83190476D01*
X235976190Y-83285714D01*
X235976190Y-83666666D01*
X235452380Y-82476190D02*
X235452380Y-82285714D01*
X235500000Y-82190476D01*
X235595238Y-82095238D01*
X235785714Y-82047619D01*
X236119047Y-82047619D01*
X236309523Y-82095238D01*
X236404761Y-82190476D01*
X236452380Y-82285714D01*
X236452380Y-82476190D01*
X236404761Y-82571428D01*
X236309523Y-82666666D01*
X236119047Y-82714285D01*
X235785714Y-82714285D01*
X235595238Y-82666666D01*
X235500000Y-82571428D01*
X235452380Y-82476190D01*
X236404761Y-80904761D02*
X236452380Y-80761904D01*
X236452380Y-80523809D01*
X236404761Y-80428571D01*
X236357142Y-80380952D01*
X236261904Y-80333333D01*
X236166666Y-80333333D01*
X236071428Y-80380952D01*
X236023809Y-80428571D01*
X235976190Y-80523809D01*
X235928571Y-80714285D01*
X235880952Y-80809523D01*
X235833333Y-80857142D01*
X235738095Y-80904761D01*
X235642857Y-80904761D01*
X235547619Y-80857142D01*
X235500000Y-80809523D01*
X235452380Y-80714285D01*
X235452380Y-80476190D01*
X235500000Y-80333333D01*
X236452380Y-79904761D02*
X235452380Y-79904761D01*
X235452380Y-79523809D02*
X235452380Y-78857142D01*
X236452380Y-79523809D01*
X236452380Y-78857142D01*
X235928571Y-78476190D02*
X235928571Y-78142857D01*
X236452380Y-78000000D02*
X236452380Y-78476190D01*
X235452380Y-78476190D01*
X235452380Y-78000000D01*
X235500000Y-76285714D02*
X235452380Y-76380952D01*
X235452380Y-76523809D01*
X235500000Y-76666666D01*
X235595238Y-76761904D01*
X235690476Y-76809523D01*
X235880952Y-76857142D01*
X236023809Y-76857142D01*
X236214285Y-76809523D01*
X236309523Y-76761904D01*
X236404761Y-76666666D01*
X236452380Y-76523809D01*
X236452380Y-76428571D01*
X236404761Y-76285714D01*
X236357142Y-76238095D01*
X236023809Y-76238095D01*
X236023809Y-76428571D01*
X235928571Y-75476190D02*
X235976190Y-75333333D01*
X236023809Y-75285714D01*
X236119047Y-75238095D01*
X236261904Y-75238095D01*
X236357142Y-75285714D01*
X236404761Y-75333333D01*
X236452380Y-75428571D01*
X236452380Y-75809523D01*
X235452380Y-75809523D01*
X235452380Y-75476190D01*
X235500000Y-75380952D01*
X235547619Y-75333333D01*
X235642857Y-75285714D01*
X235738095Y-75285714D01*
X235833333Y-75333333D01*
X235880952Y-75380952D01*
X235928571Y-75476190D01*
X235928571Y-75809523D01*
X236357142Y-73476190D02*
X236404761Y-73523809D01*
X236452380Y-73666666D01*
X236452380Y-73761904D01*
X236404761Y-73904761D01*
X236309523Y-74000000D01*
X236214285Y-74047619D01*
X236023809Y-74095238D01*
X235880952Y-74095238D01*
X235690476Y-74047619D01*
X235595238Y-74000000D01*
X235500000Y-73904761D01*
X235452380Y-73761904D01*
X235452380Y-73666666D01*
X235500000Y-73523809D01*
X235547619Y-73476190D01*
X236166666Y-73095238D02*
X236166666Y-72619047D01*
X236452380Y-73190476D02*
X235452380Y-72857142D01*
X236452380Y-72523809D01*
X236452380Y-71619047D02*
X235976190Y-71952380D01*
X236452380Y-72190476D02*
X235452380Y-72190476D01*
X235452380Y-71809523D01*
X235500000Y-71714285D01*
X235547619Y-71666666D01*
X235642857Y-71619047D01*
X235785714Y-71619047D01*
X235880952Y-71666666D01*
X235928571Y-71714285D01*
X235976190Y-71809523D01*
X235976190Y-72190476D01*
X235452380Y-71333333D02*
X235452380Y-70761904D01*
X236452380Y-71047619D02*
X235452380Y-71047619D01*
X235928571Y-69333333D02*
X235928571Y-69666666D01*
X236452380Y-69666666D02*
X235452380Y-69666666D01*
X235452380Y-69190476D01*
X236452380Y-68333333D02*
X236452380Y-68809523D01*
X235452380Y-68809523D01*
X236166666Y-68047619D02*
X236166666Y-67571428D01*
X236452380Y-68142857D02*
X235452380Y-67809523D01*
X236452380Y-67476190D01*
X236404761Y-67190476D02*
X236452380Y-67047619D01*
X236452380Y-66809523D01*
X236404761Y-66714285D01*
X236357142Y-66666666D01*
X236261904Y-66619047D01*
X236166666Y-66619047D01*
X236071428Y-66666666D01*
X236023809Y-66714285D01*
X235976190Y-66809523D01*
X235928571Y-67000000D01*
X235880952Y-67095238D01*
X235833333Y-67142857D01*
X235738095Y-67190476D01*
X235642857Y-67190476D01*
X235547619Y-67142857D01*
X235500000Y-67095238D01*
X235452380Y-67000000D01*
X235452380Y-66761904D01*
X235500000Y-66619047D01*
X236452380Y-66190476D02*
X235452380Y-66190476D01*
X235928571Y-66190476D02*
X235928571Y-65619047D01*
X236452380Y-65619047D02*
X235452380Y-65619047D01*
X235928571Y-65142857D02*
X235928571Y-64809523D01*
X236452380Y-64666666D02*
X236452380Y-65142857D01*
X235452380Y-65142857D01*
X235452380Y-64666666D01*
X236452380Y-63666666D02*
X235976190Y-64000000D01*
X236452380Y-64238095D02*
X235452380Y-64238095D01*
X235452380Y-63857142D01*
X235500000Y-63761904D01*
X235547619Y-63714285D01*
X235642857Y-63666666D01*
X235785714Y-63666666D01*
X235880952Y-63714285D01*
X235928571Y-63761904D01*
X235976190Y-63857142D01*
X235976190Y-64238095D01*
X187714285Y-31452380D02*
X187714285Y-30452380D01*
X188047619Y-31166666D01*
X188380952Y-30452380D01*
X188380952Y-31452380D01*
X188857142Y-31452380D02*
X188857142Y-30452380D01*
X189904761Y-31357142D02*
X189857142Y-31404761D01*
X189714285Y-31452380D01*
X189619047Y-31452380D01*
X189476190Y-31404761D01*
X189380952Y-31309523D01*
X189333333Y-31214285D01*
X189285714Y-31023809D01*
X189285714Y-30880952D01*
X189333333Y-30690476D01*
X189380952Y-30595238D01*
X189476190Y-30500000D01*
X189619047Y-30452380D01*
X189714285Y-30452380D01*
X189857142Y-30500000D01*
X189904761Y-30547619D01*
X190904761Y-31452380D02*
X190571428Y-30976190D01*
X190333333Y-31452380D02*
X190333333Y-30452380D01*
X190714285Y-30452380D01*
X190809523Y-30500000D01*
X190857142Y-30547619D01*
X190904761Y-30642857D01*
X190904761Y-30785714D01*
X190857142Y-30880952D01*
X190809523Y-30928571D01*
X190714285Y-30976190D01*
X190333333Y-30976190D01*
X191523809Y-30452380D02*
X191714285Y-30452380D01*
X191809523Y-30500000D01*
X191904761Y-30595238D01*
X191952380Y-30785714D01*
X191952380Y-31119047D01*
X191904761Y-31309523D01*
X191809523Y-31404761D01*
X191714285Y-31452380D01*
X191523809Y-31452380D01*
X191428571Y-31404761D01*
X191333333Y-31309523D01*
X191285714Y-31119047D01*
X191285714Y-30785714D01*
X191333333Y-30595238D01*
X191428571Y-30500000D01*
X191523809Y-30452380D01*
X193095238Y-31404761D02*
X193238095Y-31452380D01*
X193476190Y-31452380D01*
X193571428Y-31404761D01*
X193619047Y-31357142D01*
X193666666Y-31261904D01*
X193666666Y-31166666D01*
X193619047Y-31071428D01*
X193571428Y-31023809D01*
X193476190Y-30976190D01*
X193285714Y-30928571D01*
X193190476Y-30880952D01*
X193142857Y-30833333D01*
X193095238Y-30738095D01*
X193095238Y-30642857D01*
X193142857Y-30547619D01*
X193190476Y-30500000D01*
X193285714Y-30452380D01*
X193523809Y-30452380D01*
X193666666Y-30500000D01*
X194095238Y-31452380D02*
X194095238Y-30452380D01*
X194476190Y-30452380D02*
X195142857Y-30452380D01*
X194476190Y-31452380D01*
X195142857Y-31452380D01*
X195523809Y-30928571D02*
X195857142Y-30928571D01*
X196000000Y-31452380D02*
X195523809Y-31452380D01*
X195523809Y-30452380D01*
X196000000Y-30452380D01*
X197714285Y-30500000D02*
X197619047Y-30452380D01*
X197476190Y-30452380D01*
X197333333Y-30500000D01*
X197238095Y-30595238D01*
X197190476Y-30690476D01*
X197142857Y-30880952D01*
X197142857Y-31023809D01*
X197190476Y-31214285D01*
X197238095Y-31309523D01*
X197333333Y-31404761D01*
X197476190Y-31452380D01*
X197571428Y-31452380D01*
X197714285Y-31404761D01*
X197761904Y-31357142D01*
X197761904Y-31023809D01*
X197571428Y-31023809D01*
X198523809Y-30928571D02*
X198666666Y-30976190D01*
X198714285Y-31023809D01*
X198761904Y-31119047D01*
X198761904Y-31261904D01*
X198714285Y-31357142D01*
X198666666Y-31404761D01*
X198571428Y-31452380D01*
X198190476Y-31452380D01*
X198190476Y-30452380D01*
X198523809Y-30452380D01*
X198619047Y-30500000D01*
X198666666Y-30547619D01*
X198714285Y-30642857D01*
X198714285Y-30738095D01*
X198666666Y-30833333D01*
X198619047Y-30880952D01*
X198523809Y-30928571D01*
X198190476Y-30928571D01*
X200523809Y-31357142D02*
X200476190Y-31404761D01*
X200333333Y-31452380D01*
X200238095Y-31452380D01*
X200095238Y-31404761D01*
X200000000Y-31309523D01*
X199952380Y-31214285D01*
X199904761Y-31023809D01*
X199904761Y-30880952D01*
X199952380Y-30690476D01*
X200000000Y-30595238D01*
X200095238Y-30500000D01*
X200238095Y-30452380D01*
X200333333Y-30452380D01*
X200476190Y-30500000D01*
X200523809Y-30547619D01*
X200904761Y-31166666D02*
X201380952Y-31166666D01*
X200809523Y-31452380D02*
X201142857Y-30452380D01*
X201476190Y-31452380D01*
X202380952Y-31452380D02*
X202047619Y-30976190D01*
X201809523Y-31452380D02*
X201809523Y-30452380D01*
X202190476Y-30452380D01*
X202285714Y-30500000D01*
X202333333Y-30547619D01*
X202380952Y-30642857D01*
X202380952Y-30785714D01*
X202333333Y-30880952D01*
X202285714Y-30928571D01*
X202190476Y-30976190D01*
X201809523Y-30976190D01*
X202666666Y-30452380D02*
X203238095Y-30452380D01*
X202952380Y-31452380D02*
X202952380Y-30452380D01*
X204666666Y-30928571D02*
X204333333Y-30928571D01*
X204333333Y-31452380D02*
X204333333Y-30452380D01*
X204809523Y-30452380D01*
X205666666Y-31452380D02*
X205190476Y-31452380D01*
X205190476Y-30452380D01*
X205952380Y-31166666D02*
X206428571Y-31166666D01*
X205857142Y-31452380D02*
X206190476Y-30452380D01*
X206523809Y-31452380D01*
X206809523Y-31404761D02*
X206952380Y-31452380D01*
X207190476Y-31452380D01*
X207285714Y-31404761D01*
X207333333Y-31357142D01*
X207380952Y-31261904D01*
X207380952Y-31166666D01*
X207333333Y-31071428D01*
X207285714Y-31023809D01*
X207190476Y-30976190D01*
X207000000Y-30928571D01*
X206904761Y-30880952D01*
X206857142Y-30833333D01*
X206809523Y-30738095D01*
X206809523Y-30642857D01*
X206857142Y-30547619D01*
X206904761Y-30500000D01*
X207000000Y-30452380D01*
X207238095Y-30452380D01*
X207380952Y-30500000D01*
X207809523Y-31452380D02*
X207809523Y-30452380D01*
X207809523Y-30928571D02*
X208380952Y-30928571D01*
X208380952Y-31452380D02*
X208380952Y-30452380D01*
X208857142Y-30928571D02*
X209190476Y-30928571D01*
X209333333Y-31452380D02*
X208857142Y-31452380D01*
X208857142Y-30452380D01*
X209333333Y-30452380D01*
X210333333Y-31452380D02*
X210000000Y-30976190D01*
X209761904Y-31452380D02*
X209761904Y-30452380D01*
X210142857Y-30452380D01*
X210238095Y-30500000D01*
X210285714Y-30547619D01*
X210333333Y-30642857D01*
X210333333Y-30785714D01*
X210285714Y-30880952D01*
X210238095Y-30928571D01*
X210142857Y-30976190D01*
X209761904Y-30976190D01*
X187714285Y-66452380D02*
X187714285Y-65452380D01*
X188047619Y-66166666D01*
X188380952Y-65452380D01*
X188380952Y-66452380D01*
X188857142Y-66452380D02*
X188857142Y-65452380D01*
X189904761Y-66357142D02*
X189857142Y-66404761D01*
X189714285Y-66452380D01*
X189619047Y-66452380D01*
X189476190Y-66404761D01*
X189380952Y-66309523D01*
X189333333Y-66214285D01*
X189285714Y-66023809D01*
X189285714Y-65880952D01*
X189333333Y-65690476D01*
X189380952Y-65595238D01*
X189476190Y-65500000D01*
X189619047Y-65452380D01*
X189714285Y-65452380D01*
X189857142Y-65500000D01*
X189904761Y-65547619D01*
X190904761Y-66452380D02*
X190571428Y-65976190D01*
X190333333Y-66452380D02*
X190333333Y-65452380D01*
X190714285Y-65452380D01*
X190809523Y-65500000D01*
X190857142Y-65547619D01*
X190904761Y-65642857D01*
X190904761Y-65785714D01*
X190857142Y-65880952D01*
X190809523Y-65928571D01*
X190714285Y-65976190D01*
X190333333Y-65976190D01*
X191523809Y-65452380D02*
X191714285Y-65452380D01*
X191809523Y-65500000D01*
X191904761Y-65595238D01*
X191952380Y-65785714D01*
X191952380Y-66119047D01*
X191904761Y-66309523D01*
X191809523Y-66404761D01*
X191714285Y-66452380D01*
X191523809Y-66452380D01*
X191428571Y-66404761D01*
X191333333Y-66309523D01*
X191285714Y-66119047D01*
X191285714Y-65785714D01*
X191333333Y-65595238D01*
X191428571Y-65500000D01*
X191523809Y-65452380D01*
X193095238Y-66404761D02*
X193238095Y-66452380D01*
X193476190Y-66452380D01*
X193571428Y-66404761D01*
X193619047Y-66357142D01*
X193666666Y-66261904D01*
X193666666Y-66166666D01*
X193619047Y-66071428D01*
X193571428Y-66023809D01*
X193476190Y-65976190D01*
X193285714Y-65928571D01*
X193190476Y-65880952D01*
X193142857Y-65833333D01*
X193095238Y-65738095D01*
X193095238Y-65642857D01*
X193142857Y-65547619D01*
X193190476Y-65500000D01*
X193285714Y-65452380D01*
X193523809Y-65452380D01*
X193666666Y-65500000D01*
X194095238Y-66452380D02*
X194095238Y-65452380D01*
X194476190Y-65452380D02*
X195142857Y-65452380D01*
X194476190Y-66452380D01*
X195142857Y-66452380D01*
X195523809Y-65928571D02*
X195857142Y-65928571D01*
X196000000Y-66452380D02*
X195523809Y-66452380D01*
X195523809Y-65452380D01*
X196000000Y-65452380D01*
X197714285Y-65500000D02*
X197619047Y-65452380D01*
X197476190Y-65452380D01*
X197333333Y-65500000D01*
X197238095Y-65595238D01*
X197190476Y-65690476D01*
X197142857Y-65880952D01*
X197142857Y-66023809D01*
X197190476Y-66214285D01*
X197238095Y-66309523D01*
X197333333Y-66404761D01*
X197476190Y-66452380D01*
X197571428Y-66452380D01*
X197714285Y-66404761D01*
X197761904Y-66357142D01*
X197761904Y-66023809D01*
X197571428Y-66023809D01*
X198523809Y-65928571D02*
X198666666Y-65976190D01*
X198714285Y-66023809D01*
X198761904Y-66119047D01*
X198761904Y-66261904D01*
X198714285Y-66357142D01*
X198666666Y-66404761D01*
X198571428Y-66452380D01*
X198190476Y-66452380D01*
X198190476Y-65452380D01*
X198523809Y-65452380D01*
X198619047Y-65500000D01*
X198666666Y-65547619D01*
X198714285Y-65642857D01*
X198714285Y-65738095D01*
X198666666Y-65833333D01*
X198619047Y-65880952D01*
X198523809Y-65928571D01*
X198190476Y-65928571D01*
X200523809Y-66357142D02*
X200476190Y-66404761D01*
X200333333Y-66452380D01*
X200238095Y-66452380D01*
X200095238Y-66404761D01*
X200000000Y-66309523D01*
X199952380Y-66214285D01*
X199904761Y-66023809D01*
X199904761Y-65880952D01*
X199952380Y-65690476D01*
X200000000Y-65595238D01*
X200095238Y-65500000D01*
X200238095Y-65452380D01*
X200333333Y-65452380D01*
X200476190Y-65500000D01*
X200523809Y-65547619D01*
X200904761Y-66166666D02*
X201380952Y-66166666D01*
X200809523Y-66452380D02*
X201142857Y-65452380D01*
X201476190Y-66452380D01*
X202380952Y-66452380D02*
X202047619Y-65976190D01*
X201809523Y-66452380D02*
X201809523Y-65452380D01*
X202190476Y-65452380D01*
X202285714Y-65500000D01*
X202333333Y-65547619D01*
X202380952Y-65642857D01*
X202380952Y-65785714D01*
X202333333Y-65880952D01*
X202285714Y-65928571D01*
X202190476Y-65976190D01*
X201809523Y-65976190D01*
X202666666Y-65452380D02*
X203238095Y-65452380D01*
X202952380Y-66452380D02*
X202952380Y-65452380D01*
X204666666Y-65928571D02*
X204333333Y-65928571D01*
X204333333Y-66452380D02*
X204333333Y-65452380D01*
X204809523Y-65452380D01*
X205666666Y-66452380D02*
X205190476Y-66452380D01*
X205190476Y-65452380D01*
X205952380Y-66166666D02*
X206428571Y-66166666D01*
X205857142Y-66452380D02*
X206190476Y-65452380D01*
X206523809Y-66452380D01*
X206809523Y-66404761D02*
X206952380Y-66452380D01*
X207190476Y-66452380D01*
X207285714Y-66404761D01*
X207333333Y-66357142D01*
X207380952Y-66261904D01*
X207380952Y-66166666D01*
X207333333Y-66071428D01*
X207285714Y-66023809D01*
X207190476Y-65976190D01*
X207000000Y-65928571D01*
X206904761Y-65880952D01*
X206857142Y-65833333D01*
X206809523Y-65738095D01*
X206809523Y-65642857D01*
X206857142Y-65547619D01*
X206904761Y-65500000D01*
X207000000Y-65452380D01*
X207238095Y-65452380D01*
X207380952Y-65500000D01*
X207809523Y-66452380D02*
X207809523Y-65452380D01*
X207809523Y-65928571D02*
X208380952Y-65928571D01*
X208380952Y-66452380D02*
X208380952Y-65452380D01*
X208857142Y-65928571D02*
X209190476Y-65928571D01*
X209333333Y-66452380D02*
X208857142Y-66452380D01*
X208857142Y-65452380D01*
X209333333Y-65452380D01*
X210333333Y-66452380D02*
X210000000Y-65976190D01*
X209761904Y-66452380D02*
X209761904Y-65452380D01*
X210142857Y-65452380D01*
X210238095Y-65500000D01*
X210285714Y-65547619D01*
X210333333Y-65642857D01*
X210333333Y-65785714D01*
X210285714Y-65880952D01*
X210238095Y-65928571D01*
X210142857Y-65976190D01*
X209761904Y-65976190D01*
X187714285Y-101452380D02*
X187714285Y-100452380D01*
X188047619Y-101166666D01*
X188380952Y-100452380D01*
X188380952Y-101452380D01*
X188857142Y-101452380D02*
X188857142Y-100452380D01*
X189904761Y-101357142D02*
X189857142Y-101404761D01*
X189714285Y-101452380D01*
X189619047Y-101452380D01*
X189476190Y-101404761D01*
X189380952Y-101309523D01*
X189333333Y-101214285D01*
X189285714Y-101023809D01*
X189285714Y-100880952D01*
X189333333Y-100690476D01*
X189380952Y-100595238D01*
X189476190Y-100500000D01*
X189619047Y-100452380D01*
X189714285Y-100452380D01*
X189857142Y-100500000D01*
X189904761Y-100547619D01*
X190904761Y-101452380D02*
X190571428Y-100976190D01*
X190333333Y-101452380D02*
X190333333Y-100452380D01*
X190714285Y-100452380D01*
X190809523Y-100500000D01*
X190857142Y-100547619D01*
X190904761Y-100642857D01*
X190904761Y-100785714D01*
X190857142Y-100880952D01*
X190809523Y-100928571D01*
X190714285Y-100976190D01*
X190333333Y-100976190D01*
X191523809Y-100452380D02*
X191714285Y-100452380D01*
X191809523Y-100500000D01*
X191904761Y-100595238D01*
X191952380Y-100785714D01*
X191952380Y-101119047D01*
X191904761Y-101309523D01*
X191809523Y-101404761D01*
X191714285Y-101452380D01*
X191523809Y-101452380D01*
X191428571Y-101404761D01*
X191333333Y-101309523D01*
X191285714Y-101119047D01*
X191285714Y-100785714D01*
X191333333Y-100595238D01*
X191428571Y-100500000D01*
X191523809Y-100452380D01*
X193095238Y-101404761D02*
X193238095Y-101452380D01*
X193476190Y-101452380D01*
X193571428Y-101404761D01*
X193619047Y-101357142D01*
X193666666Y-101261904D01*
X193666666Y-101166666D01*
X193619047Y-101071428D01*
X193571428Y-101023809D01*
X193476190Y-100976190D01*
X193285714Y-100928571D01*
X193190476Y-100880952D01*
X193142857Y-100833333D01*
X193095238Y-100738095D01*
X193095238Y-100642857D01*
X193142857Y-100547619D01*
X193190476Y-100500000D01*
X193285714Y-100452380D01*
X193523809Y-100452380D01*
X193666666Y-100500000D01*
X194095238Y-101452380D02*
X194095238Y-100452380D01*
X194476190Y-100452380D02*
X195142857Y-100452380D01*
X194476190Y-101452380D01*
X195142857Y-101452380D01*
X195523809Y-100928571D02*
X195857142Y-100928571D01*
X196000000Y-101452380D02*
X195523809Y-101452380D01*
X195523809Y-100452380D01*
X196000000Y-100452380D01*
X197714285Y-100500000D02*
X197619047Y-100452380D01*
X197476190Y-100452380D01*
X197333333Y-100500000D01*
X197238095Y-100595238D01*
X197190476Y-100690476D01*
X197142857Y-100880952D01*
X197142857Y-101023809D01*
X197190476Y-101214285D01*
X197238095Y-101309523D01*
X197333333Y-101404761D01*
X197476190Y-101452380D01*
X197571428Y-101452380D01*
X197714285Y-101404761D01*
X197761904Y-101357142D01*
X197761904Y-101023809D01*
X197571428Y-101023809D01*
X198523809Y-100928571D02*
X198666666Y-100976190D01*
X198714285Y-101023809D01*
X198761904Y-101119047D01*
X198761904Y-101261904D01*
X198714285Y-101357142D01*
X198666666Y-101404761D01*
X198571428Y-101452380D01*
X198190476Y-101452380D01*
X198190476Y-100452380D01*
X198523809Y-100452380D01*
X198619047Y-100500000D01*
X198666666Y-100547619D01*
X198714285Y-100642857D01*
X198714285Y-100738095D01*
X198666666Y-100833333D01*
X198619047Y-100880952D01*
X198523809Y-100928571D01*
X198190476Y-100928571D01*
X200523809Y-101357142D02*
X200476190Y-101404761D01*
X200333333Y-101452380D01*
X200238095Y-101452380D01*
X200095238Y-101404761D01*
X200000000Y-101309523D01*
X199952380Y-101214285D01*
X199904761Y-101023809D01*
X199904761Y-100880952D01*
X199952380Y-100690476D01*
X200000000Y-100595238D01*
X200095238Y-100500000D01*
X200238095Y-100452380D01*
X200333333Y-100452380D01*
X200476190Y-100500000D01*
X200523809Y-100547619D01*
X200904761Y-101166666D02*
X201380952Y-101166666D01*
X200809523Y-101452380D02*
X201142857Y-100452380D01*
X201476190Y-101452380D01*
X202380952Y-101452380D02*
X202047619Y-100976190D01*
X201809523Y-101452380D02*
X201809523Y-100452380D01*
X202190476Y-100452380D01*
X202285714Y-100500000D01*
X202333333Y-100547619D01*
X202380952Y-100642857D01*
X202380952Y-100785714D01*
X202333333Y-100880952D01*
X202285714Y-100928571D01*
X202190476Y-100976190D01*
X201809523Y-100976190D01*
X202666666Y-100452380D02*
X203238095Y-100452380D01*
X202952380Y-101452380D02*
X202952380Y-100452380D01*
X204666666Y-100928571D02*
X204333333Y-100928571D01*
X204333333Y-101452380D02*
X204333333Y-100452380D01*
X204809523Y-100452380D01*
X205666666Y-101452380D02*
X205190476Y-101452380D01*
X205190476Y-100452380D01*
X205952380Y-101166666D02*
X206428571Y-101166666D01*
X205857142Y-101452380D02*
X206190476Y-100452380D01*
X206523809Y-101452380D01*
X206809523Y-101404761D02*
X206952380Y-101452380D01*
X207190476Y-101452380D01*
X207285714Y-101404761D01*
X207333333Y-101357142D01*
X207380952Y-101261904D01*
X207380952Y-101166666D01*
X207333333Y-101071428D01*
X207285714Y-101023809D01*
X207190476Y-100976190D01*
X207000000Y-100928571D01*
X206904761Y-100880952D01*
X206857142Y-100833333D01*
X206809523Y-100738095D01*
X206809523Y-100642857D01*
X206857142Y-100547619D01*
X206904761Y-100500000D01*
X207000000Y-100452380D01*
X207238095Y-100452380D01*
X207380952Y-100500000D01*
X207809523Y-101452380D02*
X207809523Y-100452380D01*
X207809523Y-100928571D02*
X208380952Y-100928571D01*
X208380952Y-101452380D02*
X208380952Y-100452380D01*
X208857142Y-100928571D02*
X209190476Y-100928571D01*
X209333333Y-101452380D02*
X208857142Y-101452380D01*
X208857142Y-100452380D01*
X209333333Y-100452380D01*
X210333333Y-101452380D02*
X210000000Y-100976190D01*
X209761904Y-101452380D02*
X209761904Y-100452380D01*
X210142857Y-100452380D01*
X210238095Y-100500000D01*
X210285714Y-100547619D01*
X210333333Y-100642857D01*
X210333333Y-100785714D01*
X210285714Y-100880952D01*
X210238095Y-100928571D01*
X210142857Y-100976190D01*
X209761904Y-100976190D01*
D11*
G04 #@! TO.C,G\002A\002A\002A*
G36*
X229507037Y-76840000D02*
X229507037Y-78157037D01*
X228190000Y-78157037D01*
X228190000Y-76840000D01*
X229507037Y-76840000D01*
X229507037Y-76840000D01*
G37*
X229507037Y-76840000D02*
X229507037Y-78157037D01*
X228190000Y-78157037D01*
X228190000Y-76840000D01*
X229507037Y-76840000D01*
G36*
X230730000Y-66727037D02*
X230730000Y-65457037D01*
X233317037Y-65457037D01*
X233317037Y-66774074D01*
X230777037Y-66774074D01*
X230777037Y-67997037D01*
X233317037Y-67997037D01*
X233317037Y-69314074D01*
X229460000Y-69314074D01*
X229460000Y-66727037D01*
X230730000Y-66727037D01*
X230730000Y-66727037D01*
G37*
X230730000Y-66727037D02*
X230730000Y-65457037D01*
X233317037Y-65457037D01*
X233317037Y-66774074D01*
X230777037Y-66774074D01*
X230777037Y-67997037D01*
X233317037Y-67997037D01*
X233317037Y-69314074D01*
X229460000Y-69314074D01*
X229460000Y-66727037D01*
X230730000Y-66727037D01*
G36*
X232000000Y-71807037D02*
X232000000Y-70537037D01*
X233317037Y-70537037D01*
X233317037Y-71854074D01*
X232047037Y-71854074D01*
X232047037Y-73077037D01*
X233317037Y-73077037D01*
X233317037Y-75664074D01*
X230777037Y-75664074D01*
X230777037Y-74347037D01*
X232000000Y-74347037D01*
X232000000Y-73124074D01*
X230777037Y-73124074D01*
X230777037Y-74347037D01*
X230777037Y-75664074D01*
X230730000Y-75664074D01*
X230730000Y-74394074D01*
X229460000Y-74394074D01*
X229460000Y-71807037D01*
X232000000Y-71807037D01*
X232000000Y-71807037D01*
G37*
X232000000Y-71807037D02*
X232000000Y-70537037D01*
X233317037Y-70537037D01*
X233317037Y-71854074D01*
X232047037Y-71854074D01*
X232047037Y-73077037D01*
X233317037Y-73077037D01*
X233317037Y-75664074D01*
X230777037Y-75664074D01*
X230777037Y-74347037D01*
X232000000Y-74347037D01*
X232000000Y-73124074D01*
X230777037Y-73124074D01*
X230777037Y-74347037D01*
X230777037Y-75664074D01*
X230730000Y-75664074D01*
X230730000Y-74394074D01*
X229460000Y-74394074D01*
X229460000Y-71807037D01*
X232000000Y-71807037D01*
G36*
X233317037Y-76840000D02*
X233317037Y-78157037D01*
X230730000Y-78157037D01*
X230730000Y-76840000D01*
X233317037Y-76840000D01*
X233317037Y-76840000D01*
G37*
X233317037Y-76840000D02*
X233317037Y-78157037D01*
X230730000Y-78157037D01*
X230730000Y-76840000D01*
X233317037Y-76840000D01*
G36*
X230777037Y-79380000D02*
X230777037Y-81920000D01*
X233317037Y-81920000D01*
X233317037Y-83237037D01*
X229460000Y-83237037D01*
X229460000Y-79380000D01*
X230777037Y-79380000D01*
X230777037Y-79380000D01*
G37*
X230777037Y-79380000D02*
X230777037Y-81920000D01*
X233317037Y-81920000D01*
X233317037Y-83237037D01*
X229460000Y-83237037D01*
X229460000Y-79380000D01*
X230777037Y-79380000D01*
G36*
X233317037Y-84460000D02*
X233317037Y-88317037D01*
X230777037Y-88317037D01*
X230777037Y-87000000D01*
X232000000Y-87000000D01*
X232000000Y-85777037D01*
X230777037Y-85777037D01*
X230777037Y-87000000D01*
X230777037Y-88317037D01*
X229460000Y-88317037D01*
X229460000Y-84460000D01*
X233317037Y-84460000D01*
X233317037Y-84460000D01*
G37*
X233317037Y-84460000D02*
X233317037Y-88317037D01*
X230777037Y-88317037D01*
X230777037Y-87000000D01*
X232000000Y-87000000D01*
X232000000Y-85777037D01*
X230777037Y-85777037D01*
X230777037Y-87000000D01*
X230777037Y-88317037D01*
X229460000Y-88317037D01*
X229460000Y-84460000D01*
X233317037Y-84460000D01*
G36*
X230730000Y-95842962D02*
X230730000Y-94572962D01*
X233317037Y-94572962D01*
X233317037Y-95890000D01*
X230777037Y-95890000D01*
X230777037Y-97112962D01*
X233317037Y-97112962D01*
X233317037Y-98430000D01*
X229460000Y-98430000D01*
X229460000Y-95842962D01*
X230730000Y-95842962D01*
X230730000Y-95842962D01*
G37*
X230730000Y-95842962D02*
X230730000Y-94572962D01*
X233317037Y-94572962D01*
X233317037Y-95890000D01*
X230777037Y-95890000D01*
X230777037Y-97112962D01*
X233317037Y-97112962D01*
X233317037Y-98430000D01*
X229460000Y-98430000D01*
X229460000Y-95842962D01*
X230730000Y-95842962D01*
G36*
X233317037Y-99652962D02*
X233317037Y-103510000D01*
X230777037Y-103510000D01*
X230777037Y-102192962D01*
X232000000Y-102192962D01*
X232000000Y-100970000D01*
X230777037Y-100970000D01*
X230777037Y-102192962D01*
X230777037Y-103510000D01*
X229460000Y-103510000D01*
X229460000Y-99652962D01*
X233317037Y-99652962D01*
X233317037Y-99652962D01*
G37*
X233317037Y-99652962D02*
X233317037Y-103510000D01*
X230777037Y-103510000D01*
X230777037Y-102192962D01*
X232000000Y-102192962D01*
X232000000Y-100970000D01*
X230777037Y-100970000D01*
X230777037Y-102192962D01*
X230777037Y-103510000D01*
X229460000Y-103510000D01*
X229460000Y-99652962D01*
X233317037Y-99652962D01*
G36*
X229460000Y-107225925D02*
X229460000Y-104732962D01*
X233317037Y-104732962D01*
X233317037Y-108542962D01*
X230777037Y-108542962D01*
X230777037Y-107225925D01*
X232000000Y-107225925D01*
X232000000Y-106050000D01*
X230777037Y-106050000D01*
X230777037Y-107225925D01*
X230777037Y-108542962D01*
X228190000Y-108542962D01*
X228190000Y-107225925D01*
X229460000Y-107225925D01*
X229460000Y-107225925D01*
G37*
X229460000Y-107225925D02*
X229460000Y-104732962D01*
X233317037Y-104732962D01*
X233317037Y-108542962D01*
X230777037Y-108542962D01*
X230777037Y-107225925D01*
X232000000Y-107225925D01*
X232000000Y-106050000D01*
X230777037Y-106050000D01*
X230777037Y-107225925D01*
X230777037Y-108542962D01*
X228190000Y-108542962D01*
X228190000Y-107225925D01*
X229460000Y-107225925D01*
G36*
X234540000Y-89540000D02*
X234540000Y-90810000D01*
X235810000Y-90810000D01*
X235810000Y-93350000D01*
X234492962Y-93350000D01*
X234492962Y-90857037D01*
X233317037Y-90857037D01*
X233317037Y-93350000D01*
X230777037Y-93350000D01*
X230777037Y-92032962D01*
X232000000Y-92032962D01*
X232000000Y-90857037D01*
X230777037Y-90857037D01*
X230777037Y-92032962D01*
X230777037Y-93350000D01*
X230730000Y-93350000D01*
X230730000Y-92080000D01*
X229460000Y-92080000D01*
X229460000Y-89540000D01*
X234540000Y-89540000D01*
X234540000Y-89540000D01*
G37*
X234540000Y-89540000D02*
X234540000Y-90810000D01*
X235810000Y-90810000D01*
X235810000Y-93350000D01*
X234492962Y-93350000D01*
X234492962Y-90857037D01*
X233317037Y-90857037D01*
X233317037Y-93350000D01*
X230777037Y-93350000D01*
X230777037Y-92032962D01*
X232000000Y-92032962D01*
X232000000Y-90857037D01*
X230777037Y-90857037D01*
X230777037Y-92032962D01*
X230777037Y-93350000D01*
X230730000Y-93350000D01*
X230730000Y-92080000D01*
X229460000Y-92080000D01*
X229460000Y-89540000D01*
X234540000Y-89540000D01*
D12*
G04 #@! TO.C,J1*
X233250000Y-117000000D02*
X240750000Y-117000000D01*
X233250000Y-117000000D02*
X233250000Y-116125000D01*
X240750000Y-117000000D02*
X240750000Y-116125000D01*
D13*
X238287000Y-111009000D02*
G75*
G03X238287000Y-111009000I-34000J0D01*
G01*
D14*
G04 #@! TO.C,D3*
X246080000Y-103290000D02*
X246236000Y-103290000D01*
X243764000Y-103290000D02*
X243920000Y-103290000D01*
X246079837Y-100688870D02*
G75*
G02X246080000Y-102770961I-1079837J-1041130D01*
G01*
X243920163Y-100688870D02*
G75*
G03X243920000Y-102770961I1079837J-1041130D01*
G01*
X246078608Y-100057665D02*
G75*
G02X246235516Y-103290000I-1078608J-1672335D01*
G01*
X243921392Y-100057665D02*
G75*
G03X243764484Y-103290000I1078608J-1672335D01*
G01*
G04 #@! TO.C,Y1*
X241450000Y-65300000D02*
X241450000Y-77900000D01*
X246550000Y-65300000D02*
X241450000Y-65300000D01*
X246550000Y-77900000D02*
X246550000Y-65300000D01*
G04 #@! TO.C,U1*
X224920000Y-110330000D02*
X230380000Y-110330000D01*
X224920000Y-59410000D02*
X224920000Y-110330000D01*
X237840000Y-59410000D02*
X224920000Y-59410000D01*
X237840000Y-110330000D02*
X237840000Y-59410000D01*
X232380000Y-110330000D02*
X237840000Y-110330000D01*
X230380000Y-110330000D02*
G75*
G02X232380000Y-110330000I1000000J0D01*
G01*
G04 #@! TO.C,D4*
X243921392Y-94057665D02*
G75*
G03X243764484Y-97290000I1078608J-1672335D01*
G01*
X246078608Y-94057665D02*
G75*
G02X246235516Y-97290000I-1078608J-1672335D01*
G01*
X243920163Y-94688870D02*
G75*
G03X243920000Y-96770961I1079837J-1041130D01*
G01*
X246079837Y-94688870D02*
G75*
G02X246080000Y-96770961I-1079837J-1041130D01*
G01*
X243764000Y-97290000D02*
X243920000Y-97290000D01*
X246080000Y-97290000D02*
X246236000Y-97290000D01*
G04 #@! TO.C,R5*
X248290000Y-95713748D02*
X248290000Y-96236252D01*
X249710000Y-95713748D02*
X249710000Y-96236252D01*
G04 #@! TO.C,R4*
X249710000Y-101738748D02*
X249710000Y-102261252D01*
X248290000Y-101738748D02*
X248290000Y-102261252D01*
G04 #@! TO.C,R3*
X249710000Y-107713748D02*
X249710000Y-108236252D01*
X248290000Y-107713748D02*
X248290000Y-108236252D01*
G04 #@! TO.C,C6*
X224250000Y-112190000D02*
X224250000Y-112690000D01*
X224000000Y-112440000D02*
X224500000Y-112440000D01*
X224740000Y-115195563D02*
X225804437Y-116260000D01*
X224740000Y-112804437D02*
X225804437Y-111740000D01*
X224740000Y-112804437D02*
X224740000Y-112940000D01*
X224740000Y-115195563D02*
X224740000Y-115060000D01*
X225804437Y-116260000D02*
X229260000Y-116260000D01*
X225804437Y-111740000D02*
X229260000Y-111740000D01*
X229260000Y-111740000D02*
X229260000Y-112940000D01*
X229260000Y-116260000D02*
X229260000Y-115060000D01*
G04 #@! TO.C,R2*
X248290000Y-113763748D02*
X248290000Y-114286252D01*
X249710000Y-113763748D02*
X249710000Y-114286252D01*
G04 #@! TO.C,D1*
X246080000Y-115290000D02*
X246236000Y-115290000D01*
X243764000Y-115290000D02*
X243920000Y-115290000D01*
X246079837Y-112688870D02*
G75*
G02X246080000Y-114770961I-1079837J-1041130D01*
G01*
X243920163Y-112688870D02*
G75*
G03X243920000Y-114770961I1079837J-1041130D01*
G01*
X246078608Y-112057665D02*
G75*
G02X246235516Y-115290000I-1078608J-1672335D01*
G01*
X243921392Y-112057665D02*
G75*
G03X243764484Y-115290000I1078608J-1672335D01*
G01*
G04 #@! TO.C,D2*
X243921392Y-106057665D02*
G75*
G03X243764484Y-109290000I1078608J-1672335D01*
G01*
X246078608Y-106057665D02*
G75*
G02X246235516Y-109290000I-1078608J-1672335D01*
G01*
X243920163Y-106688870D02*
G75*
G03X243920000Y-108770961I1079837J-1041130D01*
G01*
X246079837Y-106688870D02*
G75*
G02X246080000Y-108770961I-1079837J-1041130D01*
G01*
X243764000Y-109290000D02*
X243920000Y-109290000D01*
X246080000Y-109290000D02*
X246236000Y-109290000D01*
G04 #@! TO.C,J3*
X241670000Y-63330000D02*
X241670000Y-62000000D01*
X243000000Y-63330000D02*
X241670000Y-63330000D01*
X241670000Y-60730000D02*
X241670000Y-58130000D01*
X244270000Y-60730000D02*
X241670000Y-60730000D01*
X244270000Y-63330000D02*
X244270000Y-60730000D01*
X241670000Y-58130000D02*
X249410000Y-58130000D01*
X244270000Y-63330000D02*
X249410000Y-63330000D01*
X249410000Y-63330000D02*
X249410000Y-58130000D01*
G04 #@! TO.C,C3*
X241690000Y-82813748D02*
X241690000Y-83336252D01*
X243110000Y-82813748D02*
X243110000Y-83336252D01*
G04 #@! TO.C,C2*
X248953733Y-76490000D02*
X249296267Y-76490000D01*
X248953733Y-77510000D02*
X249296267Y-77510000D01*
G04 #@! TO.C,C1*
X248953733Y-67510000D02*
X249296267Y-67510000D01*
X248953733Y-66490000D02*
X249296267Y-66490000D01*
D11*
G04 #@! TO.C,G\002A\002A\002A*
G36*
X197160000Y-24507037D02*
X195842963Y-24507037D01*
X195842963Y-23190000D01*
X197160000Y-23190000D01*
X197160000Y-24507037D01*
X197160000Y-24507037D01*
G37*
X197160000Y-24507037D02*
X195842963Y-24507037D01*
X195842963Y-23190000D01*
X197160000Y-23190000D01*
X197160000Y-24507037D01*
G36*
X207272963Y-25730000D02*
X208542963Y-25730000D01*
X208542963Y-28317037D01*
X207225926Y-28317037D01*
X207225926Y-25777037D01*
X206002963Y-25777037D01*
X206002963Y-28317037D01*
X204685926Y-28317037D01*
X204685926Y-24460000D01*
X207272963Y-24460000D01*
X207272963Y-25730000D01*
X207272963Y-25730000D01*
G37*
X207272963Y-25730000D02*
X208542963Y-25730000D01*
X208542963Y-28317037D01*
X207225926Y-28317037D01*
X207225926Y-25777037D01*
X206002963Y-25777037D01*
X206002963Y-28317037D01*
X204685926Y-28317037D01*
X204685926Y-24460000D01*
X207272963Y-24460000D01*
X207272963Y-25730000D01*
G36*
X202192963Y-27000000D02*
X203462963Y-27000000D01*
X203462963Y-28317037D01*
X202145926Y-28317037D01*
X202145926Y-27047037D01*
X200922963Y-27047037D01*
X200922963Y-28317037D01*
X198335926Y-28317037D01*
X198335926Y-25777037D01*
X199652963Y-25777037D01*
X199652963Y-27000000D01*
X200875926Y-27000000D01*
X200875926Y-25777037D01*
X199652963Y-25777037D01*
X198335926Y-25777037D01*
X198335926Y-25730000D01*
X199605926Y-25730000D01*
X199605926Y-24460000D01*
X202192963Y-24460000D01*
X202192963Y-27000000D01*
X202192963Y-27000000D01*
G37*
X202192963Y-27000000D02*
X203462963Y-27000000D01*
X203462963Y-28317037D01*
X202145926Y-28317037D01*
X202145926Y-27047037D01*
X200922963Y-27047037D01*
X200922963Y-28317037D01*
X198335926Y-28317037D01*
X198335926Y-25777037D01*
X199652963Y-25777037D01*
X199652963Y-27000000D01*
X200875926Y-27000000D01*
X200875926Y-25777037D01*
X199652963Y-25777037D01*
X198335926Y-25777037D01*
X198335926Y-25730000D01*
X199605926Y-25730000D01*
X199605926Y-24460000D01*
X202192963Y-24460000D01*
X202192963Y-27000000D01*
G36*
X197160000Y-28317037D02*
X195842963Y-28317037D01*
X195842963Y-25730000D01*
X197160000Y-25730000D01*
X197160000Y-28317037D01*
X197160000Y-28317037D01*
G37*
X197160000Y-28317037D02*
X195842963Y-28317037D01*
X195842963Y-25730000D01*
X197160000Y-25730000D01*
X197160000Y-28317037D01*
G36*
X194620000Y-25777037D02*
X192080000Y-25777037D01*
X192080000Y-28317037D01*
X190762963Y-28317037D01*
X190762963Y-24460000D01*
X194620000Y-24460000D01*
X194620000Y-25777037D01*
X194620000Y-25777037D01*
G37*
X194620000Y-25777037D02*
X192080000Y-25777037D01*
X192080000Y-28317037D01*
X190762963Y-28317037D01*
X190762963Y-24460000D01*
X194620000Y-24460000D01*
X194620000Y-25777037D01*
G36*
X189540000Y-28317037D02*
X185682963Y-28317037D01*
X185682963Y-25777037D01*
X187000000Y-25777037D01*
X187000000Y-27000000D01*
X188222963Y-27000000D01*
X188222963Y-25777037D01*
X187000000Y-25777037D01*
X185682963Y-25777037D01*
X185682963Y-24460000D01*
X189540000Y-24460000D01*
X189540000Y-28317037D01*
X189540000Y-28317037D01*
G37*
X189540000Y-28317037D02*
X185682963Y-28317037D01*
X185682963Y-25777037D01*
X187000000Y-25777037D01*
X187000000Y-27000000D01*
X188222963Y-27000000D01*
X188222963Y-25777037D01*
X187000000Y-25777037D01*
X185682963Y-25777037D01*
X185682963Y-24460000D01*
X189540000Y-24460000D01*
X189540000Y-28317037D01*
G36*
X178157038Y-25730000D02*
X179427038Y-25730000D01*
X179427038Y-28317037D01*
X178110000Y-28317037D01*
X178110000Y-25777037D01*
X176887038Y-25777037D01*
X176887038Y-28317037D01*
X175570000Y-28317037D01*
X175570000Y-24460000D01*
X178157038Y-24460000D01*
X178157038Y-25730000D01*
X178157038Y-25730000D01*
G37*
X178157038Y-25730000D02*
X179427038Y-25730000D01*
X179427038Y-28317037D01*
X178110000Y-28317037D01*
X178110000Y-25777037D01*
X176887038Y-25777037D01*
X176887038Y-28317037D01*
X175570000Y-28317037D01*
X175570000Y-24460000D01*
X178157038Y-24460000D01*
X178157038Y-25730000D01*
G36*
X174347038Y-28317037D02*
X170490000Y-28317037D01*
X170490000Y-25777037D01*
X171807038Y-25777037D01*
X171807038Y-27000000D01*
X173030000Y-27000000D01*
X173030000Y-25777037D01*
X171807038Y-25777037D01*
X170490000Y-25777037D01*
X170490000Y-24460000D01*
X174347038Y-24460000D01*
X174347038Y-28317037D01*
X174347038Y-28317037D01*
G37*
X174347038Y-28317037D02*
X170490000Y-28317037D01*
X170490000Y-25777037D01*
X171807038Y-25777037D01*
X171807038Y-27000000D01*
X173030000Y-27000000D01*
X173030000Y-25777037D01*
X171807038Y-25777037D01*
X170490000Y-25777037D01*
X170490000Y-24460000D01*
X174347038Y-24460000D01*
X174347038Y-28317037D01*
G36*
X166774075Y-24460000D02*
X169267038Y-24460000D01*
X169267038Y-28317037D01*
X165457038Y-28317037D01*
X165457038Y-25777037D01*
X166774075Y-25777037D01*
X166774075Y-27000000D01*
X167950000Y-27000000D01*
X167950000Y-25777037D01*
X166774075Y-25777037D01*
X165457038Y-25777037D01*
X165457038Y-23190000D01*
X166774075Y-23190000D01*
X166774075Y-24460000D01*
X166774075Y-24460000D01*
G37*
X166774075Y-24460000D02*
X169267038Y-24460000D01*
X169267038Y-28317037D01*
X165457038Y-28317037D01*
X165457038Y-25777037D01*
X166774075Y-25777037D01*
X166774075Y-27000000D01*
X167950000Y-27000000D01*
X167950000Y-25777037D01*
X166774075Y-25777037D01*
X165457038Y-25777037D01*
X165457038Y-23190000D01*
X166774075Y-23190000D01*
X166774075Y-24460000D01*
G36*
X184460000Y-29540000D02*
X183190000Y-29540000D01*
X183190000Y-30810000D01*
X180650000Y-30810000D01*
X180650000Y-29492962D01*
X183142963Y-29492962D01*
X183142963Y-28317037D01*
X180650000Y-28317037D01*
X180650000Y-25777037D01*
X181967038Y-25777037D01*
X181967038Y-27000000D01*
X183142963Y-27000000D01*
X183142963Y-25777037D01*
X181967038Y-25777037D01*
X180650000Y-25777037D01*
X180650000Y-25730000D01*
X181920000Y-25730000D01*
X181920000Y-24460000D01*
X184460000Y-24460000D01*
X184460000Y-29540000D01*
X184460000Y-29540000D01*
G37*
X184460000Y-29540000D02*
X183190000Y-29540000D01*
X183190000Y-30810000D01*
X180650000Y-30810000D01*
X180650000Y-29492962D01*
X183142963Y-29492962D01*
X183142963Y-28317037D01*
X180650000Y-28317037D01*
X180650000Y-25777037D01*
X181967038Y-25777037D01*
X181967038Y-27000000D01*
X183142963Y-27000000D01*
X183142963Y-25777037D01*
X181967038Y-25777037D01*
X180650000Y-25777037D01*
X180650000Y-25730000D01*
X181920000Y-25730000D01*
X181920000Y-24460000D01*
X184460000Y-24460000D01*
X184460000Y-29540000D01*
D12*
G04 #@! TO.C,J1*
X157000000Y-28250000D02*
X157000000Y-35750000D01*
X157000000Y-28250000D02*
X157875000Y-28250000D01*
X157000000Y-35750000D02*
X157875000Y-35750000D01*
D13*
X163025000Y-33253000D02*
G75*
G03X163025000Y-33253000I-34000J0D01*
G01*
D14*
G04 #@! TO.C,D3*
X170710000Y-41080000D02*
X170710000Y-41236000D01*
X170710000Y-38764000D02*
X170710000Y-38920000D01*
X173311130Y-41079837D02*
G75*
G02X171229039Y-41080000I-1041130J1079837D01*
G01*
X173311130Y-38920163D02*
G75*
G03X171229039Y-38920000I-1041130J-1079837D01*
G01*
X173942335Y-41078608D02*
G75*
G02X170710000Y-41235516I-1672335J1078608D01*
G01*
X173942335Y-38921392D02*
G75*
G03X170710000Y-38764484I-1672335J-1078608D01*
G01*
G04 #@! TO.C,Y1*
X208700000Y-36450000D02*
X196100000Y-36450000D01*
X208700000Y-41550000D02*
X208700000Y-36450000D01*
X196100000Y-41550000D02*
X208700000Y-41550000D01*
G04 #@! TO.C,U1*
X163670000Y-19920000D02*
X163670000Y-25380000D01*
X214590000Y-19920000D02*
X163670000Y-19920000D01*
X214590000Y-32840000D02*
X214590000Y-19920000D01*
X163670000Y-32840000D02*
X214590000Y-32840000D01*
X163670000Y-27380000D02*
X163670000Y-32840000D01*
X163670000Y-25380000D02*
G75*
G02X163670000Y-27380000I0J-1000000D01*
G01*
G04 #@! TO.C,D4*
X179942335Y-38921392D02*
G75*
G03X176710000Y-38764484I-1672335J-1078608D01*
G01*
X179942335Y-41078608D02*
G75*
G02X176710000Y-41235516I-1672335J1078608D01*
G01*
X179311130Y-38920163D02*
G75*
G03X177229039Y-38920000I-1041130J-1079837D01*
G01*
X179311130Y-41079837D02*
G75*
G02X177229039Y-41080000I-1041130J1079837D01*
G01*
X176710000Y-38764000D02*
X176710000Y-38920000D01*
X176710000Y-41080000D02*
X176710000Y-41236000D01*
G04 #@! TO.C,R5*
X178286252Y-43290000D02*
X177763748Y-43290000D01*
X178286252Y-44710000D02*
X177763748Y-44710000D01*
G04 #@! TO.C,R4*
X172261252Y-44710000D02*
X171738748Y-44710000D01*
X172261252Y-43290000D02*
X171738748Y-43290000D01*
G04 #@! TO.C,R3*
X166286252Y-44710000D02*
X165763748Y-44710000D01*
X166286252Y-43290000D02*
X165763748Y-43290000D01*
G04 #@! TO.C,C6*
X161810000Y-19250000D02*
X161310000Y-19250000D01*
X161560000Y-19000000D02*
X161560000Y-19500000D01*
X158804437Y-19740000D02*
X157740000Y-20804437D01*
X161195563Y-19740000D02*
X162260000Y-20804437D01*
X161195563Y-19740000D02*
X161060000Y-19740000D01*
X158804437Y-19740000D02*
X158940000Y-19740000D01*
X157740000Y-20804437D02*
X157740000Y-24260000D01*
X162260000Y-20804437D02*
X162260000Y-24260000D01*
X162260000Y-24260000D02*
X161060000Y-24260000D01*
X157740000Y-24260000D02*
X158940000Y-24260000D01*
G04 #@! TO.C,R2*
X160236252Y-43290000D02*
X159713748Y-43290000D01*
X160236252Y-44710000D02*
X159713748Y-44710000D01*
G04 #@! TO.C,D1*
X158710000Y-41080000D02*
X158710000Y-41236000D01*
X158710000Y-38764000D02*
X158710000Y-38920000D01*
X161311130Y-41079837D02*
G75*
G02X159229039Y-41080000I-1041130J1079837D01*
G01*
X161311130Y-38920163D02*
G75*
G03X159229039Y-38920000I-1041130J-1079837D01*
G01*
X161942335Y-41078608D02*
G75*
G02X158710000Y-41235516I-1672335J1078608D01*
G01*
X161942335Y-38921392D02*
G75*
G03X158710000Y-38764484I-1672335J-1078608D01*
G01*
G04 #@! TO.C,D2*
X167942335Y-38921392D02*
G75*
G03X164710000Y-38764484I-1672335J-1078608D01*
G01*
X167942335Y-41078608D02*
G75*
G02X164710000Y-41235516I-1672335J1078608D01*
G01*
X167311130Y-38920163D02*
G75*
G03X165229039Y-38920000I-1041130J-1079837D01*
G01*
X167311130Y-41079837D02*
G75*
G02X165229039Y-41080000I-1041130J1079837D01*
G01*
X164710000Y-38764000D02*
X164710000Y-38920000D01*
X164710000Y-41080000D02*
X164710000Y-41236000D01*
G04 #@! TO.C,J3*
X210670000Y-36670000D02*
X212000000Y-36670000D01*
X210670000Y-38000000D02*
X210670000Y-36670000D01*
X213270000Y-36670000D02*
X215870000Y-36670000D01*
X213270000Y-39270000D02*
X213270000Y-36670000D01*
X210670000Y-39270000D02*
X213270000Y-39270000D01*
X215870000Y-36670000D02*
X215870000Y-44410000D01*
X210670000Y-39270000D02*
X210670000Y-44410000D01*
X210670000Y-44410000D02*
X215870000Y-44410000D01*
G04 #@! TO.C,C3*
X191186252Y-36690000D02*
X190663748Y-36690000D01*
X191186252Y-38110000D02*
X190663748Y-38110000D01*
G04 #@! TO.C,C2*
X197510000Y-43953733D02*
X197510000Y-44296267D01*
X196490000Y-43953733D02*
X196490000Y-44296267D01*
G04 #@! TO.C,C1*
X206490000Y-43953733D02*
X206490000Y-44296267D01*
X207510000Y-43953733D02*
X207510000Y-44296267D01*
D11*
G04 #@! TO.C,G\002A\002A\002A*
G36*
X197160000Y-59507037D02*
X195842963Y-59507037D01*
X195842963Y-58190000D01*
X197160000Y-58190000D01*
X197160000Y-59507037D01*
X197160000Y-59507037D01*
G37*
X197160000Y-59507037D02*
X195842963Y-59507037D01*
X195842963Y-58190000D01*
X197160000Y-58190000D01*
X197160000Y-59507037D01*
G36*
X207272963Y-60730000D02*
X208542963Y-60730000D01*
X208542963Y-63317037D01*
X207225926Y-63317037D01*
X207225926Y-60777037D01*
X206002963Y-60777037D01*
X206002963Y-63317037D01*
X204685926Y-63317037D01*
X204685926Y-59460000D01*
X207272963Y-59460000D01*
X207272963Y-60730000D01*
X207272963Y-60730000D01*
G37*
X207272963Y-60730000D02*
X208542963Y-60730000D01*
X208542963Y-63317037D01*
X207225926Y-63317037D01*
X207225926Y-60777037D01*
X206002963Y-60777037D01*
X206002963Y-63317037D01*
X204685926Y-63317037D01*
X204685926Y-59460000D01*
X207272963Y-59460000D01*
X207272963Y-60730000D01*
G36*
X202192963Y-62000000D02*
X203462963Y-62000000D01*
X203462963Y-63317037D01*
X202145926Y-63317037D01*
X202145926Y-62047037D01*
X200922963Y-62047037D01*
X200922963Y-63317037D01*
X198335926Y-63317037D01*
X198335926Y-60777037D01*
X199652963Y-60777037D01*
X199652963Y-62000000D01*
X200875926Y-62000000D01*
X200875926Y-60777037D01*
X199652963Y-60777037D01*
X198335926Y-60777037D01*
X198335926Y-60730000D01*
X199605926Y-60730000D01*
X199605926Y-59460000D01*
X202192963Y-59460000D01*
X202192963Y-62000000D01*
X202192963Y-62000000D01*
G37*
X202192963Y-62000000D02*
X203462963Y-62000000D01*
X203462963Y-63317037D01*
X202145926Y-63317037D01*
X202145926Y-62047037D01*
X200922963Y-62047037D01*
X200922963Y-63317037D01*
X198335926Y-63317037D01*
X198335926Y-60777037D01*
X199652963Y-60777037D01*
X199652963Y-62000000D01*
X200875926Y-62000000D01*
X200875926Y-60777037D01*
X199652963Y-60777037D01*
X198335926Y-60777037D01*
X198335926Y-60730000D01*
X199605926Y-60730000D01*
X199605926Y-59460000D01*
X202192963Y-59460000D01*
X202192963Y-62000000D01*
G36*
X197160000Y-63317037D02*
X195842963Y-63317037D01*
X195842963Y-60730000D01*
X197160000Y-60730000D01*
X197160000Y-63317037D01*
X197160000Y-63317037D01*
G37*
X197160000Y-63317037D02*
X195842963Y-63317037D01*
X195842963Y-60730000D01*
X197160000Y-60730000D01*
X197160000Y-63317037D01*
G36*
X194620000Y-60777037D02*
X192080000Y-60777037D01*
X192080000Y-63317037D01*
X190762963Y-63317037D01*
X190762963Y-59460000D01*
X194620000Y-59460000D01*
X194620000Y-60777037D01*
X194620000Y-60777037D01*
G37*
X194620000Y-60777037D02*
X192080000Y-60777037D01*
X192080000Y-63317037D01*
X190762963Y-63317037D01*
X190762963Y-59460000D01*
X194620000Y-59460000D01*
X194620000Y-60777037D01*
G36*
X189540000Y-63317037D02*
X185682963Y-63317037D01*
X185682963Y-60777037D01*
X187000000Y-60777037D01*
X187000000Y-62000000D01*
X188222963Y-62000000D01*
X188222963Y-60777037D01*
X187000000Y-60777037D01*
X185682963Y-60777037D01*
X185682963Y-59460000D01*
X189540000Y-59460000D01*
X189540000Y-63317037D01*
X189540000Y-63317037D01*
G37*
X189540000Y-63317037D02*
X185682963Y-63317037D01*
X185682963Y-60777037D01*
X187000000Y-60777037D01*
X187000000Y-62000000D01*
X188222963Y-62000000D01*
X188222963Y-60777037D01*
X187000000Y-60777037D01*
X185682963Y-60777037D01*
X185682963Y-59460000D01*
X189540000Y-59460000D01*
X189540000Y-63317037D01*
G36*
X178157038Y-60730000D02*
X179427038Y-60730000D01*
X179427038Y-63317037D01*
X178110000Y-63317037D01*
X178110000Y-60777037D01*
X176887038Y-60777037D01*
X176887038Y-63317037D01*
X175570000Y-63317037D01*
X175570000Y-59460000D01*
X178157038Y-59460000D01*
X178157038Y-60730000D01*
X178157038Y-60730000D01*
G37*
X178157038Y-60730000D02*
X179427038Y-60730000D01*
X179427038Y-63317037D01*
X178110000Y-63317037D01*
X178110000Y-60777037D01*
X176887038Y-60777037D01*
X176887038Y-63317037D01*
X175570000Y-63317037D01*
X175570000Y-59460000D01*
X178157038Y-59460000D01*
X178157038Y-60730000D01*
G36*
X174347038Y-63317037D02*
X170490000Y-63317037D01*
X170490000Y-60777037D01*
X171807038Y-60777037D01*
X171807038Y-62000000D01*
X173030000Y-62000000D01*
X173030000Y-60777037D01*
X171807038Y-60777037D01*
X170490000Y-60777037D01*
X170490000Y-59460000D01*
X174347038Y-59460000D01*
X174347038Y-63317037D01*
X174347038Y-63317037D01*
G37*
X174347038Y-63317037D02*
X170490000Y-63317037D01*
X170490000Y-60777037D01*
X171807038Y-60777037D01*
X171807038Y-62000000D01*
X173030000Y-62000000D01*
X173030000Y-60777037D01*
X171807038Y-60777037D01*
X170490000Y-60777037D01*
X170490000Y-59460000D01*
X174347038Y-59460000D01*
X174347038Y-63317037D01*
G36*
X166774075Y-59460000D02*
X169267038Y-59460000D01*
X169267038Y-63317037D01*
X165457038Y-63317037D01*
X165457038Y-60777037D01*
X166774075Y-60777037D01*
X166774075Y-62000000D01*
X167950000Y-62000000D01*
X167950000Y-60777037D01*
X166774075Y-60777037D01*
X165457038Y-60777037D01*
X165457038Y-58190000D01*
X166774075Y-58190000D01*
X166774075Y-59460000D01*
X166774075Y-59460000D01*
G37*
X166774075Y-59460000D02*
X169267038Y-59460000D01*
X169267038Y-63317037D01*
X165457038Y-63317037D01*
X165457038Y-60777037D01*
X166774075Y-60777037D01*
X166774075Y-62000000D01*
X167950000Y-62000000D01*
X167950000Y-60777037D01*
X166774075Y-60777037D01*
X165457038Y-60777037D01*
X165457038Y-58190000D01*
X166774075Y-58190000D01*
X166774075Y-59460000D01*
G36*
X184460000Y-64540000D02*
X183190000Y-64540000D01*
X183190000Y-65810000D01*
X180650000Y-65810000D01*
X180650000Y-64492962D01*
X183142963Y-64492962D01*
X183142963Y-63317037D01*
X180650000Y-63317037D01*
X180650000Y-60777037D01*
X181967038Y-60777037D01*
X181967038Y-62000000D01*
X183142963Y-62000000D01*
X183142963Y-60777037D01*
X181967038Y-60777037D01*
X180650000Y-60777037D01*
X180650000Y-60730000D01*
X181920000Y-60730000D01*
X181920000Y-59460000D01*
X184460000Y-59460000D01*
X184460000Y-64540000D01*
X184460000Y-64540000D01*
G37*
X184460000Y-64540000D02*
X183190000Y-64540000D01*
X183190000Y-65810000D01*
X180650000Y-65810000D01*
X180650000Y-64492962D01*
X183142963Y-64492962D01*
X183142963Y-63317037D01*
X180650000Y-63317037D01*
X180650000Y-60777037D01*
X181967038Y-60777037D01*
X181967038Y-62000000D01*
X183142963Y-62000000D01*
X183142963Y-60777037D01*
X181967038Y-60777037D01*
X180650000Y-60777037D01*
X180650000Y-60730000D01*
X181920000Y-60730000D01*
X181920000Y-59460000D01*
X184460000Y-59460000D01*
X184460000Y-64540000D01*
D12*
G04 #@! TO.C,J1*
X157000000Y-63250000D02*
X157000000Y-70750000D01*
X157000000Y-63250000D02*
X157875000Y-63250000D01*
X157000000Y-70750000D02*
X157875000Y-70750000D01*
D13*
X163025000Y-68253000D02*
G75*
G03X163025000Y-68253000I-34000J0D01*
G01*
D14*
G04 #@! TO.C,D3*
X170710000Y-76080000D02*
X170710000Y-76236000D01*
X170710000Y-73764000D02*
X170710000Y-73920000D01*
X173311130Y-76079837D02*
G75*
G02X171229039Y-76080000I-1041130J1079837D01*
G01*
X173311130Y-73920163D02*
G75*
G03X171229039Y-73920000I-1041130J-1079837D01*
G01*
X173942335Y-76078608D02*
G75*
G02X170710000Y-76235516I-1672335J1078608D01*
G01*
X173942335Y-73921392D02*
G75*
G03X170710000Y-73764484I-1672335J-1078608D01*
G01*
G04 #@! TO.C,Y1*
X208700000Y-71450000D02*
X196100000Y-71450000D01*
X208700000Y-76550000D02*
X208700000Y-71450000D01*
X196100000Y-76550000D02*
X208700000Y-76550000D01*
G04 #@! TO.C,U1*
X163670000Y-54920000D02*
X163670000Y-60380000D01*
X214590000Y-54920000D02*
X163670000Y-54920000D01*
X214590000Y-67840000D02*
X214590000Y-54920000D01*
X163670000Y-67840000D02*
X214590000Y-67840000D01*
X163670000Y-62380000D02*
X163670000Y-67840000D01*
X163670000Y-60380000D02*
G75*
G02X163670000Y-62380000I0J-1000000D01*
G01*
G04 #@! TO.C,D4*
X179942335Y-73921392D02*
G75*
G03X176710000Y-73764484I-1672335J-1078608D01*
G01*
X179942335Y-76078608D02*
G75*
G02X176710000Y-76235516I-1672335J1078608D01*
G01*
X179311130Y-73920163D02*
G75*
G03X177229039Y-73920000I-1041130J-1079837D01*
G01*
X179311130Y-76079837D02*
G75*
G02X177229039Y-76080000I-1041130J1079837D01*
G01*
X176710000Y-73764000D02*
X176710000Y-73920000D01*
X176710000Y-76080000D02*
X176710000Y-76236000D01*
G04 #@! TO.C,R5*
X178286252Y-78290000D02*
X177763748Y-78290000D01*
X178286252Y-79710000D02*
X177763748Y-79710000D01*
G04 #@! TO.C,R4*
X172261252Y-79710000D02*
X171738748Y-79710000D01*
X172261252Y-78290000D02*
X171738748Y-78290000D01*
G04 #@! TO.C,R3*
X166286252Y-79710000D02*
X165763748Y-79710000D01*
X166286252Y-78290000D02*
X165763748Y-78290000D01*
G04 #@! TO.C,C6*
X161810000Y-54250000D02*
X161310000Y-54250000D01*
X161560000Y-54000000D02*
X161560000Y-54500000D01*
X158804437Y-54740000D02*
X157740000Y-55804437D01*
X161195563Y-54740000D02*
X162260000Y-55804437D01*
X161195563Y-54740000D02*
X161060000Y-54740000D01*
X158804437Y-54740000D02*
X158940000Y-54740000D01*
X157740000Y-55804437D02*
X157740000Y-59260000D01*
X162260000Y-55804437D02*
X162260000Y-59260000D01*
X162260000Y-59260000D02*
X161060000Y-59260000D01*
X157740000Y-59260000D02*
X158940000Y-59260000D01*
G04 #@! TO.C,R2*
X160236252Y-78290000D02*
X159713748Y-78290000D01*
X160236252Y-79710000D02*
X159713748Y-79710000D01*
G04 #@! TO.C,D1*
X158710000Y-76080000D02*
X158710000Y-76236000D01*
X158710000Y-73764000D02*
X158710000Y-73920000D01*
X161311130Y-76079837D02*
G75*
G02X159229039Y-76080000I-1041130J1079837D01*
G01*
X161311130Y-73920163D02*
G75*
G03X159229039Y-73920000I-1041130J-1079837D01*
G01*
X161942335Y-76078608D02*
G75*
G02X158710000Y-76235516I-1672335J1078608D01*
G01*
X161942335Y-73921392D02*
G75*
G03X158710000Y-73764484I-1672335J-1078608D01*
G01*
G04 #@! TO.C,D2*
X167942335Y-73921392D02*
G75*
G03X164710000Y-73764484I-1672335J-1078608D01*
G01*
X167942335Y-76078608D02*
G75*
G02X164710000Y-76235516I-1672335J1078608D01*
G01*
X167311130Y-73920163D02*
G75*
G03X165229039Y-73920000I-1041130J-1079837D01*
G01*
X167311130Y-76079837D02*
G75*
G02X165229039Y-76080000I-1041130J1079837D01*
G01*
X164710000Y-73764000D02*
X164710000Y-73920000D01*
X164710000Y-76080000D02*
X164710000Y-76236000D01*
G04 #@! TO.C,J3*
X210670000Y-71670000D02*
X212000000Y-71670000D01*
X210670000Y-73000000D02*
X210670000Y-71670000D01*
X213270000Y-71670000D02*
X215870000Y-71670000D01*
X213270000Y-74270000D02*
X213270000Y-71670000D01*
X210670000Y-74270000D02*
X213270000Y-74270000D01*
X215870000Y-71670000D02*
X215870000Y-79410000D01*
X210670000Y-74270000D02*
X210670000Y-79410000D01*
X210670000Y-79410000D02*
X215870000Y-79410000D01*
G04 #@! TO.C,C3*
X191186252Y-71690000D02*
X190663748Y-71690000D01*
X191186252Y-73110000D02*
X190663748Y-73110000D01*
G04 #@! TO.C,C2*
X197510000Y-78953733D02*
X197510000Y-79296267D01*
X196490000Y-78953733D02*
X196490000Y-79296267D01*
G04 #@! TO.C,C1*
X206490000Y-78953733D02*
X206490000Y-79296267D01*
X207510000Y-78953733D02*
X207510000Y-79296267D01*
D13*
G04 #@! TO.C,J1*
X163025000Y-103253000D02*
G75*
G03X163025000Y-103253000I-34000J0D01*
G01*
D12*
X157000000Y-105750000D02*
X157875000Y-105750000D01*
X157000000Y-98250000D02*
X157875000Y-98250000D01*
X157000000Y-98250000D02*
X157000000Y-105750000D01*
D14*
G04 #@! TO.C,C1*
X207510000Y-113953733D02*
X207510000Y-114296267D01*
X206490000Y-113953733D02*
X206490000Y-114296267D01*
G04 #@! TO.C,C2*
X196490000Y-113953733D02*
X196490000Y-114296267D01*
X197510000Y-113953733D02*
X197510000Y-114296267D01*
G04 #@! TO.C,C3*
X191186252Y-108110000D02*
X190663748Y-108110000D01*
X191186252Y-106690000D02*
X190663748Y-106690000D01*
G04 #@! TO.C,C6*
X157740000Y-94260000D02*
X158940000Y-94260000D01*
X162260000Y-94260000D02*
X161060000Y-94260000D01*
X162260000Y-90804437D02*
X162260000Y-94260000D01*
X157740000Y-90804437D02*
X157740000Y-94260000D01*
X158804437Y-89740000D02*
X158940000Y-89740000D01*
X161195563Y-89740000D02*
X161060000Y-89740000D01*
X161195563Y-89740000D02*
X162260000Y-90804437D01*
X158804437Y-89740000D02*
X157740000Y-90804437D01*
X161560000Y-89000000D02*
X161560000Y-89500000D01*
X161810000Y-89250000D02*
X161310000Y-89250000D01*
G04 #@! TO.C,D1*
X161942335Y-108921392D02*
G75*
G03X158710000Y-108764484I-1672335J-1078608D01*
G01*
X161942335Y-111078608D02*
G75*
G02X158710000Y-111235516I-1672335J1078608D01*
G01*
X161311130Y-108920163D02*
G75*
G03X159229039Y-108920000I-1041130J-1079837D01*
G01*
X161311130Y-111079837D02*
G75*
G02X159229039Y-111080000I-1041130J1079837D01*
G01*
X158710000Y-108764000D02*
X158710000Y-108920000D01*
X158710000Y-111080000D02*
X158710000Y-111236000D01*
G04 #@! TO.C,D2*
X164710000Y-111080000D02*
X164710000Y-111236000D01*
X164710000Y-108764000D02*
X164710000Y-108920000D01*
X167311130Y-111079837D02*
G75*
G02X165229039Y-111080000I-1041130J1079837D01*
G01*
X167311130Y-108920163D02*
G75*
G03X165229039Y-108920000I-1041130J-1079837D01*
G01*
X167942335Y-111078608D02*
G75*
G02X164710000Y-111235516I-1672335J1078608D01*
G01*
X167942335Y-108921392D02*
G75*
G03X164710000Y-108764484I-1672335J-1078608D01*
G01*
G04 #@! TO.C,D3*
X173942335Y-108921392D02*
G75*
G03X170710000Y-108764484I-1672335J-1078608D01*
G01*
X173942335Y-111078608D02*
G75*
G02X170710000Y-111235516I-1672335J1078608D01*
G01*
X173311130Y-108920163D02*
G75*
G03X171229039Y-108920000I-1041130J-1079837D01*
G01*
X173311130Y-111079837D02*
G75*
G02X171229039Y-111080000I-1041130J1079837D01*
G01*
X170710000Y-108764000D02*
X170710000Y-108920000D01*
X170710000Y-111080000D02*
X170710000Y-111236000D01*
G04 #@! TO.C,D4*
X176710000Y-111080000D02*
X176710000Y-111236000D01*
X176710000Y-108764000D02*
X176710000Y-108920000D01*
X179311130Y-111079837D02*
G75*
G02X177229039Y-111080000I-1041130J1079837D01*
G01*
X179311130Y-108920163D02*
G75*
G03X177229039Y-108920000I-1041130J-1079837D01*
G01*
X179942335Y-111078608D02*
G75*
G02X176710000Y-111235516I-1672335J1078608D01*
G01*
X179942335Y-108921392D02*
G75*
G03X176710000Y-108764484I-1672335J-1078608D01*
G01*
G04 #@! TO.C,R2*
X160236252Y-114710000D02*
X159713748Y-114710000D01*
X160236252Y-113290000D02*
X159713748Y-113290000D01*
G04 #@! TO.C,R3*
X166286252Y-113290000D02*
X165763748Y-113290000D01*
X166286252Y-114710000D02*
X165763748Y-114710000D01*
G04 #@! TO.C,R4*
X172261252Y-113290000D02*
X171738748Y-113290000D01*
X172261252Y-114710000D02*
X171738748Y-114710000D01*
G04 #@! TO.C,R5*
X178286252Y-114710000D02*
X177763748Y-114710000D01*
X178286252Y-113290000D02*
X177763748Y-113290000D01*
G04 #@! TO.C,U1*
X163670000Y-95380000D02*
G75*
G02X163670000Y-97380000I0J-1000000D01*
G01*
X163670000Y-97380000D02*
X163670000Y-102840000D01*
X163670000Y-102840000D02*
X214590000Y-102840000D01*
X214590000Y-102840000D02*
X214590000Y-89920000D01*
X214590000Y-89920000D02*
X163670000Y-89920000D01*
X163670000Y-89920000D02*
X163670000Y-95380000D01*
G04 #@! TO.C,Y1*
X196100000Y-111550000D02*
X208700000Y-111550000D01*
X208700000Y-111550000D02*
X208700000Y-106450000D01*
X208700000Y-106450000D02*
X196100000Y-106450000D01*
G04 #@! TO.C,J3*
X210670000Y-114410000D02*
X215870000Y-114410000D01*
X210670000Y-109270000D02*
X210670000Y-114410000D01*
X215870000Y-106670000D02*
X215870000Y-114410000D01*
X210670000Y-109270000D02*
X213270000Y-109270000D01*
X213270000Y-109270000D02*
X213270000Y-106670000D01*
X213270000Y-106670000D02*
X215870000Y-106670000D01*
X210670000Y-108000000D02*
X210670000Y-106670000D01*
X210670000Y-106670000D02*
X212000000Y-106670000D01*
D11*
G04 #@! TO.C,G\002A\002A\002A*
G36*
X184460000Y-99540000D02*
X183190000Y-99540000D01*
X183190000Y-100810000D01*
X180650000Y-100810000D01*
X180650000Y-99492962D01*
X183142963Y-99492962D01*
X183142963Y-98317037D01*
X180650000Y-98317037D01*
X180650000Y-95777037D01*
X181967038Y-95777037D01*
X181967038Y-97000000D01*
X183142963Y-97000000D01*
X183142963Y-95777037D01*
X181967038Y-95777037D01*
X180650000Y-95777037D01*
X180650000Y-95730000D01*
X181920000Y-95730000D01*
X181920000Y-94460000D01*
X184460000Y-94460000D01*
X184460000Y-99540000D01*
X184460000Y-99540000D01*
G37*
X184460000Y-99540000D02*
X183190000Y-99540000D01*
X183190000Y-100810000D01*
X180650000Y-100810000D01*
X180650000Y-99492962D01*
X183142963Y-99492962D01*
X183142963Y-98317037D01*
X180650000Y-98317037D01*
X180650000Y-95777037D01*
X181967038Y-95777037D01*
X181967038Y-97000000D01*
X183142963Y-97000000D01*
X183142963Y-95777037D01*
X181967038Y-95777037D01*
X180650000Y-95777037D01*
X180650000Y-95730000D01*
X181920000Y-95730000D01*
X181920000Y-94460000D01*
X184460000Y-94460000D01*
X184460000Y-99540000D01*
G36*
X166774075Y-94460000D02*
X169267038Y-94460000D01*
X169267038Y-98317037D01*
X165457038Y-98317037D01*
X165457038Y-95777037D01*
X166774075Y-95777037D01*
X166774075Y-97000000D01*
X167950000Y-97000000D01*
X167950000Y-95777037D01*
X166774075Y-95777037D01*
X165457038Y-95777037D01*
X165457038Y-93190000D01*
X166774075Y-93190000D01*
X166774075Y-94460000D01*
X166774075Y-94460000D01*
G37*
X166774075Y-94460000D02*
X169267038Y-94460000D01*
X169267038Y-98317037D01*
X165457038Y-98317037D01*
X165457038Y-95777037D01*
X166774075Y-95777037D01*
X166774075Y-97000000D01*
X167950000Y-97000000D01*
X167950000Y-95777037D01*
X166774075Y-95777037D01*
X165457038Y-95777037D01*
X165457038Y-93190000D01*
X166774075Y-93190000D01*
X166774075Y-94460000D01*
G36*
X174347038Y-98317037D02*
X170490000Y-98317037D01*
X170490000Y-95777037D01*
X171807038Y-95777037D01*
X171807038Y-97000000D01*
X173030000Y-97000000D01*
X173030000Y-95777037D01*
X171807038Y-95777037D01*
X170490000Y-95777037D01*
X170490000Y-94460000D01*
X174347038Y-94460000D01*
X174347038Y-98317037D01*
X174347038Y-98317037D01*
G37*
X174347038Y-98317037D02*
X170490000Y-98317037D01*
X170490000Y-95777037D01*
X171807038Y-95777037D01*
X171807038Y-97000000D01*
X173030000Y-97000000D01*
X173030000Y-95777037D01*
X171807038Y-95777037D01*
X170490000Y-95777037D01*
X170490000Y-94460000D01*
X174347038Y-94460000D01*
X174347038Y-98317037D01*
G36*
X178157038Y-95730000D02*
X179427038Y-95730000D01*
X179427038Y-98317037D01*
X178110000Y-98317037D01*
X178110000Y-95777037D01*
X176887038Y-95777037D01*
X176887038Y-98317037D01*
X175570000Y-98317037D01*
X175570000Y-94460000D01*
X178157038Y-94460000D01*
X178157038Y-95730000D01*
X178157038Y-95730000D01*
G37*
X178157038Y-95730000D02*
X179427038Y-95730000D01*
X179427038Y-98317037D01*
X178110000Y-98317037D01*
X178110000Y-95777037D01*
X176887038Y-95777037D01*
X176887038Y-98317037D01*
X175570000Y-98317037D01*
X175570000Y-94460000D01*
X178157038Y-94460000D01*
X178157038Y-95730000D01*
G36*
X189540000Y-98317037D02*
X185682963Y-98317037D01*
X185682963Y-95777037D01*
X187000000Y-95777037D01*
X187000000Y-97000000D01*
X188222963Y-97000000D01*
X188222963Y-95777037D01*
X187000000Y-95777037D01*
X185682963Y-95777037D01*
X185682963Y-94460000D01*
X189540000Y-94460000D01*
X189540000Y-98317037D01*
X189540000Y-98317037D01*
G37*
X189540000Y-98317037D02*
X185682963Y-98317037D01*
X185682963Y-95777037D01*
X187000000Y-95777037D01*
X187000000Y-97000000D01*
X188222963Y-97000000D01*
X188222963Y-95777037D01*
X187000000Y-95777037D01*
X185682963Y-95777037D01*
X185682963Y-94460000D01*
X189540000Y-94460000D01*
X189540000Y-98317037D01*
G36*
X194620000Y-95777037D02*
X192080000Y-95777037D01*
X192080000Y-98317037D01*
X190762963Y-98317037D01*
X190762963Y-94460000D01*
X194620000Y-94460000D01*
X194620000Y-95777037D01*
X194620000Y-95777037D01*
G37*
X194620000Y-95777037D02*
X192080000Y-95777037D01*
X192080000Y-98317037D01*
X190762963Y-98317037D01*
X190762963Y-94460000D01*
X194620000Y-94460000D01*
X194620000Y-95777037D01*
G36*
X197160000Y-98317037D02*
X195842963Y-98317037D01*
X195842963Y-95730000D01*
X197160000Y-95730000D01*
X197160000Y-98317037D01*
X197160000Y-98317037D01*
G37*
X197160000Y-98317037D02*
X195842963Y-98317037D01*
X195842963Y-95730000D01*
X197160000Y-95730000D01*
X197160000Y-98317037D01*
G36*
X202192963Y-97000000D02*
X203462963Y-97000000D01*
X203462963Y-98317037D01*
X202145926Y-98317037D01*
X202145926Y-97047037D01*
X200922963Y-97047037D01*
X200922963Y-98317037D01*
X198335926Y-98317037D01*
X198335926Y-95777037D01*
X199652963Y-95777037D01*
X199652963Y-97000000D01*
X200875926Y-97000000D01*
X200875926Y-95777037D01*
X199652963Y-95777037D01*
X198335926Y-95777037D01*
X198335926Y-95730000D01*
X199605926Y-95730000D01*
X199605926Y-94460000D01*
X202192963Y-94460000D01*
X202192963Y-97000000D01*
X202192963Y-97000000D01*
G37*
X202192963Y-97000000D02*
X203462963Y-97000000D01*
X203462963Y-98317037D01*
X202145926Y-98317037D01*
X202145926Y-97047037D01*
X200922963Y-97047037D01*
X200922963Y-98317037D01*
X198335926Y-98317037D01*
X198335926Y-95777037D01*
X199652963Y-95777037D01*
X199652963Y-97000000D01*
X200875926Y-97000000D01*
X200875926Y-95777037D01*
X199652963Y-95777037D01*
X198335926Y-95777037D01*
X198335926Y-95730000D01*
X199605926Y-95730000D01*
X199605926Y-94460000D01*
X202192963Y-94460000D01*
X202192963Y-97000000D01*
G36*
X207272963Y-95730000D02*
X208542963Y-95730000D01*
X208542963Y-98317037D01*
X207225926Y-98317037D01*
X207225926Y-95777037D01*
X206002963Y-95777037D01*
X206002963Y-98317037D01*
X204685926Y-98317037D01*
X204685926Y-94460000D01*
X207272963Y-94460000D01*
X207272963Y-95730000D01*
X207272963Y-95730000D01*
G37*
X207272963Y-95730000D02*
X208542963Y-95730000D01*
X208542963Y-98317037D01*
X207225926Y-98317037D01*
X207225926Y-95777037D01*
X206002963Y-95777037D01*
X206002963Y-98317037D01*
X204685926Y-98317037D01*
X204685926Y-94460000D01*
X207272963Y-94460000D01*
X207272963Y-95730000D01*
G36*
X197160000Y-94507037D02*
X195842963Y-94507037D01*
X195842963Y-93190000D01*
X197160000Y-93190000D01*
X197160000Y-94507037D01*
X197160000Y-94507037D01*
G37*
X197160000Y-94507037D02*
X195842963Y-94507037D01*
X195842963Y-93190000D01*
X197160000Y-93190000D01*
X197160000Y-94507037D01*
G04 #@! TD*
M02*
