G04 #@! TF.GenerationSoftware,KiCad,Pcbnew,(5.0.0)*
G04 #@! TF.CreationDate,2018-11-06T18:12:07+09:00*
G04 #@! TF.ProjectId,gb_cart_flash,67625F636172745F666C6173682E6B69,rev?*
G04 #@! TF.SameCoordinates,Original*
G04 #@! TF.FileFunction,Legend,Bot*
G04 #@! TF.FilePolarity,Positive*
%FSLAX46Y46*%
G04 Gerber Fmt 4.6, Leading zero omitted, Abs format (unit mm)*
G04 Created by KiCad (PCBNEW (5.0.0)) date 11/06/18 18:12:07*
%MOMM*%
%LPD*%
G01*
G04 APERTURE LIST*
%ADD10C,0.120000*%
%ADD11C,0.150000*%
G04 APERTURE END LIST*
D10*
G04 #@! TO.C,F1*
X243360000Y-108397936D02*
X243360000Y-109602064D01*
X240640000Y-108397936D02*
X240640000Y-109602064D01*
G04 #@! TO.C,R1*
X235290000Y-89236252D02*
X235290000Y-88713748D01*
X236710000Y-89236252D02*
X236710000Y-88713748D01*
D11*
G04 #@! TO.C,U2*
X243125000Y-90750000D02*
X241525000Y-90750000D01*
X243125000Y-80675000D02*
X248875000Y-80675000D01*
X243125000Y-91325000D02*
X248875000Y-91325000D01*
X243125000Y-80675000D02*
X243125000Y-81325000D01*
X248875000Y-80675000D02*
X248875000Y-81325000D01*
X248875000Y-91325000D02*
X248875000Y-90675000D01*
X243125000Y-91325000D02*
X243125000Y-90750000D01*
D10*
G04 #@! TO.C,C5*
X241290000Y-104236252D02*
X241290000Y-103713748D01*
X242710000Y-104236252D02*
X242710000Y-103713748D01*
G04 #@! TO.C,C4*
X241290000Y-98713748D02*
X241290000Y-99236252D01*
X242710000Y-98713748D02*
X242710000Y-99236252D01*
G04 #@! TO.C,F1*
X165602064Y-38360000D02*
X164397936Y-38360000D01*
X165602064Y-35640000D02*
X164397936Y-35640000D01*
G04 #@! TO.C,R1*
X184763748Y-30290000D02*
X185286252Y-30290000D01*
X184763748Y-31710000D02*
X185286252Y-31710000D01*
D11*
G04 #@! TO.C,U2*
X183250000Y-38125000D02*
X183250000Y-36525000D01*
X193325000Y-38125000D02*
X193325000Y-43875000D01*
X182675000Y-38125000D02*
X182675000Y-43875000D01*
X193325000Y-38125000D02*
X192675000Y-38125000D01*
X193325000Y-43875000D02*
X192675000Y-43875000D01*
X182675000Y-43875000D02*
X183325000Y-43875000D01*
X182675000Y-38125000D02*
X183250000Y-38125000D01*
D10*
G04 #@! TO.C,C5*
X169763748Y-36290000D02*
X170286252Y-36290000D01*
X169763748Y-37710000D02*
X170286252Y-37710000D01*
G04 #@! TO.C,C4*
X175286252Y-36290000D02*
X174763748Y-36290000D01*
X175286252Y-37710000D02*
X174763748Y-37710000D01*
G04 #@! TO.C,F1*
X165602064Y-73360000D02*
X164397936Y-73360000D01*
X165602064Y-70640000D02*
X164397936Y-70640000D01*
G04 #@! TO.C,R1*
X184763748Y-65290000D02*
X185286252Y-65290000D01*
X184763748Y-66710000D02*
X185286252Y-66710000D01*
D11*
G04 #@! TO.C,U2*
X183250000Y-73125000D02*
X183250000Y-71525000D01*
X193325000Y-73125000D02*
X193325000Y-78875000D01*
X182675000Y-73125000D02*
X182675000Y-78875000D01*
X193325000Y-73125000D02*
X192675000Y-73125000D01*
X193325000Y-78875000D02*
X192675000Y-78875000D01*
X182675000Y-78875000D02*
X183325000Y-78875000D01*
X182675000Y-73125000D02*
X183250000Y-73125000D01*
D10*
G04 #@! TO.C,C5*
X169763748Y-71290000D02*
X170286252Y-71290000D01*
X169763748Y-72710000D02*
X170286252Y-72710000D01*
G04 #@! TO.C,C4*
X175286252Y-71290000D02*
X174763748Y-71290000D01*
X175286252Y-72710000D02*
X174763748Y-72710000D01*
X175286252Y-107710000D02*
X174763748Y-107710000D01*
X175286252Y-106290000D02*
X174763748Y-106290000D01*
G04 #@! TO.C,C5*
X169763748Y-107710000D02*
X170286252Y-107710000D01*
X169763748Y-106290000D02*
X170286252Y-106290000D01*
G04 #@! TO.C,F1*
X165602064Y-105640000D02*
X164397936Y-105640000D01*
X165602064Y-108360000D02*
X164397936Y-108360000D01*
G04 #@! TO.C,R1*
X184763748Y-101710000D02*
X185286252Y-101710000D01*
X184763748Y-100290000D02*
X185286252Y-100290000D01*
D11*
G04 #@! TO.C,U2*
X182675000Y-108125000D02*
X183250000Y-108125000D01*
X182675000Y-113875000D02*
X183325000Y-113875000D01*
X193325000Y-113875000D02*
X192675000Y-113875000D01*
X193325000Y-108125000D02*
X192675000Y-108125000D01*
X182675000Y-108125000D02*
X182675000Y-113875000D01*
X193325000Y-108125000D02*
X193325000Y-113875000D01*
X183250000Y-108125000D02*
X183250000Y-106525000D01*
G04 #@! TD*
M02*
