G04 #@! TF.GenerationSoftware,KiCad,Pcbnew,(5.0.0)*
G04 #@! TF.CreationDate,2018-11-07T00:59:44+09:00*
G04 #@! TF.ProjectId,gb_cart_flash,67625F636172745F666C6173682E6B69,rev?*
G04 #@! TF.SameCoordinates,Original*
G04 #@! TF.FileFunction,Paste,Bot*
G04 #@! TF.FilePolarity,Positive*
%FSLAX46Y46*%
G04 Gerber Fmt 4.6, Leading zero omitted, Abs format (unit mm)*
G04 Created by KiCad (PCBNEW (5.0.0)) date 11/07/18 00:59:44*
%MOMM*%
%LPD*%
G01*
G04 APERTURE LIST*
%ADD10C,0.100000*%
%ADD11C,1.425000*%
%ADD12C,1.150000*%
%ADD13R,1.750000X0.450000*%
%ADD14R,0.450000X1.750000*%
G04 APERTURE END LIST*
D10*
G04 #@! TO.C,F1*
G36*
X243099504Y-109776204D02*
X243123773Y-109779804D01*
X243147571Y-109785765D01*
X243170671Y-109794030D01*
X243192849Y-109804520D01*
X243213893Y-109817133D01*
X243233598Y-109831747D01*
X243251777Y-109848223D01*
X243268253Y-109866402D01*
X243282867Y-109886107D01*
X243295480Y-109907151D01*
X243305970Y-109929329D01*
X243314235Y-109952429D01*
X243320196Y-109976227D01*
X243323796Y-110000496D01*
X243325000Y-110025000D01*
X243325000Y-110950000D01*
X243323796Y-110974504D01*
X243320196Y-110998773D01*
X243314235Y-111022571D01*
X243305970Y-111045671D01*
X243295480Y-111067849D01*
X243282867Y-111088893D01*
X243268253Y-111108598D01*
X243251777Y-111126777D01*
X243233598Y-111143253D01*
X243213893Y-111157867D01*
X243192849Y-111170480D01*
X243170671Y-111180970D01*
X243147571Y-111189235D01*
X243123773Y-111195196D01*
X243099504Y-111198796D01*
X243075000Y-111200000D01*
X240925000Y-111200000D01*
X240900496Y-111198796D01*
X240876227Y-111195196D01*
X240852429Y-111189235D01*
X240829329Y-111180970D01*
X240807151Y-111170480D01*
X240786107Y-111157867D01*
X240766402Y-111143253D01*
X240748223Y-111126777D01*
X240731747Y-111108598D01*
X240717133Y-111088893D01*
X240704520Y-111067849D01*
X240694030Y-111045671D01*
X240685765Y-111022571D01*
X240679804Y-110998773D01*
X240676204Y-110974504D01*
X240675000Y-110950000D01*
X240675000Y-110025000D01*
X240676204Y-110000496D01*
X240679804Y-109976227D01*
X240685765Y-109952429D01*
X240694030Y-109929329D01*
X240704520Y-109907151D01*
X240717133Y-109886107D01*
X240731747Y-109866402D01*
X240748223Y-109848223D01*
X240766402Y-109831747D01*
X240786107Y-109817133D01*
X240807151Y-109804520D01*
X240829329Y-109794030D01*
X240852429Y-109785765D01*
X240876227Y-109779804D01*
X240900496Y-109776204D01*
X240925000Y-109775000D01*
X243075000Y-109775000D01*
X243099504Y-109776204D01*
X243099504Y-109776204D01*
G37*
D11*
X242000000Y-110487500D03*
D10*
G36*
X243099504Y-106801204D02*
X243123773Y-106804804D01*
X243147571Y-106810765D01*
X243170671Y-106819030D01*
X243192849Y-106829520D01*
X243213893Y-106842133D01*
X243233598Y-106856747D01*
X243251777Y-106873223D01*
X243268253Y-106891402D01*
X243282867Y-106911107D01*
X243295480Y-106932151D01*
X243305970Y-106954329D01*
X243314235Y-106977429D01*
X243320196Y-107001227D01*
X243323796Y-107025496D01*
X243325000Y-107050000D01*
X243325000Y-107975000D01*
X243323796Y-107999504D01*
X243320196Y-108023773D01*
X243314235Y-108047571D01*
X243305970Y-108070671D01*
X243295480Y-108092849D01*
X243282867Y-108113893D01*
X243268253Y-108133598D01*
X243251777Y-108151777D01*
X243233598Y-108168253D01*
X243213893Y-108182867D01*
X243192849Y-108195480D01*
X243170671Y-108205970D01*
X243147571Y-108214235D01*
X243123773Y-108220196D01*
X243099504Y-108223796D01*
X243075000Y-108225000D01*
X240925000Y-108225000D01*
X240900496Y-108223796D01*
X240876227Y-108220196D01*
X240852429Y-108214235D01*
X240829329Y-108205970D01*
X240807151Y-108195480D01*
X240786107Y-108182867D01*
X240766402Y-108168253D01*
X240748223Y-108151777D01*
X240731747Y-108133598D01*
X240717133Y-108113893D01*
X240704520Y-108092849D01*
X240694030Y-108070671D01*
X240685765Y-108047571D01*
X240679804Y-108023773D01*
X240676204Y-107999504D01*
X240675000Y-107975000D01*
X240675000Y-107050000D01*
X240676204Y-107025496D01*
X240679804Y-107001227D01*
X240685765Y-106977429D01*
X240694030Y-106954329D01*
X240704520Y-106932151D01*
X240717133Y-106911107D01*
X240731747Y-106891402D01*
X240748223Y-106873223D01*
X240766402Y-106856747D01*
X240786107Y-106842133D01*
X240807151Y-106829520D01*
X240829329Y-106819030D01*
X240852429Y-106810765D01*
X240876227Y-106804804D01*
X240900496Y-106801204D01*
X240925000Y-106800000D01*
X243075000Y-106800000D01*
X243099504Y-106801204D01*
X243099504Y-106801204D01*
G37*
D11*
X242000000Y-107512500D03*
G04 #@! TD*
D10*
G04 #@! TO.C,R1*
G36*
X236474505Y-87376204D02*
X236498773Y-87379804D01*
X236522572Y-87385765D01*
X236545671Y-87394030D01*
X236567850Y-87404520D01*
X236588893Y-87417132D01*
X236608599Y-87431747D01*
X236626777Y-87448223D01*
X236643253Y-87466401D01*
X236657868Y-87486107D01*
X236670480Y-87507150D01*
X236680970Y-87529329D01*
X236689235Y-87552428D01*
X236695196Y-87576227D01*
X236698796Y-87600495D01*
X236700000Y-87624999D01*
X236700000Y-88275001D01*
X236698796Y-88299505D01*
X236695196Y-88323773D01*
X236689235Y-88347572D01*
X236680970Y-88370671D01*
X236670480Y-88392850D01*
X236657868Y-88413893D01*
X236643253Y-88433599D01*
X236626777Y-88451777D01*
X236608599Y-88468253D01*
X236588893Y-88482868D01*
X236567850Y-88495480D01*
X236545671Y-88505970D01*
X236522572Y-88514235D01*
X236498773Y-88520196D01*
X236474505Y-88523796D01*
X236450001Y-88525000D01*
X235549999Y-88525000D01*
X235525495Y-88523796D01*
X235501227Y-88520196D01*
X235477428Y-88514235D01*
X235454329Y-88505970D01*
X235432150Y-88495480D01*
X235411107Y-88482868D01*
X235391401Y-88468253D01*
X235373223Y-88451777D01*
X235356747Y-88433599D01*
X235342132Y-88413893D01*
X235329520Y-88392850D01*
X235319030Y-88370671D01*
X235310765Y-88347572D01*
X235304804Y-88323773D01*
X235301204Y-88299505D01*
X235300000Y-88275001D01*
X235300000Y-87624999D01*
X235301204Y-87600495D01*
X235304804Y-87576227D01*
X235310765Y-87552428D01*
X235319030Y-87529329D01*
X235329520Y-87507150D01*
X235342132Y-87486107D01*
X235356747Y-87466401D01*
X235373223Y-87448223D01*
X235391401Y-87431747D01*
X235411107Y-87417132D01*
X235432150Y-87404520D01*
X235454329Y-87394030D01*
X235477428Y-87385765D01*
X235501227Y-87379804D01*
X235525495Y-87376204D01*
X235549999Y-87375000D01*
X236450001Y-87375000D01*
X236474505Y-87376204D01*
X236474505Y-87376204D01*
G37*
D12*
X236000000Y-87950000D03*
D10*
G36*
X236474505Y-89426204D02*
X236498773Y-89429804D01*
X236522572Y-89435765D01*
X236545671Y-89444030D01*
X236567850Y-89454520D01*
X236588893Y-89467132D01*
X236608599Y-89481747D01*
X236626777Y-89498223D01*
X236643253Y-89516401D01*
X236657868Y-89536107D01*
X236670480Y-89557150D01*
X236680970Y-89579329D01*
X236689235Y-89602428D01*
X236695196Y-89626227D01*
X236698796Y-89650495D01*
X236700000Y-89674999D01*
X236700000Y-90325001D01*
X236698796Y-90349505D01*
X236695196Y-90373773D01*
X236689235Y-90397572D01*
X236680970Y-90420671D01*
X236670480Y-90442850D01*
X236657868Y-90463893D01*
X236643253Y-90483599D01*
X236626777Y-90501777D01*
X236608599Y-90518253D01*
X236588893Y-90532868D01*
X236567850Y-90545480D01*
X236545671Y-90555970D01*
X236522572Y-90564235D01*
X236498773Y-90570196D01*
X236474505Y-90573796D01*
X236450001Y-90575000D01*
X235549999Y-90575000D01*
X235525495Y-90573796D01*
X235501227Y-90570196D01*
X235477428Y-90564235D01*
X235454329Y-90555970D01*
X235432150Y-90545480D01*
X235411107Y-90532868D01*
X235391401Y-90518253D01*
X235373223Y-90501777D01*
X235356747Y-90483599D01*
X235342132Y-90463893D01*
X235329520Y-90442850D01*
X235319030Y-90420671D01*
X235310765Y-90397572D01*
X235304804Y-90373773D01*
X235301204Y-90349505D01*
X235300000Y-90325001D01*
X235300000Y-89674999D01*
X235301204Y-89650495D01*
X235304804Y-89626227D01*
X235310765Y-89602428D01*
X235319030Y-89579329D01*
X235329520Y-89557150D01*
X235342132Y-89536107D01*
X235356747Y-89516401D01*
X235373223Y-89498223D01*
X235391401Y-89481747D01*
X235411107Y-89467132D01*
X235432150Y-89454520D01*
X235454329Y-89444030D01*
X235477428Y-89435765D01*
X235501227Y-89429804D01*
X235525495Y-89426204D01*
X235549999Y-89425000D01*
X236450001Y-89425000D01*
X236474505Y-89426204D01*
X236474505Y-89426204D01*
G37*
D12*
X236000000Y-90000000D03*
G04 #@! TD*
D13*
G04 #@! TO.C,U2*
X249600000Y-90225000D03*
X249600000Y-89575000D03*
X249600000Y-88925000D03*
X249600000Y-88275000D03*
X249600000Y-87625000D03*
X249600000Y-86975000D03*
X249600000Y-86325000D03*
X249600000Y-85675000D03*
X249600000Y-85025000D03*
X249600000Y-84375000D03*
X249600000Y-83725000D03*
X249600000Y-83075000D03*
X249600000Y-82425000D03*
X249600000Y-81775000D03*
X242400000Y-81775000D03*
X242400000Y-82425000D03*
X242400000Y-83075000D03*
X242400000Y-83725000D03*
X242400000Y-84375000D03*
X242400000Y-85025000D03*
X242400000Y-85675000D03*
X242400000Y-86325000D03*
X242400000Y-86975000D03*
X242400000Y-87625000D03*
X242400000Y-88275000D03*
X242400000Y-88925000D03*
X242400000Y-89575000D03*
X242400000Y-90225000D03*
G04 #@! TD*
D10*
G04 #@! TO.C,C5*
G36*
X242474505Y-102376204D02*
X242498773Y-102379804D01*
X242522572Y-102385765D01*
X242545671Y-102394030D01*
X242567850Y-102404520D01*
X242588893Y-102417132D01*
X242608599Y-102431747D01*
X242626777Y-102448223D01*
X242643253Y-102466401D01*
X242657868Y-102486107D01*
X242670480Y-102507150D01*
X242680970Y-102529329D01*
X242689235Y-102552428D01*
X242695196Y-102576227D01*
X242698796Y-102600495D01*
X242700000Y-102624999D01*
X242700000Y-103275001D01*
X242698796Y-103299505D01*
X242695196Y-103323773D01*
X242689235Y-103347572D01*
X242680970Y-103370671D01*
X242670480Y-103392850D01*
X242657868Y-103413893D01*
X242643253Y-103433599D01*
X242626777Y-103451777D01*
X242608599Y-103468253D01*
X242588893Y-103482868D01*
X242567850Y-103495480D01*
X242545671Y-103505970D01*
X242522572Y-103514235D01*
X242498773Y-103520196D01*
X242474505Y-103523796D01*
X242450001Y-103525000D01*
X241549999Y-103525000D01*
X241525495Y-103523796D01*
X241501227Y-103520196D01*
X241477428Y-103514235D01*
X241454329Y-103505970D01*
X241432150Y-103495480D01*
X241411107Y-103482868D01*
X241391401Y-103468253D01*
X241373223Y-103451777D01*
X241356747Y-103433599D01*
X241342132Y-103413893D01*
X241329520Y-103392850D01*
X241319030Y-103370671D01*
X241310765Y-103347572D01*
X241304804Y-103323773D01*
X241301204Y-103299505D01*
X241300000Y-103275001D01*
X241300000Y-102624999D01*
X241301204Y-102600495D01*
X241304804Y-102576227D01*
X241310765Y-102552428D01*
X241319030Y-102529329D01*
X241329520Y-102507150D01*
X241342132Y-102486107D01*
X241356747Y-102466401D01*
X241373223Y-102448223D01*
X241391401Y-102431747D01*
X241411107Y-102417132D01*
X241432150Y-102404520D01*
X241454329Y-102394030D01*
X241477428Y-102385765D01*
X241501227Y-102379804D01*
X241525495Y-102376204D01*
X241549999Y-102375000D01*
X242450001Y-102375000D01*
X242474505Y-102376204D01*
X242474505Y-102376204D01*
G37*
D12*
X242000000Y-102950000D03*
D10*
G36*
X242474505Y-104426204D02*
X242498773Y-104429804D01*
X242522572Y-104435765D01*
X242545671Y-104444030D01*
X242567850Y-104454520D01*
X242588893Y-104467132D01*
X242608599Y-104481747D01*
X242626777Y-104498223D01*
X242643253Y-104516401D01*
X242657868Y-104536107D01*
X242670480Y-104557150D01*
X242680970Y-104579329D01*
X242689235Y-104602428D01*
X242695196Y-104626227D01*
X242698796Y-104650495D01*
X242700000Y-104674999D01*
X242700000Y-105325001D01*
X242698796Y-105349505D01*
X242695196Y-105373773D01*
X242689235Y-105397572D01*
X242680970Y-105420671D01*
X242670480Y-105442850D01*
X242657868Y-105463893D01*
X242643253Y-105483599D01*
X242626777Y-105501777D01*
X242608599Y-105518253D01*
X242588893Y-105532868D01*
X242567850Y-105545480D01*
X242545671Y-105555970D01*
X242522572Y-105564235D01*
X242498773Y-105570196D01*
X242474505Y-105573796D01*
X242450001Y-105575000D01*
X241549999Y-105575000D01*
X241525495Y-105573796D01*
X241501227Y-105570196D01*
X241477428Y-105564235D01*
X241454329Y-105555970D01*
X241432150Y-105545480D01*
X241411107Y-105532868D01*
X241391401Y-105518253D01*
X241373223Y-105501777D01*
X241356747Y-105483599D01*
X241342132Y-105463893D01*
X241329520Y-105442850D01*
X241319030Y-105420671D01*
X241310765Y-105397572D01*
X241304804Y-105373773D01*
X241301204Y-105349505D01*
X241300000Y-105325001D01*
X241300000Y-104674999D01*
X241301204Y-104650495D01*
X241304804Y-104626227D01*
X241310765Y-104602428D01*
X241319030Y-104579329D01*
X241329520Y-104557150D01*
X241342132Y-104536107D01*
X241356747Y-104516401D01*
X241373223Y-104498223D01*
X241391401Y-104481747D01*
X241411107Y-104467132D01*
X241432150Y-104454520D01*
X241454329Y-104444030D01*
X241477428Y-104435765D01*
X241501227Y-104429804D01*
X241525495Y-104426204D01*
X241549999Y-104425000D01*
X242450001Y-104425000D01*
X242474505Y-104426204D01*
X242474505Y-104426204D01*
G37*
D12*
X242000000Y-105000000D03*
G04 #@! TD*
D10*
G04 #@! TO.C,C4*
G36*
X242474505Y-97376204D02*
X242498773Y-97379804D01*
X242522572Y-97385765D01*
X242545671Y-97394030D01*
X242567850Y-97404520D01*
X242588893Y-97417132D01*
X242608599Y-97431747D01*
X242626777Y-97448223D01*
X242643253Y-97466401D01*
X242657868Y-97486107D01*
X242670480Y-97507150D01*
X242680970Y-97529329D01*
X242689235Y-97552428D01*
X242695196Y-97576227D01*
X242698796Y-97600495D01*
X242700000Y-97624999D01*
X242700000Y-98275001D01*
X242698796Y-98299505D01*
X242695196Y-98323773D01*
X242689235Y-98347572D01*
X242680970Y-98370671D01*
X242670480Y-98392850D01*
X242657868Y-98413893D01*
X242643253Y-98433599D01*
X242626777Y-98451777D01*
X242608599Y-98468253D01*
X242588893Y-98482868D01*
X242567850Y-98495480D01*
X242545671Y-98505970D01*
X242522572Y-98514235D01*
X242498773Y-98520196D01*
X242474505Y-98523796D01*
X242450001Y-98525000D01*
X241549999Y-98525000D01*
X241525495Y-98523796D01*
X241501227Y-98520196D01*
X241477428Y-98514235D01*
X241454329Y-98505970D01*
X241432150Y-98495480D01*
X241411107Y-98482868D01*
X241391401Y-98468253D01*
X241373223Y-98451777D01*
X241356747Y-98433599D01*
X241342132Y-98413893D01*
X241329520Y-98392850D01*
X241319030Y-98370671D01*
X241310765Y-98347572D01*
X241304804Y-98323773D01*
X241301204Y-98299505D01*
X241300000Y-98275001D01*
X241300000Y-97624999D01*
X241301204Y-97600495D01*
X241304804Y-97576227D01*
X241310765Y-97552428D01*
X241319030Y-97529329D01*
X241329520Y-97507150D01*
X241342132Y-97486107D01*
X241356747Y-97466401D01*
X241373223Y-97448223D01*
X241391401Y-97431747D01*
X241411107Y-97417132D01*
X241432150Y-97404520D01*
X241454329Y-97394030D01*
X241477428Y-97385765D01*
X241501227Y-97379804D01*
X241525495Y-97376204D01*
X241549999Y-97375000D01*
X242450001Y-97375000D01*
X242474505Y-97376204D01*
X242474505Y-97376204D01*
G37*
D12*
X242000000Y-97950000D03*
D10*
G36*
X242474505Y-99426204D02*
X242498773Y-99429804D01*
X242522572Y-99435765D01*
X242545671Y-99444030D01*
X242567850Y-99454520D01*
X242588893Y-99467132D01*
X242608599Y-99481747D01*
X242626777Y-99498223D01*
X242643253Y-99516401D01*
X242657868Y-99536107D01*
X242670480Y-99557150D01*
X242680970Y-99579329D01*
X242689235Y-99602428D01*
X242695196Y-99626227D01*
X242698796Y-99650495D01*
X242700000Y-99674999D01*
X242700000Y-100325001D01*
X242698796Y-100349505D01*
X242695196Y-100373773D01*
X242689235Y-100397572D01*
X242680970Y-100420671D01*
X242670480Y-100442850D01*
X242657868Y-100463893D01*
X242643253Y-100483599D01*
X242626777Y-100501777D01*
X242608599Y-100518253D01*
X242588893Y-100532868D01*
X242567850Y-100545480D01*
X242545671Y-100555970D01*
X242522572Y-100564235D01*
X242498773Y-100570196D01*
X242474505Y-100573796D01*
X242450001Y-100575000D01*
X241549999Y-100575000D01*
X241525495Y-100573796D01*
X241501227Y-100570196D01*
X241477428Y-100564235D01*
X241454329Y-100555970D01*
X241432150Y-100545480D01*
X241411107Y-100532868D01*
X241391401Y-100518253D01*
X241373223Y-100501777D01*
X241356747Y-100483599D01*
X241342132Y-100463893D01*
X241329520Y-100442850D01*
X241319030Y-100420671D01*
X241310765Y-100397572D01*
X241304804Y-100373773D01*
X241301204Y-100349505D01*
X241300000Y-100325001D01*
X241300000Y-99674999D01*
X241301204Y-99650495D01*
X241304804Y-99626227D01*
X241310765Y-99602428D01*
X241319030Y-99579329D01*
X241329520Y-99557150D01*
X241342132Y-99536107D01*
X241356747Y-99516401D01*
X241373223Y-99498223D01*
X241391401Y-99481747D01*
X241411107Y-99467132D01*
X241432150Y-99454520D01*
X241454329Y-99444030D01*
X241477428Y-99435765D01*
X241501227Y-99429804D01*
X241525495Y-99426204D01*
X241549999Y-99425000D01*
X242450001Y-99425000D01*
X242474505Y-99426204D01*
X242474505Y-99426204D01*
G37*
D12*
X242000000Y-100000000D03*
G04 #@! TD*
D10*
G04 #@! TO.C,F1*
G36*
X163999504Y-35676204D02*
X164023773Y-35679804D01*
X164047571Y-35685765D01*
X164070671Y-35694030D01*
X164092849Y-35704520D01*
X164113893Y-35717133D01*
X164133598Y-35731747D01*
X164151777Y-35748223D01*
X164168253Y-35766402D01*
X164182867Y-35786107D01*
X164195480Y-35807151D01*
X164205970Y-35829329D01*
X164214235Y-35852429D01*
X164220196Y-35876227D01*
X164223796Y-35900496D01*
X164225000Y-35925000D01*
X164225000Y-38075000D01*
X164223796Y-38099504D01*
X164220196Y-38123773D01*
X164214235Y-38147571D01*
X164205970Y-38170671D01*
X164195480Y-38192849D01*
X164182867Y-38213893D01*
X164168253Y-38233598D01*
X164151777Y-38251777D01*
X164133598Y-38268253D01*
X164113893Y-38282867D01*
X164092849Y-38295480D01*
X164070671Y-38305970D01*
X164047571Y-38314235D01*
X164023773Y-38320196D01*
X163999504Y-38323796D01*
X163975000Y-38325000D01*
X163050000Y-38325000D01*
X163025496Y-38323796D01*
X163001227Y-38320196D01*
X162977429Y-38314235D01*
X162954329Y-38305970D01*
X162932151Y-38295480D01*
X162911107Y-38282867D01*
X162891402Y-38268253D01*
X162873223Y-38251777D01*
X162856747Y-38233598D01*
X162842133Y-38213893D01*
X162829520Y-38192849D01*
X162819030Y-38170671D01*
X162810765Y-38147571D01*
X162804804Y-38123773D01*
X162801204Y-38099504D01*
X162800000Y-38075000D01*
X162800000Y-35925000D01*
X162801204Y-35900496D01*
X162804804Y-35876227D01*
X162810765Y-35852429D01*
X162819030Y-35829329D01*
X162829520Y-35807151D01*
X162842133Y-35786107D01*
X162856747Y-35766402D01*
X162873223Y-35748223D01*
X162891402Y-35731747D01*
X162911107Y-35717133D01*
X162932151Y-35704520D01*
X162954329Y-35694030D01*
X162977429Y-35685765D01*
X163001227Y-35679804D01*
X163025496Y-35676204D01*
X163050000Y-35675000D01*
X163975000Y-35675000D01*
X163999504Y-35676204D01*
X163999504Y-35676204D01*
G37*
D11*
X163512500Y-37000000D03*
D10*
G36*
X166974504Y-35676204D02*
X166998773Y-35679804D01*
X167022571Y-35685765D01*
X167045671Y-35694030D01*
X167067849Y-35704520D01*
X167088893Y-35717133D01*
X167108598Y-35731747D01*
X167126777Y-35748223D01*
X167143253Y-35766402D01*
X167157867Y-35786107D01*
X167170480Y-35807151D01*
X167180970Y-35829329D01*
X167189235Y-35852429D01*
X167195196Y-35876227D01*
X167198796Y-35900496D01*
X167200000Y-35925000D01*
X167200000Y-38075000D01*
X167198796Y-38099504D01*
X167195196Y-38123773D01*
X167189235Y-38147571D01*
X167180970Y-38170671D01*
X167170480Y-38192849D01*
X167157867Y-38213893D01*
X167143253Y-38233598D01*
X167126777Y-38251777D01*
X167108598Y-38268253D01*
X167088893Y-38282867D01*
X167067849Y-38295480D01*
X167045671Y-38305970D01*
X167022571Y-38314235D01*
X166998773Y-38320196D01*
X166974504Y-38323796D01*
X166950000Y-38325000D01*
X166025000Y-38325000D01*
X166000496Y-38323796D01*
X165976227Y-38320196D01*
X165952429Y-38314235D01*
X165929329Y-38305970D01*
X165907151Y-38295480D01*
X165886107Y-38282867D01*
X165866402Y-38268253D01*
X165848223Y-38251777D01*
X165831747Y-38233598D01*
X165817133Y-38213893D01*
X165804520Y-38192849D01*
X165794030Y-38170671D01*
X165785765Y-38147571D01*
X165779804Y-38123773D01*
X165776204Y-38099504D01*
X165775000Y-38075000D01*
X165775000Y-35925000D01*
X165776204Y-35900496D01*
X165779804Y-35876227D01*
X165785765Y-35852429D01*
X165794030Y-35829329D01*
X165804520Y-35807151D01*
X165817133Y-35786107D01*
X165831747Y-35766402D01*
X165848223Y-35748223D01*
X165866402Y-35731747D01*
X165886107Y-35717133D01*
X165907151Y-35704520D01*
X165929329Y-35694030D01*
X165952429Y-35685765D01*
X165976227Y-35679804D01*
X166000496Y-35676204D01*
X166025000Y-35675000D01*
X166950000Y-35675000D01*
X166974504Y-35676204D01*
X166974504Y-35676204D01*
G37*
D11*
X166487500Y-37000000D03*
G04 #@! TD*
D10*
G04 #@! TO.C,R1*
G36*
X186399505Y-30301204D02*
X186423773Y-30304804D01*
X186447572Y-30310765D01*
X186470671Y-30319030D01*
X186492850Y-30329520D01*
X186513893Y-30342132D01*
X186533599Y-30356747D01*
X186551777Y-30373223D01*
X186568253Y-30391401D01*
X186582868Y-30411107D01*
X186595480Y-30432150D01*
X186605970Y-30454329D01*
X186614235Y-30477428D01*
X186620196Y-30501227D01*
X186623796Y-30525495D01*
X186625000Y-30549999D01*
X186625000Y-31450001D01*
X186623796Y-31474505D01*
X186620196Y-31498773D01*
X186614235Y-31522572D01*
X186605970Y-31545671D01*
X186595480Y-31567850D01*
X186582868Y-31588893D01*
X186568253Y-31608599D01*
X186551777Y-31626777D01*
X186533599Y-31643253D01*
X186513893Y-31657868D01*
X186492850Y-31670480D01*
X186470671Y-31680970D01*
X186447572Y-31689235D01*
X186423773Y-31695196D01*
X186399505Y-31698796D01*
X186375001Y-31700000D01*
X185724999Y-31700000D01*
X185700495Y-31698796D01*
X185676227Y-31695196D01*
X185652428Y-31689235D01*
X185629329Y-31680970D01*
X185607150Y-31670480D01*
X185586107Y-31657868D01*
X185566401Y-31643253D01*
X185548223Y-31626777D01*
X185531747Y-31608599D01*
X185517132Y-31588893D01*
X185504520Y-31567850D01*
X185494030Y-31545671D01*
X185485765Y-31522572D01*
X185479804Y-31498773D01*
X185476204Y-31474505D01*
X185475000Y-31450001D01*
X185475000Y-30549999D01*
X185476204Y-30525495D01*
X185479804Y-30501227D01*
X185485765Y-30477428D01*
X185494030Y-30454329D01*
X185504520Y-30432150D01*
X185517132Y-30411107D01*
X185531747Y-30391401D01*
X185548223Y-30373223D01*
X185566401Y-30356747D01*
X185586107Y-30342132D01*
X185607150Y-30329520D01*
X185629329Y-30319030D01*
X185652428Y-30310765D01*
X185676227Y-30304804D01*
X185700495Y-30301204D01*
X185724999Y-30300000D01*
X186375001Y-30300000D01*
X186399505Y-30301204D01*
X186399505Y-30301204D01*
G37*
D12*
X186050000Y-31000000D03*
D10*
G36*
X184349505Y-30301204D02*
X184373773Y-30304804D01*
X184397572Y-30310765D01*
X184420671Y-30319030D01*
X184442850Y-30329520D01*
X184463893Y-30342132D01*
X184483599Y-30356747D01*
X184501777Y-30373223D01*
X184518253Y-30391401D01*
X184532868Y-30411107D01*
X184545480Y-30432150D01*
X184555970Y-30454329D01*
X184564235Y-30477428D01*
X184570196Y-30501227D01*
X184573796Y-30525495D01*
X184575000Y-30549999D01*
X184575000Y-31450001D01*
X184573796Y-31474505D01*
X184570196Y-31498773D01*
X184564235Y-31522572D01*
X184555970Y-31545671D01*
X184545480Y-31567850D01*
X184532868Y-31588893D01*
X184518253Y-31608599D01*
X184501777Y-31626777D01*
X184483599Y-31643253D01*
X184463893Y-31657868D01*
X184442850Y-31670480D01*
X184420671Y-31680970D01*
X184397572Y-31689235D01*
X184373773Y-31695196D01*
X184349505Y-31698796D01*
X184325001Y-31700000D01*
X183674999Y-31700000D01*
X183650495Y-31698796D01*
X183626227Y-31695196D01*
X183602428Y-31689235D01*
X183579329Y-31680970D01*
X183557150Y-31670480D01*
X183536107Y-31657868D01*
X183516401Y-31643253D01*
X183498223Y-31626777D01*
X183481747Y-31608599D01*
X183467132Y-31588893D01*
X183454520Y-31567850D01*
X183444030Y-31545671D01*
X183435765Y-31522572D01*
X183429804Y-31498773D01*
X183426204Y-31474505D01*
X183425000Y-31450001D01*
X183425000Y-30549999D01*
X183426204Y-30525495D01*
X183429804Y-30501227D01*
X183435765Y-30477428D01*
X183444030Y-30454329D01*
X183454520Y-30432150D01*
X183467132Y-30411107D01*
X183481747Y-30391401D01*
X183498223Y-30373223D01*
X183516401Y-30356747D01*
X183536107Y-30342132D01*
X183557150Y-30329520D01*
X183579329Y-30319030D01*
X183602428Y-30310765D01*
X183626227Y-30304804D01*
X183650495Y-30301204D01*
X183674999Y-30300000D01*
X184325001Y-30300000D01*
X184349505Y-30301204D01*
X184349505Y-30301204D01*
G37*
D12*
X184000000Y-31000000D03*
G04 #@! TD*
D14*
G04 #@! TO.C,U2*
X183775000Y-44600000D03*
X184425000Y-44600000D03*
X185075000Y-44600000D03*
X185725000Y-44600000D03*
X186375000Y-44600000D03*
X187025000Y-44600000D03*
X187675000Y-44600000D03*
X188325000Y-44600000D03*
X188975000Y-44600000D03*
X189625000Y-44600000D03*
X190275000Y-44600000D03*
X190925000Y-44600000D03*
X191575000Y-44600000D03*
X192225000Y-44600000D03*
X192225000Y-37400000D03*
X191575000Y-37400000D03*
X190925000Y-37400000D03*
X190275000Y-37400000D03*
X189625000Y-37400000D03*
X188975000Y-37400000D03*
X188325000Y-37400000D03*
X187675000Y-37400000D03*
X187025000Y-37400000D03*
X186375000Y-37400000D03*
X185725000Y-37400000D03*
X185075000Y-37400000D03*
X184425000Y-37400000D03*
X183775000Y-37400000D03*
G04 #@! TD*
D10*
G04 #@! TO.C,C5*
G36*
X171399505Y-36301204D02*
X171423773Y-36304804D01*
X171447572Y-36310765D01*
X171470671Y-36319030D01*
X171492850Y-36329520D01*
X171513893Y-36342132D01*
X171533599Y-36356747D01*
X171551777Y-36373223D01*
X171568253Y-36391401D01*
X171582868Y-36411107D01*
X171595480Y-36432150D01*
X171605970Y-36454329D01*
X171614235Y-36477428D01*
X171620196Y-36501227D01*
X171623796Y-36525495D01*
X171625000Y-36549999D01*
X171625000Y-37450001D01*
X171623796Y-37474505D01*
X171620196Y-37498773D01*
X171614235Y-37522572D01*
X171605970Y-37545671D01*
X171595480Y-37567850D01*
X171582868Y-37588893D01*
X171568253Y-37608599D01*
X171551777Y-37626777D01*
X171533599Y-37643253D01*
X171513893Y-37657868D01*
X171492850Y-37670480D01*
X171470671Y-37680970D01*
X171447572Y-37689235D01*
X171423773Y-37695196D01*
X171399505Y-37698796D01*
X171375001Y-37700000D01*
X170724999Y-37700000D01*
X170700495Y-37698796D01*
X170676227Y-37695196D01*
X170652428Y-37689235D01*
X170629329Y-37680970D01*
X170607150Y-37670480D01*
X170586107Y-37657868D01*
X170566401Y-37643253D01*
X170548223Y-37626777D01*
X170531747Y-37608599D01*
X170517132Y-37588893D01*
X170504520Y-37567850D01*
X170494030Y-37545671D01*
X170485765Y-37522572D01*
X170479804Y-37498773D01*
X170476204Y-37474505D01*
X170475000Y-37450001D01*
X170475000Y-36549999D01*
X170476204Y-36525495D01*
X170479804Y-36501227D01*
X170485765Y-36477428D01*
X170494030Y-36454329D01*
X170504520Y-36432150D01*
X170517132Y-36411107D01*
X170531747Y-36391401D01*
X170548223Y-36373223D01*
X170566401Y-36356747D01*
X170586107Y-36342132D01*
X170607150Y-36329520D01*
X170629329Y-36319030D01*
X170652428Y-36310765D01*
X170676227Y-36304804D01*
X170700495Y-36301204D01*
X170724999Y-36300000D01*
X171375001Y-36300000D01*
X171399505Y-36301204D01*
X171399505Y-36301204D01*
G37*
D12*
X171050000Y-37000000D03*
D10*
G36*
X169349505Y-36301204D02*
X169373773Y-36304804D01*
X169397572Y-36310765D01*
X169420671Y-36319030D01*
X169442850Y-36329520D01*
X169463893Y-36342132D01*
X169483599Y-36356747D01*
X169501777Y-36373223D01*
X169518253Y-36391401D01*
X169532868Y-36411107D01*
X169545480Y-36432150D01*
X169555970Y-36454329D01*
X169564235Y-36477428D01*
X169570196Y-36501227D01*
X169573796Y-36525495D01*
X169575000Y-36549999D01*
X169575000Y-37450001D01*
X169573796Y-37474505D01*
X169570196Y-37498773D01*
X169564235Y-37522572D01*
X169555970Y-37545671D01*
X169545480Y-37567850D01*
X169532868Y-37588893D01*
X169518253Y-37608599D01*
X169501777Y-37626777D01*
X169483599Y-37643253D01*
X169463893Y-37657868D01*
X169442850Y-37670480D01*
X169420671Y-37680970D01*
X169397572Y-37689235D01*
X169373773Y-37695196D01*
X169349505Y-37698796D01*
X169325001Y-37700000D01*
X168674999Y-37700000D01*
X168650495Y-37698796D01*
X168626227Y-37695196D01*
X168602428Y-37689235D01*
X168579329Y-37680970D01*
X168557150Y-37670480D01*
X168536107Y-37657868D01*
X168516401Y-37643253D01*
X168498223Y-37626777D01*
X168481747Y-37608599D01*
X168467132Y-37588893D01*
X168454520Y-37567850D01*
X168444030Y-37545671D01*
X168435765Y-37522572D01*
X168429804Y-37498773D01*
X168426204Y-37474505D01*
X168425000Y-37450001D01*
X168425000Y-36549999D01*
X168426204Y-36525495D01*
X168429804Y-36501227D01*
X168435765Y-36477428D01*
X168444030Y-36454329D01*
X168454520Y-36432150D01*
X168467132Y-36411107D01*
X168481747Y-36391401D01*
X168498223Y-36373223D01*
X168516401Y-36356747D01*
X168536107Y-36342132D01*
X168557150Y-36329520D01*
X168579329Y-36319030D01*
X168602428Y-36310765D01*
X168626227Y-36304804D01*
X168650495Y-36301204D01*
X168674999Y-36300000D01*
X169325001Y-36300000D01*
X169349505Y-36301204D01*
X169349505Y-36301204D01*
G37*
D12*
X169000000Y-37000000D03*
G04 #@! TD*
D10*
G04 #@! TO.C,C4*
G36*
X176399505Y-36301204D02*
X176423773Y-36304804D01*
X176447572Y-36310765D01*
X176470671Y-36319030D01*
X176492850Y-36329520D01*
X176513893Y-36342132D01*
X176533599Y-36356747D01*
X176551777Y-36373223D01*
X176568253Y-36391401D01*
X176582868Y-36411107D01*
X176595480Y-36432150D01*
X176605970Y-36454329D01*
X176614235Y-36477428D01*
X176620196Y-36501227D01*
X176623796Y-36525495D01*
X176625000Y-36549999D01*
X176625000Y-37450001D01*
X176623796Y-37474505D01*
X176620196Y-37498773D01*
X176614235Y-37522572D01*
X176605970Y-37545671D01*
X176595480Y-37567850D01*
X176582868Y-37588893D01*
X176568253Y-37608599D01*
X176551777Y-37626777D01*
X176533599Y-37643253D01*
X176513893Y-37657868D01*
X176492850Y-37670480D01*
X176470671Y-37680970D01*
X176447572Y-37689235D01*
X176423773Y-37695196D01*
X176399505Y-37698796D01*
X176375001Y-37700000D01*
X175724999Y-37700000D01*
X175700495Y-37698796D01*
X175676227Y-37695196D01*
X175652428Y-37689235D01*
X175629329Y-37680970D01*
X175607150Y-37670480D01*
X175586107Y-37657868D01*
X175566401Y-37643253D01*
X175548223Y-37626777D01*
X175531747Y-37608599D01*
X175517132Y-37588893D01*
X175504520Y-37567850D01*
X175494030Y-37545671D01*
X175485765Y-37522572D01*
X175479804Y-37498773D01*
X175476204Y-37474505D01*
X175475000Y-37450001D01*
X175475000Y-36549999D01*
X175476204Y-36525495D01*
X175479804Y-36501227D01*
X175485765Y-36477428D01*
X175494030Y-36454329D01*
X175504520Y-36432150D01*
X175517132Y-36411107D01*
X175531747Y-36391401D01*
X175548223Y-36373223D01*
X175566401Y-36356747D01*
X175586107Y-36342132D01*
X175607150Y-36329520D01*
X175629329Y-36319030D01*
X175652428Y-36310765D01*
X175676227Y-36304804D01*
X175700495Y-36301204D01*
X175724999Y-36300000D01*
X176375001Y-36300000D01*
X176399505Y-36301204D01*
X176399505Y-36301204D01*
G37*
D12*
X176050000Y-37000000D03*
D10*
G36*
X174349505Y-36301204D02*
X174373773Y-36304804D01*
X174397572Y-36310765D01*
X174420671Y-36319030D01*
X174442850Y-36329520D01*
X174463893Y-36342132D01*
X174483599Y-36356747D01*
X174501777Y-36373223D01*
X174518253Y-36391401D01*
X174532868Y-36411107D01*
X174545480Y-36432150D01*
X174555970Y-36454329D01*
X174564235Y-36477428D01*
X174570196Y-36501227D01*
X174573796Y-36525495D01*
X174575000Y-36549999D01*
X174575000Y-37450001D01*
X174573796Y-37474505D01*
X174570196Y-37498773D01*
X174564235Y-37522572D01*
X174555970Y-37545671D01*
X174545480Y-37567850D01*
X174532868Y-37588893D01*
X174518253Y-37608599D01*
X174501777Y-37626777D01*
X174483599Y-37643253D01*
X174463893Y-37657868D01*
X174442850Y-37670480D01*
X174420671Y-37680970D01*
X174397572Y-37689235D01*
X174373773Y-37695196D01*
X174349505Y-37698796D01*
X174325001Y-37700000D01*
X173674999Y-37700000D01*
X173650495Y-37698796D01*
X173626227Y-37695196D01*
X173602428Y-37689235D01*
X173579329Y-37680970D01*
X173557150Y-37670480D01*
X173536107Y-37657868D01*
X173516401Y-37643253D01*
X173498223Y-37626777D01*
X173481747Y-37608599D01*
X173467132Y-37588893D01*
X173454520Y-37567850D01*
X173444030Y-37545671D01*
X173435765Y-37522572D01*
X173429804Y-37498773D01*
X173426204Y-37474505D01*
X173425000Y-37450001D01*
X173425000Y-36549999D01*
X173426204Y-36525495D01*
X173429804Y-36501227D01*
X173435765Y-36477428D01*
X173444030Y-36454329D01*
X173454520Y-36432150D01*
X173467132Y-36411107D01*
X173481747Y-36391401D01*
X173498223Y-36373223D01*
X173516401Y-36356747D01*
X173536107Y-36342132D01*
X173557150Y-36329520D01*
X173579329Y-36319030D01*
X173602428Y-36310765D01*
X173626227Y-36304804D01*
X173650495Y-36301204D01*
X173674999Y-36300000D01*
X174325001Y-36300000D01*
X174349505Y-36301204D01*
X174349505Y-36301204D01*
G37*
D12*
X174000000Y-37000000D03*
G04 #@! TD*
D10*
G04 #@! TO.C,F1*
G36*
X163999504Y-70676204D02*
X164023773Y-70679804D01*
X164047571Y-70685765D01*
X164070671Y-70694030D01*
X164092849Y-70704520D01*
X164113893Y-70717133D01*
X164133598Y-70731747D01*
X164151777Y-70748223D01*
X164168253Y-70766402D01*
X164182867Y-70786107D01*
X164195480Y-70807151D01*
X164205970Y-70829329D01*
X164214235Y-70852429D01*
X164220196Y-70876227D01*
X164223796Y-70900496D01*
X164225000Y-70925000D01*
X164225000Y-73075000D01*
X164223796Y-73099504D01*
X164220196Y-73123773D01*
X164214235Y-73147571D01*
X164205970Y-73170671D01*
X164195480Y-73192849D01*
X164182867Y-73213893D01*
X164168253Y-73233598D01*
X164151777Y-73251777D01*
X164133598Y-73268253D01*
X164113893Y-73282867D01*
X164092849Y-73295480D01*
X164070671Y-73305970D01*
X164047571Y-73314235D01*
X164023773Y-73320196D01*
X163999504Y-73323796D01*
X163975000Y-73325000D01*
X163050000Y-73325000D01*
X163025496Y-73323796D01*
X163001227Y-73320196D01*
X162977429Y-73314235D01*
X162954329Y-73305970D01*
X162932151Y-73295480D01*
X162911107Y-73282867D01*
X162891402Y-73268253D01*
X162873223Y-73251777D01*
X162856747Y-73233598D01*
X162842133Y-73213893D01*
X162829520Y-73192849D01*
X162819030Y-73170671D01*
X162810765Y-73147571D01*
X162804804Y-73123773D01*
X162801204Y-73099504D01*
X162800000Y-73075000D01*
X162800000Y-70925000D01*
X162801204Y-70900496D01*
X162804804Y-70876227D01*
X162810765Y-70852429D01*
X162819030Y-70829329D01*
X162829520Y-70807151D01*
X162842133Y-70786107D01*
X162856747Y-70766402D01*
X162873223Y-70748223D01*
X162891402Y-70731747D01*
X162911107Y-70717133D01*
X162932151Y-70704520D01*
X162954329Y-70694030D01*
X162977429Y-70685765D01*
X163001227Y-70679804D01*
X163025496Y-70676204D01*
X163050000Y-70675000D01*
X163975000Y-70675000D01*
X163999504Y-70676204D01*
X163999504Y-70676204D01*
G37*
D11*
X163512500Y-72000000D03*
D10*
G36*
X166974504Y-70676204D02*
X166998773Y-70679804D01*
X167022571Y-70685765D01*
X167045671Y-70694030D01*
X167067849Y-70704520D01*
X167088893Y-70717133D01*
X167108598Y-70731747D01*
X167126777Y-70748223D01*
X167143253Y-70766402D01*
X167157867Y-70786107D01*
X167170480Y-70807151D01*
X167180970Y-70829329D01*
X167189235Y-70852429D01*
X167195196Y-70876227D01*
X167198796Y-70900496D01*
X167200000Y-70925000D01*
X167200000Y-73075000D01*
X167198796Y-73099504D01*
X167195196Y-73123773D01*
X167189235Y-73147571D01*
X167180970Y-73170671D01*
X167170480Y-73192849D01*
X167157867Y-73213893D01*
X167143253Y-73233598D01*
X167126777Y-73251777D01*
X167108598Y-73268253D01*
X167088893Y-73282867D01*
X167067849Y-73295480D01*
X167045671Y-73305970D01*
X167022571Y-73314235D01*
X166998773Y-73320196D01*
X166974504Y-73323796D01*
X166950000Y-73325000D01*
X166025000Y-73325000D01*
X166000496Y-73323796D01*
X165976227Y-73320196D01*
X165952429Y-73314235D01*
X165929329Y-73305970D01*
X165907151Y-73295480D01*
X165886107Y-73282867D01*
X165866402Y-73268253D01*
X165848223Y-73251777D01*
X165831747Y-73233598D01*
X165817133Y-73213893D01*
X165804520Y-73192849D01*
X165794030Y-73170671D01*
X165785765Y-73147571D01*
X165779804Y-73123773D01*
X165776204Y-73099504D01*
X165775000Y-73075000D01*
X165775000Y-70925000D01*
X165776204Y-70900496D01*
X165779804Y-70876227D01*
X165785765Y-70852429D01*
X165794030Y-70829329D01*
X165804520Y-70807151D01*
X165817133Y-70786107D01*
X165831747Y-70766402D01*
X165848223Y-70748223D01*
X165866402Y-70731747D01*
X165886107Y-70717133D01*
X165907151Y-70704520D01*
X165929329Y-70694030D01*
X165952429Y-70685765D01*
X165976227Y-70679804D01*
X166000496Y-70676204D01*
X166025000Y-70675000D01*
X166950000Y-70675000D01*
X166974504Y-70676204D01*
X166974504Y-70676204D01*
G37*
D11*
X166487500Y-72000000D03*
G04 #@! TD*
D10*
G04 #@! TO.C,R1*
G36*
X186399505Y-65301204D02*
X186423773Y-65304804D01*
X186447572Y-65310765D01*
X186470671Y-65319030D01*
X186492850Y-65329520D01*
X186513893Y-65342132D01*
X186533599Y-65356747D01*
X186551777Y-65373223D01*
X186568253Y-65391401D01*
X186582868Y-65411107D01*
X186595480Y-65432150D01*
X186605970Y-65454329D01*
X186614235Y-65477428D01*
X186620196Y-65501227D01*
X186623796Y-65525495D01*
X186625000Y-65549999D01*
X186625000Y-66450001D01*
X186623796Y-66474505D01*
X186620196Y-66498773D01*
X186614235Y-66522572D01*
X186605970Y-66545671D01*
X186595480Y-66567850D01*
X186582868Y-66588893D01*
X186568253Y-66608599D01*
X186551777Y-66626777D01*
X186533599Y-66643253D01*
X186513893Y-66657868D01*
X186492850Y-66670480D01*
X186470671Y-66680970D01*
X186447572Y-66689235D01*
X186423773Y-66695196D01*
X186399505Y-66698796D01*
X186375001Y-66700000D01*
X185724999Y-66700000D01*
X185700495Y-66698796D01*
X185676227Y-66695196D01*
X185652428Y-66689235D01*
X185629329Y-66680970D01*
X185607150Y-66670480D01*
X185586107Y-66657868D01*
X185566401Y-66643253D01*
X185548223Y-66626777D01*
X185531747Y-66608599D01*
X185517132Y-66588893D01*
X185504520Y-66567850D01*
X185494030Y-66545671D01*
X185485765Y-66522572D01*
X185479804Y-66498773D01*
X185476204Y-66474505D01*
X185475000Y-66450001D01*
X185475000Y-65549999D01*
X185476204Y-65525495D01*
X185479804Y-65501227D01*
X185485765Y-65477428D01*
X185494030Y-65454329D01*
X185504520Y-65432150D01*
X185517132Y-65411107D01*
X185531747Y-65391401D01*
X185548223Y-65373223D01*
X185566401Y-65356747D01*
X185586107Y-65342132D01*
X185607150Y-65329520D01*
X185629329Y-65319030D01*
X185652428Y-65310765D01*
X185676227Y-65304804D01*
X185700495Y-65301204D01*
X185724999Y-65300000D01*
X186375001Y-65300000D01*
X186399505Y-65301204D01*
X186399505Y-65301204D01*
G37*
D12*
X186050000Y-66000000D03*
D10*
G36*
X184349505Y-65301204D02*
X184373773Y-65304804D01*
X184397572Y-65310765D01*
X184420671Y-65319030D01*
X184442850Y-65329520D01*
X184463893Y-65342132D01*
X184483599Y-65356747D01*
X184501777Y-65373223D01*
X184518253Y-65391401D01*
X184532868Y-65411107D01*
X184545480Y-65432150D01*
X184555970Y-65454329D01*
X184564235Y-65477428D01*
X184570196Y-65501227D01*
X184573796Y-65525495D01*
X184575000Y-65549999D01*
X184575000Y-66450001D01*
X184573796Y-66474505D01*
X184570196Y-66498773D01*
X184564235Y-66522572D01*
X184555970Y-66545671D01*
X184545480Y-66567850D01*
X184532868Y-66588893D01*
X184518253Y-66608599D01*
X184501777Y-66626777D01*
X184483599Y-66643253D01*
X184463893Y-66657868D01*
X184442850Y-66670480D01*
X184420671Y-66680970D01*
X184397572Y-66689235D01*
X184373773Y-66695196D01*
X184349505Y-66698796D01*
X184325001Y-66700000D01*
X183674999Y-66700000D01*
X183650495Y-66698796D01*
X183626227Y-66695196D01*
X183602428Y-66689235D01*
X183579329Y-66680970D01*
X183557150Y-66670480D01*
X183536107Y-66657868D01*
X183516401Y-66643253D01*
X183498223Y-66626777D01*
X183481747Y-66608599D01*
X183467132Y-66588893D01*
X183454520Y-66567850D01*
X183444030Y-66545671D01*
X183435765Y-66522572D01*
X183429804Y-66498773D01*
X183426204Y-66474505D01*
X183425000Y-66450001D01*
X183425000Y-65549999D01*
X183426204Y-65525495D01*
X183429804Y-65501227D01*
X183435765Y-65477428D01*
X183444030Y-65454329D01*
X183454520Y-65432150D01*
X183467132Y-65411107D01*
X183481747Y-65391401D01*
X183498223Y-65373223D01*
X183516401Y-65356747D01*
X183536107Y-65342132D01*
X183557150Y-65329520D01*
X183579329Y-65319030D01*
X183602428Y-65310765D01*
X183626227Y-65304804D01*
X183650495Y-65301204D01*
X183674999Y-65300000D01*
X184325001Y-65300000D01*
X184349505Y-65301204D01*
X184349505Y-65301204D01*
G37*
D12*
X184000000Y-66000000D03*
G04 #@! TD*
D14*
G04 #@! TO.C,U2*
X183775000Y-79600000D03*
X184425000Y-79600000D03*
X185075000Y-79600000D03*
X185725000Y-79600000D03*
X186375000Y-79600000D03*
X187025000Y-79600000D03*
X187675000Y-79600000D03*
X188325000Y-79600000D03*
X188975000Y-79600000D03*
X189625000Y-79600000D03*
X190275000Y-79600000D03*
X190925000Y-79600000D03*
X191575000Y-79600000D03*
X192225000Y-79600000D03*
X192225000Y-72400000D03*
X191575000Y-72400000D03*
X190925000Y-72400000D03*
X190275000Y-72400000D03*
X189625000Y-72400000D03*
X188975000Y-72400000D03*
X188325000Y-72400000D03*
X187675000Y-72400000D03*
X187025000Y-72400000D03*
X186375000Y-72400000D03*
X185725000Y-72400000D03*
X185075000Y-72400000D03*
X184425000Y-72400000D03*
X183775000Y-72400000D03*
G04 #@! TD*
D10*
G04 #@! TO.C,C5*
G36*
X171399505Y-71301204D02*
X171423773Y-71304804D01*
X171447572Y-71310765D01*
X171470671Y-71319030D01*
X171492850Y-71329520D01*
X171513893Y-71342132D01*
X171533599Y-71356747D01*
X171551777Y-71373223D01*
X171568253Y-71391401D01*
X171582868Y-71411107D01*
X171595480Y-71432150D01*
X171605970Y-71454329D01*
X171614235Y-71477428D01*
X171620196Y-71501227D01*
X171623796Y-71525495D01*
X171625000Y-71549999D01*
X171625000Y-72450001D01*
X171623796Y-72474505D01*
X171620196Y-72498773D01*
X171614235Y-72522572D01*
X171605970Y-72545671D01*
X171595480Y-72567850D01*
X171582868Y-72588893D01*
X171568253Y-72608599D01*
X171551777Y-72626777D01*
X171533599Y-72643253D01*
X171513893Y-72657868D01*
X171492850Y-72670480D01*
X171470671Y-72680970D01*
X171447572Y-72689235D01*
X171423773Y-72695196D01*
X171399505Y-72698796D01*
X171375001Y-72700000D01*
X170724999Y-72700000D01*
X170700495Y-72698796D01*
X170676227Y-72695196D01*
X170652428Y-72689235D01*
X170629329Y-72680970D01*
X170607150Y-72670480D01*
X170586107Y-72657868D01*
X170566401Y-72643253D01*
X170548223Y-72626777D01*
X170531747Y-72608599D01*
X170517132Y-72588893D01*
X170504520Y-72567850D01*
X170494030Y-72545671D01*
X170485765Y-72522572D01*
X170479804Y-72498773D01*
X170476204Y-72474505D01*
X170475000Y-72450001D01*
X170475000Y-71549999D01*
X170476204Y-71525495D01*
X170479804Y-71501227D01*
X170485765Y-71477428D01*
X170494030Y-71454329D01*
X170504520Y-71432150D01*
X170517132Y-71411107D01*
X170531747Y-71391401D01*
X170548223Y-71373223D01*
X170566401Y-71356747D01*
X170586107Y-71342132D01*
X170607150Y-71329520D01*
X170629329Y-71319030D01*
X170652428Y-71310765D01*
X170676227Y-71304804D01*
X170700495Y-71301204D01*
X170724999Y-71300000D01*
X171375001Y-71300000D01*
X171399505Y-71301204D01*
X171399505Y-71301204D01*
G37*
D12*
X171050000Y-72000000D03*
D10*
G36*
X169349505Y-71301204D02*
X169373773Y-71304804D01*
X169397572Y-71310765D01*
X169420671Y-71319030D01*
X169442850Y-71329520D01*
X169463893Y-71342132D01*
X169483599Y-71356747D01*
X169501777Y-71373223D01*
X169518253Y-71391401D01*
X169532868Y-71411107D01*
X169545480Y-71432150D01*
X169555970Y-71454329D01*
X169564235Y-71477428D01*
X169570196Y-71501227D01*
X169573796Y-71525495D01*
X169575000Y-71549999D01*
X169575000Y-72450001D01*
X169573796Y-72474505D01*
X169570196Y-72498773D01*
X169564235Y-72522572D01*
X169555970Y-72545671D01*
X169545480Y-72567850D01*
X169532868Y-72588893D01*
X169518253Y-72608599D01*
X169501777Y-72626777D01*
X169483599Y-72643253D01*
X169463893Y-72657868D01*
X169442850Y-72670480D01*
X169420671Y-72680970D01*
X169397572Y-72689235D01*
X169373773Y-72695196D01*
X169349505Y-72698796D01*
X169325001Y-72700000D01*
X168674999Y-72700000D01*
X168650495Y-72698796D01*
X168626227Y-72695196D01*
X168602428Y-72689235D01*
X168579329Y-72680970D01*
X168557150Y-72670480D01*
X168536107Y-72657868D01*
X168516401Y-72643253D01*
X168498223Y-72626777D01*
X168481747Y-72608599D01*
X168467132Y-72588893D01*
X168454520Y-72567850D01*
X168444030Y-72545671D01*
X168435765Y-72522572D01*
X168429804Y-72498773D01*
X168426204Y-72474505D01*
X168425000Y-72450001D01*
X168425000Y-71549999D01*
X168426204Y-71525495D01*
X168429804Y-71501227D01*
X168435765Y-71477428D01*
X168444030Y-71454329D01*
X168454520Y-71432150D01*
X168467132Y-71411107D01*
X168481747Y-71391401D01*
X168498223Y-71373223D01*
X168516401Y-71356747D01*
X168536107Y-71342132D01*
X168557150Y-71329520D01*
X168579329Y-71319030D01*
X168602428Y-71310765D01*
X168626227Y-71304804D01*
X168650495Y-71301204D01*
X168674999Y-71300000D01*
X169325001Y-71300000D01*
X169349505Y-71301204D01*
X169349505Y-71301204D01*
G37*
D12*
X169000000Y-72000000D03*
G04 #@! TD*
D10*
G04 #@! TO.C,C4*
G36*
X176399505Y-71301204D02*
X176423773Y-71304804D01*
X176447572Y-71310765D01*
X176470671Y-71319030D01*
X176492850Y-71329520D01*
X176513893Y-71342132D01*
X176533599Y-71356747D01*
X176551777Y-71373223D01*
X176568253Y-71391401D01*
X176582868Y-71411107D01*
X176595480Y-71432150D01*
X176605970Y-71454329D01*
X176614235Y-71477428D01*
X176620196Y-71501227D01*
X176623796Y-71525495D01*
X176625000Y-71549999D01*
X176625000Y-72450001D01*
X176623796Y-72474505D01*
X176620196Y-72498773D01*
X176614235Y-72522572D01*
X176605970Y-72545671D01*
X176595480Y-72567850D01*
X176582868Y-72588893D01*
X176568253Y-72608599D01*
X176551777Y-72626777D01*
X176533599Y-72643253D01*
X176513893Y-72657868D01*
X176492850Y-72670480D01*
X176470671Y-72680970D01*
X176447572Y-72689235D01*
X176423773Y-72695196D01*
X176399505Y-72698796D01*
X176375001Y-72700000D01*
X175724999Y-72700000D01*
X175700495Y-72698796D01*
X175676227Y-72695196D01*
X175652428Y-72689235D01*
X175629329Y-72680970D01*
X175607150Y-72670480D01*
X175586107Y-72657868D01*
X175566401Y-72643253D01*
X175548223Y-72626777D01*
X175531747Y-72608599D01*
X175517132Y-72588893D01*
X175504520Y-72567850D01*
X175494030Y-72545671D01*
X175485765Y-72522572D01*
X175479804Y-72498773D01*
X175476204Y-72474505D01*
X175475000Y-72450001D01*
X175475000Y-71549999D01*
X175476204Y-71525495D01*
X175479804Y-71501227D01*
X175485765Y-71477428D01*
X175494030Y-71454329D01*
X175504520Y-71432150D01*
X175517132Y-71411107D01*
X175531747Y-71391401D01*
X175548223Y-71373223D01*
X175566401Y-71356747D01*
X175586107Y-71342132D01*
X175607150Y-71329520D01*
X175629329Y-71319030D01*
X175652428Y-71310765D01*
X175676227Y-71304804D01*
X175700495Y-71301204D01*
X175724999Y-71300000D01*
X176375001Y-71300000D01*
X176399505Y-71301204D01*
X176399505Y-71301204D01*
G37*
D12*
X176050000Y-72000000D03*
D10*
G36*
X174349505Y-71301204D02*
X174373773Y-71304804D01*
X174397572Y-71310765D01*
X174420671Y-71319030D01*
X174442850Y-71329520D01*
X174463893Y-71342132D01*
X174483599Y-71356747D01*
X174501777Y-71373223D01*
X174518253Y-71391401D01*
X174532868Y-71411107D01*
X174545480Y-71432150D01*
X174555970Y-71454329D01*
X174564235Y-71477428D01*
X174570196Y-71501227D01*
X174573796Y-71525495D01*
X174575000Y-71549999D01*
X174575000Y-72450001D01*
X174573796Y-72474505D01*
X174570196Y-72498773D01*
X174564235Y-72522572D01*
X174555970Y-72545671D01*
X174545480Y-72567850D01*
X174532868Y-72588893D01*
X174518253Y-72608599D01*
X174501777Y-72626777D01*
X174483599Y-72643253D01*
X174463893Y-72657868D01*
X174442850Y-72670480D01*
X174420671Y-72680970D01*
X174397572Y-72689235D01*
X174373773Y-72695196D01*
X174349505Y-72698796D01*
X174325001Y-72700000D01*
X173674999Y-72700000D01*
X173650495Y-72698796D01*
X173626227Y-72695196D01*
X173602428Y-72689235D01*
X173579329Y-72680970D01*
X173557150Y-72670480D01*
X173536107Y-72657868D01*
X173516401Y-72643253D01*
X173498223Y-72626777D01*
X173481747Y-72608599D01*
X173467132Y-72588893D01*
X173454520Y-72567850D01*
X173444030Y-72545671D01*
X173435765Y-72522572D01*
X173429804Y-72498773D01*
X173426204Y-72474505D01*
X173425000Y-72450001D01*
X173425000Y-71549999D01*
X173426204Y-71525495D01*
X173429804Y-71501227D01*
X173435765Y-71477428D01*
X173444030Y-71454329D01*
X173454520Y-71432150D01*
X173467132Y-71411107D01*
X173481747Y-71391401D01*
X173498223Y-71373223D01*
X173516401Y-71356747D01*
X173536107Y-71342132D01*
X173557150Y-71329520D01*
X173579329Y-71319030D01*
X173602428Y-71310765D01*
X173626227Y-71304804D01*
X173650495Y-71301204D01*
X173674999Y-71300000D01*
X174325001Y-71300000D01*
X174349505Y-71301204D01*
X174349505Y-71301204D01*
G37*
D12*
X174000000Y-72000000D03*
G04 #@! TD*
D10*
G04 #@! TO.C,C4*
G36*
X174349505Y-106301204D02*
X174373773Y-106304804D01*
X174397572Y-106310765D01*
X174420671Y-106319030D01*
X174442850Y-106329520D01*
X174463893Y-106342132D01*
X174483599Y-106356747D01*
X174501777Y-106373223D01*
X174518253Y-106391401D01*
X174532868Y-106411107D01*
X174545480Y-106432150D01*
X174555970Y-106454329D01*
X174564235Y-106477428D01*
X174570196Y-106501227D01*
X174573796Y-106525495D01*
X174575000Y-106549999D01*
X174575000Y-107450001D01*
X174573796Y-107474505D01*
X174570196Y-107498773D01*
X174564235Y-107522572D01*
X174555970Y-107545671D01*
X174545480Y-107567850D01*
X174532868Y-107588893D01*
X174518253Y-107608599D01*
X174501777Y-107626777D01*
X174483599Y-107643253D01*
X174463893Y-107657868D01*
X174442850Y-107670480D01*
X174420671Y-107680970D01*
X174397572Y-107689235D01*
X174373773Y-107695196D01*
X174349505Y-107698796D01*
X174325001Y-107700000D01*
X173674999Y-107700000D01*
X173650495Y-107698796D01*
X173626227Y-107695196D01*
X173602428Y-107689235D01*
X173579329Y-107680970D01*
X173557150Y-107670480D01*
X173536107Y-107657868D01*
X173516401Y-107643253D01*
X173498223Y-107626777D01*
X173481747Y-107608599D01*
X173467132Y-107588893D01*
X173454520Y-107567850D01*
X173444030Y-107545671D01*
X173435765Y-107522572D01*
X173429804Y-107498773D01*
X173426204Y-107474505D01*
X173425000Y-107450001D01*
X173425000Y-106549999D01*
X173426204Y-106525495D01*
X173429804Y-106501227D01*
X173435765Y-106477428D01*
X173444030Y-106454329D01*
X173454520Y-106432150D01*
X173467132Y-106411107D01*
X173481747Y-106391401D01*
X173498223Y-106373223D01*
X173516401Y-106356747D01*
X173536107Y-106342132D01*
X173557150Y-106329520D01*
X173579329Y-106319030D01*
X173602428Y-106310765D01*
X173626227Y-106304804D01*
X173650495Y-106301204D01*
X173674999Y-106300000D01*
X174325001Y-106300000D01*
X174349505Y-106301204D01*
X174349505Y-106301204D01*
G37*
D12*
X174000000Y-107000000D03*
D10*
G36*
X176399505Y-106301204D02*
X176423773Y-106304804D01*
X176447572Y-106310765D01*
X176470671Y-106319030D01*
X176492850Y-106329520D01*
X176513893Y-106342132D01*
X176533599Y-106356747D01*
X176551777Y-106373223D01*
X176568253Y-106391401D01*
X176582868Y-106411107D01*
X176595480Y-106432150D01*
X176605970Y-106454329D01*
X176614235Y-106477428D01*
X176620196Y-106501227D01*
X176623796Y-106525495D01*
X176625000Y-106549999D01*
X176625000Y-107450001D01*
X176623796Y-107474505D01*
X176620196Y-107498773D01*
X176614235Y-107522572D01*
X176605970Y-107545671D01*
X176595480Y-107567850D01*
X176582868Y-107588893D01*
X176568253Y-107608599D01*
X176551777Y-107626777D01*
X176533599Y-107643253D01*
X176513893Y-107657868D01*
X176492850Y-107670480D01*
X176470671Y-107680970D01*
X176447572Y-107689235D01*
X176423773Y-107695196D01*
X176399505Y-107698796D01*
X176375001Y-107700000D01*
X175724999Y-107700000D01*
X175700495Y-107698796D01*
X175676227Y-107695196D01*
X175652428Y-107689235D01*
X175629329Y-107680970D01*
X175607150Y-107670480D01*
X175586107Y-107657868D01*
X175566401Y-107643253D01*
X175548223Y-107626777D01*
X175531747Y-107608599D01*
X175517132Y-107588893D01*
X175504520Y-107567850D01*
X175494030Y-107545671D01*
X175485765Y-107522572D01*
X175479804Y-107498773D01*
X175476204Y-107474505D01*
X175475000Y-107450001D01*
X175475000Y-106549999D01*
X175476204Y-106525495D01*
X175479804Y-106501227D01*
X175485765Y-106477428D01*
X175494030Y-106454329D01*
X175504520Y-106432150D01*
X175517132Y-106411107D01*
X175531747Y-106391401D01*
X175548223Y-106373223D01*
X175566401Y-106356747D01*
X175586107Y-106342132D01*
X175607150Y-106329520D01*
X175629329Y-106319030D01*
X175652428Y-106310765D01*
X175676227Y-106304804D01*
X175700495Y-106301204D01*
X175724999Y-106300000D01*
X176375001Y-106300000D01*
X176399505Y-106301204D01*
X176399505Y-106301204D01*
G37*
D12*
X176050000Y-107000000D03*
G04 #@! TD*
D10*
G04 #@! TO.C,C5*
G36*
X169349505Y-106301204D02*
X169373773Y-106304804D01*
X169397572Y-106310765D01*
X169420671Y-106319030D01*
X169442850Y-106329520D01*
X169463893Y-106342132D01*
X169483599Y-106356747D01*
X169501777Y-106373223D01*
X169518253Y-106391401D01*
X169532868Y-106411107D01*
X169545480Y-106432150D01*
X169555970Y-106454329D01*
X169564235Y-106477428D01*
X169570196Y-106501227D01*
X169573796Y-106525495D01*
X169575000Y-106549999D01*
X169575000Y-107450001D01*
X169573796Y-107474505D01*
X169570196Y-107498773D01*
X169564235Y-107522572D01*
X169555970Y-107545671D01*
X169545480Y-107567850D01*
X169532868Y-107588893D01*
X169518253Y-107608599D01*
X169501777Y-107626777D01*
X169483599Y-107643253D01*
X169463893Y-107657868D01*
X169442850Y-107670480D01*
X169420671Y-107680970D01*
X169397572Y-107689235D01*
X169373773Y-107695196D01*
X169349505Y-107698796D01*
X169325001Y-107700000D01*
X168674999Y-107700000D01*
X168650495Y-107698796D01*
X168626227Y-107695196D01*
X168602428Y-107689235D01*
X168579329Y-107680970D01*
X168557150Y-107670480D01*
X168536107Y-107657868D01*
X168516401Y-107643253D01*
X168498223Y-107626777D01*
X168481747Y-107608599D01*
X168467132Y-107588893D01*
X168454520Y-107567850D01*
X168444030Y-107545671D01*
X168435765Y-107522572D01*
X168429804Y-107498773D01*
X168426204Y-107474505D01*
X168425000Y-107450001D01*
X168425000Y-106549999D01*
X168426204Y-106525495D01*
X168429804Y-106501227D01*
X168435765Y-106477428D01*
X168444030Y-106454329D01*
X168454520Y-106432150D01*
X168467132Y-106411107D01*
X168481747Y-106391401D01*
X168498223Y-106373223D01*
X168516401Y-106356747D01*
X168536107Y-106342132D01*
X168557150Y-106329520D01*
X168579329Y-106319030D01*
X168602428Y-106310765D01*
X168626227Y-106304804D01*
X168650495Y-106301204D01*
X168674999Y-106300000D01*
X169325001Y-106300000D01*
X169349505Y-106301204D01*
X169349505Y-106301204D01*
G37*
D12*
X169000000Y-107000000D03*
D10*
G36*
X171399505Y-106301204D02*
X171423773Y-106304804D01*
X171447572Y-106310765D01*
X171470671Y-106319030D01*
X171492850Y-106329520D01*
X171513893Y-106342132D01*
X171533599Y-106356747D01*
X171551777Y-106373223D01*
X171568253Y-106391401D01*
X171582868Y-106411107D01*
X171595480Y-106432150D01*
X171605970Y-106454329D01*
X171614235Y-106477428D01*
X171620196Y-106501227D01*
X171623796Y-106525495D01*
X171625000Y-106549999D01*
X171625000Y-107450001D01*
X171623796Y-107474505D01*
X171620196Y-107498773D01*
X171614235Y-107522572D01*
X171605970Y-107545671D01*
X171595480Y-107567850D01*
X171582868Y-107588893D01*
X171568253Y-107608599D01*
X171551777Y-107626777D01*
X171533599Y-107643253D01*
X171513893Y-107657868D01*
X171492850Y-107670480D01*
X171470671Y-107680970D01*
X171447572Y-107689235D01*
X171423773Y-107695196D01*
X171399505Y-107698796D01*
X171375001Y-107700000D01*
X170724999Y-107700000D01*
X170700495Y-107698796D01*
X170676227Y-107695196D01*
X170652428Y-107689235D01*
X170629329Y-107680970D01*
X170607150Y-107670480D01*
X170586107Y-107657868D01*
X170566401Y-107643253D01*
X170548223Y-107626777D01*
X170531747Y-107608599D01*
X170517132Y-107588893D01*
X170504520Y-107567850D01*
X170494030Y-107545671D01*
X170485765Y-107522572D01*
X170479804Y-107498773D01*
X170476204Y-107474505D01*
X170475000Y-107450001D01*
X170475000Y-106549999D01*
X170476204Y-106525495D01*
X170479804Y-106501227D01*
X170485765Y-106477428D01*
X170494030Y-106454329D01*
X170504520Y-106432150D01*
X170517132Y-106411107D01*
X170531747Y-106391401D01*
X170548223Y-106373223D01*
X170566401Y-106356747D01*
X170586107Y-106342132D01*
X170607150Y-106329520D01*
X170629329Y-106319030D01*
X170652428Y-106310765D01*
X170676227Y-106304804D01*
X170700495Y-106301204D01*
X170724999Y-106300000D01*
X171375001Y-106300000D01*
X171399505Y-106301204D01*
X171399505Y-106301204D01*
G37*
D12*
X171050000Y-107000000D03*
G04 #@! TD*
D10*
G04 #@! TO.C,F1*
G36*
X166974504Y-105676204D02*
X166998773Y-105679804D01*
X167022571Y-105685765D01*
X167045671Y-105694030D01*
X167067849Y-105704520D01*
X167088893Y-105717133D01*
X167108598Y-105731747D01*
X167126777Y-105748223D01*
X167143253Y-105766402D01*
X167157867Y-105786107D01*
X167170480Y-105807151D01*
X167180970Y-105829329D01*
X167189235Y-105852429D01*
X167195196Y-105876227D01*
X167198796Y-105900496D01*
X167200000Y-105925000D01*
X167200000Y-108075000D01*
X167198796Y-108099504D01*
X167195196Y-108123773D01*
X167189235Y-108147571D01*
X167180970Y-108170671D01*
X167170480Y-108192849D01*
X167157867Y-108213893D01*
X167143253Y-108233598D01*
X167126777Y-108251777D01*
X167108598Y-108268253D01*
X167088893Y-108282867D01*
X167067849Y-108295480D01*
X167045671Y-108305970D01*
X167022571Y-108314235D01*
X166998773Y-108320196D01*
X166974504Y-108323796D01*
X166950000Y-108325000D01*
X166025000Y-108325000D01*
X166000496Y-108323796D01*
X165976227Y-108320196D01*
X165952429Y-108314235D01*
X165929329Y-108305970D01*
X165907151Y-108295480D01*
X165886107Y-108282867D01*
X165866402Y-108268253D01*
X165848223Y-108251777D01*
X165831747Y-108233598D01*
X165817133Y-108213893D01*
X165804520Y-108192849D01*
X165794030Y-108170671D01*
X165785765Y-108147571D01*
X165779804Y-108123773D01*
X165776204Y-108099504D01*
X165775000Y-108075000D01*
X165775000Y-105925000D01*
X165776204Y-105900496D01*
X165779804Y-105876227D01*
X165785765Y-105852429D01*
X165794030Y-105829329D01*
X165804520Y-105807151D01*
X165817133Y-105786107D01*
X165831747Y-105766402D01*
X165848223Y-105748223D01*
X165866402Y-105731747D01*
X165886107Y-105717133D01*
X165907151Y-105704520D01*
X165929329Y-105694030D01*
X165952429Y-105685765D01*
X165976227Y-105679804D01*
X166000496Y-105676204D01*
X166025000Y-105675000D01*
X166950000Y-105675000D01*
X166974504Y-105676204D01*
X166974504Y-105676204D01*
G37*
D11*
X166487500Y-107000000D03*
D10*
G36*
X163999504Y-105676204D02*
X164023773Y-105679804D01*
X164047571Y-105685765D01*
X164070671Y-105694030D01*
X164092849Y-105704520D01*
X164113893Y-105717133D01*
X164133598Y-105731747D01*
X164151777Y-105748223D01*
X164168253Y-105766402D01*
X164182867Y-105786107D01*
X164195480Y-105807151D01*
X164205970Y-105829329D01*
X164214235Y-105852429D01*
X164220196Y-105876227D01*
X164223796Y-105900496D01*
X164225000Y-105925000D01*
X164225000Y-108075000D01*
X164223796Y-108099504D01*
X164220196Y-108123773D01*
X164214235Y-108147571D01*
X164205970Y-108170671D01*
X164195480Y-108192849D01*
X164182867Y-108213893D01*
X164168253Y-108233598D01*
X164151777Y-108251777D01*
X164133598Y-108268253D01*
X164113893Y-108282867D01*
X164092849Y-108295480D01*
X164070671Y-108305970D01*
X164047571Y-108314235D01*
X164023773Y-108320196D01*
X163999504Y-108323796D01*
X163975000Y-108325000D01*
X163050000Y-108325000D01*
X163025496Y-108323796D01*
X163001227Y-108320196D01*
X162977429Y-108314235D01*
X162954329Y-108305970D01*
X162932151Y-108295480D01*
X162911107Y-108282867D01*
X162891402Y-108268253D01*
X162873223Y-108251777D01*
X162856747Y-108233598D01*
X162842133Y-108213893D01*
X162829520Y-108192849D01*
X162819030Y-108170671D01*
X162810765Y-108147571D01*
X162804804Y-108123773D01*
X162801204Y-108099504D01*
X162800000Y-108075000D01*
X162800000Y-105925000D01*
X162801204Y-105900496D01*
X162804804Y-105876227D01*
X162810765Y-105852429D01*
X162819030Y-105829329D01*
X162829520Y-105807151D01*
X162842133Y-105786107D01*
X162856747Y-105766402D01*
X162873223Y-105748223D01*
X162891402Y-105731747D01*
X162911107Y-105717133D01*
X162932151Y-105704520D01*
X162954329Y-105694030D01*
X162977429Y-105685765D01*
X163001227Y-105679804D01*
X163025496Y-105676204D01*
X163050000Y-105675000D01*
X163975000Y-105675000D01*
X163999504Y-105676204D01*
X163999504Y-105676204D01*
G37*
D11*
X163512500Y-107000000D03*
G04 #@! TD*
D10*
G04 #@! TO.C,R1*
G36*
X184349505Y-100301204D02*
X184373773Y-100304804D01*
X184397572Y-100310765D01*
X184420671Y-100319030D01*
X184442850Y-100329520D01*
X184463893Y-100342132D01*
X184483599Y-100356747D01*
X184501777Y-100373223D01*
X184518253Y-100391401D01*
X184532868Y-100411107D01*
X184545480Y-100432150D01*
X184555970Y-100454329D01*
X184564235Y-100477428D01*
X184570196Y-100501227D01*
X184573796Y-100525495D01*
X184575000Y-100549999D01*
X184575000Y-101450001D01*
X184573796Y-101474505D01*
X184570196Y-101498773D01*
X184564235Y-101522572D01*
X184555970Y-101545671D01*
X184545480Y-101567850D01*
X184532868Y-101588893D01*
X184518253Y-101608599D01*
X184501777Y-101626777D01*
X184483599Y-101643253D01*
X184463893Y-101657868D01*
X184442850Y-101670480D01*
X184420671Y-101680970D01*
X184397572Y-101689235D01*
X184373773Y-101695196D01*
X184349505Y-101698796D01*
X184325001Y-101700000D01*
X183674999Y-101700000D01*
X183650495Y-101698796D01*
X183626227Y-101695196D01*
X183602428Y-101689235D01*
X183579329Y-101680970D01*
X183557150Y-101670480D01*
X183536107Y-101657868D01*
X183516401Y-101643253D01*
X183498223Y-101626777D01*
X183481747Y-101608599D01*
X183467132Y-101588893D01*
X183454520Y-101567850D01*
X183444030Y-101545671D01*
X183435765Y-101522572D01*
X183429804Y-101498773D01*
X183426204Y-101474505D01*
X183425000Y-101450001D01*
X183425000Y-100549999D01*
X183426204Y-100525495D01*
X183429804Y-100501227D01*
X183435765Y-100477428D01*
X183444030Y-100454329D01*
X183454520Y-100432150D01*
X183467132Y-100411107D01*
X183481747Y-100391401D01*
X183498223Y-100373223D01*
X183516401Y-100356747D01*
X183536107Y-100342132D01*
X183557150Y-100329520D01*
X183579329Y-100319030D01*
X183602428Y-100310765D01*
X183626227Y-100304804D01*
X183650495Y-100301204D01*
X183674999Y-100300000D01*
X184325001Y-100300000D01*
X184349505Y-100301204D01*
X184349505Y-100301204D01*
G37*
D12*
X184000000Y-101000000D03*
D10*
G36*
X186399505Y-100301204D02*
X186423773Y-100304804D01*
X186447572Y-100310765D01*
X186470671Y-100319030D01*
X186492850Y-100329520D01*
X186513893Y-100342132D01*
X186533599Y-100356747D01*
X186551777Y-100373223D01*
X186568253Y-100391401D01*
X186582868Y-100411107D01*
X186595480Y-100432150D01*
X186605970Y-100454329D01*
X186614235Y-100477428D01*
X186620196Y-100501227D01*
X186623796Y-100525495D01*
X186625000Y-100549999D01*
X186625000Y-101450001D01*
X186623796Y-101474505D01*
X186620196Y-101498773D01*
X186614235Y-101522572D01*
X186605970Y-101545671D01*
X186595480Y-101567850D01*
X186582868Y-101588893D01*
X186568253Y-101608599D01*
X186551777Y-101626777D01*
X186533599Y-101643253D01*
X186513893Y-101657868D01*
X186492850Y-101670480D01*
X186470671Y-101680970D01*
X186447572Y-101689235D01*
X186423773Y-101695196D01*
X186399505Y-101698796D01*
X186375001Y-101700000D01*
X185724999Y-101700000D01*
X185700495Y-101698796D01*
X185676227Y-101695196D01*
X185652428Y-101689235D01*
X185629329Y-101680970D01*
X185607150Y-101670480D01*
X185586107Y-101657868D01*
X185566401Y-101643253D01*
X185548223Y-101626777D01*
X185531747Y-101608599D01*
X185517132Y-101588893D01*
X185504520Y-101567850D01*
X185494030Y-101545671D01*
X185485765Y-101522572D01*
X185479804Y-101498773D01*
X185476204Y-101474505D01*
X185475000Y-101450001D01*
X185475000Y-100549999D01*
X185476204Y-100525495D01*
X185479804Y-100501227D01*
X185485765Y-100477428D01*
X185494030Y-100454329D01*
X185504520Y-100432150D01*
X185517132Y-100411107D01*
X185531747Y-100391401D01*
X185548223Y-100373223D01*
X185566401Y-100356747D01*
X185586107Y-100342132D01*
X185607150Y-100329520D01*
X185629329Y-100319030D01*
X185652428Y-100310765D01*
X185676227Y-100304804D01*
X185700495Y-100301204D01*
X185724999Y-100300000D01*
X186375001Y-100300000D01*
X186399505Y-100301204D01*
X186399505Y-100301204D01*
G37*
D12*
X186050000Y-101000000D03*
G04 #@! TD*
D14*
G04 #@! TO.C,U2*
X183775000Y-107400000D03*
X184425000Y-107400000D03*
X185075000Y-107400000D03*
X185725000Y-107400000D03*
X186375000Y-107400000D03*
X187025000Y-107400000D03*
X187675000Y-107400000D03*
X188325000Y-107400000D03*
X188975000Y-107400000D03*
X189625000Y-107400000D03*
X190275000Y-107400000D03*
X190925000Y-107400000D03*
X191575000Y-107400000D03*
X192225000Y-107400000D03*
X192225000Y-114600000D03*
X191575000Y-114600000D03*
X190925000Y-114600000D03*
X190275000Y-114600000D03*
X189625000Y-114600000D03*
X188975000Y-114600000D03*
X188325000Y-114600000D03*
X187675000Y-114600000D03*
X187025000Y-114600000D03*
X186375000Y-114600000D03*
X185725000Y-114600000D03*
X185075000Y-114600000D03*
X184425000Y-114600000D03*
X183775000Y-114600000D03*
G04 #@! TD*
M02*
