M48
;DRILL file {KiCad (5.0.0)} date 11/07/18 00:59:50
;FORMAT={3:3/ absolute / metric / suppress leading zeros}
FMAT,2
METRIC,TZ
T1C0.400
T2C0.800
T3C0.900
T4C1.000
%
G90
G05
M71
T1
X160238Y-33650
X160238Y-68650
X160238Y-103650
X163500Y-29505
X163500Y-64505
X163500Y-99505
X166722Y-30280
X166722Y-65280
X166722Y-100280
X170354Y-41755
X170354Y-76755
X170354Y-111754
X170845Y-22474
X170845Y-57474
X170845Y-92474
X174273Y-29527
X174273Y-64527
X174273Y-99527
X174657Y-44141
X174657Y-79141
X174657Y-114141
X175695Y-29503
X175695Y-64503
X175695Y-99503
X180511Y-30845
X180511Y-65845
X180511Y-100845
X180665Y-44213
X180665Y-79213
X180665Y-114213
X180938Y-22420
X180938Y-57420
X180938Y-92420
X181961Y-22485
X181961Y-57485
X181961Y-92485
X182267Y-35581
X182267Y-70581
X182267Y-105581
X183108Y-22490
X183108Y-57490
X183108Y-92490
X184293Y-22498
X184293Y-57498
X184293Y-92498
X186036Y-22500
X186036Y-57500
X186036Y-92500
X187625Y-22469
X187625Y-57469
X187625Y-92469
X188430Y-40262
X188430Y-75262
X188430Y-110262
X189438Y-22456
X189438Y-57456
X189438Y-92456
X189451Y-40167
X189451Y-75167
X189451Y-110167
X192434Y-38879
X192434Y-73879
X192434Y-108879
X193750Y-32074
X193750Y-67074
X193750Y-102074
X195707Y-30059
X195707Y-65059
X195707Y-100059
X197419Y-29582
X197419Y-64582
X197419Y-99582
X200584Y-29528
X200584Y-64528
X200584Y-99527
X200830Y-38969
X200830Y-73969
X200830Y-108969
X202912Y-29506
X202912Y-64506
X202912Y-99506
X227420Y-93063
X227456Y-84563
X227469Y-86375
X227474Y-103155
X227485Y-92039
X227490Y-90892
X227498Y-89708
X227499Y-87964
X234503Y-98305
X234505Y-110500
X234506Y-71088
X234527Y-99727
X234528Y-73416
X234582Y-76581
X235059Y-78293
X235280Y-107278
X235845Y-93489
X237074Y-80250
X238650Y-113762
X240581Y-91733
X243879Y-81566
X243969Y-73170
X245167Y-84549
X245262Y-85570
X246754Y-103646
X249141Y-99343
X249213Y-93336
T2
X165000Y-53760
X165000Y-69000
X167540Y-53760
X167540Y-69000
X170080Y-53760
X170080Y-69000
X172620Y-53760
X172620Y-69000
X175160Y-53760
X175160Y-69000
X177700Y-53760
X177700Y-69000
X180240Y-53760
X180240Y-69000
X182780Y-53760
X182780Y-69000
X185320Y-53760
X185320Y-69000
X187860Y-53760
X187860Y-69000
X190400Y-53760
X190400Y-69000
X192940Y-53760
X192940Y-69000
X195480Y-53760
X195480Y-69000
X198020Y-53760
X198020Y-69000
X200560Y-53760
X200560Y-69000
X203100Y-53760
X203100Y-69000
X205640Y-53760
X205640Y-69000
X208180Y-53760
X208180Y-69000
X210720Y-53760
X210720Y-69000
X213260Y-53760
X213260Y-69000
X223760Y-60740
X223760Y-63280
X223760Y-65820
X223760Y-68360
X223760Y-70900
X223760Y-73440
X223760Y-75980
X223760Y-78520
X223760Y-81060
X223760Y-83600
X223760Y-86140
X223760Y-88680
X223760Y-91220
X223760Y-93760
X223760Y-96300
X223760Y-98840
X223760Y-101380
X223760Y-103920
X223760Y-106460
X223760Y-109000
X239000Y-60740
X239000Y-63280
X239000Y-65820
X239000Y-68360
X239000Y-70900
X239000Y-73440
X239000Y-75980
X239000Y-78520
X239000Y-81060
X239000Y-83600
X239000Y-86140
X239000Y-88680
X239000Y-91220
X239000Y-93760
X239000Y-96300
X239000Y-98840
X239000Y-101380
X239000Y-103920
X239000Y-106460
X239000Y-109000
X165000Y-18760
X165000Y-34000
X167540Y-18760
X167540Y-34000
X170080Y-18760
X170080Y-34000
X172620Y-18760
X172620Y-34000
X175160Y-18760
X175160Y-34000
X177700Y-18760
X177700Y-34000
X180240Y-18760
X180240Y-34000
X182780Y-18760
X182780Y-34000
X185320Y-18760
X185320Y-34000
X187860Y-18760
X187860Y-34000
X190400Y-18760
X190400Y-34000
X192940Y-18760
X192940Y-34000
X195480Y-18760
X195480Y-34000
X198020Y-18760
X198020Y-34000
X200560Y-18760
X200560Y-34000
X203100Y-18760
X203100Y-34000
X205640Y-18760
X205640Y-34000
X208180Y-18760
X208180Y-34000
X210720Y-18760
X210720Y-34000
X213260Y-18760
X213260Y-34000
X165000Y-88760
X165000Y-104000
X167540Y-88760
X167540Y-104000
X170080Y-88760
X170080Y-104000
X172620Y-88760
X172620Y-104000
X175160Y-88760
X175160Y-104000
X177700Y-88760
X177700Y-104000
X180240Y-88760
X180240Y-104000
X182780Y-88760
X182780Y-104000
X185320Y-88760
X185320Y-104000
X187860Y-88760
X187860Y-104000
X190400Y-88760
X190400Y-104000
X192940Y-88760
X192940Y-104000
X195480Y-88760
X195480Y-104000
X198020Y-88760
X198020Y-104000
X200560Y-88760
X200560Y-104000
X203100Y-88760
X203100Y-104000
X205640Y-88760
X205640Y-104000
X208180Y-88760
X208180Y-104000
X210720Y-88760
X210720Y-104000
X213260Y-88760
X213260Y-104000
T3
X177000Y-75000
X179540Y-75000
X245000Y-94460
X245000Y-97000
X165000Y-110000
X167540Y-110000
X171000Y-110000
X173540Y-110000
X165000Y-75000
X167540Y-75000
X159000Y-40000
X161540Y-40000
X159000Y-110000
X161540Y-110000
X245000Y-112460
X245000Y-115000
X159000Y-75000
X161540Y-75000
X171000Y-40000
X173540Y-40000
X177000Y-110000
X179540Y-110000
X245000Y-100460
X245000Y-103000
X165000Y-40000
X167540Y-40000
X171000Y-75000
X173540Y-75000
X177000Y-40000
X179540Y-40000
X245000Y-106460
X245000Y-109000
T4
X212000Y-73000
X212000Y-75540
X212000Y-78080
X214540Y-73000
X214540Y-75540
X214540Y-78080
X243000Y-59460
X243000Y-62000
X245540Y-59460
X245540Y-62000
X248080Y-59460
X248080Y-62000
X212000Y-38000
X212000Y-40540
X212000Y-43080
X214540Y-38000
X214540Y-40540
X214540Y-43080
X212000Y-108000
X212000Y-110540
X212000Y-113080
X214540Y-108000
X214540Y-110540
X214540Y-113080
T0
M30
