G04 #@! TF.GenerationSoftware,KiCad,Pcbnew,(5.0.0)*
G04 #@! TF.CreationDate,2018-11-06T18:12:08+09:00*
G04 #@! TF.ProjectId,gb_cart_flash,67625F636172745F666C6173682E6B69,rev?*
G04 #@! TF.SameCoordinates,Original*
G04 #@! TF.FileFunction,Profile,NP*
%FSLAX46Y46*%
G04 Gerber Fmt 4.6, Leading zero omitted, Abs format (unit mm)*
G04 Created by KiCad (PCBNEW (5.0.0)) date 11/06/18 18:12:08*
%MOMM*%
%LPD*%
G01*
G04 APERTURE LIST*
%ADD10C,0.150000*%
G04 APERTURE END LIST*
D10*
X252000000Y-57000000D02*
X252000000Y-117000000D01*
X222000000Y-87000000D02*
X222000000Y-82000000D01*
X222000000Y-59000000D02*
X222000000Y-80000000D01*
X252000000Y-117000000D02*
X222000000Y-117000000D01*
X222000000Y-89000000D02*
X222000000Y-115000000D01*
X157000000Y-82000000D02*
X157000000Y-52000000D01*
X160000000Y-52000000D02*
X214000000Y-52000000D01*
X217000000Y-80000000D02*
X217000000Y-59000000D01*
X157000000Y-82000000D02*
X157000000Y-87000000D01*
X157000000Y-47000000D02*
X157000000Y-52000000D01*
X217000000Y-115000000D02*
X217000000Y-89000000D01*
X222000000Y-115000000D02*
X217000000Y-115000000D01*
X217000000Y-89000000D02*
X222000000Y-89000000D01*
X222000000Y-80000000D02*
X217000000Y-80000000D01*
X217000000Y-59000000D02*
X222000000Y-59000000D01*
X222000000Y-82000000D02*
X160000000Y-82000000D01*
X160000000Y-87000000D02*
X222000000Y-87000000D01*
X160000000Y-82000000D02*
X160000000Y-87000000D01*
X214000000Y-47000000D02*
X160000000Y-47000000D01*
X214000000Y-52000000D02*
X214000000Y-47000000D01*
X160000000Y-47000000D02*
X160000000Y-52000000D01*
X217000000Y-117000000D02*
X222000000Y-117000000D01*
X217000000Y-57000000D02*
X252000000Y-57000000D01*
X217000000Y-17000000D02*
X217000000Y-57000000D01*
X157000000Y-17000000D02*
X217000000Y-17000000D01*
X157000000Y-47000000D02*
X157000000Y-17000000D01*
X217000000Y-117000000D02*
X157000000Y-117000000D01*
X157000000Y-117000000D02*
X157000000Y-87000000D01*
M02*
