G04 #@! TF.GenerationSoftware,KiCad,Pcbnew,(5.0.0)*
G04 #@! TF.CreationDate,2018-11-07T00:59:44+09:00*
G04 #@! TF.ProjectId,gb_cart_flash,67625F636172745F666C6173682E6B69,rev?*
G04 #@! TF.SameCoordinates,Original*
G04 #@! TF.FileFunction,Soldermask,Bot*
G04 #@! TF.FilePolarity,Negative*
%FSLAX46Y46*%
G04 Gerber Fmt 4.6, Leading zero omitted, Abs format (unit mm)*
G04 Created by KiCad (PCBNEW (5.0.0)) date 11/07/18 00:59:44*
%MOMM*%
%LPD*%
G01*
G04 APERTURE LIST*
%ADD10R,6.200000X1.900000*%
%ADD11R,6.200000X1.400000*%
%ADD12C,0.100000*%
%ADD13C,1.825000*%
%ADD14C,2.200000*%
%ADD15R,2.200000X2.200000*%
%ADD16C,1.550000*%
%ADD17O,2.000000X2.000000*%
%ADD18R,2.000000X2.000000*%
%ADD19R,2.150000X0.850000*%
%ADD20O,2.100000X2.100000*%
%ADD21R,2.100000X2.100000*%
%ADD22R,1.900000X6.200000*%
%ADD23R,1.400000X6.200000*%
%ADD24R,0.850000X2.150000*%
G04 APERTURE END LIST*
D10*
G04 #@! TO.C,J2*
X231000000Y-110500000D03*
D11*
X231000000Y-108750000D03*
X231000000Y-107250000D03*
X231000000Y-105750000D03*
X231000000Y-104250000D03*
X231000000Y-102750000D03*
X231000000Y-101250000D03*
X231000000Y-99750000D03*
X231000000Y-98250000D03*
X231000000Y-96750000D03*
X231000000Y-95250000D03*
X231000000Y-93750000D03*
X231000000Y-92250000D03*
X231000000Y-90750000D03*
X231000000Y-89250000D03*
X231000000Y-87750000D03*
X231000000Y-86250000D03*
X231000000Y-84750000D03*
X231000000Y-83250000D03*
X231000000Y-81750000D03*
X231000000Y-80250000D03*
X231000000Y-78750000D03*
X231000000Y-77250000D03*
X231000000Y-75750000D03*
X231000000Y-74250000D03*
X231000000Y-72750000D03*
X231000000Y-71250000D03*
X231000000Y-69750000D03*
X231000000Y-68250000D03*
X231000000Y-66750000D03*
X231000000Y-65250000D03*
D10*
X231000000Y-63500000D03*
G04 #@! TD*
D12*
G04 #@! TO.C,F1*
G36*
X243236207Y-109576542D02*
X243267287Y-109581152D01*
X243297766Y-109588787D01*
X243327350Y-109599372D01*
X243355754Y-109612806D01*
X243382704Y-109628959D01*
X243407942Y-109647677D01*
X243431223Y-109668777D01*
X243452323Y-109692058D01*
X243471041Y-109717296D01*
X243487194Y-109744246D01*
X243500628Y-109772650D01*
X243511213Y-109802234D01*
X243518848Y-109832713D01*
X243523458Y-109863793D01*
X243525000Y-109895176D01*
X243525000Y-111079824D01*
X243523458Y-111111207D01*
X243518848Y-111142287D01*
X243511213Y-111172766D01*
X243500628Y-111202350D01*
X243487194Y-111230754D01*
X243471041Y-111257704D01*
X243452323Y-111282942D01*
X243431223Y-111306223D01*
X243407942Y-111327323D01*
X243382704Y-111346041D01*
X243355754Y-111362194D01*
X243327350Y-111375628D01*
X243297766Y-111386213D01*
X243267287Y-111393848D01*
X243236207Y-111398458D01*
X243204824Y-111400000D01*
X240795176Y-111400000D01*
X240763793Y-111398458D01*
X240732713Y-111393848D01*
X240702234Y-111386213D01*
X240672650Y-111375628D01*
X240644246Y-111362194D01*
X240617296Y-111346041D01*
X240592058Y-111327323D01*
X240568777Y-111306223D01*
X240547677Y-111282942D01*
X240528959Y-111257704D01*
X240512806Y-111230754D01*
X240499372Y-111202350D01*
X240488787Y-111172766D01*
X240481152Y-111142287D01*
X240476542Y-111111207D01*
X240475000Y-111079824D01*
X240475000Y-109895176D01*
X240476542Y-109863793D01*
X240481152Y-109832713D01*
X240488787Y-109802234D01*
X240499372Y-109772650D01*
X240512806Y-109744246D01*
X240528959Y-109717296D01*
X240547677Y-109692058D01*
X240568777Y-109668777D01*
X240592058Y-109647677D01*
X240617296Y-109628959D01*
X240644246Y-109612806D01*
X240672650Y-109599372D01*
X240702234Y-109588787D01*
X240732713Y-109581152D01*
X240763793Y-109576542D01*
X240795176Y-109575000D01*
X243204824Y-109575000D01*
X243236207Y-109576542D01*
X243236207Y-109576542D01*
G37*
D13*
X242000000Y-110487500D03*
D12*
G36*
X243236207Y-106601542D02*
X243267287Y-106606152D01*
X243297766Y-106613787D01*
X243327350Y-106624372D01*
X243355754Y-106637806D01*
X243382704Y-106653959D01*
X243407942Y-106672677D01*
X243431223Y-106693777D01*
X243452323Y-106717058D01*
X243471041Y-106742296D01*
X243487194Y-106769246D01*
X243500628Y-106797650D01*
X243511213Y-106827234D01*
X243518848Y-106857713D01*
X243523458Y-106888793D01*
X243525000Y-106920176D01*
X243525000Y-108104824D01*
X243523458Y-108136207D01*
X243518848Y-108167287D01*
X243511213Y-108197766D01*
X243500628Y-108227350D01*
X243487194Y-108255754D01*
X243471041Y-108282704D01*
X243452323Y-108307942D01*
X243431223Y-108331223D01*
X243407942Y-108352323D01*
X243382704Y-108371041D01*
X243355754Y-108387194D01*
X243327350Y-108400628D01*
X243297766Y-108411213D01*
X243267287Y-108418848D01*
X243236207Y-108423458D01*
X243204824Y-108425000D01*
X240795176Y-108425000D01*
X240763793Y-108423458D01*
X240732713Y-108418848D01*
X240702234Y-108411213D01*
X240672650Y-108400628D01*
X240644246Y-108387194D01*
X240617296Y-108371041D01*
X240592058Y-108352323D01*
X240568777Y-108331223D01*
X240547677Y-108307942D01*
X240528959Y-108282704D01*
X240512806Y-108255754D01*
X240499372Y-108227350D01*
X240488787Y-108197766D01*
X240481152Y-108167287D01*
X240476542Y-108136207D01*
X240475000Y-108104824D01*
X240475000Y-106920176D01*
X240476542Y-106888793D01*
X240481152Y-106857713D01*
X240488787Y-106827234D01*
X240499372Y-106797650D01*
X240512806Y-106769246D01*
X240528959Y-106742296D01*
X240547677Y-106717058D01*
X240568777Y-106693777D01*
X240592058Y-106672677D01*
X240617296Y-106653959D01*
X240644246Y-106637806D01*
X240672650Y-106624372D01*
X240702234Y-106613787D01*
X240732713Y-106606152D01*
X240763793Y-106601542D01*
X240795176Y-106600000D01*
X243204824Y-106600000D01*
X243236207Y-106601542D01*
X243236207Y-106601542D01*
G37*
D13*
X242000000Y-107512500D03*
G04 #@! TD*
D14*
G04 #@! TO.C,D3*
X245000000Y-100460000D03*
D15*
X245000000Y-103000000D03*
G04 #@! TD*
D12*
G04 #@! TO.C,R1*
G36*
X236596071Y-87176623D02*
X236628781Y-87181475D01*
X236660857Y-87189509D01*
X236691991Y-87200649D01*
X236721884Y-87214787D01*
X236750247Y-87231787D01*
X236776807Y-87251485D01*
X236801308Y-87273692D01*
X236823515Y-87298193D01*
X236843213Y-87324753D01*
X236860213Y-87353116D01*
X236874351Y-87383009D01*
X236885491Y-87414143D01*
X236893525Y-87446219D01*
X236898377Y-87478929D01*
X236900000Y-87511956D01*
X236900000Y-88388044D01*
X236898377Y-88421071D01*
X236893525Y-88453781D01*
X236885491Y-88485857D01*
X236874351Y-88516991D01*
X236860213Y-88546884D01*
X236843213Y-88575247D01*
X236823515Y-88601807D01*
X236801308Y-88626308D01*
X236776807Y-88648515D01*
X236750247Y-88668213D01*
X236721884Y-88685213D01*
X236691991Y-88699351D01*
X236660857Y-88710491D01*
X236628781Y-88718525D01*
X236596071Y-88723377D01*
X236563044Y-88725000D01*
X235436956Y-88725000D01*
X235403929Y-88723377D01*
X235371219Y-88718525D01*
X235339143Y-88710491D01*
X235308009Y-88699351D01*
X235278116Y-88685213D01*
X235249753Y-88668213D01*
X235223193Y-88648515D01*
X235198692Y-88626308D01*
X235176485Y-88601807D01*
X235156787Y-88575247D01*
X235139787Y-88546884D01*
X235125649Y-88516991D01*
X235114509Y-88485857D01*
X235106475Y-88453781D01*
X235101623Y-88421071D01*
X235100000Y-88388044D01*
X235100000Y-87511956D01*
X235101623Y-87478929D01*
X235106475Y-87446219D01*
X235114509Y-87414143D01*
X235125649Y-87383009D01*
X235139787Y-87353116D01*
X235156787Y-87324753D01*
X235176485Y-87298193D01*
X235198692Y-87273692D01*
X235223193Y-87251485D01*
X235249753Y-87231787D01*
X235278116Y-87214787D01*
X235308009Y-87200649D01*
X235339143Y-87189509D01*
X235371219Y-87181475D01*
X235403929Y-87176623D01*
X235436956Y-87175000D01*
X236563044Y-87175000D01*
X236596071Y-87176623D01*
X236596071Y-87176623D01*
G37*
D16*
X236000000Y-87950000D03*
D12*
G36*
X236596071Y-89226623D02*
X236628781Y-89231475D01*
X236660857Y-89239509D01*
X236691991Y-89250649D01*
X236721884Y-89264787D01*
X236750247Y-89281787D01*
X236776807Y-89301485D01*
X236801308Y-89323692D01*
X236823515Y-89348193D01*
X236843213Y-89374753D01*
X236860213Y-89403116D01*
X236874351Y-89433009D01*
X236885491Y-89464143D01*
X236893525Y-89496219D01*
X236898377Y-89528929D01*
X236900000Y-89561956D01*
X236900000Y-90438044D01*
X236898377Y-90471071D01*
X236893525Y-90503781D01*
X236885491Y-90535857D01*
X236874351Y-90566991D01*
X236860213Y-90596884D01*
X236843213Y-90625247D01*
X236823515Y-90651807D01*
X236801308Y-90676308D01*
X236776807Y-90698515D01*
X236750247Y-90718213D01*
X236721884Y-90735213D01*
X236691991Y-90749351D01*
X236660857Y-90760491D01*
X236628781Y-90768525D01*
X236596071Y-90773377D01*
X236563044Y-90775000D01*
X235436956Y-90775000D01*
X235403929Y-90773377D01*
X235371219Y-90768525D01*
X235339143Y-90760491D01*
X235308009Y-90749351D01*
X235278116Y-90735213D01*
X235249753Y-90718213D01*
X235223193Y-90698515D01*
X235198692Y-90676308D01*
X235176485Y-90651807D01*
X235156787Y-90625247D01*
X235139787Y-90596884D01*
X235125649Y-90566991D01*
X235114509Y-90535857D01*
X235106475Y-90503781D01*
X235101623Y-90471071D01*
X235100000Y-90438044D01*
X235100000Y-89561956D01*
X235101623Y-89528929D01*
X235106475Y-89496219D01*
X235114509Y-89464143D01*
X235125649Y-89433009D01*
X235139787Y-89403116D01*
X235156787Y-89374753D01*
X235176485Y-89348193D01*
X235198692Y-89323692D01*
X235223193Y-89301485D01*
X235249753Y-89281787D01*
X235278116Y-89264787D01*
X235308009Y-89250649D01*
X235339143Y-89239509D01*
X235371219Y-89231475D01*
X235403929Y-89226623D01*
X235436956Y-89225000D01*
X236563044Y-89225000D01*
X236596071Y-89226623D01*
X236596071Y-89226623D01*
G37*
D16*
X236000000Y-90000000D03*
G04 #@! TD*
D17*
G04 #@! TO.C,U1*
X223760000Y-109000000D03*
X239000000Y-60740000D03*
X223760000Y-106460000D03*
X239000000Y-63280000D03*
X223760000Y-103920000D03*
X239000000Y-65820000D03*
X223760000Y-101380000D03*
X239000000Y-68360000D03*
X223760000Y-98840000D03*
X239000000Y-70900000D03*
X223760000Y-96300000D03*
X239000000Y-73440000D03*
X223760000Y-93760000D03*
X239000000Y-75980000D03*
X223760000Y-91220000D03*
X239000000Y-78520000D03*
X223760000Y-88680000D03*
X239000000Y-81060000D03*
X223760000Y-86140000D03*
X239000000Y-83600000D03*
X223760000Y-83600000D03*
X239000000Y-86140000D03*
X223760000Y-81060000D03*
X239000000Y-88680000D03*
X223760000Y-78520000D03*
X239000000Y-91220000D03*
X223760000Y-75980000D03*
X239000000Y-93760000D03*
X223760000Y-73440000D03*
X239000000Y-96300000D03*
X223760000Y-70900000D03*
X239000000Y-98840000D03*
X223760000Y-68360000D03*
X239000000Y-101380000D03*
X223760000Y-65820000D03*
X239000000Y-103920000D03*
X223760000Y-63280000D03*
X239000000Y-106460000D03*
X223760000Y-60740000D03*
D18*
X239000000Y-109000000D03*
G04 #@! TD*
D15*
G04 #@! TO.C,D4*
X245000000Y-97000000D03*
D14*
X245000000Y-94460000D03*
G04 #@! TD*
D19*
G04 #@! TO.C,U2*
X249600000Y-90225000D03*
X249600000Y-89575000D03*
X249600000Y-88925000D03*
X249600000Y-88275000D03*
X249600000Y-87625000D03*
X249600000Y-86975000D03*
X249600000Y-86325000D03*
X249600000Y-85675000D03*
X249600000Y-85025000D03*
X249600000Y-84375000D03*
X249600000Y-83725000D03*
X249600000Y-83075000D03*
X249600000Y-82425000D03*
X249600000Y-81775000D03*
X242400000Y-81775000D03*
X242400000Y-82425000D03*
X242400000Y-83075000D03*
X242400000Y-83725000D03*
X242400000Y-84375000D03*
X242400000Y-85025000D03*
X242400000Y-85675000D03*
X242400000Y-86325000D03*
X242400000Y-86975000D03*
X242400000Y-87625000D03*
X242400000Y-88275000D03*
X242400000Y-88925000D03*
X242400000Y-89575000D03*
X242400000Y-90225000D03*
G04 #@! TD*
D12*
G04 #@! TO.C,C5*
G36*
X242596071Y-102176623D02*
X242628781Y-102181475D01*
X242660857Y-102189509D01*
X242691991Y-102200649D01*
X242721884Y-102214787D01*
X242750247Y-102231787D01*
X242776807Y-102251485D01*
X242801308Y-102273692D01*
X242823515Y-102298193D01*
X242843213Y-102324753D01*
X242860213Y-102353116D01*
X242874351Y-102383009D01*
X242885491Y-102414143D01*
X242893525Y-102446219D01*
X242898377Y-102478929D01*
X242900000Y-102511956D01*
X242900000Y-103388044D01*
X242898377Y-103421071D01*
X242893525Y-103453781D01*
X242885491Y-103485857D01*
X242874351Y-103516991D01*
X242860213Y-103546884D01*
X242843213Y-103575247D01*
X242823515Y-103601807D01*
X242801308Y-103626308D01*
X242776807Y-103648515D01*
X242750247Y-103668213D01*
X242721884Y-103685213D01*
X242691991Y-103699351D01*
X242660857Y-103710491D01*
X242628781Y-103718525D01*
X242596071Y-103723377D01*
X242563044Y-103725000D01*
X241436956Y-103725000D01*
X241403929Y-103723377D01*
X241371219Y-103718525D01*
X241339143Y-103710491D01*
X241308009Y-103699351D01*
X241278116Y-103685213D01*
X241249753Y-103668213D01*
X241223193Y-103648515D01*
X241198692Y-103626308D01*
X241176485Y-103601807D01*
X241156787Y-103575247D01*
X241139787Y-103546884D01*
X241125649Y-103516991D01*
X241114509Y-103485857D01*
X241106475Y-103453781D01*
X241101623Y-103421071D01*
X241100000Y-103388044D01*
X241100000Y-102511956D01*
X241101623Y-102478929D01*
X241106475Y-102446219D01*
X241114509Y-102414143D01*
X241125649Y-102383009D01*
X241139787Y-102353116D01*
X241156787Y-102324753D01*
X241176485Y-102298193D01*
X241198692Y-102273692D01*
X241223193Y-102251485D01*
X241249753Y-102231787D01*
X241278116Y-102214787D01*
X241308009Y-102200649D01*
X241339143Y-102189509D01*
X241371219Y-102181475D01*
X241403929Y-102176623D01*
X241436956Y-102175000D01*
X242563044Y-102175000D01*
X242596071Y-102176623D01*
X242596071Y-102176623D01*
G37*
D16*
X242000000Y-102950000D03*
D12*
G36*
X242596071Y-104226623D02*
X242628781Y-104231475D01*
X242660857Y-104239509D01*
X242691991Y-104250649D01*
X242721884Y-104264787D01*
X242750247Y-104281787D01*
X242776807Y-104301485D01*
X242801308Y-104323692D01*
X242823515Y-104348193D01*
X242843213Y-104374753D01*
X242860213Y-104403116D01*
X242874351Y-104433009D01*
X242885491Y-104464143D01*
X242893525Y-104496219D01*
X242898377Y-104528929D01*
X242900000Y-104561956D01*
X242900000Y-105438044D01*
X242898377Y-105471071D01*
X242893525Y-105503781D01*
X242885491Y-105535857D01*
X242874351Y-105566991D01*
X242860213Y-105596884D01*
X242843213Y-105625247D01*
X242823515Y-105651807D01*
X242801308Y-105676308D01*
X242776807Y-105698515D01*
X242750247Y-105718213D01*
X242721884Y-105735213D01*
X242691991Y-105749351D01*
X242660857Y-105760491D01*
X242628781Y-105768525D01*
X242596071Y-105773377D01*
X242563044Y-105775000D01*
X241436956Y-105775000D01*
X241403929Y-105773377D01*
X241371219Y-105768525D01*
X241339143Y-105760491D01*
X241308009Y-105749351D01*
X241278116Y-105735213D01*
X241249753Y-105718213D01*
X241223193Y-105698515D01*
X241198692Y-105676308D01*
X241176485Y-105651807D01*
X241156787Y-105625247D01*
X241139787Y-105596884D01*
X241125649Y-105566991D01*
X241114509Y-105535857D01*
X241106475Y-105503781D01*
X241101623Y-105471071D01*
X241100000Y-105438044D01*
X241100000Y-104561956D01*
X241101623Y-104528929D01*
X241106475Y-104496219D01*
X241114509Y-104464143D01*
X241125649Y-104433009D01*
X241139787Y-104403116D01*
X241156787Y-104374753D01*
X241176485Y-104348193D01*
X241198692Y-104323692D01*
X241223193Y-104301485D01*
X241249753Y-104281787D01*
X241278116Y-104264787D01*
X241308009Y-104250649D01*
X241339143Y-104239509D01*
X241371219Y-104231475D01*
X241403929Y-104226623D01*
X241436956Y-104225000D01*
X242563044Y-104225000D01*
X242596071Y-104226623D01*
X242596071Y-104226623D01*
G37*
D16*
X242000000Y-105000000D03*
G04 #@! TD*
D14*
G04 #@! TO.C,D1*
X245000000Y-112460000D03*
D15*
X245000000Y-115000000D03*
G04 #@! TD*
G04 #@! TO.C,D2*
X245000000Y-109000000D03*
D14*
X245000000Y-106460000D03*
G04 #@! TD*
D20*
G04 #@! TO.C,J3*
X248080000Y-59460000D03*
X248080000Y-62000000D03*
X245540000Y-59460000D03*
X245540000Y-62000000D03*
X243000000Y-59460000D03*
D21*
X243000000Y-62000000D03*
G04 #@! TD*
D12*
G04 #@! TO.C,C4*
G36*
X242596071Y-97176623D02*
X242628781Y-97181475D01*
X242660857Y-97189509D01*
X242691991Y-97200649D01*
X242721884Y-97214787D01*
X242750247Y-97231787D01*
X242776807Y-97251485D01*
X242801308Y-97273692D01*
X242823515Y-97298193D01*
X242843213Y-97324753D01*
X242860213Y-97353116D01*
X242874351Y-97383009D01*
X242885491Y-97414143D01*
X242893525Y-97446219D01*
X242898377Y-97478929D01*
X242900000Y-97511956D01*
X242900000Y-98388044D01*
X242898377Y-98421071D01*
X242893525Y-98453781D01*
X242885491Y-98485857D01*
X242874351Y-98516991D01*
X242860213Y-98546884D01*
X242843213Y-98575247D01*
X242823515Y-98601807D01*
X242801308Y-98626308D01*
X242776807Y-98648515D01*
X242750247Y-98668213D01*
X242721884Y-98685213D01*
X242691991Y-98699351D01*
X242660857Y-98710491D01*
X242628781Y-98718525D01*
X242596071Y-98723377D01*
X242563044Y-98725000D01*
X241436956Y-98725000D01*
X241403929Y-98723377D01*
X241371219Y-98718525D01*
X241339143Y-98710491D01*
X241308009Y-98699351D01*
X241278116Y-98685213D01*
X241249753Y-98668213D01*
X241223193Y-98648515D01*
X241198692Y-98626308D01*
X241176485Y-98601807D01*
X241156787Y-98575247D01*
X241139787Y-98546884D01*
X241125649Y-98516991D01*
X241114509Y-98485857D01*
X241106475Y-98453781D01*
X241101623Y-98421071D01*
X241100000Y-98388044D01*
X241100000Y-97511956D01*
X241101623Y-97478929D01*
X241106475Y-97446219D01*
X241114509Y-97414143D01*
X241125649Y-97383009D01*
X241139787Y-97353116D01*
X241156787Y-97324753D01*
X241176485Y-97298193D01*
X241198692Y-97273692D01*
X241223193Y-97251485D01*
X241249753Y-97231787D01*
X241278116Y-97214787D01*
X241308009Y-97200649D01*
X241339143Y-97189509D01*
X241371219Y-97181475D01*
X241403929Y-97176623D01*
X241436956Y-97175000D01*
X242563044Y-97175000D01*
X242596071Y-97176623D01*
X242596071Y-97176623D01*
G37*
D16*
X242000000Y-97950000D03*
D12*
G36*
X242596071Y-99226623D02*
X242628781Y-99231475D01*
X242660857Y-99239509D01*
X242691991Y-99250649D01*
X242721884Y-99264787D01*
X242750247Y-99281787D01*
X242776807Y-99301485D01*
X242801308Y-99323692D01*
X242823515Y-99348193D01*
X242843213Y-99374753D01*
X242860213Y-99403116D01*
X242874351Y-99433009D01*
X242885491Y-99464143D01*
X242893525Y-99496219D01*
X242898377Y-99528929D01*
X242900000Y-99561956D01*
X242900000Y-100438044D01*
X242898377Y-100471071D01*
X242893525Y-100503781D01*
X242885491Y-100535857D01*
X242874351Y-100566991D01*
X242860213Y-100596884D01*
X242843213Y-100625247D01*
X242823515Y-100651807D01*
X242801308Y-100676308D01*
X242776807Y-100698515D01*
X242750247Y-100718213D01*
X242721884Y-100735213D01*
X242691991Y-100749351D01*
X242660857Y-100760491D01*
X242628781Y-100768525D01*
X242596071Y-100773377D01*
X242563044Y-100775000D01*
X241436956Y-100775000D01*
X241403929Y-100773377D01*
X241371219Y-100768525D01*
X241339143Y-100760491D01*
X241308009Y-100749351D01*
X241278116Y-100735213D01*
X241249753Y-100718213D01*
X241223193Y-100698515D01*
X241198692Y-100676308D01*
X241176485Y-100651807D01*
X241156787Y-100625247D01*
X241139787Y-100596884D01*
X241125649Y-100566991D01*
X241114509Y-100535857D01*
X241106475Y-100503781D01*
X241101623Y-100471071D01*
X241100000Y-100438044D01*
X241100000Y-99561956D01*
X241101623Y-99528929D01*
X241106475Y-99496219D01*
X241114509Y-99464143D01*
X241125649Y-99433009D01*
X241139787Y-99403116D01*
X241156787Y-99374753D01*
X241176485Y-99348193D01*
X241198692Y-99323692D01*
X241223193Y-99301485D01*
X241249753Y-99281787D01*
X241278116Y-99264787D01*
X241308009Y-99250649D01*
X241339143Y-99239509D01*
X241371219Y-99231475D01*
X241403929Y-99226623D01*
X241436956Y-99225000D01*
X242563044Y-99225000D01*
X242596071Y-99226623D01*
X242596071Y-99226623D01*
G37*
D16*
X242000000Y-100000000D03*
G04 #@! TD*
D22*
G04 #@! TO.C,J2*
X163500000Y-26000000D03*
D23*
X165250000Y-26000000D03*
X166750000Y-26000000D03*
X168250000Y-26000000D03*
X169750000Y-26000000D03*
X171250000Y-26000000D03*
X172750000Y-26000000D03*
X174250000Y-26000000D03*
X175750000Y-26000000D03*
X177250000Y-26000000D03*
X178750000Y-26000000D03*
X180250000Y-26000000D03*
X181750000Y-26000000D03*
X183250000Y-26000000D03*
X184750000Y-26000000D03*
X186250000Y-26000000D03*
X187750000Y-26000000D03*
X189250000Y-26000000D03*
X190750000Y-26000000D03*
X192250000Y-26000000D03*
X193750000Y-26000000D03*
X195250000Y-26000000D03*
X196750000Y-26000000D03*
X198250000Y-26000000D03*
X199750000Y-26000000D03*
X201250000Y-26000000D03*
X202750000Y-26000000D03*
X204250000Y-26000000D03*
X205750000Y-26000000D03*
X207250000Y-26000000D03*
X208750000Y-26000000D03*
D22*
X210500000Y-26000000D03*
G04 #@! TD*
D12*
G04 #@! TO.C,F1*
G36*
X164136207Y-35476542D02*
X164167287Y-35481152D01*
X164197766Y-35488787D01*
X164227350Y-35499372D01*
X164255754Y-35512806D01*
X164282704Y-35528959D01*
X164307942Y-35547677D01*
X164331223Y-35568777D01*
X164352323Y-35592058D01*
X164371041Y-35617296D01*
X164387194Y-35644246D01*
X164400628Y-35672650D01*
X164411213Y-35702234D01*
X164418848Y-35732713D01*
X164423458Y-35763793D01*
X164425000Y-35795176D01*
X164425000Y-38204824D01*
X164423458Y-38236207D01*
X164418848Y-38267287D01*
X164411213Y-38297766D01*
X164400628Y-38327350D01*
X164387194Y-38355754D01*
X164371041Y-38382704D01*
X164352323Y-38407942D01*
X164331223Y-38431223D01*
X164307942Y-38452323D01*
X164282704Y-38471041D01*
X164255754Y-38487194D01*
X164227350Y-38500628D01*
X164197766Y-38511213D01*
X164167287Y-38518848D01*
X164136207Y-38523458D01*
X164104824Y-38525000D01*
X162920176Y-38525000D01*
X162888793Y-38523458D01*
X162857713Y-38518848D01*
X162827234Y-38511213D01*
X162797650Y-38500628D01*
X162769246Y-38487194D01*
X162742296Y-38471041D01*
X162717058Y-38452323D01*
X162693777Y-38431223D01*
X162672677Y-38407942D01*
X162653959Y-38382704D01*
X162637806Y-38355754D01*
X162624372Y-38327350D01*
X162613787Y-38297766D01*
X162606152Y-38267287D01*
X162601542Y-38236207D01*
X162600000Y-38204824D01*
X162600000Y-35795176D01*
X162601542Y-35763793D01*
X162606152Y-35732713D01*
X162613787Y-35702234D01*
X162624372Y-35672650D01*
X162637806Y-35644246D01*
X162653959Y-35617296D01*
X162672677Y-35592058D01*
X162693777Y-35568777D01*
X162717058Y-35547677D01*
X162742296Y-35528959D01*
X162769246Y-35512806D01*
X162797650Y-35499372D01*
X162827234Y-35488787D01*
X162857713Y-35481152D01*
X162888793Y-35476542D01*
X162920176Y-35475000D01*
X164104824Y-35475000D01*
X164136207Y-35476542D01*
X164136207Y-35476542D01*
G37*
D13*
X163512500Y-37000000D03*
D12*
G36*
X167111207Y-35476542D02*
X167142287Y-35481152D01*
X167172766Y-35488787D01*
X167202350Y-35499372D01*
X167230754Y-35512806D01*
X167257704Y-35528959D01*
X167282942Y-35547677D01*
X167306223Y-35568777D01*
X167327323Y-35592058D01*
X167346041Y-35617296D01*
X167362194Y-35644246D01*
X167375628Y-35672650D01*
X167386213Y-35702234D01*
X167393848Y-35732713D01*
X167398458Y-35763793D01*
X167400000Y-35795176D01*
X167400000Y-38204824D01*
X167398458Y-38236207D01*
X167393848Y-38267287D01*
X167386213Y-38297766D01*
X167375628Y-38327350D01*
X167362194Y-38355754D01*
X167346041Y-38382704D01*
X167327323Y-38407942D01*
X167306223Y-38431223D01*
X167282942Y-38452323D01*
X167257704Y-38471041D01*
X167230754Y-38487194D01*
X167202350Y-38500628D01*
X167172766Y-38511213D01*
X167142287Y-38518848D01*
X167111207Y-38523458D01*
X167079824Y-38525000D01*
X165895176Y-38525000D01*
X165863793Y-38523458D01*
X165832713Y-38518848D01*
X165802234Y-38511213D01*
X165772650Y-38500628D01*
X165744246Y-38487194D01*
X165717296Y-38471041D01*
X165692058Y-38452323D01*
X165668777Y-38431223D01*
X165647677Y-38407942D01*
X165628959Y-38382704D01*
X165612806Y-38355754D01*
X165599372Y-38327350D01*
X165588787Y-38297766D01*
X165581152Y-38267287D01*
X165576542Y-38236207D01*
X165575000Y-38204824D01*
X165575000Y-35795176D01*
X165576542Y-35763793D01*
X165581152Y-35732713D01*
X165588787Y-35702234D01*
X165599372Y-35672650D01*
X165612806Y-35644246D01*
X165628959Y-35617296D01*
X165647677Y-35592058D01*
X165668777Y-35568777D01*
X165692058Y-35547677D01*
X165717296Y-35528959D01*
X165744246Y-35512806D01*
X165772650Y-35499372D01*
X165802234Y-35488787D01*
X165832713Y-35481152D01*
X165863793Y-35476542D01*
X165895176Y-35475000D01*
X167079824Y-35475000D01*
X167111207Y-35476542D01*
X167111207Y-35476542D01*
G37*
D13*
X166487500Y-37000000D03*
G04 #@! TD*
D14*
G04 #@! TO.C,D3*
X173540000Y-40000000D03*
D15*
X171000000Y-40000000D03*
G04 #@! TD*
D12*
G04 #@! TO.C,R1*
G36*
X186521071Y-30101623D02*
X186553781Y-30106475D01*
X186585857Y-30114509D01*
X186616991Y-30125649D01*
X186646884Y-30139787D01*
X186675247Y-30156787D01*
X186701807Y-30176485D01*
X186726308Y-30198692D01*
X186748515Y-30223193D01*
X186768213Y-30249753D01*
X186785213Y-30278116D01*
X186799351Y-30308009D01*
X186810491Y-30339143D01*
X186818525Y-30371219D01*
X186823377Y-30403929D01*
X186825000Y-30436956D01*
X186825000Y-31563044D01*
X186823377Y-31596071D01*
X186818525Y-31628781D01*
X186810491Y-31660857D01*
X186799351Y-31691991D01*
X186785213Y-31721884D01*
X186768213Y-31750247D01*
X186748515Y-31776807D01*
X186726308Y-31801308D01*
X186701807Y-31823515D01*
X186675247Y-31843213D01*
X186646884Y-31860213D01*
X186616991Y-31874351D01*
X186585857Y-31885491D01*
X186553781Y-31893525D01*
X186521071Y-31898377D01*
X186488044Y-31900000D01*
X185611956Y-31900000D01*
X185578929Y-31898377D01*
X185546219Y-31893525D01*
X185514143Y-31885491D01*
X185483009Y-31874351D01*
X185453116Y-31860213D01*
X185424753Y-31843213D01*
X185398193Y-31823515D01*
X185373692Y-31801308D01*
X185351485Y-31776807D01*
X185331787Y-31750247D01*
X185314787Y-31721884D01*
X185300649Y-31691991D01*
X185289509Y-31660857D01*
X185281475Y-31628781D01*
X185276623Y-31596071D01*
X185275000Y-31563044D01*
X185275000Y-30436956D01*
X185276623Y-30403929D01*
X185281475Y-30371219D01*
X185289509Y-30339143D01*
X185300649Y-30308009D01*
X185314787Y-30278116D01*
X185331787Y-30249753D01*
X185351485Y-30223193D01*
X185373692Y-30198692D01*
X185398193Y-30176485D01*
X185424753Y-30156787D01*
X185453116Y-30139787D01*
X185483009Y-30125649D01*
X185514143Y-30114509D01*
X185546219Y-30106475D01*
X185578929Y-30101623D01*
X185611956Y-30100000D01*
X186488044Y-30100000D01*
X186521071Y-30101623D01*
X186521071Y-30101623D01*
G37*
D16*
X186050000Y-31000000D03*
D12*
G36*
X184471071Y-30101623D02*
X184503781Y-30106475D01*
X184535857Y-30114509D01*
X184566991Y-30125649D01*
X184596884Y-30139787D01*
X184625247Y-30156787D01*
X184651807Y-30176485D01*
X184676308Y-30198692D01*
X184698515Y-30223193D01*
X184718213Y-30249753D01*
X184735213Y-30278116D01*
X184749351Y-30308009D01*
X184760491Y-30339143D01*
X184768525Y-30371219D01*
X184773377Y-30403929D01*
X184775000Y-30436956D01*
X184775000Y-31563044D01*
X184773377Y-31596071D01*
X184768525Y-31628781D01*
X184760491Y-31660857D01*
X184749351Y-31691991D01*
X184735213Y-31721884D01*
X184718213Y-31750247D01*
X184698515Y-31776807D01*
X184676308Y-31801308D01*
X184651807Y-31823515D01*
X184625247Y-31843213D01*
X184596884Y-31860213D01*
X184566991Y-31874351D01*
X184535857Y-31885491D01*
X184503781Y-31893525D01*
X184471071Y-31898377D01*
X184438044Y-31900000D01*
X183561956Y-31900000D01*
X183528929Y-31898377D01*
X183496219Y-31893525D01*
X183464143Y-31885491D01*
X183433009Y-31874351D01*
X183403116Y-31860213D01*
X183374753Y-31843213D01*
X183348193Y-31823515D01*
X183323692Y-31801308D01*
X183301485Y-31776807D01*
X183281787Y-31750247D01*
X183264787Y-31721884D01*
X183250649Y-31691991D01*
X183239509Y-31660857D01*
X183231475Y-31628781D01*
X183226623Y-31596071D01*
X183225000Y-31563044D01*
X183225000Y-30436956D01*
X183226623Y-30403929D01*
X183231475Y-30371219D01*
X183239509Y-30339143D01*
X183250649Y-30308009D01*
X183264787Y-30278116D01*
X183281787Y-30249753D01*
X183301485Y-30223193D01*
X183323692Y-30198692D01*
X183348193Y-30176485D01*
X183374753Y-30156787D01*
X183403116Y-30139787D01*
X183433009Y-30125649D01*
X183464143Y-30114509D01*
X183496219Y-30106475D01*
X183528929Y-30101623D01*
X183561956Y-30100000D01*
X184438044Y-30100000D01*
X184471071Y-30101623D01*
X184471071Y-30101623D01*
G37*
D16*
X184000000Y-31000000D03*
G04 #@! TD*
D17*
G04 #@! TO.C,U1*
X165000000Y-18760000D03*
X213260000Y-34000000D03*
X167540000Y-18760000D03*
X210720000Y-34000000D03*
X170080000Y-18760000D03*
X208180000Y-34000000D03*
X172620000Y-18760000D03*
X205640000Y-34000000D03*
X175160000Y-18760000D03*
X203100000Y-34000000D03*
X177700000Y-18760000D03*
X200560000Y-34000000D03*
X180240000Y-18760000D03*
X198020000Y-34000000D03*
X182780000Y-18760000D03*
X195480000Y-34000000D03*
X185320000Y-18760000D03*
X192940000Y-34000000D03*
X187860000Y-18760000D03*
X190400000Y-34000000D03*
X190400000Y-18760000D03*
X187860000Y-34000000D03*
X192940000Y-18760000D03*
X185320000Y-34000000D03*
X195480000Y-18760000D03*
X182780000Y-34000000D03*
X198020000Y-18760000D03*
X180240000Y-34000000D03*
X200560000Y-18760000D03*
X177700000Y-34000000D03*
X203100000Y-18760000D03*
X175160000Y-34000000D03*
X205640000Y-18760000D03*
X172620000Y-34000000D03*
X208180000Y-18760000D03*
X170080000Y-34000000D03*
X210720000Y-18760000D03*
X167540000Y-34000000D03*
X213260000Y-18760000D03*
D18*
X165000000Y-34000000D03*
G04 #@! TD*
D15*
G04 #@! TO.C,D4*
X177000000Y-40000000D03*
D14*
X179540000Y-40000000D03*
G04 #@! TD*
D24*
G04 #@! TO.C,U2*
X183775000Y-44600000D03*
X184425000Y-44600000D03*
X185075000Y-44600000D03*
X185725000Y-44600000D03*
X186375000Y-44600000D03*
X187025000Y-44600000D03*
X187675000Y-44600000D03*
X188325000Y-44600000D03*
X188975000Y-44600000D03*
X189625000Y-44600000D03*
X190275000Y-44600000D03*
X190925000Y-44600000D03*
X191575000Y-44600000D03*
X192225000Y-44600000D03*
X192225000Y-37400000D03*
X191575000Y-37400000D03*
X190925000Y-37400000D03*
X190275000Y-37400000D03*
X189625000Y-37400000D03*
X188975000Y-37400000D03*
X188325000Y-37400000D03*
X187675000Y-37400000D03*
X187025000Y-37400000D03*
X186375000Y-37400000D03*
X185725000Y-37400000D03*
X185075000Y-37400000D03*
X184425000Y-37400000D03*
X183775000Y-37400000D03*
G04 #@! TD*
D12*
G04 #@! TO.C,C5*
G36*
X171521071Y-36101623D02*
X171553781Y-36106475D01*
X171585857Y-36114509D01*
X171616991Y-36125649D01*
X171646884Y-36139787D01*
X171675247Y-36156787D01*
X171701807Y-36176485D01*
X171726308Y-36198692D01*
X171748515Y-36223193D01*
X171768213Y-36249753D01*
X171785213Y-36278116D01*
X171799351Y-36308009D01*
X171810491Y-36339143D01*
X171818525Y-36371219D01*
X171823377Y-36403929D01*
X171825000Y-36436956D01*
X171825000Y-37563044D01*
X171823377Y-37596071D01*
X171818525Y-37628781D01*
X171810491Y-37660857D01*
X171799351Y-37691991D01*
X171785213Y-37721884D01*
X171768213Y-37750247D01*
X171748515Y-37776807D01*
X171726308Y-37801308D01*
X171701807Y-37823515D01*
X171675247Y-37843213D01*
X171646884Y-37860213D01*
X171616991Y-37874351D01*
X171585857Y-37885491D01*
X171553781Y-37893525D01*
X171521071Y-37898377D01*
X171488044Y-37900000D01*
X170611956Y-37900000D01*
X170578929Y-37898377D01*
X170546219Y-37893525D01*
X170514143Y-37885491D01*
X170483009Y-37874351D01*
X170453116Y-37860213D01*
X170424753Y-37843213D01*
X170398193Y-37823515D01*
X170373692Y-37801308D01*
X170351485Y-37776807D01*
X170331787Y-37750247D01*
X170314787Y-37721884D01*
X170300649Y-37691991D01*
X170289509Y-37660857D01*
X170281475Y-37628781D01*
X170276623Y-37596071D01*
X170275000Y-37563044D01*
X170275000Y-36436956D01*
X170276623Y-36403929D01*
X170281475Y-36371219D01*
X170289509Y-36339143D01*
X170300649Y-36308009D01*
X170314787Y-36278116D01*
X170331787Y-36249753D01*
X170351485Y-36223193D01*
X170373692Y-36198692D01*
X170398193Y-36176485D01*
X170424753Y-36156787D01*
X170453116Y-36139787D01*
X170483009Y-36125649D01*
X170514143Y-36114509D01*
X170546219Y-36106475D01*
X170578929Y-36101623D01*
X170611956Y-36100000D01*
X171488044Y-36100000D01*
X171521071Y-36101623D01*
X171521071Y-36101623D01*
G37*
D16*
X171050000Y-37000000D03*
D12*
G36*
X169471071Y-36101623D02*
X169503781Y-36106475D01*
X169535857Y-36114509D01*
X169566991Y-36125649D01*
X169596884Y-36139787D01*
X169625247Y-36156787D01*
X169651807Y-36176485D01*
X169676308Y-36198692D01*
X169698515Y-36223193D01*
X169718213Y-36249753D01*
X169735213Y-36278116D01*
X169749351Y-36308009D01*
X169760491Y-36339143D01*
X169768525Y-36371219D01*
X169773377Y-36403929D01*
X169775000Y-36436956D01*
X169775000Y-37563044D01*
X169773377Y-37596071D01*
X169768525Y-37628781D01*
X169760491Y-37660857D01*
X169749351Y-37691991D01*
X169735213Y-37721884D01*
X169718213Y-37750247D01*
X169698515Y-37776807D01*
X169676308Y-37801308D01*
X169651807Y-37823515D01*
X169625247Y-37843213D01*
X169596884Y-37860213D01*
X169566991Y-37874351D01*
X169535857Y-37885491D01*
X169503781Y-37893525D01*
X169471071Y-37898377D01*
X169438044Y-37900000D01*
X168561956Y-37900000D01*
X168528929Y-37898377D01*
X168496219Y-37893525D01*
X168464143Y-37885491D01*
X168433009Y-37874351D01*
X168403116Y-37860213D01*
X168374753Y-37843213D01*
X168348193Y-37823515D01*
X168323692Y-37801308D01*
X168301485Y-37776807D01*
X168281787Y-37750247D01*
X168264787Y-37721884D01*
X168250649Y-37691991D01*
X168239509Y-37660857D01*
X168231475Y-37628781D01*
X168226623Y-37596071D01*
X168225000Y-37563044D01*
X168225000Y-36436956D01*
X168226623Y-36403929D01*
X168231475Y-36371219D01*
X168239509Y-36339143D01*
X168250649Y-36308009D01*
X168264787Y-36278116D01*
X168281787Y-36249753D01*
X168301485Y-36223193D01*
X168323692Y-36198692D01*
X168348193Y-36176485D01*
X168374753Y-36156787D01*
X168403116Y-36139787D01*
X168433009Y-36125649D01*
X168464143Y-36114509D01*
X168496219Y-36106475D01*
X168528929Y-36101623D01*
X168561956Y-36100000D01*
X169438044Y-36100000D01*
X169471071Y-36101623D01*
X169471071Y-36101623D01*
G37*
D16*
X169000000Y-37000000D03*
G04 #@! TD*
D14*
G04 #@! TO.C,D1*
X161540000Y-40000000D03*
D15*
X159000000Y-40000000D03*
G04 #@! TD*
G04 #@! TO.C,D2*
X165000000Y-40000000D03*
D14*
X167540000Y-40000000D03*
G04 #@! TD*
D20*
G04 #@! TO.C,J3*
X214540000Y-43080000D03*
X212000000Y-43080000D03*
X214540000Y-40540000D03*
X212000000Y-40540000D03*
X214540000Y-38000000D03*
D21*
X212000000Y-38000000D03*
G04 #@! TD*
D12*
G04 #@! TO.C,C4*
G36*
X176521071Y-36101623D02*
X176553781Y-36106475D01*
X176585857Y-36114509D01*
X176616991Y-36125649D01*
X176646884Y-36139787D01*
X176675247Y-36156787D01*
X176701807Y-36176485D01*
X176726308Y-36198692D01*
X176748515Y-36223193D01*
X176768213Y-36249753D01*
X176785213Y-36278116D01*
X176799351Y-36308009D01*
X176810491Y-36339143D01*
X176818525Y-36371219D01*
X176823377Y-36403929D01*
X176825000Y-36436956D01*
X176825000Y-37563044D01*
X176823377Y-37596071D01*
X176818525Y-37628781D01*
X176810491Y-37660857D01*
X176799351Y-37691991D01*
X176785213Y-37721884D01*
X176768213Y-37750247D01*
X176748515Y-37776807D01*
X176726308Y-37801308D01*
X176701807Y-37823515D01*
X176675247Y-37843213D01*
X176646884Y-37860213D01*
X176616991Y-37874351D01*
X176585857Y-37885491D01*
X176553781Y-37893525D01*
X176521071Y-37898377D01*
X176488044Y-37900000D01*
X175611956Y-37900000D01*
X175578929Y-37898377D01*
X175546219Y-37893525D01*
X175514143Y-37885491D01*
X175483009Y-37874351D01*
X175453116Y-37860213D01*
X175424753Y-37843213D01*
X175398193Y-37823515D01*
X175373692Y-37801308D01*
X175351485Y-37776807D01*
X175331787Y-37750247D01*
X175314787Y-37721884D01*
X175300649Y-37691991D01*
X175289509Y-37660857D01*
X175281475Y-37628781D01*
X175276623Y-37596071D01*
X175275000Y-37563044D01*
X175275000Y-36436956D01*
X175276623Y-36403929D01*
X175281475Y-36371219D01*
X175289509Y-36339143D01*
X175300649Y-36308009D01*
X175314787Y-36278116D01*
X175331787Y-36249753D01*
X175351485Y-36223193D01*
X175373692Y-36198692D01*
X175398193Y-36176485D01*
X175424753Y-36156787D01*
X175453116Y-36139787D01*
X175483009Y-36125649D01*
X175514143Y-36114509D01*
X175546219Y-36106475D01*
X175578929Y-36101623D01*
X175611956Y-36100000D01*
X176488044Y-36100000D01*
X176521071Y-36101623D01*
X176521071Y-36101623D01*
G37*
D16*
X176050000Y-37000000D03*
D12*
G36*
X174471071Y-36101623D02*
X174503781Y-36106475D01*
X174535857Y-36114509D01*
X174566991Y-36125649D01*
X174596884Y-36139787D01*
X174625247Y-36156787D01*
X174651807Y-36176485D01*
X174676308Y-36198692D01*
X174698515Y-36223193D01*
X174718213Y-36249753D01*
X174735213Y-36278116D01*
X174749351Y-36308009D01*
X174760491Y-36339143D01*
X174768525Y-36371219D01*
X174773377Y-36403929D01*
X174775000Y-36436956D01*
X174775000Y-37563044D01*
X174773377Y-37596071D01*
X174768525Y-37628781D01*
X174760491Y-37660857D01*
X174749351Y-37691991D01*
X174735213Y-37721884D01*
X174718213Y-37750247D01*
X174698515Y-37776807D01*
X174676308Y-37801308D01*
X174651807Y-37823515D01*
X174625247Y-37843213D01*
X174596884Y-37860213D01*
X174566991Y-37874351D01*
X174535857Y-37885491D01*
X174503781Y-37893525D01*
X174471071Y-37898377D01*
X174438044Y-37900000D01*
X173561956Y-37900000D01*
X173528929Y-37898377D01*
X173496219Y-37893525D01*
X173464143Y-37885491D01*
X173433009Y-37874351D01*
X173403116Y-37860213D01*
X173374753Y-37843213D01*
X173348193Y-37823515D01*
X173323692Y-37801308D01*
X173301485Y-37776807D01*
X173281787Y-37750247D01*
X173264787Y-37721884D01*
X173250649Y-37691991D01*
X173239509Y-37660857D01*
X173231475Y-37628781D01*
X173226623Y-37596071D01*
X173225000Y-37563044D01*
X173225000Y-36436956D01*
X173226623Y-36403929D01*
X173231475Y-36371219D01*
X173239509Y-36339143D01*
X173250649Y-36308009D01*
X173264787Y-36278116D01*
X173281787Y-36249753D01*
X173301485Y-36223193D01*
X173323692Y-36198692D01*
X173348193Y-36176485D01*
X173374753Y-36156787D01*
X173403116Y-36139787D01*
X173433009Y-36125649D01*
X173464143Y-36114509D01*
X173496219Y-36106475D01*
X173528929Y-36101623D01*
X173561956Y-36100000D01*
X174438044Y-36100000D01*
X174471071Y-36101623D01*
X174471071Y-36101623D01*
G37*
D16*
X174000000Y-37000000D03*
G04 #@! TD*
D22*
G04 #@! TO.C,J2*
X163500000Y-61000000D03*
D23*
X165250000Y-61000000D03*
X166750000Y-61000000D03*
X168250000Y-61000000D03*
X169750000Y-61000000D03*
X171250000Y-61000000D03*
X172750000Y-61000000D03*
X174250000Y-61000000D03*
X175750000Y-61000000D03*
X177250000Y-61000000D03*
X178750000Y-61000000D03*
X180250000Y-61000000D03*
X181750000Y-61000000D03*
X183250000Y-61000000D03*
X184750000Y-61000000D03*
X186250000Y-61000000D03*
X187750000Y-61000000D03*
X189250000Y-61000000D03*
X190750000Y-61000000D03*
X192250000Y-61000000D03*
X193750000Y-61000000D03*
X195250000Y-61000000D03*
X196750000Y-61000000D03*
X198250000Y-61000000D03*
X199750000Y-61000000D03*
X201250000Y-61000000D03*
X202750000Y-61000000D03*
X204250000Y-61000000D03*
X205750000Y-61000000D03*
X207250000Y-61000000D03*
X208750000Y-61000000D03*
D22*
X210500000Y-61000000D03*
G04 #@! TD*
D12*
G04 #@! TO.C,F1*
G36*
X164136207Y-70476542D02*
X164167287Y-70481152D01*
X164197766Y-70488787D01*
X164227350Y-70499372D01*
X164255754Y-70512806D01*
X164282704Y-70528959D01*
X164307942Y-70547677D01*
X164331223Y-70568777D01*
X164352323Y-70592058D01*
X164371041Y-70617296D01*
X164387194Y-70644246D01*
X164400628Y-70672650D01*
X164411213Y-70702234D01*
X164418848Y-70732713D01*
X164423458Y-70763793D01*
X164425000Y-70795176D01*
X164425000Y-73204824D01*
X164423458Y-73236207D01*
X164418848Y-73267287D01*
X164411213Y-73297766D01*
X164400628Y-73327350D01*
X164387194Y-73355754D01*
X164371041Y-73382704D01*
X164352323Y-73407942D01*
X164331223Y-73431223D01*
X164307942Y-73452323D01*
X164282704Y-73471041D01*
X164255754Y-73487194D01*
X164227350Y-73500628D01*
X164197766Y-73511213D01*
X164167287Y-73518848D01*
X164136207Y-73523458D01*
X164104824Y-73525000D01*
X162920176Y-73525000D01*
X162888793Y-73523458D01*
X162857713Y-73518848D01*
X162827234Y-73511213D01*
X162797650Y-73500628D01*
X162769246Y-73487194D01*
X162742296Y-73471041D01*
X162717058Y-73452323D01*
X162693777Y-73431223D01*
X162672677Y-73407942D01*
X162653959Y-73382704D01*
X162637806Y-73355754D01*
X162624372Y-73327350D01*
X162613787Y-73297766D01*
X162606152Y-73267287D01*
X162601542Y-73236207D01*
X162600000Y-73204824D01*
X162600000Y-70795176D01*
X162601542Y-70763793D01*
X162606152Y-70732713D01*
X162613787Y-70702234D01*
X162624372Y-70672650D01*
X162637806Y-70644246D01*
X162653959Y-70617296D01*
X162672677Y-70592058D01*
X162693777Y-70568777D01*
X162717058Y-70547677D01*
X162742296Y-70528959D01*
X162769246Y-70512806D01*
X162797650Y-70499372D01*
X162827234Y-70488787D01*
X162857713Y-70481152D01*
X162888793Y-70476542D01*
X162920176Y-70475000D01*
X164104824Y-70475000D01*
X164136207Y-70476542D01*
X164136207Y-70476542D01*
G37*
D13*
X163512500Y-72000000D03*
D12*
G36*
X167111207Y-70476542D02*
X167142287Y-70481152D01*
X167172766Y-70488787D01*
X167202350Y-70499372D01*
X167230754Y-70512806D01*
X167257704Y-70528959D01*
X167282942Y-70547677D01*
X167306223Y-70568777D01*
X167327323Y-70592058D01*
X167346041Y-70617296D01*
X167362194Y-70644246D01*
X167375628Y-70672650D01*
X167386213Y-70702234D01*
X167393848Y-70732713D01*
X167398458Y-70763793D01*
X167400000Y-70795176D01*
X167400000Y-73204824D01*
X167398458Y-73236207D01*
X167393848Y-73267287D01*
X167386213Y-73297766D01*
X167375628Y-73327350D01*
X167362194Y-73355754D01*
X167346041Y-73382704D01*
X167327323Y-73407942D01*
X167306223Y-73431223D01*
X167282942Y-73452323D01*
X167257704Y-73471041D01*
X167230754Y-73487194D01*
X167202350Y-73500628D01*
X167172766Y-73511213D01*
X167142287Y-73518848D01*
X167111207Y-73523458D01*
X167079824Y-73525000D01*
X165895176Y-73525000D01*
X165863793Y-73523458D01*
X165832713Y-73518848D01*
X165802234Y-73511213D01*
X165772650Y-73500628D01*
X165744246Y-73487194D01*
X165717296Y-73471041D01*
X165692058Y-73452323D01*
X165668777Y-73431223D01*
X165647677Y-73407942D01*
X165628959Y-73382704D01*
X165612806Y-73355754D01*
X165599372Y-73327350D01*
X165588787Y-73297766D01*
X165581152Y-73267287D01*
X165576542Y-73236207D01*
X165575000Y-73204824D01*
X165575000Y-70795176D01*
X165576542Y-70763793D01*
X165581152Y-70732713D01*
X165588787Y-70702234D01*
X165599372Y-70672650D01*
X165612806Y-70644246D01*
X165628959Y-70617296D01*
X165647677Y-70592058D01*
X165668777Y-70568777D01*
X165692058Y-70547677D01*
X165717296Y-70528959D01*
X165744246Y-70512806D01*
X165772650Y-70499372D01*
X165802234Y-70488787D01*
X165832713Y-70481152D01*
X165863793Y-70476542D01*
X165895176Y-70475000D01*
X167079824Y-70475000D01*
X167111207Y-70476542D01*
X167111207Y-70476542D01*
G37*
D13*
X166487500Y-72000000D03*
G04 #@! TD*
D14*
G04 #@! TO.C,D3*
X173540000Y-75000000D03*
D15*
X171000000Y-75000000D03*
G04 #@! TD*
D12*
G04 #@! TO.C,R1*
G36*
X186521071Y-65101623D02*
X186553781Y-65106475D01*
X186585857Y-65114509D01*
X186616991Y-65125649D01*
X186646884Y-65139787D01*
X186675247Y-65156787D01*
X186701807Y-65176485D01*
X186726308Y-65198692D01*
X186748515Y-65223193D01*
X186768213Y-65249753D01*
X186785213Y-65278116D01*
X186799351Y-65308009D01*
X186810491Y-65339143D01*
X186818525Y-65371219D01*
X186823377Y-65403929D01*
X186825000Y-65436956D01*
X186825000Y-66563044D01*
X186823377Y-66596071D01*
X186818525Y-66628781D01*
X186810491Y-66660857D01*
X186799351Y-66691991D01*
X186785213Y-66721884D01*
X186768213Y-66750247D01*
X186748515Y-66776807D01*
X186726308Y-66801308D01*
X186701807Y-66823515D01*
X186675247Y-66843213D01*
X186646884Y-66860213D01*
X186616991Y-66874351D01*
X186585857Y-66885491D01*
X186553781Y-66893525D01*
X186521071Y-66898377D01*
X186488044Y-66900000D01*
X185611956Y-66900000D01*
X185578929Y-66898377D01*
X185546219Y-66893525D01*
X185514143Y-66885491D01*
X185483009Y-66874351D01*
X185453116Y-66860213D01*
X185424753Y-66843213D01*
X185398193Y-66823515D01*
X185373692Y-66801308D01*
X185351485Y-66776807D01*
X185331787Y-66750247D01*
X185314787Y-66721884D01*
X185300649Y-66691991D01*
X185289509Y-66660857D01*
X185281475Y-66628781D01*
X185276623Y-66596071D01*
X185275000Y-66563044D01*
X185275000Y-65436956D01*
X185276623Y-65403929D01*
X185281475Y-65371219D01*
X185289509Y-65339143D01*
X185300649Y-65308009D01*
X185314787Y-65278116D01*
X185331787Y-65249753D01*
X185351485Y-65223193D01*
X185373692Y-65198692D01*
X185398193Y-65176485D01*
X185424753Y-65156787D01*
X185453116Y-65139787D01*
X185483009Y-65125649D01*
X185514143Y-65114509D01*
X185546219Y-65106475D01*
X185578929Y-65101623D01*
X185611956Y-65100000D01*
X186488044Y-65100000D01*
X186521071Y-65101623D01*
X186521071Y-65101623D01*
G37*
D16*
X186050000Y-66000000D03*
D12*
G36*
X184471071Y-65101623D02*
X184503781Y-65106475D01*
X184535857Y-65114509D01*
X184566991Y-65125649D01*
X184596884Y-65139787D01*
X184625247Y-65156787D01*
X184651807Y-65176485D01*
X184676308Y-65198692D01*
X184698515Y-65223193D01*
X184718213Y-65249753D01*
X184735213Y-65278116D01*
X184749351Y-65308009D01*
X184760491Y-65339143D01*
X184768525Y-65371219D01*
X184773377Y-65403929D01*
X184775000Y-65436956D01*
X184775000Y-66563044D01*
X184773377Y-66596071D01*
X184768525Y-66628781D01*
X184760491Y-66660857D01*
X184749351Y-66691991D01*
X184735213Y-66721884D01*
X184718213Y-66750247D01*
X184698515Y-66776807D01*
X184676308Y-66801308D01*
X184651807Y-66823515D01*
X184625247Y-66843213D01*
X184596884Y-66860213D01*
X184566991Y-66874351D01*
X184535857Y-66885491D01*
X184503781Y-66893525D01*
X184471071Y-66898377D01*
X184438044Y-66900000D01*
X183561956Y-66900000D01*
X183528929Y-66898377D01*
X183496219Y-66893525D01*
X183464143Y-66885491D01*
X183433009Y-66874351D01*
X183403116Y-66860213D01*
X183374753Y-66843213D01*
X183348193Y-66823515D01*
X183323692Y-66801308D01*
X183301485Y-66776807D01*
X183281787Y-66750247D01*
X183264787Y-66721884D01*
X183250649Y-66691991D01*
X183239509Y-66660857D01*
X183231475Y-66628781D01*
X183226623Y-66596071D01*
X183225000Y-66563044D01*
X183225000Y-65436956D01*
X183226623Y-65403929D01*
X183231475Y-65371219D01*
X183239509Y-65339143D01*
X183250649Y-65308009D01*
X183264787Y-65278116D01*
X183281787Y-65249753D01*
X183301485Y-65223193D01*
X183323692Y-65198692D01*
X183348193Y-65176485D01*
X183374753Y-65156787D01*
X183403116Y-65139787D01*
X183433009Y-65125649D01*
X183464143Y-65114509D01*
X183496219Y-65106475D01*
X183528929Y-65101623D01*
X183561956Y-65100000D01*
X184438044Y-65100000D01*
X184471071Y-65101623D01*
X184471071Y-65101623D01*
G37*
D16*
X184000000Y-66000000D03*
G04 #@! TD*
D17*
G04 #@! TO.C,U1*
X165000000Y-53760000D03*
X213260000Y-69000000D03*
X167540000Y-53760000D03*
X210720000Y-69000000D03*
X170080000Y-53760000D03*
X208180000Y-69000000D03*
X172620000Y-53760000D03*
X205640000Y-69000000D03*
X175160000Y-53760000D03*
X203100000Y-69000000D03*
X177700000Y-53760000D03*
X200560000Y-69000000D03*
X180240000Y-53760000D03*
X198020000Y-69000000D03*
X182780000Y-53760000D03*
X195480000Y-69000000D03*
X185320000Y-53760000D03*
X192940000Y-69000000D03*
X187860000Y-53760000D03*
X190400000Y-69000000D03*
X190400000Y-53760000D03*
X187860000Y-69000000D03*
X192940000Y-53760000D03*
X185320000Y-69000000D03*
X195480000Y-53760000D03*
X182780000Y-69000000D03*
X198020000Y-53760000D03*
X180240000Y-69000000D03*
X200560000Y-53760000D03*
X177700000Y-69000000D03*
X203100000Y-53760000D03*
X175160000Y-69000000D03*
X205640000Y-53760000D03*
X172620000Y-69000000D03*
X208180000Y-53760000D03*
X170080000Y-69000000D03*
X210720000Y-53760000D03*
X167540000Y-69000000D03*
X213260000Y-53760000D03*
D18*
X165000000Y-69000000D03*
G04 #@! TD*
D15*
G04 #@! TO.C,D4*
X177000000Y-75000000D03*
D14*
X179540000Y-75000000D03*
G04 #@! TD*
D24*
G04 #@! TO.C,U2*
X183775000Y-79600000D03*
X184425000Y-79600000D03*
X185075000Y-79600000D03*
X185725000Y-79600000D03*
X186375000Y-79600000D03*
X187025000Y-79600000D03*
X187675000Y-79600000D03*
X188325000Y-79600000D03*
X188975000Y-79600000D03*
X189625000Y-79600000D03*
X190275000Y-79600000D03*
X190925000Y-79600000D03*
X191575000Y-79600000D03*
X192225000Y-79600000D03*
X192225000Y-72400000D03*
X191575000Y-72400000D03*
X190925000Y-72400000D03*
X190275000Y-72400000D03*
X189625000Y-72400000D03*
X188975000Y-72400000D03*
X188325000Y-72400000D03*
X187675000Y-72400000D03*
X187025000Y-72400000D03*
X186375000Y-72400000D03*
X185725000Y-72400000D03*
X185075000Y-72400000D03*
X184425000Y-72400000D03*
X183775000Y-72400000D03*
G04 #@! TD*
D12*
G04 #@! TO.C,C5*
G36*
X171521071Y-71101623D02*
X171553781Y-71106475D01*
X171585857Y-71114509D01*
X171616991Y-71125649D01*
X171646884Y-71139787D01*
X171675247Y-71156787D01*
X171701807Y-71176485D01*
X171726308Y-71198692D01*
X171748515Y-71223193D01*
X171768213Y-71249753D01*
X171785213Y-71278116D01*
X171799351Y-71308009D01*
X171810491Y-71339143D01*
X171818525Y-71371219D01*
X171823377Y-71403929D01*
X171825000Y-71436956D01*
X171825000Y-72563044D01*
X171823377Y-72596071D01*
X171818525Y-72628781D01*
X171810491Y-72660857D01*
X171799351Y-72691991D01*
X171785213Y-72721884D01*
X171768213Y-72750247D01*
X171748515Y-72776807D01*
X171726308Y-72801308D01*
X171701807Y-72823515D01*
X171675247Y-72843213D01*
X171646884Y-72860213D01*
X171616991Y-72874351D01*
X171585857Y-72885491D01*
X171553781Y-72893525D01*
X171521071Y-72898377D01*
X171488044Y-72900000D01*
X170611956Y-72900000D01*
X170578929Y-72898377D01*
X170546219Y-72893525D01*
X170514143Y-72885491D01*
X170483009Y-72874351D01*
X170453116Y-72860213D01*
X170424753Y-72843213D01*
X170398193Y-72823515D01*
X170373692Y-72801308D01*
X170351485Y-72776807D01*
X170331787Y-72750247D01*
X170314787Y-72721884D01*
X170300649Y-72691991D01*
X170289509Y-72660857D01*
X170281475Y-72628781D01*
X170276623Y-72596071D01*
X170275000Y-72563044D01*
X170275000Y-71436956D01*
X170276623Y-71403929D01*
X170281475Y-71371219D01*
X170289509Y-71339143D01*
X170300649Y-71308009D01*
X170314787Y-71278116D01*
X170331787Y-71249753D01*
X170351485Y-71223193D01*
X170373692Y-71198692D01*
X170398193Y-71176485D01*
X170424753Y-71156787D01*
X170453116Y-71139787D01*
X170483009Y-71125649D01*
X170514143Y-71114509D01*
X170546219Y-71106475D01*
X170578929Y-71101623D01*
X170611956Y-71100000D01*
X171488044Y-71100000D01*
X171521071Y-71101623D01*
X171521071Y-71101623D01*
G37*
D16*
X171050000Y-72000000D03*
D12*
G36*
X169471071Y-71101623D02*
X169503781Y-71106475D01*
X169535857Y-71114509D01*
X169566991Y-71125649D01*
X169596884Y-71139787D01*
X169625247Y-71156787D01*
X169651807Y-71176485D01*
X169676308Y-71198692D01*
X169698515Y-71223193D01*
X169718213Y-71249753D01*
X169735213Y-71278116D01*
X169749351Y-71308009D01*
X169760491Y-71339143D01*
X169768525Y-71371219D01*
X169773377Y-71403929D01*
X169775000Y-71436956D01*
X169775000Y-72563044D01*
X169773377Y-72596071D01*
X169768525Y-72628781D01*
X169760491Y-72660857D01*
X169749351Y-72691991D01*
X169735213Y-72721884D01*
X169718213Y-72750247D01*
X169698515Y-72776807D01*
X169676308Y-72801308D01*
X169651807Y-72823515D01*
X169625247Y-72843213D01*
X169596884Y-72860213D01*
X169566991Y-72874351D01*
X169535857Y-72885491D01*
X169503781Y-72893525D01*
X169471071Y-72898377D01*
X169438044Y-72900000D01*
X168561956Y-72900000D01*
X168528929Y-72898377D01*
X168496219Y-72893525D01*
X168464143Y-72885491D01*
X168433009Y-72874351D01*
X168403116Y-72860213D01*
X168374753Y-72843213D01*
X168348193Y-72823515D01*
X168323692Y-72801308D01*
X168301485Y-72776807D01*
X168281787Y-72750247D01*
X168264787Y-72721884D01*
X168250649Y-72691991D01*
X168239509Y-72660857D01*
X168231475Y-72628781D01*
X168226623Y-72596071D01*
X168225000Y-72563044D01*
X168225000Y-71436956D01*
X168226623Y-71403929D01*
X168231475Y-71371219D01*
X168239509Y-71339143D01*
X168250649Y-71308009D01*
X168264787Y-71278116D01*
X168281787Y-71249753D01*
X168301485Y-71223193D01*
X168323692Y-71198692D01*
X168348193Y-71176485D01*
X168374753Y-71156787D01*
X168403116Y-71139787D01*
X168433009Y-71125649D01*
X168464143Y-71114509D01*
X168496219Y-71106475D01*
X168528929Y-71101623D01*
X168561956Y-71100000D01*
X169438044Y-71100000D01*
X169471071Y-71101623D01*
X169471071Y-71101623D01*
G37*
D16*
X169000000Y-72000000D03*
G04 #@! TD*
D14*
G04 #@! TO.C,D1*
X161540000Y-75000000D03*
D15*
X159000000Y-75000000D03*
G04 #@! TD*
G04 #@! TO.C,D2*
X165000000Y-75000000D03*
D14*
X167540000Y-75000000D03*
G04 #@! TD*
D20*
G04 #@! TO.C,J3*
X214540000Y-78080000D03*
X212000000Y-78080000D03*
X214540000Y-75540000D03*
X212000000Y-75540000D03*
X214540000Y-73000000D03*
D21*
X212000000Y-73000000D03*
G04 #@! TD*
D12*
G04 #@! TO.C,C4*
G36*
X176521071Y-71101623D02*
X176553781Y-71106475D01*
X176585857Y-71114509D01*
X176616991Y-71125649D01*
X176646884Y-71139787D01*
X176675247Y-71156787D01*
X176701807Y-71176485D01*
X176726308Y-71198692D01*
X176748515Y-71223193D01*
X176768213Y-71249753D01*
X176785213Y-71278116D01*
X176799351Y-71308009D01*
X176810491Y-71339143D01*
X176818525Y-71371219D01*
X176823377Y-71403929D01*
X176825000Y-71436956D01*
X176825000Y-72563044D01*
X176823377Y-72596071D01*
X176818525Y-72628781D01*
X176810491Y-72660857D01*
X176799351Y-72691991D01*
X176785213Y-72721884D01*
X176768213Y-72750247D01*
X176748515Y-72776807D01*
X176726308Y-72801308D01*
X176701807Y-72823515D01*
X176675247Y-72843213D01*
X176646884Y-72860213D01*
X176616991Y-72874351D01*
X176585857Y-72885491D01*
X176553781Y-72893525D01*
X176521071Y-72898377D01*
X176488044Y-72900000D01*
X175611956Y-72900000D01*
X175578929Y-72898377D01*
X175546219Y-72893525D01*
X175514143Y-72885491D01*
X175483009Y-72874351D01*
X175453116Y-72860213D01*
X175424753Y-72843213D01*
X175398193Y-72823515D01*
X175373692Y-72801308D01*
X175351485Y-72776807D01*
X175331787Y-72750247D01*
X175314787Y-72721884D01*
X175300649Y-72691991D01*
X175289509Y-72660857D01*
X175281475Y-72628781D01*
X175276623Y-72596071D01*
X175275000Y-72563044D01*
X175275000Y-71436956D01*
X175276623Y-71403929D01*
X175281475Y-71371219D01*
X175289509Y-71339143D01*
X175300649Y-71308009D01*
X175314787Y-71278116D01*
X175331787Y-71249753D01*
X175351485Y-71223193D01*
X175373692Y-71198692D01*
X175398193Y-71176485D01*
X175424753Y-71156787D01*
X175453116Y-71139787D01*
X175483009Y-71125649D01*
X175514143Y-71114509D01*
X175546219Y-71106475D01*
X175578929Y-71101623D01*
X175611956Y-71100000D01*
X176488044Y-71100000D01*
X176521071Y-71101623D01*
X176521071Y-71101623D01*
G37*
D16*
X176050000Y-72000000D03*
D12*
G36*
X174471071Y-71101623D02*
X174503781Y-71106475D01*
X174535857Y-71114509D01*
X174566991Y-71125649D01*
X174596884Y-71139787D01*
X174625247Y-71156787D01*
X174651807Y-71176485D01*
X174676308Y-71198692D01*
X174698515Y-71223193D01*
X174718213Y-71249753D01*
X174735213Y-71278116D01*
X174749351Y-71308009D01*
X174760491Y-71339143D01*
X174768525Y-71371219D01*
X174773377Y-71403929D01*
X174775000Y-71436956D01*
X174775000Y-72563044D01*
X174773377Y-72596071D01*
X174768525Y-72628781D01*
X174760491Y-72660857D01*
X174749351Y-72691991D01*
X174735213Y-72721884D01*
X174718213Y-72750247D01*
X174698515Y-72776807D01*
X174676308Y-72801308D01*
X174651807Y-72823515D01*
X174625247Y-72843213D01*
X174596884Y-72860213D01*
X174566991Y-72874351D01*
X174535857Y-72885491D01*
X174503781Y-72893525D01*
X174471071Y-72898377D01*
X174438044Y-72900000D01*
X173561956Y-72900000D01*
X173528929Y-72898377D01*
X173496219Y-72893525D01*
X173464143Y-72885491D01*
X173433009Y-72874351D01*
X173403116Y-72860213D01*
X173374753Y-72843213D01*
X173348193Y-72823515D01*
X173323692Y-72801308D01*
X173301485Y-72776807D01*
X173281787Y-72750247D01*
X173264787Y-72721884D01*
X173250649Y-72691991D01*
X173239509Y-72660857D01*
X173231475Y-72628781D01*
X173226623Y-72596071D01*
X173225000Y-72563044D01*
X173225000Y-71436956D01*
X173226623Y-71403929D01*
X173231475Y-71371219D01*
X173239509Y-71339143D01*
X173250649Y-71308009D01*
X173264787Y-71278116D01*
X173281787Y-71249753D01*
X173301485Y-71223193D01*
X173323692Y-71198692D01*
X173348193Y-71176485D01*
X173374753Y-71156787D01*
X173403116Y-71139787D01*
X173433009Y-71125649D01*
X173464143Y-71114509D01*
X173496219Y-71106475D01*
X173528929Y-71101623D01*
X173561956Y-71100000D01*
X174438044Y-71100000D01*
X174471071Y-71101623D01*
X174471071Y-71101623D01*
G37*
D16*
X174000000Y-72000000D03*
G04 #@! TD*
D12*
G04 #@! TO.C,C4*
G36*
X174471071Y-106101623D02*
X174503781Y-106106475D01*
X174535857Y-106114509D01*
X174566991Y-106125649D01*
X174596884Y-106139787D01*
X174625247Y-106156787D01*
X174651807Y-106176485D01*
X174676308Y-106198692D01*
X174698515Y-106223193D01*
X174718213Y-106249753D01*
X174735213Y-106278116D01*
X174749351Y-106308009D01*
X174760491Y-106339143D01*
X174768525Y-106371219D01*
X174773377Y-106403929D01*
X174775000Y-106436956D01*
X174775000Y-107563044D01*
X174773377Y-107596071D01*
X174768525Y-107628781D01*
X174760491Y-107660857D01*
X174749351Y-107691991D01*
X174735213Y-107721884D01*
X174718213Y-107750247D01*
X174698515Y-107776807D01*
X174676308Y-107801308D01*
X174651807Y-107823515D01*
X174625247Y-107843213D01*
X174596884Y-107860213D01*
X174566991Y-107874351D01*
X174535857Y-107885491D01*
X174503781Y-107893525D01*
X174471071Y-107898377D01*
X174438044Y-107900000D01*
X173561956Y-107900000D01*
X173528929Y-107898377D01*
X173496219Y-107893525D01*
X173464143Y-107885491D01*
X173433009Y-107874351D01*
X173403116Y-107860213D01*
X173374753Y-107843213D01*
X173348193Y-107823515D01*
X173323692Y-107801308D01*
X173301485Y-107776807D01*
X173281787Y-107750247D01*
X173264787Y-107721884D01*
X173250649Y-107691991D01*
X173239509Y-107660857D01*
X173231475Y-107628781D01*
X173226623Y-107596071D01*
X173225000Y-107563044D01*
X173225000Y-106436956D01*
X173226623Y-106403929D01*
X173231475Y-106371219D01*
X173239509Y-106339143D01*
X173250649Y-106308009D01*
X173264787Y-106278116D01*
X173281787Y-106249753D01*
X173301485Y-106223193D01*
X173323692Y-106198692D01*
X173348193Y-106176485D01*
X173374753Y-106156787D01*
X173403116Y-106139787D01*
X173433009Y-106125649D01*
X173464143Y-106114509D01*
X173496219Y-106106475D01*
X173528929Y-106101623D01*
X173561956Y-106100000D01*
X174438044Y-106100000D01*
X174471071Y-106101623D01*
X174471071Y-106101623D01*
G37*
D16*
X174000000Y-107000000D03*
D12*
G36*
X176521071Y-106101623D02*
X176553781Y-106106475D01*
X176585857Y-106114509D01*
X176616991Y-106125649D01*
X176646884Y-106139787D01*
X176675247Y-106156787D01*
X176701807Y-106176485D01*
X176726308Y-106198692D01*
X176748515Y-106223193D01*
X176768213Y-106249753D01*
X176785213Y-106278116D01*
X176799351Y-106308009D01*
X176810491Y-106339143D01*
X176818525Y-106371219D01*
X176823377Y-106403929D01*
X176825000Y-106436956D01*
X176825000Y-107563044D01*
X176823377Y-107596071D01*
X176818525Y-107628781D01*
X176810491Y-107660857D01*
X176799351Y-107691991D01*
X176785213Y-107721884D01*
X176768213Y-107750247D01*
X176748515Y-107776807D01*
X176726308Y-107801308D01*
X176701807Y-107823515D01*
X176675247Y-107843213D01*
X176646884Y-107860213D01*
X176616991Y-107874351D01*
X176585857Y-107885491D01*
X176553781Y-107893525D01*
X176521071Y-107898377D01*
X176488044Y-107900000D01*
X175611956Y-107900000D01*
X175578929Y-107898377D01*
X175546219Y-107893525D01*
X175514143Y-107885491D01*
X175483009Y-107874351D01*
X175453116Y-107860213D01*
X175424753Y-107843213D01*
X175398193Y-107823515D01*
X175373692Y-107801308D01*
X175351485Y-107776807D01*
X175331787Y-107750247D01*
X175314787Y-107721884D01*
X175300649Y-107691991D01*
X175289509Y-107660857D01*
X175281475Y-107628781D01*
X175276623Y-107596071D01*
X175275000Y-107563044D01*
X175275000Y-106436956D01*
X175276623Y-106403929D01*
X175281475Y-106371219D01*
X175289509Y-106339143D01*
X175300649Y-106308009D01*
X175314787Y-106278116D01*
X175331787Y-106249753D01*
X175351485Y-106223193D01*
X175373692Y-106198692D01*
X175398193Y-106176485D01*
X175424753Y-106156787D01*
X175453116Y-106139787D01*
X175483009Y-106125649D01*
X175514143Y-106114509D01*
X175546219Y-106106475D01*
X175578929Y-106101623D01*
X175611956Y-106100000D01*
X176488044Y-106100000D01*
X176521071Y-106101623D01*
X176521071Y-106101623D01*
G37*
D16*
X176050000Y-107000000D03*
G04 #@! TD*
D12*
G04 #@! TO.C,C5*
G36*
X169471071Y-106101623D02*
X169503781Y-106106475D01*
X169535857Y-106114509D01*
X169566991Y-106125649D01*
X169596884Y-106139787D01*
X169625247Y-106156787D01*
X169651807Y-106176485D01*
X169676308Y-106198692D01*
X169698515Y-106223193D01*
X169718213Y-106249753D01*
X169735213Y-106278116D01*
X169749351Y-106308009D01*
X169760491Y-106339143D01*
X169768525Y-106371219D01*
X169773377Y-106403929D01*
X169775000Y-106436956D01*
X169775000Y-107563044D01*
X169773377Y-107596071D01*
X169768525Y-107628781D01*
X169760491Y-107660857D01*
X169749351Y-107691991D01*
X169735213Y-107721884D01*
X169718213Y-107750247D01*
X169698515Y-107776807D01*
X169676308Y-107801308D01*
X169651807Y-107823515D01*
X169625247Y-107843213D01*
X169596884Y-107860213D01*
X169566991Y-107874351D01*
X169535857Y-107885491D01*
X169503781Y-107893525D01*
X169471071Y-107898377D01*
X169438044Y-107900000D01*
X168561956Y-107900000D01*
X168528929Y-107898377D01*
X168496219Y-107893525D01*
X168464143Y-107885491D01*
X168433009Y-107874351D01*
X168403116Y-107860213D01*
X168374753Y-107843213D01*
X168348193Y-107823515D01*
X168323692Y-107801308D01*
X168301485Y-107776807D01*
X168281787Y-107750247D01*
X168264787Y-107721884D01*
X168250649Y-107691991D01*
X168239509Y-107660857D01*
X168231475Y-107628781D01*
X168226623Y-107596071D01*
X168225000Y-107563044D01*
X168225000Y-106436956D01*
X168226623Y-106403929D01*
X168231475Y-106371219D01*
X168239509Y-106339143D01*
X168250649Y-106308009D01*
X168264787Y-106278116D01*
X168281787Y-106249753D01*
X168301485Y-106223193D01*
X168323692Y-106198692D01*
X168348193Y-106176485D01*
X168374753Y-106156787D01*
X168403116Y-106139787D01*
X168433009Y-106125649D01*
X168464143Y-106114509D01*
X168496219Y-106106475D01*
X168528929Y-106101623D01*
X168561956Y-106100000D01*
X169438044Y-106100000D01*
X169471071Y-106101623D01*
X169471071Y-106101623D01*
G37*
D16*
X169000000Y-107000000D03*
D12*
G36*
X171521071Y-106101623D02*
X171553781Y-106106475D01*
X171585857Y-106114509D01*
X171616991Y-106125649D01*
X171646884Y-106139787D01*
X171675247Y-106156787D01*
X171701807Y-106176485D01*
X171726308Y-106198692D01*
X171748515Y-106223193D01*
X171768213Y-106249753D01*
X171785213Y-106278116D01*
X171799351Y-106308009D01*
X171810491Y-106339143D01*
X171818525Y-106371219D01*
X171823377Y-106403929D01*
X171825000Y-106436956D01*
X171825000Y-107563044D01*
X171823377Y-107596071D01*
X171818525Y-107628781D01*
X171810491Y-107660857D01*
X171799351Y-107691991D01*
X171785213Y-107721884D01*
X171768213Y-107750247D01*
X171748515Y-107776807D01*
X171726308Y-107801308D01*
X171701807Y-107823515D01*
X171675247Y-107843213D01*
X171646884Y-107860213D01*
X171616991Y-107874351D01*
X171585857Y-107885491D01*
X171553781Y-107893525D01*
X171521071Y-107898377D01*
X171488044Y-107900000D01*
X170611956Y-107900000D01*
X170578929Y-107898377D01*
X170546219Y-107893525D01*
X170514143Y-107885491D01*
X170483009Y-107874351D01*
X170453116Y-107860213D01*
X170424753Y-107843213D01*
X170398193Y-107823515D01*
X170373692Y-107801308D01*
X170351485Y-107776807D01*
X170331787Y-107750247D01*
X170314787Y-107721884D01*
X170300649Y-107691991D01*
X170289509Y-107660857D01*
X170281475Y-107628781D01*
X170276623Y-107596071D01*
X170275000Y-107563044D01*
X170275000Y-106436956D01*
X170276623Y-106403929D01*
X170281475Y-106371219D01*
X170289509Y-106339143D01*
X170300649Y-106308009D01*
X170314787Y-106278116D01*
X170331787Y-106249753D01*
X170351485Y-106223193D01*
X170373692Y-106198692D01*
X170398193Y-106176485D01*
X170424753Y-106156787D01*
X170453116Y-106139787D01*
X170483009Y-106125649D01*
X170514143Y-106114509D01*
X170546219Y-106106475D01*
X170578929Y-106101623D01*
X170611956Y-106100000D01*
X171488044Y-106100000D01*
X171521071Y-106101623D01*
X171521071Y-106101623D01*
G37*
D16*
X171050000Y-107000000D03*
G04 #@! TD*
D15*
G04 #@! TO.C,D1*
X159000000Y-110000000D03*
D14*
X161540000Y-110000000D03*
G04 #@! TD*
G04 #@! TO.C,D2*
X167540000Y-110000000D03*
D15*
X165000000Y-110000000D03*
G04 #@! TD*
G04 #@! TO.C,D3*
X171000000Y-110000000D03*
D14*
X173540000Y-110000000D03*
G04 #@! TD*
G04 #@! TO.C,D4*
X179540000Y-110000000D03*
D15*
X177000000Y-110000000D03*
G04 #@! TD*
D12*
G04 #@! TO.C,F1*
G36*
X167111207Y-105476542D02*
X167142287Y-105481152D01*
X167172766Y-105488787D01*
X167202350Y-105499372D01*
X167230754Y-105512806D01*
X167257704Y-105528959D01*
X167282942Y-105547677D01*
X167306223Y-105568777D01*
X167327323Y-105592058D01*
X167346041Y-105617296D01*
X167362194Y-105644246D01*
X167375628Y-105672650D01*
X167386213Y-105702234D01*
X167393848Y-105732713D01*
X167398458Y-105763793D01*
X167400000Y-105795176D01*
X167400000Y-108204824D01*
X167398458Y-108236207D01*
X167393848Y-108267287D01*
X167386213Y-108297766D01*
X167375628Y-108327350D01*
X167362194Y-108355754D01*
X167346041Y-108382704D01*
X167327323Y-108407942D01*
X167306223Y-108431223D01*
X167282942Y-108452323D01*
X167257704Y-108471041D01*
X167230754Y-108487194D01*
X167202350Y-108500628D01*
X167172766Y-108511213D01*
X167142287Y-108518848D01*
X167111207Y-108523458D01*
X167079824Y-108525000D01*
X165895176Y-108525000D01*
X165863793Y-108523458D01*
X165832713Y-108518848D01*
X165802234Y-108511213D01*
X165772650Y-108500628D01*
X165744246Y-108487194D01*
X165717296Y-108471041D01*
X165692058Y-108452323D01*
X165668777Y-108431223D01*
X165647677Y-108407942D01*
X165628959Y-108382704D01*
X165612806Y-108355754D01*
X165599372Y-108327350D01*
X165588787Y-108297766D01*
X165581152Y-108267287D01*
X165576542Y-108236207D01*
X165575000Y-108204824D01*
X165575000Y-105795176D01*
X165576542Y-105763793D01*
X165581152Y-105732713D01*
X165588787Y-105702234D01*
X165599372Y-105672650D01*
X165612806Y-105644246D01*
X165628959Y-105617296D01*
X165647677Y-105592058D01*
X165668777Y-105568777D01*
X165692058Y-105547677D01*
X165717296Y-105528959D01*
X165744246Y-105512806D01*
X165772650Y-105499372D01*
X165802234Y-105488787D01*
X165832713Y-105481152D01*
X165863793Y-105476542D01*
X165895176Y-105475000D01*
X167079824Y-105475000D01*
X167111207Y-105476542D01*
X167111207Y-105476542D01*
G37*
D13*
X166487500Y-107000000D03*
D12*
G36*
X164136207Y-105476542D02*
X164167287Y-105481152D01*
X164197766Y-105488787D01*
X164227350Y-105499372D01*
X164255754Y-105512806D01*
X164282704Y-105528959D01*
X164307942Y-105547677D01*
X164331223Y-105568777D01*
X164352323Y-105592058D01*
X164371041Y-105617296D01*
X164387194Y-105644246D01*
X164400628Y-105672650D01*
X164411213Y-105702234D01*
X164418848Y-105732713D01*
X164423458Y-105763793D01*
X164425000Y-105795176D01*
X164425000Y-108204824D01*
X164423458Y-108236207D01*
X164418848Y-108267287D01*
X164411213Y-108297766D01*
X164400628Y-108327350D01*
X164387194Y-108355754D01*
X164371041Y-108382704D01*
X164352323Y-108407942D01*
X164331223Y-108431223D01*
X164307942Y-108452323D01*
X164282704Y-108471041D01*
X164255754Y-108487194D01*
X164227350Y-108500628D01*
X164197766Y-108511213D01*
X164167287Y-108518848D01*
X164136207Y-108523458D01*
X164104824Y-108525000D01*
X162920176Y-108525000D01*
X162888793Y-108523458D01*
X162857713Y-108518848D01*
X162827234Y-108511213D01*
X162797650Y-108500628D01*
X162769246Y-108487194D01*
X162742296Y-108471041D01*
X162717058Y-108452323D01*
X162693777Y-108431223D01*
X162672677Y-108407942D01*
X162653959Y-108382704D01*
X162637806Y-108355754D01*
X162624372Y-108327350D01*
X162613787Y-108297766D01*
X162606152Y-108267287D01*
X162601542Y-108236207D01*
X162600000Y-108204824D01*
X162600000Y-105795176D01*
X162601542Y-105763793D01*
X162606152Y-105732713D01*
X162613787Y-105702234D01*
X162624372Y-105672650D01*
X162637806Y-105644246D01*
X162653959Y-105617296D01*
X162672677Y-105592058D01*
X162693777Y-105568777D01*
X162717058Y-105547677D01*
X162742296Y-105528959D01*
X162769246Y-105512806D01*
X162797650Y-105499372D01*
X162827234Y-105488787D01*
X162857713Y-105481152D01*
X162888793Y-105476542D01*
X162920176Y-105475000D01*
X164104824Y-105475000D01*
X164136207Y-105476542D01*
X164136207Y-105476542D01*
G37*
D13*
X163512500Y-107000000D03*
G04 #@! TD*
D12*
G04 #@! TO.C,R1*
G36*
X184471071Y-100101623D02*
X184503781Y-100106475D01*
X184535857Y-100114509D01*
X184566991Y-100125649D01*
X184596884Y-100139787D01*
X184625247Y-100156787D01*
X184651807Y-100176485D01*
X184676308Y-100198692D01*
X184698515Y-100223193D01*
X184718213Y-100249753D01*
X184735213Y-100278116D01*
X184749351Y-100308009D01*
X184760491Y-100339143D01*
X184768525Y-100371219D01*
X184773377Y-100403929D01*
X184775000Y-100436956D01*
X184775000Y-101563044D01*
X184773377Y-101596071D01*
X184768525Y-101628781D01*
X184760491Y-101660857D01*
X184749351Y-101691991D01*
X184735213Y-101721884D01*
X184718213Y-101750247D01*
X184698515Y-101776807D01*
X184676308Y-101801308D01*
X184651807Y-101823515D01*
X184625247Y-101843213D01*
X184596884Y-101860213D01*
X184566991Y-101874351D01*
X184535857Y-101885491D01*
X184503781Y-101893525D01*
X184471071Y-101898377D01*
X184438044Y-101900000D01*
X183561956Y-101900000D01*
X183528929Y-101898377D01*
X183496219Y-101893525D01*
X183464143Y-101885491D01*
X183433009Y-101874351D01*
X183403116Y-101860213D01*
X183374753Y-101843213D01*
X183348193Y-101823515D01*
X183323692Y-101801308D01*
X183301485Y-101776807D01*
X183281787Y-101750247D01*
X183264787Y-101721884D01*
X183250649Y-101691991D01*
X183239509Y-101660857D01*
X183231475Y-101628781D01*
X183226623Y-101596071D01*
X183225000Y-101563044D01*
X183225000Y-100436956D01*
X183226623Y-100403929D01*
X183231475Y-100371219D01*
X183239509Y-100339143D01*
X183250649Y-100308009D01*
X183264787Y-100278116D01*
X183281787Y-100249753D01*
X183301485Y-100223193D01*
X183323692Y-100198692D01*
X183348193Y-100176485D01*
X183374753Y-100156787D01*
X183403116Y-100139787D01*
X183433009Y-100125649D01*
X183464143Y-100114509D01*
X183496219Y-100106475D01*
X183528929Y-100101623D01*
X183561956Y-100100000D01*
X184438044Y-100100000D01*
X184471071Y-100101623D01*
X184471071Y-100101623D01*
G37*
D16*
X184000000Y-101000000D03*
D12*
G36*
X186521071Y-100101623D02*
X186553781Y-100106475D01*
X186585857Y-100114509D01*
X186616991Y-100125649D01*
X186646884Y-100139787D01*
X186675247Y-100156787D01*
X186701807Y-100176485D01*
X186726308Y-100198692D01*
X186748515Y-100223193D01*
X186768213Y-100249753D01*
X186785213Y-100278116D01*
X186799351Y-100308009D01*
X186810491Y-100339143D01*
X186818525Y-100371219D01*
X186823377Y-100403929D01*
X186825000Y-100436956D01*
X186825000Y-101563044D01*
X186823377Y-101596071D01*
X186818525Y-101628781D01*
X186810491Y-101660857D01*
X186799351Y-101691991D01*
X186785213Y-101721884D01*
X186768213Y-101750247D01*
X186748515Y-101776807D01*
X186726308Y-101801308D01*
X186701807Y-101823515D01*
X186675247Y-101843213D01*
X186646884Y-101860213D01*
X186616991Y-101874351D01*
X186585857Y-101885491D01*
X186553781Y-101893525D01*
X186521071Y-101898377D01*
X186488044Y-101900000D01*
X185611956Y-101900000D01*
X185578929Y-101898377D01*
X185546219Y-101893525D01*
X185514143Y-101885491D01*
X185483009Y-101874351D01*
X185453116Y-101860213D01*
X185424753Y-101843213D01*
X185398193Y-101823515D01*
X185373692Y-101801308D01*
X185351485Y-101776807D01*
X185331787Y-101750247D01*
X185314787Y-101721884D01*
X185300649Y-101691991D01*
X185289509Y-101660857D01*
X185281475Y-101628781D01*
X185276623Y-101596071D01*
X185275000Y-101563044D01*
X185275000Y-100436956D01*
X185276623Y-100403929D01*
X185281475Y-100371219D01*
X185289509Y-100339143D01*
X185300649Y-100308009D01*
X185314787Y-100278116D01*
X185331787Y-100249753D01*
X185351485Y-100223193D01*
X185373692Y-100198692D01*
X185398193Y-100176485D01*
X185424753Y-100156787D01*
X185453116Y-100139787D01*
X185483009Y-100125649D01*
X185514143Y-100114509D01*
X185546219Y-100106475D01*
X185578929Y-100101623D01*
X185611956Y-100100000D01*
X186488044Y-100100000D01*
X186521071Y-100101623D01*
X186521071Y-100101623D01*
G37*
D16*
X186050000Y-101000000D03*
G04 #@! TD*
D18*
G04 #@! TO.C,U1*
X165000000Y-104000000D03*
D17*
X213260000Y-88760000D03*
X167540000Y-104000000D03*
X210720000Y-88760000D03*
X170080000Y-104000000D03*
X208180000Y-88760000D03*
X172620000Y-104000000D03*
X205640000Y-88760000D03*
X175160000Y-104000000D03*
X203100000Y-88760000D03*
X177700000Y-104000000D03*
X200560000Y-88760000D03*
X180240000Y-104000000D03*
X198020000Y-88760000D03*
X182780000Y-104000000D03*
X195480000Y-88760000D03*
X185320000Y-104000000D03*
X192940000Y-88760000D03*
X187860000Y-104000000D03*
X190400000Y-88760000D03*
X190400000Y-104000000D03*
X187860000Y-88760000D03*
X192940000Y-104000000D03*
X185320000Y-88760000D03*
X195480000Y-104000000D03*
X182780000Y-88760000D03*
X198020000Y-104000000D03*
X180240000Y-88760000D03*
X200560000Y-104000000D03*
X177700000Y-88760000D03*
X203100000Y-104000000D03*
X175160000Y-88760000D03*
X205640000Y-104000000D03*
X172620000Y-88760000D03*
X208180000Y-104000000D03*
X170080000Y-88760000D03*
X210720000Y-104000000D03*
X167540000Y-88760000D03*
X213260000Y-104000000D03*
X165000000Y-88760000D03*
G04 #@! TD*
D24*
G04 #@! TO.C,U2*
X183775000Y-107400000D03*
X184425000Y-107400000D03*
X185075000Y-107400000D03*
X185725000Y-107400000D03*
X186375000Y-107400000D03*
X187025000Y-107400000D03*
X187675000Y-107400000D03*
X188325000Y-107400000D03*
X188975000Y-107400000D03*
X189625000Y-107400000D03*
X190275000Y-107400000D03*
X190925000Y-107400000D03*
X191575000Y-107400000D03*
X192225000Y-107400000D03*
X192225000Y-114600000D03*
X191575000Y-114600000D03*
X190925000Y-114600000D03*
X190275000Y-114600000D03*
X189625000Y-114600000D03*
X188975000Y-114600000D03*
X188325000Y-114600000D03*
X187675000Y-114600000D03*
X187025000Y-114600000D03*
X186375000Y-114600000D03*
X185725000Y-114600000D03*
X185075000Y-114600000D03*
X184425000Y-114600000D03*
X183775000Y-114600000D03*
G04 #@! TD*
D21*
G04 #@! TO.C,J3*
X212000000Y-108000000D03*
D20*
X214540000Y-108000000D03*
X212000000Y-110540000D03*
X214540000Y-110540000D03*
X212000000Y-113080000D03*
X214540000Y-113080000D03*
G04 #@! TD*
D22*
G04 #@! TO.C,J2*
X210500000Y-96000000D03*
D23*
X208750000Y-96000000D03*
X207250000Y-96000000D03*
X205750000Y-96000000D03*
X204250000Y-96000000D03*
X202750000Y-96000000D03*
X201250000Y-96000000D03*
X199750000Y-96000000D03*
X198250000Y-96000000D03*
X196750000Y-96000000D03*
X195250000Y-96000000D03*
X193750000Y-96000000D03*
X192250000Y-96000000D03*
X190750000Y-96000000D03*
X189250000Y-96000000D03*
X187750000Y-96000000D03*
X186250000Y-96000000D03*
X184750000Y-96000000D03*
X183250000Y-96000000D03*
X181750000Y-96000000D03*
X180250000Y-96000000D03*
X178750000Y-96000000D03*
X177250000Y-96000000D03*
X175750000Y-96000000D03*
X174250000Y-96000000D03*
X172750000Y-96000000D03*
X171250000Y-96000000D03*
X169750000Y-96000000D03*
X168250000Y-96000000D03*
X166750000Y-96000000D03*
X165250000Y-96000000D03*
D22*
X163500000Y-96000000D03*
G04 #@! TD*
M02*
